<svg width="288" height="324" viewBox="0 0 288 324" fill="none" xmlns="http://www.w3.org/2000/svg">
<rect y="95" width="199" height="134" fill="white"/>
<path d="M287 162L126 323L245 162L126 1L287 162Z" fill="#C4C4C4" stroke="white"/>
<path d="M8.56055 107.755H11.1885C11.1357 108.616 10.8984 109.381 10.4766 110.049C10.0605 110.717 9.47754 111.238 8.72754 111.613C7.9834 111.988 7.08691 112.176 6.03809 112.176C5.21777 112.176 4.48242 112.035 3.83203 111.754C3.18164 111.467 2.625 111.057 2.16211 110.523C1.70508 109.99 1.35645 109.346 1.11621 108.59C0.875977 107.834 0.755859 106.987 0.755859 106.05V105.162C0.755859 104.225 0.878906 103.378 1.125 102.622C1.37695 101.86 1.73438 101.213 2.19727 100.68C2.66602 100.146 3.22559 99.7363 3.87598 99.4492C4.52637 99.1621 5.25293 99.0186 6.05566 99.0186C7.12207 99.0186 8.02148 99.2119 8.75391 99.5986C9.49219 99.9854 10.0635 100.519 10.4678 101.198C10.8779 101.878 11.124 102.651 11.2061 103.519H8.56934C8.54004 103.003 8.4375 102.566 8.26172 102.209C8.08594 101.846 7.81934 101.573 7.46191 101.392C7.11035 101.204 6.6416 101.11 6.05566 101.11C5.61621 101.11 5.23242 101.192 4.9043 101.356C4.57617 101.521 4.30078 101.77 4.07812 102.104C3.85547 102.438 3.68848 102.859 3.57715 103.369C3.47168 103.873 3.41895 104.465 3.41895 105.145V106.05C3.41895 106.712 3.46875 107.295 3.56836 107.799C3.66797 108.297 3.82031 108.719 4.02539 109.064C4.23633 109.404 4.50586 109.662 4.83398 109.838C5.16797 110.008 5.56934 110.093 6.03809 110.093C6.58887 110.093 7.04297 110.005 7.40039 109.829C7.75781 109.653 8.03027 109.393 8.21777 109.047C8.41113 108.701 8.52539 108.271 8.56055 107.755ZM15.4336 98.5V112H12.8936V98.5H15.4336ZM20.1973 102.49V112H17.6572V102.49H20.1973ZM17.499 100.012C17.499 99.6426 17.6279 99.3379 17.8857 99.0977C18.1436 98.8574 18.4893 98.7373 18.9229 98.7373C19.3506 98.7373 19.6934 98.8574 19.9512 99.0977C20.2148 99.3379 20.3467 99.6426 20.3467 100.012C20.3467 100.381 20.2148 100.686 19.9512 100.926C19.6934 101.166 19.3506 101.286 18.9229 101.286C18.4893 101.286 18.1436 101.166 17.8857 100.926C17.6279 100.686 17.499 100.381 17.499 100.012ZM26.2178 110.198C26.5283 110.198 26.8037 110.14 27.0439 110.022C27.2842 109.899 27.4717 109.729 27.6064 109.513C27.7471 109.29 27.8203 109.029 27.8262 108.73H30.208C30.2021 109.398 30.0234 109.993 29.6719 110.515C29.3203 111.03 28.8486 111.438 28.2568 111.736C27.665 112.029 27.0029 112.176 26.2705 112.176C25.5322 112.176 24.8877 112.053 24.3369 111.807C23.792 111.561 23.3379 111.221 22.9746 110.787C22.6113 110.348 22.3389 109.838 22.1572 109.258C21.9756 108.672 21.8848 108.045 21.8848 107.377V107.122C21.8848 106.448 21.9756 105.821 22.1572 105.241C22.3389 104.655 22.6113 104.146 22.9746 103.712C23.3379 103.272 23.792 102.93 24.3369 102.684C24.8818 102.438 25.5205 102.314 26.2529 102.314C27.0322 102.314 27.7148 102.464 28.3008 102.763C28.8926 103.062 29.3555 103.489 29.6895 104.046C30.0293 104.597 30.2021 105.25 30.208 106.006H27.8262C27.8203 105.689 27.7529 105.402 27.624 105.145C27.501 104.887 27.3193 104.682 27.0791 104.529C26.8447 104.371 26.5547 104.292 26.209 104.292C25.8398 104.292 25.5381 104.371 25.3037 104.529C25.0693 104.682 24.8877 104.893 24.7588 105.162C24.6299 105.426 24.5391 105.728 24.4863 106.067C24.4395 106.401 24.416 106.753 24.416 107.122V107.377C24.416 107.746 24.4395 108.101 24.4863 108.44C24.5332 108.78 24.6211 109.082 24.75 109.346C24.8848 109.609 25.0693 109.817 25.3037 109.97C25.5381 110.122 25.8428 110.198 26.2178 110.198ZM34.207 98.4912V112H31.6758V98.4912H34.207ZM40.2012 102.49L36.0703 107.201L33.8555 109.442L32.9326 107.614L34.6904 105.382L37.1602 102.49H40.2012ZM37.5732 112L34.7607 107.605L36.5098 106.076L40.4912 112H37.5732ZM48.2432 98.5V112H45.7119V98.5H48.2432ZM47.8828 106.911H47.1885C47.1943 106.249 47.2822 105.64 47.4521 105.083C47.6221 104.521 47.8652 104.034 48.1816 103.624C48.498 103.208 48.876 102.886 49.3154 102.657C49.7607 102.429 50.2529 102.314 50.792 102.314C51.2607 102.314 51.6855 102.382 52.0664 102.517C52.4531 102.646 52.7842 102.856 53.0596 103.149C53.3408 103.437 53.5576 103.814 53.71 104.283C53.8623 104.752 53.9385 105.32 53.9385 105.988V112H51.3896V105.971C51.3896 105.549 51.3281 105.218 51.2051 104.978C51.0879 104.731 50.915 104.559 50.6865 104.459C50.4639 104.354 50.1885 104.301 49.8604 104.301C49.4971 104.301 49.1865 104.368 48.9287 104.503C48.6768 104.638 48.4746 104.825 48.3223 105.065C48.1699 105.3 48.0586 105.575 47.9883 105.892C47.918 106.208 47.8828 106.548 47.8828 106.911ZM60.2402 112.176C59.502 112.176 58.8398 112.059 58.2539 111.824C57.668 111.584 57.1699 111.253 56.7598 110.831C56.3555 110.409 56.0449 109.92 55.8281 109.363C55.6113 108.801 55.5029 108.203 55.5029 107.57V107.219C55.5029 106.498 55.6055 105.839 55.8105 105.241C56.0156 104.644 56.3086 104.125 56.6895 103.686C57.0762 103.246 57.5449 102.909 58.0957 102.675C58.6465 102.435 59.2676 102.314 59.959 102.314C60.6328 102.314 61.2305 102.426 61.752 102.648C62.2734 102.871 62.71 103.188 63.0615 103.598C63.4189 104.008 63.6885 104.5 63.8701 105.074C64.0518 105.643 64.1426 106.275 64.1426 106.973V108.027H56.584V106.34H61.6553V106.146C61.6553 105.795 61.5908 105.481 61.4619 105.206C61.3389 104.925 61.1514 104.702 60.8994 104.538C60.6475 104.374 60.3252 104.292 59.9326 104.292C59.5986 104.292 59.3115 104.365 59.0713 104.512C58.8311 104.658 58.6348 104.863 58.4824 105.127C58.3359 105.391 58.2246 105.701 58.1484 106.059C58.0781 106.41 58.043 106.797 58.043 107.219V107.57C58.043 107.951 58.0957 108.303 58.2012 108.625C58.3125 108.947 58.4678 109.226 58.667 109.46C58.8721 109.694 59.1182 109.876 59.4053 110.005C59.6982 110.134 60.0293 110.198 60.3984 110.198C60.8555 110.198 61.2803 110.11 61.6729 109.935C62.0713 109.753 62.4141 109.48 62.7012 109.117L63.9316 110.453C63.7324 110.74 63.46 111.016 63.1143 111.279C62.7744 111.543 62.3643 111.76 61.8838 111.93C61.4033 112.094 60.8555 112.176 60.2402 112.176ZM68.1152 104.564V112H65.584V102.49H67.9658L68.1152 104.564ZM70.9805 102.429L70.9365 104.775C70.8135 104.758 70.6641 104.743 70.4883 104.731C70.3184 104.714 70.1631 104.705 70.0225 104.705C69.665 104.705 69.3545 104.752 69.0908 104.846C68.833 104.934 68.6162 105.065 68.4404 105.241C68.2705 105.417 68.1416 105.631 68.0537 105.883C67.9717 106.135 67.9248 106.422 67.9131 106.744L67.4033 106.586C67.4033 105.971 67.4648 105.405 67.5879 104.89C67.7109 104.368 67.8896 103.914 68.124 103.527C68.3643 103.141 68.6572 102.842 69.0029 102.631C69.3486 102.42 69.7441 102.314 70.1895 102.314C70.3301 102.314 70.4736 102.326 70.6201 102.35C70.7666 102.367 70.8867 102.394 70.9805 102.429ZM76.377 112.176C75.6387 112.176 74.9766 112.059 74.3906 111.824C73.8047 111.584 73.3066 111.253 72.8965 110.831C72.4922 110.409 72.1816 109.92 71.9648 109.363C71.748 108.801 71.6396 108.203 71.6396 107.57V107.219C71.6396 106.498 71.7422 105.839 71.9473 105.241C72.1523 104.644 72.4453 104.125 72.8262 103.686C73.2129 103.246 73.6816 102.909 74.2324 102.675C74.7832 102.435 75.4043 102.314 76.0957 102.314C76.7695 102.314 77.3672 102.426 77.8887 102.648C78.4102 102.871 78.8467 103.188 79.1982 103.598C79.5557 104.008 79.8252 104.5 80.0068 105.074C80.1885 105.643 80.2793 106.275 80.2793 106.973V108.027H72.7207V106.34H77.792V106.146C77.792 105.795 77.7275 105.481 77.5986 105.206C77.4756 104.925 77.2881 104.702 77.0361 104.538C76.7842 104.374 76.4619 104.292 76.0693 104.292C75.7354 104.292 75.4482 104.365 75.208 104.512C74.9678 104.658 74.7715 104.863 74.6191 105.127C74.4727 105.391 74.3613 105.701 74.2852 106.059C74.2148 106.41 74.1797 106.797 74.1797 107.219V107.57C74.1797 107.951 74.2324 108.303 74.3379 108.625C74.4492 108.947 74.6045 109.226 74.8037 109.46C75.0088 109.694 75.2549 109.876 75.542 110.005C75.835 110.134 76.166 110.198 76.5352 110.198C76.9922 110.198 77.417 110.11 77.8096 109.935C78.208 109.753 78.5508 109.48 78.8379 109.117L80.0684 110.453C79.8691 110.74 79.5967 111.016 79.251 111.279C78.9111 111.543 78.501 111.76 78.0205 111.93C77.54 112.094 76.9922 112.176 76.377 112.176ZM89.4287 112H86.8799V101.646C86.8799 100.926 87.0205 100.319 87.3018 99.8271C87.5889 99.3291 87.9902 98.9541 88.5059 98.7021C89.0273 98.4443 89.6455 98.3154 90.3604 98.3154C90.5947 98.3154 90.8203 98.333 91.0371 98.3682C91.2539 98.3975 91.4648 98.4355 91.6699 98.4824L91.6436 100.39C91.5322 100.36 91.415 100.34 91.292 100.328C91.1689 100.316 91.0254 100.311 90.8613 100.311C90.5566 100.311 90.2959 100.363 90.0791 100.469C89.8682 100.568 89.707 100.718 89.5957 100.917C89.4844 101.116 89.4287 101.359 89.4287 101.646V112ZM91.3271 102.49V104.283H85.4648V102.49H91.3271ZM92.25 107.342V107.157C92.25 106.46 92.3496 105.818 92.5488 105.232C92.748 104.641 93.0381 104.128 93.4189 103.694C93.7998 103.261 94.2686 102.924 94.8252 102.684C95.3818 102.438 96.0205 102.314 96.7412 102.314C97.4619 102.314 98.1035 102.438 98.666 102.684C99.2285 102.924 99.7002 103.261 100.081 103.694C100.468 104.128 100.761 104.641 100.96 105.232C101.159 105.818 101.259 106.46 101.259 107.157V107.342C101.259 108.033 101.159 108.675 100.96 109.267C100.761 109.853 100.468 110.365 100.081 110.805C99.7002 111.238 99.2314 111.575 98.6748 111.815C98.1182 112.056 97.4795 112.176 96.7588 112.176C96.0381 112.176 95.3965 112.056 94.834 111.815C94.2773 111.575 93.8057 111.238 93.4189 110.805C93.0381 110.365 92.748 109.853 92.5488 109.267C92.3496 108.675 92.25 108.033 92.25 107.342ZM94.7812 107.157V107.342C94.7812 107.74 94.8164 108.112 94.8867 108.458C94.957 108.804 95.0684 109.108 95.2207 109.372C95.3789 109.63 95.584 109.832 95.8359 109.979C96.0879 110.125 96.3955 110.198 96.7588 110.198C97.1104 110.198 97.4121 110.125 97.6641 109.979C97.916 109.832 98.1182 109.63 98.2705 109.372C98.4229 109.108 98.5342 108.804 98.6045 108.458C98.6807 108.112 98.7188 107.74 98.7188 107.342V107.157C98.7188 106.771 98.6807 106.407 98.6045 106.067C98.5342 105.722 98.4199 105.417 98.2617 105.153C98.1094 104.884 97.9072 104.673 97.6553 104.521C97.4033 104.368 97.0986 104.292 96.7412 104.292C96.3838 104.292 96.0791 104.368 95.8271 104.521C95.5811 104.673 95.3789 104.884 95.2207 105.153C95.0684 105.417 94.957 105.722 94.8867 106.067C94.8164 106.407 94.7812 106.771 94.7812 107.157ZM105.346 104.564V112H102.814V102.49H105.196L105.346 104.564ZM108.211 102.429L108.167 104.775C108.044 104.758 107.895 104.743 107.719 104.731C107.549 104.714 107.394 104.705 107.253 104.705C106.896 104.705 106.585 104.752 106.321 104.846C106.063 104.934 105.847 105.065 105.671 105.241C105.501 105.417 105.372 105.631 105.284 105.883C105.202 106.135 105.155 106.422 105.144 106.744L104.634 106.586C104.634 105.971 104.695 105.405 104.818 104.89C104.941 104.368 105.12 103.914 105.354 103.527C105.595 103.141 105.888 102.842 106.233 102.631C106.579 102.42 106.975 102.314 107.42 102.314C107.561 102.314 107.704 102.326 107.851 102.35C107.997 102.367 108.117 102.394 108.211 102.429ZM116.367 104.521V112H113.836V102.49H116.209L116.367 104.521ZM115.998 106.911H115.312C115.312 106.208 115.403 105.575 115.585 105.013C115.767 104.444 116.021 103.961 116.35 103.562C116.678 103.158 117.067 102.851 117.519 102.64C117.976 102.423 118.485 102.314 119.048 102.314C119.493 102.314 119.9 102.379 120.27 102.508C120.639 102.637 120.955 102.842 121.219 103.123C121.488 103.404 121.693 103.776 121.834 104.239C121.98 104.702 122.054 105.268 122.054 105.936V112H119.505V105.927C119.505 105.505 119.446 105.177 119.329 104.942C119.212 104.708 119.039 104.544 118.811 104.45C118.588 104.351 118.312 104.301 117.984 104.301C117.645 104.301 117.349 104.368 117.097 104.503C116.851 104.638 116.646 104.825 116.481 105.065C116.323 105.3 116.203 105.575 116.121 105.892C116.039 106.208 115.998 106.548 115.998 106.911ZM128.355 112.176C127.617 112.176 126.955 112.059 126.369 111.824C125.783 111.584 125.285 111.253 124.875 110.831C124.471 110.409 124.16 109.92 123.943 109.363C123.727 108.801 123.618 108.203 123.618 107.57V107.219C123.618 106.498 123.721 105.839 123.926 105.241C124.131 104.644 124.424 104.125 124.805 103.686C125.191 103.246 125.66 102.909 126.211 102.675C126.762 102.435 127.383 102.314 128.074 102.314C128.748 102.314 129.346 102.426 129.867 102.648C130.389 102.871 130.825 103.188 131.177 103.598C131.534 104.008 131.804 104.5 131.985 105.074C132.167 105.643 132.258 106.275 132.258 106.973V108.027H124.699V106.34H129.771V106.146C129.771 105.795 129.706 105.481 129.577 105.206C129.454 104.925 129.267 104.702 129.015 104.538C128.763 104.374 128.44 104.292 128.048 104.292C127.714 104.292 127.427 104.365 127.187 104.512C126.946 104.658 126.75 104.863 126.598 105.127C126.451 105.391 126.34 105.701 126.264 106.059C126.193 106.41 126.158 106.797 126.158 107.219V107.57C126.158 107.951 126.211 108.303 126.316 108.625C126.428 108.947 126.583 109.226 126.782 109.46C126.987 109.694 127.233 109.876 127.521 110.005C127.813 110.134 128.145 110.198 128.514 110.198C128.971 110.198 129.396 110.11 129.788 109.935C130.187 109.753 130.529 109.48 130.816 109.117L132.047 110.453C131.848 110.74 131.575 111.016 131.229 111.279C130.89 111.543 130.479 111.76 129.999 111.93C129.519 112.094 128.971 112.176 128.355 112.176ZM135.738 102.49L137.312 105.382L138.929 102.49H141.627L138.938 107.14L141.75 112H139.043L137.329 108.941L135.615 112H132.908L135.721 107.14L133.031 102.49H135.738ZM147.516 102.49V104.283H141.979V102.49H147.516ZM143.35 100.144H145.881V109.135C145.881 109.41 145.916 109.621 145.986 109.768C146.062 109.914 146.174 110.017 146.32 110.075C146.467 110.128 146.651 110.154 146.874 110.154C147.032 110.154 147.173 110.148 147.296 110.137C147.425 110.119 147.533 110.102 147.621 110.084L147.63 111.947C147.413 112.018 147.179 112.073 146.927 112.114C146.675 112.155 146.396 112.176 146.092 112.176C145.535 112.176 145.049 112.085 144.633 111.903C144.223 111.716 143.906 111.417 143.684 111.007C143.461 110.597 143.35 110.058 143.35 109.39V100.144ZM155.971 104.318V115.656H153.439V102.49H155.786L155.971 104.318ZM161.991 107.14V107.324C161.991 108.016 161.909 108.657 161.745 109.249C161.587 109.841 161.353 110.356 161.042 110.796C160.731 111.229 160.345 111.569 159.882 111.815C159.425 112.056 158.897 112.176 158.3 112.176C157.72 112.176 157.216 112.059 156.788 111.824C156.36 111.59 156 111.262 155.707 110.84C155.42 110.412 155.188 109.917 155.013 109.354C154.837 108.792 154.702 108.188 154.608 107.544V107.061C154.702 106.369 154.837 105.736 155.013 105.162C155.188 104.582 155.42 104.081 155.707 103.659C156 103.231 156.357 102.9 156.779 102.666C157.207 102.432 157.708 102.314 158.282 102.314C158.886 102.314 159.416 102.429 159.873 102.657C160.336 102.886 160.723 103.214 161.033 103.642C161.35 104.069 161.587 104.579 161.745 105.171C161.909 105.763 161.991 106.419 161.991 107.14ZM159.451 107.324V107.14C159.451 106.735 159.416 106.363 159.346 106.023C159.281 105.678 159.176 105.376 159.029 105.118C158.889 104.86 158.701 104.661 158.467 104.521C158.238 104.374 157.96 104.301 157.632 104.301C157.286 104.301 156.99 104.356 156.744 104.468C156.504 104.579 156.308 104.74 156.155 104.951C156.003 105.162 155.889 105.414 155.812 105.707C155.736 106 155.689 106.331 155.672 106.7V107.922C155.701 108.355 155.783 108.745 155.918 109.091C156.053 109.431 156.261 109.7 156.542 109.899C156.823 110.099 157.192 110.198 157.649 110.198C157.983 110.198 158.265 110.125 158.493 109.979C158.722 109.826 158.906 109.618 159.047 109.354C159.193 109.091 159.296 108.786 159.354 108.44C159.419 108.095 159.451 107.723 159.451 107.324ZM166.034 98.5V112H163.503V98.5H166.034ZM165.674 106.911H164.979C164.985 106.249 165.073 105.64 165.243 105.083C165.413 104.521 165.656 104.034 165.973 103.624C166.289 103.208 166.667 102.886 167.106 102.657C167.552 102.429 168.044 102.314 168.583 102.314C169.052 102.314 169.477 102.382 169.857 102.517C170.244 102.646 170.575 102.856 170.851 103.149C171.132 103.437 171.349 103.814 171.501 104.283C171.653 104.752 171.729 105.32 171.729 105.988V112H169.181V105.971C169.181 105.549 169.119 105.218 168.996 104.978C168.879 104.731 168.706 104.559 168.478 104.459C168.255 104.354 167.979 104.301 167.651 104.301C167.288 104.301 166.978 104.368 166.72 104.503C166.468 104.638 166.266 104.825 166.113 105.065C165.961 105.3 165.85 105.575 165.779 105.892C165.709 106.208 165.674 106.548 165.674 106.911ZM173.25 107.342V107.157C173.25 106.46 173.35 105.818 173.549 105.232C173.748 104.641 174.038 104.128 174.419 103.694C174.8 103.261 175.269 102.924 175.825 102.684C176.382 102.438 177.021 102.314 177.741 102.314C178.462 102.314 179.104 102.438 179.666 102.684C180.229 102.924 180.7 103.261 181.081 103.694C181.468 104.128 181.761 104.641 181.96 105.232C182.159 105.818 182.259 106.46 182.259 107.157V107.342C182.259 108.033 182.159 108.675 181.96 109.267C181.761 109.853 181.468 110.365 181.081 110.805C180.7 111.238 180.231 111.575 179.675 111.815C179.118 112.056 178.479 112.176 177.759 112.176C177.038 112.176 176.396 112.056 175.834 111.815C175.277 111.575 174.806 111.238 174.419 110.805C174.038 110.365 173.748 109.853 173.549 109.267C173.35 108.675 173.25 108.033 173.25 107.342ZM175.781 107.157V107.342C175.781 107.74 175.816 108.112 175.887 108.458C175.957 108.804 176.068 109.108 176.221 109.372C176.379 109.63 176.584 109.832 176.836 109.979C177.088 110.125 177.396 110.198 177.759 110.198C178.11 110.198 178.412 110.125 178.664 109.979C178.916 109.832 179.118 109.63 179.271 109.372C179.423 109.108 179.534 108.804 179.604 108.458C179.681 108.112 179.719 107.74 179.719 107.342V107.157C179.719 106.771 179.681 106.407 179.604 106.067C179.534 105.722 179.42 105.417 179.262 105.153C179.109 104.884 178.907 104.673 178.655 104.521C178.403 104.368 178.099 104.292 177.741 104.292C177.384 104.292 177.079 104.368 176.827 104.521C176.581 104.673 176.379 104.884 176.221 105.153C176.068 105.417 175.957 105.722 175.887 106.067C175.816 106.407 175.781 106.771 175.781 107.157ZM188.473 102.49V104.283H182.936V102.49H188.473ZM184.307 100.144H186.838V109.135C186.838 109.41 186.873 109.621 186.943 109.768C187.02 109.914 187.131 110.017 187.277 110.075C187.424 110.128 187.608 110.154 187.831 110.154C187.989 110.154 188.13 110.148 188.253 110.137C188.382 110.119 188.49 110.102 188.578 110.084L188.587 111.947C188.37 112.018 188.136 112.073 187.884 112.114C187.632 112.155 187.354 112.176 187.049 112.176C186.492 112.176 186.006 112.085 185.59 111.903C185.18 111.716 184.863 111.417 184.641 111.007C184.418 110.597 184.307 110.058 184.307 109.39V100.144ZM189.281 107.342V107.157C189.281 106.46 189.381 105.818 189.58 105.232C189.779 104.641 190.069 104.128 190.45 103.694C190.831 103.261 191.3 102.924 191.856 102.684C192.413 102.438 193.052 102.314 193.772 102.314C194.493 102.314 195.135 102.438 195.697 102.684C196.26 102.924 196.731 103.261 197.112 103.694C197.499 104.128 197.792 104.641 197.991 105.232C198.19 105.818 198.29 106.46 198.29 107.157V107.342C198.29 108.033 198.19 108.675 197.991 109.267C197.792 109.853 197.499 110.365 197.112 110.805C196.731 111.238 196.263 111.575 195.706 111.815C195.149 112.056 194.511 112.176 193.79 112.176C193.069 112.176 192.428 112.056 191.865 111.815C191.309 111.575 190.837 111.238 190.45 110.805C190.069 110.365 189.779 109.853 189.58 109.267C189.381 108.675 189.281 108.033 189.281 107.342ZM191.812 107.157V107.342C191.812 107.74 191.848 108.112 191.918 108.458C191.988 108.804 192.1 109.108 192.252 109.372C192.41 109.63 192.615 109.832 192.867 109.979C193.119 110.125 193.427 110.198 193.79 110.198C194.142 110.198 194.443 110.125 194.695 109.979C194.947 109.832 195.149 109.63 195.302 109.372C195.454 109.108 195.565 108.804 195.636 108.458C195.712 108.112 195.75 107.74 195.75 107.342V107.157C195.75 106.771 195.712 106.407 195.636 106.067C195.565 105.722 195.451 105.417 195.293 105.153C195.141 104.884 194.938 104.673 194.687 104.521C194.435 104.368 194.13 104.292 193.772 104.292C193.415 104.292 193.11 104.368 192.858 104.521C192.612 104.673 192.41 104.884 192.252 105.153C192.1 105.417 191.988 105.722 191.918 106.067C191.848 106.407 191.812 106.771 191.812 107.157Z" fill="black"/>
<path d="M94 126C91.3452 127.075 88.7618 128.31 86 129M70 142C65.9345 146.065 62.8176 149.547 61 155M56 165C55.8667 170.465 54 175.502 54 181M59 191C62.3585 195.618 63.8988 200.899 68 205M76 212C81.0039 214.252 84.7965 218.398 90 221M99 223H109M119 222C123.588 219.356 134.169 215.494 136 210M143 203C145.183 198.451 148.779 192.886 150 188M150 176C150 171.206 150.27 168.324 152 164M149 153C144.631 149.558 140.933 144.933 137 141M123 129C118.816 126.551 115.687 125.781 111 125" stroke="black" stroke-width="3" stroke-linecap="round"/>
</svg>
