<?xml version='1.0' encoding='UTF-8' standalone='no'?>
<svg viewBox="0 0 2497 2393" baseProfile="tiny" version="1.2" xmlns:xlink="http://www.w3.org/1999/xlink" xmlns="http://www.w3.org/2000/svg" xmlns:cc="http://creativecommons.org/ns#" height="202.607mm" width="211.413mm">
 <defs/>
 <g fill="none" stroke-width="1" stroke="black" stroke-linecap="square" fill-rule="evenodd" stroke-linejoin="bevel">
  <g font-family="Ubuntu" fill="none" stroke-opacity="1" font-size="45.8333" stroke-width="1" font-style="normal" transform="matrix(1,0,0,1,0,0)" stroke="#000000" font-weight="400" stroke-linecap="square" stroke-linejoin="bevel"/>
  <g font-family="Ubuntu" fill="none" stroke-opacity="1" font-size="45.8333" stroke-width="1" font-style="normal" transform="matrix(1,0,0,1,0,0)" stroke="#000000" font-weight="400" stroke-linecap="square" stroke-linejoin="bevel"/>
  <g font-family="Ubuntu" fill="none" stroke-opacity="1" font-size="45.8333" stroke-width="1" font-style="normal" transform="matrix(11.8088,0,0,11.8088,0,0)" stroke="#000000" font-weight="400" stroke-linecap="square" stroke-linejoin="bevel"/>
  <g font-family="Ubuntu" fill="none" stroke-opacity="1" font-size="45.8333" stroke-width="1" font-style="normal" transform="matrix(0.999811,0,0,0.999811,0,0)" stroke="#000000" font-weight="400" stroke-linecap="square" stroke-linejoin="bevel"/>
  <g font-family="Ubuntu" fill="#ffffff" font-size="45.8333" font-style="normal" transform="matrix(0.999811,0,0,0.999811,0,0)" stroke="none" font-weight="400" fill-opacity="1">
   <path vector-effect="none" d="M-2,-2 L2500,-2 L2500,2396 L-2,2396 L-2,-2" fill-rule="evenodd"/>
  </g>
  <g font-family="Ubuntu" fill="none" stroke-opacity="1" font-size="45.8333" stroke-width="1" font-style="normal" transform="matrix(0.999811,0,0,0.999811,0,0)" stroke="#000000" font-weight="400" stroke-linecap="square" stroke-linejoin="bevel"/>
  <g font-family="Ubuntu" fill="none" stroke-opacity="1" font-size="45.8333" stroke-width="1" font-style="normal" transform="matrix(11.8088,0,0,11.8088,0,0)" stroke="#000000" font-weight="400" stroke-linecap="square" stroke-linejoin="bevel"/>
  <g font-family="Ubuntu" fill="none" stroke-opacity="1" font-size="45.8333" stroke-width="1" font-style="normal" transform="matrix(11.8088,0,0,11.8088,0,0)" stroke="#000000" font-weight="400" stroke-linecap="square" stroke-linejoin="bevel"/>
  <g font-family="Ubuntu" fill="none" stroke-opacity="1" font-size="45.8333" stroke-width="1" font-style="normal" transform="matrix(11.8088,0,0,11.8088,0,0)" stroke="#000000" font-weight="400" stroke-linecap="square" stroke-linejoin="bevel"/>
  <g font-family="Ubuntu" fill="none" stroke-opacity="1" font-size="45.8333" stroke-width="1" font-style="normal" transform="matrix(11.8088,0,0,11.8088,0,0)" stroke="#000000" font-weight="400" stroke-linecap="square" stroke-linejoin="bevel"/>
  <g font-family="Ubuntu" fill="none" stroke-opacity="1" font-size="45.8333" stroke-width="1" font-style="normal" transform="matrix(11.8088,0,0,11.8088,0,0)" stroke="#000000" font-weight="400" stroke-linecap="square" stroke-linejoin="bevel"/>
  <g font-family="Ubuntu" fill="#1a1a1a" font-size="45.8333" font-style="normal" transform="matrix(11.8088,0,0,11.8088,0,0)" stroke="none" font-weight="400" fill-opacity="1">
   <path vector-effect="none" d="M0,0 L211.453,0 L211.453,202.626 L0,202.626 L0,0" fill-rule="evenodd"/>
  </g>
  <g font-family="Ubuntu" fill="none" stroke-opacity="1" font-size="45.8333" stroke-width="1" font-style="normal" transform="matrix(11.8088,0,0,11.8088,0,0)" stroke="#000000" font-weight="400" stroke-linecap="square" stroke-linejoin="bevel"/>
  <g font-family="Ubuntu" fill="none" stroke-opacity="1" font-size="45.8333" stroke-width="1" font-style="normal" transform="matrix(11.8088,0,0,11.8088,0,0)" stroke="#000000" font-weight="400" stroke-linecap="square" stroke-linejoin="bevel"/>
  <g font-family="Ubuntu" fill="#000000" font-size="45.8333" font-style="normal" transform="matrix(0.999811,0,0,0.999811,0,0)" stroke="none" font-weight="400" fill-opacity="0">
   <rect x="0" height="2393" y="0" width="2497"/>
  </g>
  <g font-family="Ubuntu" fill="none" stroke-opacity="1" font-size="45.8333" stroke-width="1" font-style="normal" transform="matrix(0.999811,0,0,0.999811,0,0)" stroke="#000000" font-weight="400" stroke-linecap="square" stroke-linejoin="bevel"/>
  <g font-family="Ubuntu" fill="#fff5de" font-size="45.8333" font-style="normal" transform="matrix(0.999811,0,0,0.999811,0,0)" stroke="none" font-weight="400" fill-opacity="1">
   <path vector-effect="none" d="M-311.192,2671.44 L-243.668,-253.762 L2729.32,-306.605 L2899.29,2616.16 L-311.192,2671.44" fill-rule="evenodd"/>
  </g>
  <g font-family="Ubuntu" fill="none" stroke-opacity="1" font-size="45.8333" stroke-width="1" font-style="normal" transform="matrix(0.999811,0,0,0.999811,0,0)" stroke="#000000" font-weight="400" stroke-linecap="square" stroke-linejoin="bevel"/>
  <g font-family="Ubuntu" fill="none" stroke-opacity="1" font-size="45.8333" stroke-width="12.5197" font-style="normal" transform="matrix(0.999811,0,0,0.999811,0,0)" stroke="#232323" font-weight="400" stroke-linecap="square" stroke-linejoin="bevel">
   <path vector-effect="none" d="M2880.86,2294.69 L2863.61,2278.33 L2782.19,2243.74 L2771.97,2235.84 L2768.19,2229.95 L2756.78,2202.86 L2743.81,2184.92 L2729.89,2151.52 L2726.53,2145.83 L2704.27,2123.35 L2577.89,1954.1 L2530.81,1905.89 L2487.65,1868.73 L2483.02,1860.2 L2469.86,1817.55 L2463.74,1807.73 L2446.54,1795.52 L2440.32,1792.72 L2393.9,1783.73 L2337.5,1747.83 L2329.16,1739.91 L2312.39,1711.6 L2306.66,1705.04 L2220.97,1648.59 L2216.06,1642.57 L2203.15,1617.93 L2065.63,1464.69 L2019.12,1397 L1952.72,1339.13 L1716.29,1075.36 L1600.22,946.29 L1592.16,940.212 L1449.43,889.959 L1439.48,884.099 L1356.53,786.935 L1333.03,765.777 L1310.48,718.647 L1305.95,712.754 L1218.85,618.635 L1207.4,611.914 L1187.67,606.147 L1178.86,600.216 L1085.48,486.033 L1028.72,425.658 L993.077,381.649 L936.027,328.075 L851.516,211.082 L780.158,119.75 L712.384,65.4256 L652.933,1.18333 L621.42,-28.1957 L585.891,-64.5544 L554.192,-95.0213 L497.552,-143.827 L399.917,-208.952 L340.514,-237.326 L334.727,-241.479 L331.187,-244.866" fill-rule="evenodd"/>
  </g>
  <g font-family="Ubuntu" fill="none" stroke-opacity="1" font-size="45.8333" stroke-dashoffset="0" stroke-width="6.25984" font-style="normal" transform="matrix(0.999811,0,0,0.999811,0,0)" stroke="#ffffff" font-weight="400" stroke-linecap="square" stroke-dasharray="35.4331,35.4331" stroke-linejoin="bevel">
   <path vector-effect="none" d="M2880.86,2294.69 L2863.61,2278.33 L2782.19,2243.74 L2771.97,2235.84 L2768.19,2229.95 L2756.78,2202.86 L2743.81,2184.92 L2729.89,2151.52 L2726.53,2145.83 L2704.27,2123.35 L2577.89,1954.1 L2530.81,1905.89 L2487.65,1868.73 L2483.02,1860.2 L2469.86,1817.55 L2463.74,1807.73 L2446.54,1795.52 L2440.32,1792.72 L2393.9,1783.73 L2337.5,1747.83 L2329.16,1739.91 L2312.39,1711.6 L2306.66,1705.04 L2220.97,1648.59 L2216.06,1642.57 L2203.15,1617.93 L2065.63,1464.69 L2019.12,1397 L1952.72,1339.13 L1716.29,1075.36 L1600.22,946.29 L1592.16,940.212 L1449.43,889.959 L1439.48,884.099 L1356.53,786.935 L1333.03,765.777 L1310.48,718.647 L1305.95,712.754 L1218.85,618.635 L1207.4,611.914 L1187.67,606.147 L1178.86,600.216 L1085.48,486.033 L1028.72,425.658 L993.077,381.649 L936.027,328.075 L851.516,211.082 L780.158,119.75 L712.384,65.4256 L652.933,1.18333 L621.42,-28.1957 L585.891,-64.5544 L554.192,-95.0213 L497.552,-143.827 L399.917,-208.952 L340.514,-237.326 L334.727,-241.479 L331.187,-244.866" fill-rule="evenodd"/>
  </g>
  <g font-family="Ubuntu" fill="none" stroke-opacity="1" font-size="45.8333" stroke-width="7.79528" font-style="normal" transform="matrix(0.999811,0,0,0.999811,0,0)" stroke="#000000" font-weight="400" stroke-linecap="round" stroke-linejoin="round">
   <path vector-effect="none" d="M2898.28,2598.55 L2889.59,2603.28 L2879.29,2616.94 L2865,2614.95 L2861.98,2613.05 L2853.99,2600.38 L2827.93,2594 L2815.9,2587.85 L2811.14,2587.98 L2805.79,2592.77 L2801.88,2593.28 L2792.73,2590.48 L2787.53,2586.12 L2780.24,2585.47 L2774.33,2581 L2759.52,2582.16 L2723.36,2571.78 L2715.54,2566.87 L2703.45,2562.81 L2690.93,2556.47 L2652.84,2534.45 L2646.74,2532.77 L2644.12,2530 L2643.09,2524.81 L2641.31,2522.31 L2632.92,2520.28 L2627.92,2515.25 L2622.24,2512.84 L2615.09,2513.52 L2608.62,2521.61 L2602.23,2523.59 L2598.02,2527.8 L2593.89,2528.9 L2575.72,2519.27 L2555.81,2511.71 L2544.58,2504 L2530.5,2503.04 L2520.09,2507.69 L2507.41,2508.76 L2500.06,2505.93 L2492.92,2498.7 L2486.4,2498.91 L2481.52,2496.38 L2470.91,2495.63 L2455.5,2503.44 L2447.4,2502.73 L2432.2,2509.96 L2422.47,2510.03 L2406.97,2518.98 L2397.92,2519.47 L2390.43,2513.17 L2385.07,2512.86 L2371.23,2520.37 L2369.89,2524.13 L2371.22,2529.57 L2370.77,2532.61 L2366.14,2537.66 L2364.05,2544.48 L2359.93,2546.82 L2338.97,2539.59 L2333.78,2534.09 L2328.93,2531.78 L2319.55,2533.73 L2294.76,2530.57 L2284.68,2535.35 L2278.01,2532.31 L2263.39,2529.79 L2253.84,2532.21 L2236.18,2531.63 L2212.59,2535.17 L2154.31,2518.29 L2137.31,2519.47 L2127.9,2525.21 L2124.28,2525.52 L2120.82,2523.87 L2116.9,2519.19 L2103.24,2512.87 L2097.59,2507.95 L2083.47,2506.07 L2072.42,2500.95 L2064.73,2503.46 L2057.69,2503.13 L2049.02,2506.26 L2039.44,2502.86 L2028.24,2507.02 L2017.57,2504.52 L2011.38,2504.94 L2004.88,2502.09 L1995.42,2504.13 L1987.1,2499.46 L1982.7,2490.07 L1978.33,2486.85 L1933.34,2477.81 L1911.95,2466.75 L1850.79,2452.31 L1829.11,2439.87 L1820.8,2437.04 L1760.11,2422.43 L1750.42,2421.01 L1730.01,2422.99 L1721.14,2420.33 L1714.39,2416.41 L1698.9,2415.28 L1689.33,2410.76 L1661.1,2407.04 L1650.14,2409.89 L1629.32,2402.43 L1565.12,2394.95 L1556.12,2398.98 L1543.44,2398.57 L1522.98,2405.6 L1515.43,2401.75 L1512.59,2396.7 L1510.3,2389.3 L1497.85,2380.21 L1490.73,2378.07 L1482.42,2382.11 L1475.74,2381.97 L1472.55,2379.09 L1470.63,2372.99 L1467.55,2369.24 L1439.76,2349.78 L1393.34,2330.14 L1387.47,2324.56 L1377.56,2308.26 L1373.71,2306.16 L1357.32,2306.74 L1215.09,2327.67 L1100.63,2352.6 L1021.14,2359.51 L966.905,2359.57 L789.158,2335.09 L782.156,2335.9 L772.395,2332.89 L763.529,2332.59 L752.902,2335.7 L741.251,2331.78 L718.274,2329.36 L697.724,2324.77 L692.133,2325.59 L685.36,2333.66 L679.449,2337.48 L671.47,2339.85 L663.781,2335.84 L653.518,2333.39 L558.546,2323.05 L468.201,2332.91 L454.003,2329.57 L287.546,2316.03 L238.89,2304.32 L222.877,2302.62 L193.7,2294.13 L163.354,2282.2 L107.895,2275.69 L97.9769,2278.36 L85.9173,2284.75 L73.8687,2287.91 L61.0888,2283.58 L50.2149,2282.51 L33.8874,2275.68 L19.1761,2275.75 L12.1604,2273.62 L-3.66927,2261.66 L-14.1724,2256 L-21.6703,2254.47 L-32.6992,2256.05 L-40.926,2252.75 L-63.3915,2252.31 L-68.9009,2250.89 L-78.8246,2252.98 L-86.1031,2251.91 L-111.358,2257.21 L-128.879,2257.04 L-143.882,2264.67 L-156.206,2265.68 L-184.626,2263.14 L-191.108,2260.46 L-203.995,2260.69 L-215.912,2263.25 L-258.658,2253.38 L-299.999,2248.68 L-301.572,2248.89" fill-rule="evenodd"/>
  </g>
  <g font-family="Ubuntu" fill="none" stroke-opacity="1" font-size="45.8333" stroke-dashoffset="0" stroke-width="3.89764" font-style="normal" transform="matrix(0.999811,0,0,0.999811,0,0)" stroke="#ffffff" font-weight="400" stroke-linecap="square" stroke-dasharray="35.4331,35.4331" stroke-linejoin="bevel">
   <path vector-effect="none" d="M2898.28,2598.55 L2889.59,2603.28 L2879.29,2616.94 L2865,2614.95 L2861.98,2613.05 L2853.99,2600.38 L2827.93,2594 L2815.9,2587.85 L2811.14,2587.98 L2805.79,2592.77 L2801.88,2593.28 L2792.73,2590.48 L2787.53,2586.12 L2780.24,2585.47 L2774.33,2581 L2759.52,2582.16 L2723.36,2571.78 L2715.54,2566.87 L2703.45,2562.81 L2690.93,2556.47 L2652.84,2534.45 L2646.74,2532.77 L2644.12,2530 L2643.09,2524.81 L2641.31,2522.31 L2632.92,2520.28 L2627.92,2515.25 L2622.24,2512.84 L2615.09,2513.52 L2608.62,2521.61 L2602.23,2523.59 L2598.02,2527.8 L2593.89,2528.9 L2575.72,2519.27 L2555.81,2511.71 L2544.58,2504 L2530.5,2503.04 L2520.09,2507.69 L2507.41,2508.76 L2500.06,2505.93 L2492.92,2498.7 L2486.4,2498.91 L2481.52,2496.38 L2470.91,2495.63 L2455.5,2503.44 L2447.4,2502.73 L2432.2,2509.96 L2422.47,2510.03 L2406.97,2518.98 L2397.92,2519.47 L2390.43,2513.17 L2385.07,2512.86 L2371.23,2520.37 L2369.89,2524.13 L2371.22,2529.57 L2370.77,2532.61 L2366.14,2537.66 L2364.05,2544.48 L2359.93,2546.82 L2338.97,2539.59 L2333.78,2534.09 L2328.93,2531.78 L2319.55,2533.73 L2294.76,2530.57 L2284.68,2535.35 L2278.01,2532.31 L2263.39,2529.79 L2253.84,2532.21 L2236.18,2531.63 L2212.59,2535.17 L2154.31,2518.29 L2137.31,2519.47 L2127.9,2525.21 L2124.28,2525.52 L2120.82,2523.87 L2116.9,2519.19 L2103.24,2512.87 L2097.59,2507.95 L2083.47,2506.07 L2072.42,2500.95 L2064.73,2503.46 L2057.69,2503.13 L2049.02,2506.26 L2039.44,2502.86 L2028.24,2507.02 L2017.57,2504.52 L2011.38,2504.94 L2004.88,2502.09 L1995.42,2504.13 L1987.1,2499.46 L1982.7,2490.07 L1978.33,2486.85 L1933.34,2477.81 L1911.95,2466.75 L1850.79,2452.31 L1829.11,2439.87 L1820.8,2437.04 L1760.11,2422.43 L1750.42,2421.01 L1730.01,2422.99 L1721.14,2420.33 L1714.39,2416.41 L1698.9,2415.28 L1689.33,2410.76 L1661.1,2407.04 L1650.14,2409.89 L1629.32,2402.43 L1565.12,2394.95 L1556.12,2398.98 L1543.44,2398.57 L1522.98,2405.6 L1515.43,2401.75 L1512.59,2396.7 L1510.3,2389.3 L1497.85,2380.21 L1490.73,2378.07 L1482.42,2382.11 L1475.74,2381.97 L1472.55,2379.09 L1470.63,2372.99 L1467.55,2369.24 L1439.76,2349.78 L1393.34,2330.14 L1387.47,2324.56 L1377.56,2308.26 L1373.71,2306.16 L1357.32,2306.74 L1215.09,2327.67 L1100.63,2352.6 L1021.14,2359.51 L966.905,2359.57 L789.158,2335.09 L782.156,2335.9 L772.395,2332.89 L763.529,2332.59 L752.902,2335.7 L741.251,2331.78 L718.274,2329.36 L697.724,2324.77 L692.133,2325.59 L685.36,2333.66 L679.449,2337.48 L671.47,2339.85 L663.781,2335.84 L653.518,2333.39 L558.546,2323.05 L468.201,2332.91 L454.003,2329.57 L287.546,2316.03 L238.89,2304.32 L222.877,2302.62 L193.7,2294.13 L163.354,2282.2 L107.895,2275.69 L97.9769,2278.36 L85.9173,2284.75 L73.8687,2287.91 L61.0888,2283.58 L50.2149,2282.51 L33.8874,2275.68 L19.1761,2275.75 L12.1604,2273.62 L-3.66927,2261.66 L-14.1724,2256 L-21.6703,2254.47 L-32.6992,2256.05 L-40.926,2252.75 L-63.3915,2252.31 L-68.9009,2250.89 L-78.8246,2252.98 L-86.1031,2251.91 L-111.358,2257.21 L-128.879,2257.04 L-143.882,2264.67 L-156.206,2265.68 L-184.626,2263.14 L-191.108,2260.46 L-203.995,2260.69 L-215.912,2263.25 L-258.658,2253.38 L-299.999,2248.68 L-301.572,2248.89" fill-rule="evenodd"/>
  </g>
  <g font-family="Ubuntu" fill="none" stroke-opacity="1" font-size="45.8333" stroke-width="4.25197" font-style="normal" transform="matrix(0.999811,0,0,0.999811,0,0)" stroke="#232323" font-weight="400" stroke-linecap="square" stroke-linejoin="bevel">
   <path vector-effect="none" d="M877.249,246.397 L876.428,242.432 L877.86,237.997 L888.787,229.666 L897.33,227.92 L933.376,201.656 L956.237,194.668 L964.95,190.367 L973.374,179.278 L982.47,174.034 L990.356,162.96 L1001.34,155.931 L1008.75,153.007 L1017.6,144.93 L1028.86,128.768 L1036.5,123.236 L1038.97,115.337 L1043.69,108.988 L1062.89,100.98 L1074.57,89.5681 L1085.9,86.8883" fill-rule="evenodd"/>
   <path vector-effect="none" d="M254.108,2307.97 L257.166,2309.97 L266.464,2322.13 L268.24,2340.53 L266.722,2355.7 L267.181,2360.22 L265.727,2365.22 L265.172,2376.1 L256.775,2389.23 L210.781,2574.11 L196.784,2590.66 L198.102,2623.18 L185.5,2670.71 L183.611,2679.64" fill-rule="evenodd"/>
  </g>
  <g font-family="Ubuntu" fill="none" stroke-opacity="1" font-size="45.8333" stroke-width="7.79528" font-style="normal" transform="matrix(0.999811,0,0,0.999811,0,0)" stroke="#000000" font-weight="400" stroke-linecap="round" stroke-linejoin="round">
   <path vector-effect="none" d="M2784.84,637.917 L2777.11,637.52 L2732.75,630.505 L2685.32,628.512 L2678.48,630.34 L2644.84,645.857 L2621.07,645.097 L2616.58,648.08 L2608.77,658.208 L2603.74,660.587 L2579.09,662.824 L2525.26,663.222 L2477.26,658.257 L2442.52,662.861 L2384.46,664.707 L2379.52,665.83 L2353.68,679.777 L2334.08,679.094 L2317.52,676.49 L2306.56,679.426 L2296,688.178 L2286.28,688.442 L2241.59,676.438 L2225.79,676.898 L2212.02,675.082 L2201.54,670.474 L2174.9,668.687 L2148.4,655.776 L1940.9,619.499 L1922.08,620.891 L1877.62,613.208 L1846.33,617.323 L1825.26,613.789 L1807.39,614.976 L1755.23,603.126 L1697.68,599.445 L1684.6,590.397 L1670.73,589.643 L1613.62,577.23 L1554.45,575.466 L1499.58,555.065 L1473.36,559.042 L1453.19,566.709 L1411.79,571.065 L1406.55,570.13 L1394.33,563.63 L1374.03,565.104 L1341.27,554.196 L1301.86,551.48 L1274.65,566.801 L1272.11,570.46 L1266.86,585.945 L1262.5,590.743 L1240.83,597.35 L1219.12,608.02 L1218.67,613.588 L1216.24,620.137 L1218.1,626.746 L1217.64,630.524 L1209.2,647.616 L1202.76,650.93 L1200.34,654.748 L1193.92,684.028 L1193.24,701.248 L1191.4,708.11 L1185.37,719.613 L1147,763.355 L1123.75,796.777 L1122.41,800.385 L1121.79,806.57 L1117.89,818.106 L1106.81,828.271 L1097.43,841.831 L1090.88,862.089 L1090.07,869.933 L1084.86,881.578 L1083.82,889.241 L1073.81,916.207 L1069.6,932.167 L1061.67,945.747 L1046.64,964.422 L1026.83,985.035 L1012.51,996.812 L999.808,1011.81 L986.8,1033.08 L974.109,1050.03 L964.485,1072.47 L957.267,1084.16 L946.961,1093.64 L936.059,1107.36 L922.073,1114.57 L912.718,1125.3 L899.888,1136.14 L893.258,1138.43 L881.34,1147.41 L879.817,1149.67 L877.762,1159.14 L860.492,1185.44 L842.023,1194.25 L835.326,1202.06 L831.757,1210.14 L823.48,1218.61 L817.048,1222.18 L807.091,1237.06 L804.918,1243.22 L796.78,1252.9 L786.065,1261.54 L783.092,1266.17 L756.023,1294.23 L742.445,1301.42 L736.686,1307.27 L716.237,1340.24 L711.801,1352.19 L706.045,1362.33 L705.952,1368.24 L711.917,1385.91 L712.234,1391.46 L710.996,1394.59 L707.003,1397.27 L702.819,1397.25 L683.253,1387.63 L665.578,1389.02 L661.39,1390.68 L655.253,1397.35 L653.293,1410.16 L650.896,1414.26 L636.109,1425.21 L627.672,1428.49 L618.317,1438.37 L603.555,1449.37 L598.57,1456.66 L590.887,1460.09 L574.273,1485.1 L568.415,1488.89 L557.371,1499.5 L538.473,1522.91 L529.676,1530.69 L526.255,1536.41 L506.129,1550.45 L500.103,1556.44 L498.747,1559.4 L497.617,1574.93 L492.429,1583.71 L460.68,1602.97 L452.331,1614.36 L445.037,1616.07 L408.114,1640.98 L367.784,1665.6 L358.853,1674.73 L348.233,1688.96 L344.829,1696.8 L308.877,1741.7 L299.978,1751.99 L282.355,1766.47 L267.759,1793.04 L239.632,1833.06 L207.687,1866.01 L184.94,1882.56 L183.146,1886.08 L180.961,1898.69 L177.542,1903.35 L112.427,1933.58 L98.6982,1945.27 L89.2023,1951.41 L82.7507,1952.57 L73.8015,1950.62 L69.0369,1951.43 L64.5716,1959.23 L53.3111,1966.55 L46.4955,1966.18 L33.9668,1960.39 L28.7635,1955.14 L16.9923,1949.39 L12.324,1950.47 L3.95699,1956.81 L-14.3454,1961.61 L-30.2105,1963.76 L-43.6795,1963.22 L-49.9975,1960.25 L-55.7254,1954.86 L-71.2276,1952.36 L-92.6725,1962.55 L-110.009,1961.85 L-120.752,1968.1 L-146.26,2007.27 L-152.992,2010.84 L-163.804,2019.56 L-192.923,2030.23 L-235.85,2026.98 L-248.888,2031.79 L-265.198,2032.35 L-274.375,2038.49 L-278.729,2050.2 L-287.812,2057.86 L-296.225,2062.02 L-297.326,2063.06" fill-rule="evenodd"/>
   <path vector-effect="none" d="" fill-rule="evenodd"/>
  </g>
  <g font-family="Ubuntu" fill="none" stroke-opacity="1" font-size="45.8333" stroke-dashoffset="0" stroke-width="3.89764" font-style="normal" transform="matrix(0.999811,0,0,0.999811,0,0)" stroke="#ffffff" font-weight="400" stroke-linecap="square" stroke-dasharray="35.4331,35.4331" stroke-linejoin="bevel">
   <path vector-effect="none" d="M2784.84,637.917 L2777.11,637.52 L2732.75,630.505 L2685.32,628.512 L2678.48,630.34 L2644.84,645.857 L2621.07,645.097 L2616.58,648.08 L2608.77,658.208 L2603.74,660.587 L2579.09,662.824 L2525.26,663.222 L2477.26,658.257 L2442.52,662.861 L2384.46,664.707 L2379.52,665.83 L2353.68,679.777 L2334.08,679.094 L2317.52,676.49 L2306.56,679.426 L2296,688.178 L2286.28,688.442 L2241.59,676.438 L2225.79,676.898 L2212.02,675.082 L2201.54,670.474 L2174.9,668.687 L2148.4,655.776 L1940.9,619.499 L1922.08,620.891 L1877.62,613.208 L1846.33,617.323 L1825.26,613.789 L1807.39,614.976 L1755.23,603.126 L1697.68,599.445 L1684.6,590.397 L1670.73,589.643 L1613.62,577.23 L1554.45,575.466 L1499.58,555.065 L1473.36,559.042 L1453.19,566.709 L1411.79,571.065 L1406.55,570.13 L1394.33,563.63 L1374.03,565.104 L1341.27,554.196 L1301.86,551.48 L1274.65,566.801 L1272.11,570.46 L1266.86,585.945 L1262.5,590.743 L1240.83,597.35 L1219.12,608.02 L1218.67,613.588 L1216.24,620.137 L1218.1,626.746 L1217.64,630.524 L1209.2,647.616 L1202.76,650.93 L1200.34,654.748 L1193.92,684.028 L1193.24,701.248 L1191.4,708.11 L1185.37,719.613 L1147,763.355 L1123.75,796.777 L1122.41,800.385 L1121.79,806.57 L1117.89,818.106 L1106.81,828.271 L1097.43,841.831 L1090.88,862.089 L1090.07,869.933 L1084.86,881.578 L1083.82,889.241 L1073.81,916.207 L1069.6,932.167 L1061.67,945.747 L1046.64,964.422 L1026.83,985.035 L1012.51,996.812 L999.808,1011.81 L986.8,1033.08 L974.109,1050.03 L964.485,1072.47 L957.267,1084.16 L946.961,1093.64 L936.059,1107.36 L922.073,1114.57 L912.718,1125.3 L899.888,1136.14 L893.258,1138.43 L881.34,1147.41 L879.817,1149.67 L877.762,1159.14 L860.492,1185.44 L842.023,1194.25 L835.326,1202.06 L831.757,1210.14 L823.48,1218.61 L817.048,1222.18 L807.091,1237.06 L804.918,1243.22 L796.78,1252.9 L786.065,1261.54 L783.092,1266.17 L756.023,1294.23 L742.445,1301.42 L736.686,1307.27 L716.237,1340.24 L711.801,1352.19 L706.045,1362.33 L705.952,1368.24 L711.917,1385.91 L712.234,1391.46 L710.996,1394.59 L707.003,1397.27 L702.819,1397.25 L683.253,1387.63 L665.578,1389.02 L661.39,1390.68 L655.253,1397.35 L653.293,1410.16 L650.896,1414.26 L636.109,1425.21 L627.672,1428.49 L618.317,1438.37 L603.555,1449.37 L598.57,1456.66 L590.887,1460.09 L574.273,1485.1 L568.415,1488.89 L557.371,1499.5 L538.473,1522.91 L529.676,1530.69 L526.255,1536.41 L506.129,1550.45 L500.103,1556.44 L498.747,1559.4 L497.617,1574.93 L492.429,1583.71 L460.68,1602.97 L452.331,1614.36 L445.037,1616.07 L408.114,1640.98 L367.784,1665.6 L358.853,1674.73 L348.233,1688.96 L344.829,1696.8 L308.877,1741.7 L299.978,1751.99 L282.355,1766.47 L267.759,1793.04 L239.632,1833.06 L207.687,1866.01 L184.94,1882.56 L183.146,1886.08 L180.961,1898.69 L177.542,1903.35 L112.427,1933.58 L98.6982,1945.27 L89.2023,1951.41 L82.7507,1952.57 L73.8015,1950.62 L69.0369,1951.43 L64.5716,1959.23 L53.3111,1966.55 L46.4955,1966.18 L33.9668,1960.39 L28.7635,1955.14 L16.9923,1949.39 L12.324,1950.47 L3.95699,1956.81 L-14.3454,1961.61 L-30.2105,1963.76 L-43.6795,1963.22 L-49.9975,1960.25 L-55.7254,1954.86 L-71.2276,1952.36 L-92.6725,1962.55 L-110.009,1961.85 L-120.752,1968.1 L-146.26,2007.27 L-152.992,2010.84 L-163.804,2019.56 L-192.923,2030.23 L-235.85,2026.98 L-248.888,2031.79 L-265.198,2032.35 L-274.375,2038.49 L-278.729,2050.2 L-287.812,2057.86 L-296.225,2062.02 L-297.326,2063.06" fill-rule="evenodd"/>
   <path vector-effect="none" d="" fill-rule="evenodd"/>
  </g>
  <g font-family="Ubuntu" fill="none" stroke-opacity="1" font-size="45.8333" stroke-width="7.79528" font-style="normal" transform="matrix(0.999811,0,0,0.999811,0,0)" stroke="#000000" font-weight="400" stroke-linecap="round" stroke-linejoin="round">
   <path vector-effect="none" d="" fill-rule="evenodd"/>
   <path vector-effect="none" d="M1174.49,595.569 L1154.58,587.763 L1138.82,583.935 L1090.06,582.056 L1057.35,585.852 L1026.11,584.08 L1019.52,585.234 L973.674,580.509 L941.61,572.49 L931.393,568.121 L909.573,570.084 L896.824,563.861 L883.492,563.052 L872.14,560.122 L832.522,559.583 L800.956,552.458 L782.659,540.867 L764.981,540.466 L754.695,532.68 L749.244,531.287 L729.324,518.76 L724.861,517.721 L709.991,518.044 L701.833,521.388 L680.591,519.002 L675.309,523.798 L673.554,529.898 L669.292,537.829 L656.818,545.965 L601.349,555.509 L574.162,553.588 L549.913,546.872 L540.89,547.965 L533.197,546.526 L513.724,546.568 L510.614,544.237 L508.548,538.242 L503.126,529.985 L493.555,523.858 L479.737,517.929 L465.116,521.499 L453.286,527.879 L449.801,527.094 L445.543,522.35 L442.369,521.266 L427.549,527.919 L401.202,524.616 L395.908,525.852 L378.434,535.106 L372.954,543.55 L343.078,572.518 L304.36,587.36 L294.579,584.93 L277.784,574.693 L259.221,569.596 L211.061,567.212 L115.453,571.137 L-38.0295,546.926 L-49.035,549.382 L-54.813,553.589 L-59.9045,554.708 L-146.925,533.002 L-158.625,524.686 L-167.336,520.576 L-260.878,483.109" fill-rule="evenodd"/>
   <path vector-effect="none" d="M1174.49,595.569 L1176.69,597.744" fill-rule="evenodd"/>
  </g>
  <g font-family="Ubuntu" fill="none" stroke-opacity="1" font-size="45.8333" stroke-dashoffset="0" stroke-width="3.89764" font-style="normal" transform="matrix(0.999811,0,0,0.999811,0,0)" stroke="#ffffff" font-weight="400" stroke-linecap="square" stroke-dasharray="35.4331,35.4331" stroke-linejoin="bevel">
   <path vector-effect="none" d="" fill-rule="evenodd"/>
   <path vector-effect="none" d="M1174.49,595.569 L1154.58,587.763 L1138.82,583.935 L1090.06,582.056 L1057.35,585.852 L1026.11,584.08 L1019.52,585.234 L973.674,580.509 L941.61,572.49 L931.393,568.121 L909.573,570.084 L896.824,563.861 L883.492,563.052 L872.14,560.122 L832.522,559.583 L800.956,552.458 L782.659,540.867 L764.981,540.466 L754.695,532.68 L749.244,531.287 L729.324,518.76 L724.861,517.721 L709.991,518.044 L701.833,521.388 L680.591,519.002 L675.309,523.798 L673.554,529.898 L669.292,537.829 L656.818,545.965 L601.349,555.509 L574.162,553.588 L549.913,546.872 L540.89,547.965 L533.197,546.526 L513.724,546.568 L510.614,544.237 L508.548,538.242 L503.126,529.985 L493.555,523.858 L479.737,517.929 L465.116,521.499 L453.286,527.879 L449.801,527.094 L445.543,522.35 L442.369,521.266 L427.549,527.919 L401.202,524.616 L395.908,525.852 L378.434,535.106 L372.954,543.55 L343.078,572.518 L304.36,587.36 L294.579,584.93 L277.784,574.693 L259.221,569.596 L211.061,567.212 L115.453,571.137 L-38.0295,546.926 L-49.035,549.382 L-54.813,553.589 L-59.9045,554.708 L-146.925,533.002 L-158.625,524.686 L-167.336,520.576 L-260.878,483.109" fill-rule="evenodd"/>
   <path vector-effect="none" d="M1174.49,595.569 L1176.69,597.744" fill-rule="evenodd"/>
  </g>
  <g font-family="Ubuntu" fill="none" stroke-opacity="1" font-size="45.8333" stroke-width="4.25197" font-style="normal" transform="matrix(0.999811,0,0,0.999811,0,0)" stroke="#232323" font-weight="400" stroke-linecap="square" stroke-linejoin="bevel">
   <path vector-effect="none" d="M762.909,105.687 L758.541,100.032 L758.451,95.4457 L755.328,85.6334 L756.096,79.7285 L775.52,61.269 L779.893,58.7507 L788.323,58.4242 L789.059,56.5252 L788.102,51.8439 L784.219,46.5183 L785.31,42.4359 L795.836,40.7066 L798.851,36.9425 L806.464,32.3665 L811.834,26.3514 L827.925,21.5473 L839.801,13.0043 L847.353,11.0901 L850.913,8.26451 L857.466,-2.49219 L859.76,-9.43547 L862.934,-30.1692 L858.087,-40.6362 L857.822,-62.8145 L861.02,-77.9226 L866.685,-84.8596 L867.921,-88.6664 L866.125,-92.5369 L855.751,-98.4933 L852.976,-103.829 L851.721,-109.88 L834.342,-130.034 L832.973,-133.592 L832.007,-153.076 L833.994,-167.891 L832.515,-181.851 L845.962,-200.492 L850.332,-211.504 L852.551,-244.718" fill-rule="evenodd"/>
   <path vector-effect="none" d="" fill-rule="evenodd"/>
   <path vector-effect="none" d="M414.503,1636.67 L412.215,1638.19" fill-rule="evenodd"/>
   <path vector-effect="none" d="M414.503,1636.67 L418.603,1636.1 L438.588,1640.95 L462.301,1641.83 L477.64,1634.76 L485.666,1634.48 L499.925,1629.98 L506.307,1630.69 L528.242,1637.73 L534.722,1645.69 L553.673,1656.28 L567.421,1655.06 L585.447,1663.6 L604.379,1667.88 L616.976,1675.38 L622.339,1682.23 L636.147,1685.01 L640.402,1683.76 L650.464,1676.16 L669.172,1667.73 L679.863,1666.71 L697.037,1668.31 L715.248,1664.18 L719.368,1665.97 L723.813,1673.66 L730.355,1676.9 L748.713,1678.66 L791.849,1671.89 L813.698,1671.04 L825.032,1666.38 L848.326,1668.44 L853.639,1667.45 L876.343,1678.33 L881.6,1677.17 L896.12,1678.2 L906.22,1674.41 L917.556,1675.65 L926.325,1673.38 L957.579,1673.35 L973.902,1676.54 L1060.05,1661.16 L1074.45,1654.09 L1087.85,1653.53 L1117.6,1640.47 L1140.01,1632.94 L1180.82,1632.31 L1184.57,1631.09 L1186.8,1628.92 L1187.67,1625.92 L1186.65,1619.57 L1187.15,1599.73 L1194.24,1586.78 L1198.37,1581.56 L1211.57,1572.18 L1223.09,1552.88 L1226.76,1542.68 L1242.81,1522.85 L1251.18,1520.18 L1256.22,1515.55 L1257.69,1511.77 L1257.74,1501.92 L1262.19,1494.35 L1265.63,1492.6 L1277.44,1497.05 L1290.06,1497.44 L1300.19,1494.07 L1314.2,1496.42 L1322.01,1499.41 L1355.2,1519.17 L1374.96,1515.86 L1385,1512.01 L1414.77,1520.09 L1432.34,1518.9 L1435.44,1517.52 L1443.81,1508.62 L1455.26,1501.06 L1466.77,1501.25 L1471.02,1503.16 L1475.71,1502.33 L1481.38,1506.15 L1485.44,1506.42 L1489.68,1503.75 L1492.55,1497.81 L1497.31,1495.59 L1512.32,1496.2 L1538.4,1501.78 L1560.06,1504 L1572.14,1496.49 L1578.88,1499.52 L1588.31,1498.95 L1597.37,1495.81 L1610.32,1500.35 L1617.87,1501.3 L1627.95,1506.09 L1656.12,1506.88 L1667.33,1505.18 L1684.19,1511.31 L1708.32,1506.04 L1720.58,1506.9 L1724.3,1505.46" fill-rule="evenodd"/>
   <path vector-effect="none" d="M1724.3,1505.46 L1725.96,1504.21" fill-rule="evenodd"/>
   <path vector-effect="none" d="M2207.17,1624.46 L2208.16,1626.59" fill-rule="evenodd"/>
   <path vector-effect="none" d="M2207.17,1624.46 L2207.95,1621.16 L2211.82,1617.84 L2217.38,1616.66 L2221.15,1610.62 L2221.9,1585.62 L2233.19,1557.86 L2233.28,1546.51 L2243.21,1535.75" fill-rule="evenodd"/>
  </g>
  <g font-family="Ubuntu" fill="none" stroke-opacity="1" font-size="45.8333" stroke-width="7.79528" font-style="normal" transform="matrix(0.999811,0,0,0.999811,0,0)" stroke="#000000" font-weight="400" stroke-linecap="round" stroke-linejoin="round">
   <path vector-effect="none" d="" fill-rule="evenodd"/>
   <path vector-effect="none" d="M2751,61.1085 L2743.18,59.5346 L2723.93,59.4999 L2701.4,46.9521 L2681.64,43.0402 L2674.76,43.3602 L2665.06,49.2208 L2627.38,53.9495 L2620.05,53.079 L2609.63,47.3447 L2598.94,45.8092 L2583.13,39.5253 L2555.73,15.0348 L2530.11,-3.22241 L2524.38,-4.43382 L2513.44,-2.26027 L2491.7,-5.27887 L2452.76,-25.3967 L2444.34,-36.14 L2438.12,-40.7202 L2396.24,-45.4509 L2374.25,-44.1337 L2366.49,-45.4493 L2354.95,-54.3646 L2324.61,-67.6001 L2314.13,-78.632 L2299.81,-89.9441 L2296.61,-98.6756 L2282.96,-106.347 L2255.55,-113.817 L2154.62,-158.388 L2110.36,-161.812 L2064.78,-185.666 L2038.27,-191.39 L2032.82,-196.633 L2026.44,-197.772 L2016,-204.484 L2001.63,-221.904 L1992.63,-226.196 L1985.11,-235.384 L1971.5,-242.044 L1950.03,-248.99 L1944.43,-248.575 L1936.73,-244.505 L1932.47,-245.557 L1929.58,-247.772 L1925.02,-255.885 L1918.73,-263.551 L1913.82,-266.263 L1907.29,-267.459" fill-rule="evenodd"/>
  </g>
  <g font-family="Ubuntu" fill="none" stroke-opacity="1" font-size="45.8333" stroke-dashoffset="0" stroke-width="3.89764" font-style="normal" transform="matrix(0.999811,0,0,0.999811,0,0)" stroke="#ffffff" font-weight="400" stroke-linecap="square" stroke-dasharray="35.4331,35.4331" stroke-linejoin="bevel">
   <path vector-effect="none" d="" fill-rule="evenodd"/>
   <path vector-effect="none" d="M2751,61.1085 L2743.18,59.5346 L2723.93,59.4999 L2701.4,46.9521 L2681.64,43.0402 L2674.76,43.3602 L2665.06,49.2208 L2627.38,53.9495 L2620.05,53.079 L2609.63,47.3447 L2598.94,45.8092 L2583.13,39.5253 L2555.73,15.0348 L2530.11,-3.22241 L2524.38,-4.43382 L2513.44,-2.26027 L2491.7,-5.27887 L2452.76,-25.3967 L2444.34,-36.14 L2438.12,-40.7202 L2396.24,-45.4509 L2374.25,-44.1337 L2366.49,-45.4493 L2354.95,-54.3646 L2324.61,-67.6001 L2314.13,-78.632 L2299.81,-89.9441 L2296.61,-98.6756 L2282.96,-106.347 L2255.55,-113.817 L2154.62,-158.388 L2110.36,-161.812 L2064.78,-185.666 L2038.27,-191.39 L2032.82,-196.633 L2026.44,-197.772 L2016,-204.484 L2001.63,-221.904 L1992.63,-226.196 L1985.11,-235.384 L1971.5,-242.044 L1950.03,-248.99 L1944.43,-248.575 L1936.73,-244.505 L1932.47,-245.557 L1929.58,-247.772 L1925.02,-255.885 L1918.73,-263.551 L1913.82,-266.263 L1907.29,-267.459" fill-rule="evenodd"/>
  </g>
  <g font-family="Ubuntu" fill="none" stroke-opacity="1" font-size="45.8333" stroke-width="7.79528" font-style="normal" transform="matrix(0.999811,0,0,0.999811,0,0)" stroke="#000000" font-weight="400" stroke-linecap="round" stroke-linejoin="round">
   <path vector-effect="none" d="M1987.41,1369.27 L1978.17,1363.81 L1972.54,1364.32 L1966.58,1367.12 L1961.48,1372.65 L1959.53,1381.86 L1957.71,1385.35 L1939.94,1400.91 L1922.49,1409.75 L1893.37,1421.09 L1834.74,1422.51 L1815.79,1429.23 L1722.46,1452.5 L1718.84,1454.86 L1717.73,1458.44 L1719.25,1473.43 L1728.6,1495.07 L1729.11,1498.45 L1727.61,1502.57 L1718.99,1510.53 L1717.12,1513.86 L1696.19,1652.83 L1697.05,1656.86 L1704.9,1672.91 L1714.2,1709.29 L1708.37,1791.04 L1629.76,1923.8 L1620.38,1989.21 L1596.52,2018.53 L1588.7,2032.58 L1566.1,2048.49 L1448.47,2172.12 L1428.98,2210.86 L1419.45,2221.35 L1365.84,2267.87 L1347.44,2275.69 L1344.39,2279.34 L1344.5,2289.91 L1357.45,2371.54 L1371.99,2490.83 L1365.48,2535.54 L1367.99,2578.02 L1369,2674.18 L1368.98,2674.5" fill-rule="evenodd"/>
   <path vector-effect="none" d="" fill-rule="evenodd"/>
  </g>
  <g font-family="Ubuntu" fill="none" stroke-opacity="1" font-size="45.8333" stroke-dashoffset="0" stroke-width="3.89764" font-style="normal" transform="matrix(0.999811,0,0,0.999811,0,0)" stroke="#ffffff" font-weight="400" stroke-linecap="square" stroke-dasharray="35.4331,35.4331" stroke-linejoin="bevel">
   <path vector-effect="none" d="M1987.41,1369.27 L1978.17,1363.81 L1972.54,1364.32 L1966.58,1367.12 L1961.48,1372.65 L1959.53,1381.86 L1957.71,1385.35 L1939.94,1400.91 L1922.49,1409.75 L1893.37,1421.09 L1834.74,1422.51 L1815.79,1429.23 L1722.46,1452.5 L1718.84,1454.86 L1717.73,1458.44 L1719.25,1473.43 L1728.6,1495.07 L1729.11,1498.45 L1727.61,1502.57 L1718.99,1510.53 L1717.12,1513.86 L1696.19,1652.83 L1697.05,1656.86 L1704.9,1672.91 L1714.2,1709.29 L1708.37,1791.04 L1629.76,1923.8 L1620.38,1989.21 L1596.52,2018.53 L1588.7,2032.58 L1566.1,2048.49 L1448.47,2172.12 L1428.98,2210.86 L1419.45,2221.35 L1365.84,2267.87 L1347.44,2275.69 L1344.39,2279.34 L1344.5,2289.91 L1357.45,2371.54 L1371.99,2490.83 L1365.48,2535.54 L1367.99,2578.02 L1369,2674.18 L1368.98,2674.5" fill-rule="evenodd"/>
   <path vector-effect="none" d="" fill-rule="evenodd"/>
  </g>
  <g font-family="Ubuntu" fill="none" stroke-opacity="1" font-size="45.8333" stroke-width="1" font-style="normal" transform="matrix(0.999811,0,0,0.999811,0,0)" stroke="#000000" font-weight="400" stroke-linecap="square" stroke-linejoin="bevel"/>
  <g font-family="Ubuntu" fill="#ffffff" stroke-opacity="1" font-size="45.8333" stroke-width="4.72441" font-style="normal" transform="matrix(0.999811,0,0,0.999811,0,0)" stroke="#000000" font-weight="400" stroke-linecap="square" fill-opacity="1" stroke-linejoin="bevel">
   <path vector-effect="none" d="M682.647,1388.58 C682.647,1395.1 677.359,1400.39 670.836,1400.39 C664.313,1400.39 659.025,1395.1 659.025,1388.58 C659.025,1382.05 664.313,1376.77 670.836,1376.77 C677.359,1376.77 682.647,1382.05 682.647,1388.58 " fill-rule="evenodd"/>
   <path vector-effect="none" d="M1197.01,604.882 C1197.01,611.405 1191.72,616.693 1185.2,616.693 C1178.67,616.693 1173.39,611.405 1173.39,604.882 C1173.39,598.359 1178.67,593.071 1185.2,593.071 C1191.72,593.071 1197.01,598.359 1197.01,604.882 " fill-rule="evenodd"/>
   <path vector-effect="none" d="M2253.6,1662.57 C2253.6,1669.09 2248.31,1674.38 2241.79,1674.38 C2235.27,1674.38 2229.98,1669.09 2229.98,1662.57 C2229.98,1656.04 2235.27,1650.76 2241.79,1650.76 C2248.31,1650.76 2253.6,1656.04 2253.6,1662.57 " fill-rule="evenodd"/>
   <path vector-effect="none" d="M1730.33,1467.05 C1730.33,1473.57 1725.04,1478.86 1718.52,1478.86 C1712,1478.86 1706.71,1473.57 1706.71,1467.05 C1706.71,1460.52 1712,1455.24 1718.52,1455.24 C1725.04,1455.24 1730.33,1460.52 1730.33,1467.05 " fill-rule="evenodd"/>
   <path vector-effect="none" d="M418.097,1642.07 C418.097,1648.6 412.809,1653.88 406.286,1653.88 C399.763,1653.88 394.475,1648.6 394.475,1642.07 C394.475,1635.55 399.763,1630.26 406.286,1630.26 C412.809,1630.26 418.097,1635.55 418.097,1642.07 " fill-rule="evenodd"/>
   <path vector-effect="none" d="M1282.46,1493.89 C1282.46,1500.41 1277.17,1505.7 1270.65,1505.7 C1264.13,1505.7 1258.84,1500.41 1258.84,1493.89 C1258.84,1487.37 1264.13,1482.08 1270.65,1482.08 C1277.17,1482.08 1282.46,1487.37 1282.46,1493.89 " fill-rule="evenodd"/>
  </g>
  <g font-family="Ubuntu" fill="none" stroke-opacity="1" font-size="45.8333" stroke-width="1" font-style="normal" transform="matrix(0.999811,0,0,0.999811,0,0)" stroke="#000000" font-weight="400" stroke-linecap="square" stroke-linejoin="bevel"/>
  <g font-family="Ubuntu" fill="none" stroke-opacity="1" font-size="45.8333" stroke-width="1" font-style="normal" transform="matrix(0.999811,0,0,0.999811,0,0)" stroke="#000000" font-weight="400" stroke-linecap="square" stroke-linejoin="bevel"/>
  <g font-family="Ubuntu" fill="none" stroke-opacity="1" font-size="45.8333" stroke-width="1" font-style="normal" transform="matrix(0.999811,0,0,0.999811,0,0)" stroke="#000000" font-weight="400" stroke-linecap="square" stroke-linejoin="bevel"/>
  <g font-family="Ubuntu" fill="none" stroke-opacity="1" font-size="45.8333" stroke-width="1" font-style="normal" transform="matrix(0.999811,0,0,0.999811,0,0)" stroke="#000000" font-weight="400" stroke-linecap="square" stroke-linejoin="bevel"/>
  <g font-family="Ubuntu" fill="none" stroke-opacity="1" font-size="45.8333" stroke-width="1" font-style="normal" transform="matrix(0.319939,0,0,0.319939,1397.9,1440.12)" stroke="#000000" font-weight="400" stroke-linecap="square" stroke-linejoin="bevel"/>
  <g font-family="Ubuntu" fill="#6d6d6d" font-size="45.8333" font-style="normal" transform="matrix(0.999811,0,0,0.999811,1397.9,1440.12)" stroke="none" font-weight="400" fill-opacity="0.694118">
   <path vector-effect="non-scaling-stroke" d="M-113.816,-49.3 L113.816,-49.3 L113.816,49.3 L-113.816,49.3 L-113.816,-49.3" fill-rule="evenodd"/>
  </g>
  <g font-family="Ubuntu" fill="none" stroke-opacity="1" font-size="45.8333" stroke-width="1" font-style="normal" transform="matrix(0.319939,0,0,0.319939,1397.9,1440.12)" stroke="#000000" font-weight="400" stroke-linecap="square" stroke-linejoin="bevel"/>
  <g font-family="Ubuntu" fill="none" stroke-opacity="1" font-size="45.8333" stroke-width="1" font-style="normal" transform="matrix(0.999811,0,0,0.999811,0,0)" stroke="#000000" font-weight="400" stroke-linecap="square" stroke-linejoin="bevel"/>
  <g font-family="Ubuntu" fill="none" stroke-opacity="1" font-size="42" stroke-width="1" font-style="normal" transform="matrix(0.999811,0,0,0.999811,1285.4,1430.12)" stroke="#ffffff" font-weight="400" stroke-linecap="square" stroke-linejoin="bevel">
   <text font-family="Ubuntu" fill="#ffffff" font-size="42" font-style="normal" xml:space="preserve" stroke="none" font-weight="400" x="0" fill-opacity="1" y="0">Кувшиново</text>
  </g>
  <g font-family="Ubuntu" fill="none" stroke-opacity="1" font-size="45.8333" stroke-width="1" font-style="normal" transform="matrix(0.999811,0,0,0.999811,0,0)" stroke="#000000" font-weight="400" stroke-linecap="square" stroke-linejoin="bevel"/>
  <g font-family="Ubuntu" fill="none" stroke-opacity="1" font-size="42" stroke-width="1" font-style="normal" transform="matrix(0.999811,0,0,0.999811,1285.4,1478.11)" stroke="#ffffff" font-weight="400" stroke-linecap="square" stroke-linejoin="bevel">
   <text font-family="Ubuntu" fill="#ffffff" font-size="42" font-style="normal" xml:space="preserve" stroke="none" font-weight="400" x="0" fill-opacity="1" y="0">Kuvshinovo</text>
  </g>
  <g font-family="Ubuntu" fill="none" stroke-opacity="1" font-size="45.8333" stroke-width="1" font-style="normal" transform="matrix(0.999811,0,0,0.999811,0,0)" stroke="#000000" font-weight="400" stroke-linecap="square" stroke-linejoin="bevel"/>
  <g font-family="Ubuntu" fill="none" stroke-opacity="1" font-size="45.8333" stroke-width="1" font-style="normal" transform="matrix(0.319939,0,0,0.319939,784.602,1334.32)" stroke="#000000" font-weight="400" stroke-linecap="square" stroke-linejoin="bevel"/>
  <g font-family="Ubuntu" fill="#6d6d6d" font-size="45.8333" font-style="normal" transform="matrix(0.999811,0,0,0.999811,784.602,1334.32)" stroke="none" font-weight="400" fill-opacity="0.694118">
   <path vector-effect="non-scaling-stroke" d="M-100.714,-49.3 L100.714,-49.3 L100.714,49.3 L-100.714,49.3 L-100.714,-49.3" fill-rule="evenodd"/>
  </g>
  <g font-family="Ubuntu" fill="none" stroke-opacity="1" font-size="45.8333" stroke-width="1" font-style="normal" transform="matrix(0.319939,0,0,0.319939,784.602,1334.32)" stroke="#000000" font-weight="400" stroke-linecap="square" stroke-linejoin="bevel"/>
  <g font-family="Ubuntu" fill="none" stroke-opacity="1" font-size="45.8333" stroke-width="1" font-style="normal" transform="matrix(0.999811,0,0,0.999811,0,0)" stroke="#000000" font-weight="400" stroke-linecap="square" stroke-linejoin="bevel"/>
  <g font-family="Ubuntu" fill="none" stroke-opacity="1" font-size="42" stroke-width="1" font-style="normal" transform="matrix(0.999811,0,0,0.999811,685.207,1324.33)" stroke="#ffffff" font-weight="400" stroke-linecap="square" stroke-linejoin="bevel">
   <text font-family="Ubuntu" fill="#ffffff" font-size="42" font-style="normal" xml:space="preserve" stroke="none" font-weight="400" x="0" fill-opacity="1" y="0">Осташков</text>
  </g>
  <g font-family="Ubuntu" fill="none" stroke-opacity="1" font-size="45.8333" stroke-width="1" font-style="normal" transform="matrix(0.999811,0,0,0.999811,0,0)" stroke="#000000" font-weight="400" stroke-linecap="square" stroke-linejoin="bevel"/>
  <g font-family="Ubuntu" fill="none" stroke-opacity="1" font-size="42" stroke-width="1" font-style="normal" transform="matrix(0.999811,0,0,0.999811,685.207,1372.32)" stroke="#ffffff" font-weight="400" stroke-linecap="square" stroke-linejoin="bevel">
   <text font-family="Ubuntu" fill="#ffffff" font-size="42" font-style="normal" xml:space="preserve" stroke="none" font-weight="400" x="0" fill-opacity="1" y="0">Ostashkov</text>
  </g>
  <g font-family="Ubuntu" fill="none" stroke-opacity="1" font-size="45.8333" stroke-width="1" font-style="normal" transform="matrix(0.999811,0,0,0.999811,0,0)" stroke="#000000" font-weight="400" stroke-linecap="square" stroke-linejoin="bevel"/>
  <g font-family="Ubuntu" fill="none" stroke-opacity="1" font-size="45.8333" stroke-width="1" font-style="normal" transform="matrix(0.319939,0,0,0.319939,1289.83,551.277)" stroke="#000000" font-weight="400" stroke-linecap="square" stroke-linejoin="bevel"/>
  <g font-family="Ubuntu" fill="#6d6d6d" font-size="45.8333" font-style="normal" transform="matrix(0.999811,0,0,0.999811,1289.83,551.277)" stroke="none" font-weight="400" fill-opacity="0.694118">
   <path vector-effect="non-scaling-stroke" d="M-91.675,-49.3 L91.675,-49.3 L91.675,49.3 L-91.675,49.3 L-91.675,-49.3" fill-rule="evenodd"/>
  </g>
  <g font-family="Ubuntu" fill="none" stroke-opacity="1" font-size="45.8333" stroke-width="1" font-style="normal" transform="matrix(0.319939,0,0,0.319939,1289.83,551.277)" stroke="#000000" font-weight="400" stroke-linecap="square" stroke-linejoin="bevel"/>
  <g font-family="Ubuntu" fill="none" stroke-opacity="1" font-size="45.8333" stroke-width="1" font-style="normal" transform="matrix(0.999811,0,0,0.999811,0,0)" stroke="#000000" font-weight="400" stroke-linecap="square" stroke-linejoin="bevel"/>
  <g font-family="Ubuntu" fill="none" stroke-opacity="1" font-size="42" stroke-width="1" font-style="normal" transform="matrix(0.999811,0,0,0.999811,1199.47,541.279)" stroke="#ffffff" font-weight="400" stroke-linecap="square" stroke-linejoin="bevel">
   <text font-family="Ubuntu" fill="#ffffff" font-size="42" font-style="normal" xml:space="preserve" stroke="none" font-weight="400" x="0" fill-opacity="1" y="0">Бологое</text>
  </g>
  <g font-family="Ubuntu" fill="none" stroke-opacity="1" font-size="45.8333" stroke-width="1" font-style="normal" transform="matrix(0.999811,0,0,0.999811,0,0)" stroke="#000000" font-weight="400" stroke-linecap="square" stroke-linejoin="bevel"/>
  <g font-family="Ubuntu" fill="none" stroke-opacity="1" font-size="42" stroke-width="1" font-style="normal" transform="matrix(0.999811,0,0,0.999811,1199.47,589.27)" stroke="#ffffff" font-weight="400" stroke-linecap="square" stroke-linejoin="bevel">
   <text font-family="Ubuntu" fill="#ffffff" font-size="42" font-style="normal" xml:space="preserve" stroke="none" font-weight="400" x="0" fill-opacity="1" y="0">Bologoye</text>
  </g>
  <g font-family="Ubuntu" fill="none" stroke-opacity="1" font-size="45.8333" stroke-width="1" font-style="normal" transform="matrix(0.999811,0,0,0.999811,0,0)" stroke="#000000" font-weight="400" stroke-linecap="square" stroke-linejoin="bevel"/>
  <g font-family="Ubuntu" fill="none" stroke-opacity="1" font-size="45.8333" stroke-width="1" font-style="normal" transform="matrix(0.319939,0,0,0.319939,502.932,1588.27)" stroke="#000000" font-weight="400" stroke-linecap="square" stroke-linejoin="bevel"/>
  <g font-family="Ubuntu" fill="#6d6d6d" font-size="45.8333" font-style="normal" transform="matrix(0.999811,0,0,0.999811,502.932,1588.27)" stroke="none" font-weight="400" fill-opacity="0.694118">
   <path vector-effect="non-scaling-stroke" d="M-83.5422,-49.3 L83.5422,-49.3 L83.5422,49.3 L-83.5422,49.3 L-83.5422,-49.3" fill-rule="evenodd"/>
  </g>
  <g font-family="Ubuntu" fill="none" stroke-opacity="1" font-size="45.8333" stroke-width="1" font-style="normal" transform="matrix(0.319939,0,0,0.319939,502.932,1588.27)" stroke="#000000" font-weight="400" stroke-linecap="square" stroke-linejoin="bevel"/>
  <g font-family="Ubuntu" fill="none" stroke-opacity="1" font-size="45.8333" stroke-width="1" font-style="normal" transform="matrix(0.999811,0,0,0.999811,0,0)" stroke="#000000" font-weight="400" stroke-linecap="square" stroke-linejoin="bevel"/>
  <g font-family="Ubuntu" fill="none" stroke-opacity="1" font-size="42" stroke-width="1" font-style="normal" transform="matrix(0.999811,0,0,0.999811,420.706,1578.27)" stroke="#ffffff" font-weight="400" stroke-linecap="square" stroke-linejoin="bevel">
   <text font-family="Ubuntu" fill="#ffffff" font-size="42" font-style="normal" xml:space="preserve" stroke="none" font-weight="400" x="0" fill-opacity="1" y="0">Соблаго</text>
  </g>
  <g font-family="Ubuntu" fill="none" stroke-opacity="1" font-size="45.8333" stroke-width="1" font-style="normal" transform="matrix(0.999811,0,0,0.999811,0,0)" stroke="#000000" font-weight="400" stroke-linecap="square" stroke-linejoin="bevel"/>
  <g font-family="Ubuntu" fill="none" stroke-opacity="1" font-size="42" stroke-width="1" font-style="normal" transform="matrix(0.999811,0,0,0.999811,420.706,1626.26)" stroke="#ffffff" font-weight="400" stroke-linecap="square" stroke-linejoin="bevel">
   <text font-family="Ubuntu" fill="#ffffff" font-size="42" font-style="normal" xml:space="preserve" stroke="none" font-weight="400" x="0" fill-opacity="1" y="0">Soblago</text>
  </g>
  <g font-family="Ubuntu" fill="none" stroke-opacity="1" font-size="45.8333" stroke-width="1" font-style="normal" transform="matrix(0.999811,0,0,0.999811,0,0)" stroke="#000000" font-weight="400" stroke-linecap="square" stroke-linejoin="bevel"/>
  <g font-family="Ubuntu" fill="none" stroke-opacity="1" font-size="45.8333" stroke-width="1" font-style="normal" transform="matrix(0.319939,0,0,0.319939,1807.22,1413.28)" stroke="#000000" font-weight="400" stroke-linecap="square" stroke-linejoin="bevel"/>
  <g font-family="Ubuntu" fill="#6d6d6d" font-size="45.8333" font-style="normal" transform="matrix(0.999811,0,0,0.999811,1807.22,1413.28)" stroke="none" font-weight="400" fill-opacity="0.694118">
   <path vector-effect="non-scaling-stroke" d="M-75.3469,-49.3 L75.3469,-49.3 L75.3469,49.3 L-75.3469,49.3 L-75.3469,-49.3" fill-rule="evenodd"/>
  </g>
  <g font-family="Ubuntu" fill="none" stroke-opacity="1" font-size="45.8333" stroke-width="1" font-style="normal" transform="matrix(0.319939,0,0,0.319939,1807.22,1413.28)" stroke="#000000" font-weight="400" stroke-linecap="square" stroke-linejoin="bevel"/>
  <g font-family="Ubuntu" fill="none" stroke-opacity="1" font-size="45.8333" stroke-width="1" font-style="normal" transform="matrix(0.999811,0,0,0.999811,0,0)" stroke="#000000" font-weight="400" stroke-linecap="square" stroke-linejoin="bevel"/>
  <g font-family="Ubuntu" fill="none" stroke-opacity="1" font-size="42" stroke-width="1" font-style="normal" transform="matrix(0.999811,0,0,0.999811,1733.19,1403.28)" stroke="#ffffff" font-weight="400" stroke-linecap="square" stroke-linejoin="bevel">
   <text font-family="Ubuntu" fill="#ffffff" font-size="42" font-style="normal" xml:space="preserve" stroke="none" font-weight="400" x="0" fill-opacity="1" y="0">Торжок</text>
  </g>
  <g font-family="Ubuntu" fill="none" stroke-opacity="1" font-size="45.8333" stroke-width="1" font-style="normal" transform="matrix(0.999811,0,0,0.999811,0,0)" stroke="#000000" font-weight="400" stroke-linecap="square" stroke-linejoin="bevel"/>
  <g font-family="Ubuntu" fill="none" stroke-opacity="1" font-size="42" stroke-width="1" font-style="normal" transform="matrix(0.999811,0,0,0.999811,1733.19,1451.27)" stroke="#ffffff" font-weight="400" stroke-linecap="square" stroke-linejoin="bevel">
   <text font-family="Ubuntu" fill="#ffffff" font-size="42" font-style="normal" xml:space="preserve" stroke="none" font-weight="400" x="0" fill-opacity="1" y="0">Torzok</text>
  </g>
  <g font-family="Ubuntu" fill="none" stroke-opacity="1" font-size="45.8333" stroke-width="1" font-style="normal" transform="matrix(0.999811,0,0,0.999811,0,0)" stroke="#000000" font-weight="400" stroke-linecap="square" stroke-linejoin="bevel"/>
  <g font-family="Ubuntu" fill="none" stroke-opacity="1" font-size="45.8333" stroke-width="1" font-style="normal" transform="matrix(0.319939,0,0,0.319939,2312.85,1608.26)" stroke="#000000" font-weight="400" stroke-linecap="square" stroke-linejoin="bevel"/>
  <g font-family="Ubuntu" fill="#6d6d6d" font-size="45.8333" font-style="normal" transform="matrix(0.999811,0,0,0.999811,2312.85,1608.26)" stroke="none" font-weight="400" fill-opacity="0.694118">
   <path vector-effect="non-scaling-stroke" d="M-58.3,-49.3 L58.3,-49.3 L58.3,49.3 L-58.3,49.3 L-58.3,-49.3" fill-rule="evenodd"/>
  </g>
  <g font-family="Ubuntu" fill="none" stroke-opacity="1" font-size="45.8333" stroke-width="1" font-style="normal" transform="matrix(0.319939,0,0,0.319939,2312.85,1608.26)" stroke="#000000" font-weight="400" stroke-linecap="square" stroke-linejoin="bevel"/>
  <g font-family="Ubuntu" fill="none" stroke-opacity="1" font-size="45.8333" stroke-width="1" font-style="normal" transform="matrix(0.999811,0,0,0.999811,0,0)" stroke="#000000" font-weight="400" stroke-linecap="square" stroke-linejoin="bevel"/>
  <g font-family="Ubuntu" fill="none" stroke-opacity="1" font-size="42" stroke-width="1" font-style="normal" transform="matrix(0.999811,0,0,0.999811,2255.86,1598.27)" stroke="#ffffff" font-weight="400" stroke-linecap="square" stroke-linejoin="bevel">
   <text font-family="Ubuntu" fill="#ffffff" font-size="42" font-style="normal" xml:space="preserve" stroke="none" font-weight="400" x="0" fill-opacity="1" y="0">Тверь</text>
  </g>
  <g font-family="Ubuntu" fill="none" stroke-opacity="1" font-size="45.8333" stroke-width="1" font-style="normal" transform="matrix(0.999811,0,0,0.999811,0,0)" stroke="#000000" font-weight="400" stroke-linecap="square" stroke-linejoin="bevel"/>
  <g font-family="Ubuntu" fill="none" stroke-opacity="1" font-size="42" stroke-width="1" font-style="normal" transform="matrix(0.999811,0,0,0.999811,2255.86,1646.26)" stroke="#ffffff" font-weight="400" stroke-linecap="square" stroke-linejoin="bevel">
   <text font-family="Ubuntu" fill="#ffffff" font-size="42" font-style="normal" xml:space="preserve" stroke="none" font-weight="400" x="0" fill-opacity="1" y="0">Tver</text>
  </g>
  <g font-family="Ubuntu" fill="none" stroke-opacity="1" font-size="45.8333" stroke-width="1" font-style="normal" transform="matrix(0.999811,0,0,0.999811,0,0)" stroke="#000000" font-weight="400" stroke-linecap="square" stroke-linejoin="bevel"/>
  <g font-family="Ubuntu" fill="none" stroke-opacity="1" font-size="45.8333" stroke-width="1" font-style="normal" transform="matrix(11.8088,0,0,11.8088,0,0)" stroke="#000000" font-weight="400" stroke-linecap="square" stroke-linejoin="bevel"/>
  <g font-family="Ubuntu" fill="none" stroke-opacity="1" font-size="45.8333" stroke-width="1" font-style="normal" transform="matrix(11.8088,0,0,11.8088,0,0)" stroke="#000000" font-weight="400" stroke-linecap="square" stroke-linejoin="bevel"/>
  <g font-family="Ubuntu" fill="none" stroke-opacity="1" font-size="45.8333" stroke-width="1" font-style="normal" transform="matrix(11.8088,0,0,11.8088,0,0)" stroke="#000000" font-weight="400" stroke-linecap="square" stroke-linejoin="bevel"/>
  <g font-family="Ubuntu" fill="none" stroke-opacity="0.184314" font-size="45.8333" stroke-width="3.54331" font-style="normal" transform="matrix(0.999811,0,0,0.999811,0,0)" stroke="#000000" font-weight="400" stroke-linecap="butt" stroke-linejoin="bevel">
   <path vector-effect="none" d="M44.6715,0 L44.6715,2393.22" fill-rule="evenodd"/>
   <path vector-effect="none" d="M137.6,0 L137.6,2393.22" fill-rule="evenodd"/>
   <path vector-effect="none" d="M230.528,0 L230.528,2393.22" fill-rule="evenodd"/>
   <path vector-effect="none" d="M323.456,0 L323.456,2393.22" fill-rule="evenodd"/>
   <path vector-effect="none" d="M416.384,0 L416.384,2393.22" fill-rule="evenodd"/>
   <path vector-effect="none" d="M509.313,0 L509.313,2393.22" fill-rule="evenodd"/>
   <path vector-effect="none" d="M602.241,0 L602.241,2393.22" fill-rule="evenodd"/>
   <path vector-effect="none" d="M695.169,0 L695.169,2393.22" fill-rule="evenodd"/>
   <path vector-effect="none" d="M788.097,0 L788.097,2393.22" fill-rule="evenodd"/>
   <path vector-effect="none" d="M881.026,0 L881.026,2393.22" fill-rule="evenodd"/>
   <path vector-effect="none" d="M973.954,0 L973.954,2393.22" fill-rule="evenodd"/>
   <path vector-effect="none" d="M1066.88,0 L1066.88,2393.22" fill-rule="evenodd"/>
   <path vector-effect="none" d="M1159.81,0 L1159.81,2393.22" fill-rule="evenodd"/>
   <path vector-effect="none" d="M1252.74,0 L1252.74,2393.22" fill-rule="evenodd"/>
   <path vector-effect="none" d="M1345.67,0 L1345.67,2393.22" fill-rule="evenodd"/>
   <path vector-effect="none" d="M1438.6,0 L1438.6,2393.22" fill-rule="evenodd"/>
   <path vector-effect="none" d="M1531.52,0 L1531.52,2393.22" fill-rule="evenodd"/>
   <path vector-effect="none" d="M1624.45,0 L1624.45,2393.22" fill-rule="evenodd"/>
   <path vector-effect="none" d="M1717.38,0 L1717.38,2393.22" fill-rule="evenodd"/>
   <path vector-effect="none" d="M1810.31,0 L1810.31,2393.22" fill-rule="evenodd"/>
   <path vector-effect="none" d="M1903.24,0 L1903.24,2393.22" fill-rule="evenodd"/>
   <path vector-effect="none" d="M1996.16,0 L1996.16,2393.22" fill-rule="evenodd"/>
   <path vector-effect="none" d="M2089.09,0 L2089.09,2393.22" fill-rule="evenodd"/>
   <path vector-effect="none" d="M2182.02,0 L2182.02,2393.22" fill-rule="evenodd"/>
   <path vector-effect="none" d="M2274.95,0 L2274.95,2393.22" fill-rule="evenodd"/>
   <path vector-effect="none" d="M2367.88,0 L2367.88,2393.22" fill-rule="evenodd"/>
   <path vector-effect="none" d="M2460.81,0 L2460.81,2393.22" fill-rule="evenodd"/>
   <path vector-effect="none" d="M0,2339.2 L2497.47,2339.2" fill-rule="evenodd"/>
   <path vector-effect="none" d="M0,2246.27 L2497.47,2246.27" fill-rule="evenodd"/>
   <path vector-effect="none" d="M0,2153.35 L2497.47,2153.35" fill-rule="evenodd"/>
   <path vector-effect="none" d="M0,2060.42 L2497.47,2060.42" fill-rule="evenodd"/>
   <path vector-effect="none" d="M0,1967.49 L2497.47,1967.49" fill-rule="evenodd"/>
   <path vector-effect="none" d="M0,1874.56 L2497.47,1874.56" fill-rule="evenodd"/>
   <path vector-effect="none" d="M0,1781.63 L2497.47,1781.63" fill-rule="evenodd"/>
   <path vector-effect="none" d="M0,1688.7 L2497.47,1688.7" fill-rule="evenodd"/>
   <path vector-effect="none" d="M0,1595.78 L2497.47,1595.78" fill-rule="evenodd"/>
   <path vector-effect="none" d="M0,1502.85 L2497.47,1502.85" fill-rule="evenodd"/>
   <path vector-effect="none" d="M0,1409.92 L2497.47,1409.92" fill-rule="evenodd"/>
   <path vector-effect="none" d="M0,1316.99 L2497.47,1316.99" fill-rule="evenodd"/>
   <path vector-effect="none" d="M0,1224.06 L2497.47,1224.06" fill-rule="evenodd"/>
   <path vector-effect="none" d="M0,1131.13 L2497.47,1131.13" fill-rule="evenodd"/>
   <path vector-effect="none" d="M0,1038.21 L2497.47,1038.21" fill-rule="evenodd"/>
   <path vector-effect="none" d="M0,945.278 L2497.47,945.278" fill-rule="evenodd"/>
   <path vector-effect="none" d="M0,852.35 L2497.47,852.35" fill-rule="evenodd"/>
   <path vector-effect="none" d="M0,759.422 L2497.47,759.422" fill-rule="evenodd"/>
   <path vector-effect="none" d="M0,666.493 L2497.47,666.493" fill-rule="evenodd"/>
   <path vector-effect="none" d="M0,573.565 L2497.47,573.565" fill-rule="evenodd"/>
   <path vector-effect="none" d="M0,480.637 L2497.47,480.637" fill-rule="evenodd"/>
   <path vector-effect="none" d="M0,387.709 L2497.47,387.709" fill-rule="evenodd"/>
   <path vector-effect="none" d="M0,294.781 L2497.47,294.781" fill-rule="evenodd"/>
   <path vector-effect="none" d="M0,201.852 L2497.47,201.852" fill-rule="evenodd"/>
   <path vector-effect="none" d="M0,108.924 L2497.47,108.924" fill-rule="evenodd"/>
   <path vector-effect="none" d="M0,15.9958 L2497.47,15.9958" fill-rule="evenodd"/>
  </g>
  <g font-family="Ubuntu" fill="none" stroke-opacity="0.184314" font-size="45.8333" stroke-width="3.54331" font-style="normal" transform="matrix(0.999811,0,0,0.999811,0,0)" stroke="#000000" font-weight="400" stroke-linecap="butt" stroke-linejoin="bevel"/>
  <g font-family="Ubuntu" fill="none" stroke-opacity="0.184314" font-size="45.8333" stroke-width="3.54331" font-style="normal" transform="matrix(11.8088,0,0,11.8088,0,0)" stroke="#000000" font-weight="400" stroke-linecap="butt" stroke-linejoin="bevel"/>
  <g font-family="Ubuntu" fill="none" stroke-opacity="1" font-size="45.8333" stroke-width="1" font-style="normal" transform="matrix(11.8088,0,0,11.8088,0,0)" stroke="#000000" font-weight="400" stroke-linecap="square" stroke-linejoin="bevel"/>
  <g font-family="Ubuntu" fill="none" stroke-opacity="1" font-size="45.8333" stroke-width="1" font-style="normal" transform="matrix(11.8088,0,0,11.8088,0,0)" stroke="#000000" font-weight="400" stroke-linecap="square" stroke-linejoin="bevel"/>
  <g font-family="Ubuntu" fill="none" stroke-opacity="1" font-size="45.8333" stroke-width="1" font-style="normal" transform="matrix(1,0,0,1,0,0)" stroke="#000000" font-weight="400" stroke-linecap="square" stroke-linejoin="bevel"/>
  <g font-family="Ubuntu" fill="none" stroke-opacity="1" font-size="45.8333" stroke-width="1" font-style="normal" transform="matrix(11.8088,0,0,11.8088,0,0)" stroke="#000000" font-weight="400" stroke-linecap="square" stroke-linejoin="bevel"/>
  <g font-family="Ubuntu" fill="none" stroke-opacity="1" font-size="45.8333" stroke-width="1" font-style="normal" transform="matrix(11.8088,0,0,11.8088,0,0)" stroke="#000000" font-weight="400" stroke-linecap="square" stroke-linejoin="bevel"/>
  <g font-family="Ubuntu" fill="none" stroke-opacity="1" font-size="45.8333" stroke-width="1" font-style="normal" transform="matrix(11.8088,0,0,11.8088,2247.73,2209.17)" stroke="#000000" font-weight="400" stroke-linecap="square" stroke-linejoin="bevel"/>
  <g font-family="Ubuntu" fill="none" stroke-opacity="1" font-size="45.8333" stroke-width="1" font-style="normal" transform="matrix(0.999811,0,0,0.999811,2247.73,2209.17)" stroke="#000000" font-weight="400" stroke-linecap="square" stroke-linejoin="bevel"/>
  <g font-family="Ubuntu" fill="none" stroke-miterlimit="2" stroke-opacity="1" font-size="45.8333" stroke-width="3.54331" font-style="normal" transform="matrix(0.999811,0,0,0.999811,2247.73,2209.17)" stroke="#000000" font-weight="400" stroke-linecap="square" stroke-linejoin="miter">
   <path vector-effect="none" d="M29.4481,129.677 L29.4481,94.2441" fill-rule="evenodd"/>
   <path vector-effect="none" d="M122.376,129.677 L122.376,94.2441" fill-rule="evenodd"/>
   <path vector-effect="none" d="M29.4481,111.961 L122.376,111.961" fill-rule="evenodd"/>
  </g>
  <g font-family="Ubuntu" fill="none" stroke-opacity="1" font-size="45.8333" stroke-width="1" font-style="normal" transform="matrix(0.999811,0,0,0.999811,2247.73,2209.17)" stroke="#000000" font-weight="400" stroke-linecap="square" stroke-linejoin="bevel"/>
  <g font-family="Ubuntu" fill="none" stroke-opacity="1" font-size="50" stroke-width="1" font-style="normal" transform="matrix(0.999811,0,0,0.999811,2263.08,2267.97)" stroke="#000000" font-weight="400" stroke-linecap="square" stroke-linejoin="bevel">
   <text font-family="Ubuntu" fill="#000000" font-size="50" font-style="normal" xml:space="preserve" stroke="none" font-weight="400" x="0" fill-opacity="1" y="0">0</text>
  </g>
  <g font-family="Ubuntu" fill="none" stroke-opacity="1" font-size="45.8333" stroke-width="1" font-style="normal" transform="matrix(0.999811,0,0,0.999811,2247.73,2209.17)" stroke="#000000" font-weight="400" stroke-linecap="square" stroke-linejoin="bevel"/>
  <g font-family="Ubuntu" fill="none" stroke-opacity="1" font-size="50" stroke-width="1" font-style="normal" transform="matrix(0.999811,0,0,0.999811,2341.9,2267.97)" stroke="#000000" font-weight="400" stroke-linecap="square" stroke-linejoin="bevel">
   <text font-family="Ubuntu" fill="#000000" font-size="50" font-style="normal" xml:space="preserve" stroke="none" font-weight="400" x="0" fill-opacity="1" y="0">10 km</text>
  </g>
  <g font-family="Ubuntu" fill="none" stroke-opacity="1" font-size="45.8333" stroke-width="1" font-style="normal" transform="matrix(0.999811,0,0,0.999811,2247.73,2209.17)" stroke="#000000" font-weight="400" stroke-linecap="square" stroke-linejoin="bevel"/>
  <g font-family="Ubuntu" fill="none" stroke-opacity="1" font-size="45.8333" stroke-width="1" font-style="normal" transform="matrix(0.999811,0,0,0.999811,2247.73,2209.17)" stroke="#000000" font-weight="400" stroke-linecap="square" stroke-linejoin="bevel"/>
  <g font-family="Ubuntu" fill="none" stroke-opacity="1" font-size="45.8333" stroke-width="1" font-style="normal" transform="matrix(11.8088,0,0,11.8088,2247.73,2209.17)" stroke="#000000" font-weight="400" stroke-linecap="square" stroke-linejoin="bevel"/>
  <g font-family="Ubuntu" fill="none" stroke-opacity="1" font-size="45.8333" stroke-width="1" font-style="normal" transform="matrix(11.8088,0,0,11.8088,2247.73,2209.17)" stroke="#000000" font-weight="400" stroke-linecap="square" stroke-linejoin="bevel"/>
  <g font-family="Ubuntu" fill="none" stroke-opacity="1" font-size="45.8333" stroke-width="1" font-style="normal" transform="matrix(11.8088,0,0,11.8088,1724.16,2209.17)" stroke="#000000" font-weight="400" stroke-linecap="square" stroke-linejoin="bevel"/>
  <g font-family="Ubuntu" fill="none" stroke-opacity="1" font-size="45.8333" stroke-width="1" font-style="normal" transform="matrix(0.999811,0,0,0.999811,1724.16,2209.17)" stroke="#000000" font-weight="400" stroke-linecap="square" stroke-linejoin="bevel"/>
  <g font-family="Ubuntu" fill="none" stroke-opacity="1" font-size="417" stroke-width="1" font-style="normal" transform="matrix(0.0999811,0,0,0.0999811,1910.95,2382.04)" stroke="#000000" font-weight="400" stroke-linecap="square" stroke-linejoin="bevel">
   <text font-family="Ubuntu" fill="#000000" font-size="417" font-style="normal" xml:space="preserve" stroke="none" font-weight="400" x="0" fill-opacity="1" y="0">basemap data: Openstreetmap</text>
  </g>
  <g font-family="Ubuntu" fill="none" stroke-opacity="1" font-size="45.8333" stroke-width="1" font-style="normal" transform="matrix(0.999811,0,0,0.999811,1724.16,2209.17)" stroke="#000000" font-weight="400" stroke-linecap="square" stroke-linejoin="bevel"/>
  <g font-family="Ubuntu" fill="none" stroke-opacity="1" font-size="45.8333" stroke-width="1" font-style="normal" transform="matrix(0.999811,0,0,0.999811,1724.16,2209.17)" stroke="#000000" font-weight="400" stroke-linecap="square" stroke-linejoin="bevel"/>
  <g font-family="Ubuntu" fill="none" stroke-opacity="1" font-size="45.8333" stroke-width="1" font-style="normal" transform="matrix(11.8088,0,0,11.8088,1724.16,2209.17)" stroke="#000000" font-weight="400" stroke-linecap="square" stroke-linejoin="bevel"/>
  <g font-family="Ubuntu" fill="none" stroke-opacity="1" font-size="45.8333" stroke-width="1" font-style="normal" transform="matrix(11.8088,0,0,11.8088,1724.16,2209.17)" stroke="#000000" font-weight="400" stroke-linecap="square" stroke-linejoin="bevel"/>
  <g font-family="Ubuntu" fill="none" stroke-opacity="1" font-size="45.8333" stroke-width="1" font-style="normal" transform="matrix(11.8088,0,0,11.8088,1724.16,2209.17)" stroke="#000000" font-weight="400" stroke-linecap="square" stroke-linejoin="bevel"/>
  <g font-family="Ubuntu" fill="none" stroke-opacity="1" font-size="45.8333" stroke-width="1" font-style="normal" transform="matrix(11.8088,0,0,11.8088,1724.16,2209.17)" stroke="#000000" font-weight="400" stroke-linecap="square" stroke-linejoin="bevel"/>
  <g font-family="Ubuntu" fill="none" stroke-opacity="1" font-size="45.8333" stroke-width="1" font-style="normal" transform="matrix(1,0,0,1,0,0)" stroke="#000000" font-weight="400" stroke-linecap="square" stroke-linejoin="bevel"/>
 </g>
 <metadata>
  <rdf:RDF xmlns:rdf="http://www.w3.org/1999/02/22-rdf-syntax-ns#" xmlns:dc="http://purl.org/dc/elements/1.1/" xmlns:rdfs="http://www.w3.org/2000/01/rdf-schema#">
   <rdf:Description dc:title="" dc:date="2000-01-01T00:00:00" dc:identifier="" dc:description="" dc:format="image/svg+xml">
    <dc:creator>
     <rdf:Bag>
      <rdf:li></rdf:li>
     </rdf:Bag>
    </dc:creator>
    <dc:publisher>
     <rdf:Bag>
      <rdf:li>QGIS 3.24.0-Tisler</rdf:li>
     </rdf:Bag>
    </dc:publisher>
    <dc:subject>
     <rdf:Bag/>
    </dc:subject>
   </rdf:Description>
   <cc:Work rdf:about="">
    <dc:format>image/svg+xml</dc:format>
    <dc:title></dc:title>
    <dc:date>2000-01-01T00:00:00</dc:date>
    <dc:identifier></dc:identifier>
    <dc:description></dc:description>
    <dc:creator>
     <cc:Agent>
      <dc:title></dc:title>
     </cc:Agent>
    </dc:creator>
    <dc:publisher>
     <cc:Agent>
      <dc:title>QGIS 3.24.0-Tisler</dc:title>
     </cc:Agent>
    </dc:publisher>
   </cc:Work>
  </rdf:RDF>
 </metadata>
</svg>
