<?xml version='1.0' encoding='UTF-8' standalone='no'?>
<svg xmlns="http://www.w3.org/2000/svg" version="1.2" width="148.421mm" viewBox="0 0 1753 1706" xmlns:xlink="http://www.w3.org/1999/xlink" baseProfile="tiny" height="144.441mm" xmlns:cc="http://creativecommons.org/ns#">
 <defs/>
 <g stroke-linecap="square" stroke="black" fill-rule="evenodd" fill="none" stroke-width="1" stroke-linejoin="bevel">
  <g stroke-linecap="square" stroke="#000000" stroke-opacity="1" fill="none" stroke-width="1" stroke-linejoin="bevel" font-family="Ubuntu" font-style="normal" font-weight="400" font-size="45.8333" transform="matrix(1,0,0,1,0,0)"/>
  <g stroke-linecap="square" stroke="#000000" stroke-opacity="1" fill="none" stroke-width="1" stroke-linejoin="bevel" font-family="Ubuntu" font-style="normal" font-weight="400" font-size="45.8333" transform="matrix(1,0,0,1,0,0)"/>
  <g stroke-linecap="square" stroke="#000000" stroke-opacity="1" fill="none" stroke-width="1" stroke-linejoin="bevel" font-family="Ubuntu" font-style="normal" font-weight="400" font-size="45.8333" transform="matrix(11.8047,0,0,11.8047,0,0)"/>
  <g stroke-linecap="square" stroke="#000000" stroke-opacity="1" fill="none" stroke-width="1" stroke-linejoin="bevel" font-family="Ubuntu" font-style="normal" font-weight="400" font-size="45.8333" transform="matrix(0.999466,0,0,0.999466,0,0)"/>
  <g stroke="none" fill-opacity="1" fill="#ffffff" font-family="Ubuntu" font-style="normal" font-weight="400" font-size="45.8333" transform="matrix(0.999466,0,0,0.999466,0,0)">
   <path d="M-2,-2 L1756,-2 L1756,1709 L-2,1709 L-2,-2" vector-effect="none" fill-rule="evenodd"/>
  </g>
  <g stroke-linecap="square" stroke="#000000" stroke-opacity="1" fill="none" stroke-width="1" stroke-linejoin="bevel" font-family="Ubuntu" font-style="normal" font-weight="400" font-size="45.8333" transform="matrix(0.999466,0,0,0.999466,0,0)"/>
  <g stroke-linecap="square" stroke="#000000" stroke-opacity="1" fill="none" stroke-width="1" stroke-linejoin="bevel" font-family="Ubuntu" font-style="normal" font-weight="400" font-size="45.8333" transform="matrix(11.8047,0,0,11.8047,0,0)"/>
  <g stroke-linecap="square" stroke="#000000" stroke-opacity="1" fill="none" stroke-width="1" stroke-linejoin="bevel" font-family="Ubuntu" font-style="normal" font-weight="400" font-size="45.8333" transform="matrix(11.8047,0,0,11.8047,0,0)"/>
  <g stroke-linecap="square" stroke="#000000" stroke-opacity="1" fill="none" stroke-width="1" stroke-linejoin="bevel" font-family="Ubuntu" font-style="normal" font-weight="400" font-size="45.8333" transform="matrix(11.8047,0,0,11.8047,0,0)"/>
  <g stroke-linecap="square" stroke="#000000" stroke-opacity="1" fill="none" stroke-width="1" stroke-linejoin="bevel" font-family="Ubuntu" font-style="normal" font-weight="400" font-size="45.8333" transform="matrix(11.8047,0,0,11.8047,0,0)"/>
  <g stroke-linecap="square" stroke="#000000" stroke-opacity="1" fill="none" stroke-width="1" stroke-linejoin="bevel" font-family="Ubuntu" font-style="normal" font-weight="400" font-size="45.8333" transform="matrix(11.8047,0,0,11.8047,0,0)"/>
  <g stroke="none" fill-opacity="1" fill="#1a1a1a" font-family="Ubuntu" font-style="normal" font-weight="400" font-size="45.8333" transform="matrix(11.8047,0,0,11.8047,0,0)">
   <path d="M0,0 L148.5,0 L148.5,144.472 L0,144.472 L0,0" vector-effect="none" fill-rule="evenodd"/>
  </g>
  <g stroke-linecap="square" stroke="#000000" stroke-opacity="1" fill="none" stroke-width="1" stroke-linejoin="bevel" font-family="Ubuntu" font-style="normal" font-weight="400" font-size="45.8333" transform="matrix(11.8047,0,0,11.8047,0,0)"/>
  <g stroke-linecap="square" stroke="#000000" stroke-opacity="1" fill="none" stroke-width="1" stroke-linejoin="bevel" font-family="Ubuntu" font-style="normal" font-weight="400" font-size="45.8333" transform="matrix(11.8047,0,0,11.8047,0,0)"/>
  <g stroke="none" fill-opacity="0" fill="#000000" font-family="Ubuntu" font-style="normal" font-weight="400" font-size="45.8333" transform="matrix(0.999466,0,0,0.999466,0,0)">
   <rect width="1754" y="0" x="0" height="1706"/>
  </g>
  <g stroke-linecap="square" stroke="#000000" stroke-opacity="1" fill="none" stroke-width="1" stroke-linejoin="bevel" font-family="Ubuntu" font-style="normal" font-weight="400" font-size="45.8333" transform="matrix(0.999466,0,0,0.999466,0,0)"/>
  <g stroke="none" fill-opacity="1" fill="#fff5de" font-family="Ubuntu" font-style="normal" font-weight="400" font-size="45.8333" transform="matrix(0.999466,0,0,0.999466,0,0)">
   <path d="M-175.4,1871.55 L-175.4,-175.928 L1929.4,-175.928 L1929.4,1871.55 L-175.4,1871.55" vector-effect="none" fill-rule="evenodd"/>
  </g>
  <g stroke-linecap="square" stroke="#000000" stroke-opacity="1" fill="none" stroke-width="1" stroke-linejoin="bevel" font-family="Ubuntu" font-style="normal" font-weight="400" font-size="45.8333" transform="matrix(0.999466,0,0,0.999466,0,0)"/>
  <g stroke-linecap="square" stroke="#232323" stroke-opacity="1" fill="none" stroke-width="12.5197" stroke-linejoin="bevel" font-family="Ubuntu" font-style="normal" font-weight="400" font-size="45.8333" transform="matrix(0.999466,0,0,0.999466,0,0)">
   <path d="M1929.4,1697.69 L1929.21,1697.35 L1921.41,1675.52 L1911.98,1660.83 L1902.44,1633.9 L1900.03,1629.26 L1883.44,1610.58 L1790.56,1471.44 L1755.17,1431.3 L1722.37,1400.09 L1719.02,1393.13 L1710.19,1358.68 L1705.71,1350.63 L1692.49,1340.25 L1687.65,1337.78 L1651.06,1328.89 L1607.46,1298.22 L1601.1,1291.6 L1588.74,1268.4 L1584.4,1262.96 L1517.94,1214.88 L1514.22,1209.9 L1504.72,1189.74 L1399.43,1062.36 L1364.09,1006.45 L1312.33,957.841 L1128.04,737.94 L1036.6,630.151 L1030.16,625.016 L914.785,581.123 L906.77,576.15 L840.67,495.156 L821.769,477.423 L804.037,438.379 L800.413,433.468 L730.272,354.777 L720.948,349.087 L704.799,344.076 L697.63,339.075 L622.039,243.726 L575.772,193.195 L546.697,156.403 L499.887,111.487 L430.503,13.6304 L371.54,-62.8918 L315.184,-108.515 L265.628,-162.401 L251.17,-175.928" vector-effect="none" fill-rule="evenodd"/>
  </g>
  <g stroke-dashoffset="0" stroke-linecap="square" stroke="#ffffff" stroke-dasharray="35.4331,35.4331" stroke-opacity="1" fill="none" stroke-width="6.25984" stroke-linejoin="bevel" font-family="Ubuntu" font-style="normal" font-weight="400" font-size="45.8333" transform="matrix(0.999466,0,0,0.999466,0,0)">
   <path d="M1929.4,1697.69 L1929.21,1697.35 L1921.41,1675.52 L1911.98,1660.83 L1902.44,1633.9 L1900.03,1629.26 L1883.44,1610.58 L1790.56,1471.44 L1755.17,1431.3 L1722.37,1400.09 L1719.02,1393.13 L1710.19,1358.68 L1705.71,1350.63 L1692.49,1340.25 L1687.65,1337.78 L1651.06,1328.89 L1607.46,1298.22 L1601.1,1291.6 L1588.74,1268.4 L1584.4,1262.96 L1517.94,1214.88 L1514.22,1209.9 L1504.72,1189.74 L1399.43,1062.36 L1364.09,1006.45 L1312.33,957.841 L1128.04,737.94 L1036.6,630.151 L1030.16,625.016 L914.785,581.123 L906.77,576.15 L840.67,495.156 L821.769,477.423 L804.037,438.379 L800.413,433.468 L730.272,354.777 L720.948,349.087 L704.799,344.076 L697.63,339.075 L622.039,243.726 L575.772,193.195 L546.697,156.403 L499.887,111.487 L430.503,13.6304 L371.54,-62.8918 L315.184,-108.515 L265.628,-162.401 L251.17,-175.928" vector-effect="none" fill-rule="evenodd"/>
  </g>
  <g stroke-linecap="square" stroke="#232323" stroke-opacity="1" fill="none" stroke-width="4.25197" stroke-linejoin="bevel" font-family="Ubuntu" font-style="normal" font-weight="400" font-size="45.8333" transform="matrix(0.999466,0,0,0.999466,0,0)">
   <path d="M451.678,43.187 L451.021,39.8818 L452.238,36.1992 L461.37,29.3338 L468.482,27.9359 L498.634,6.31689 L517.702,0.672449 L524.985,-2.84077 L532.086,-12.0141 L539.7,-16.3085 L546.361,-25.4739 L555.57,-31.2381 L561.766,-33.6097 L569.207,-40.2655 L578.745,-53.6462 L585.166,-58.19 L587.302,-64.7605 L591.301,-70.0154 L607.39,-76.5071 L617.257,-85.9171 L626.734,-88.0327" vector-effect="none" fill-rule="evenodd"/>
  </g>
  <g stroke-linecap="round" stroke="#000000" stroke-opacity="1" fill="none" stroke-width="7.79528" stroke-linejoin="round" font-family="Ubuntu" font-style="normal" font-weight="400" font-size="45.8333" transform="matrix(0.999466,0,0,0.999466,0,0)">
   <path d="M1929.4,407.45 L1928.07,407.728 L1899.82,418.937 L1880.38,417.253 L1876.57,419.501 L1869.73,427.465 L1865.51,429.195 L1845.23,429.953 L1801.14,427.974 L1762.04,421.898 L1733.4,424.258 L1685.77,423.463 L1681.68,424.191 L1659.98,434.635 L1643.95,433.324 L1630.49,430.561 L1621.4,432.558 L1612.43,439.346 L1604.46,439.202 L1568.3,427.721 L1555.33,427.533 L1544.11,425.553 L1535.69,421.4 L1513.92,419.004 L1492.65,407.492 L1323.54,371.076 L1308.04,371.669 L1271.75,364.074 L1245.94,366.59 L1228.73,363.108 L1214.01,363.606 L1171.47,352.493 L1124.26,348.032 L1113.73,340.265 L1102.34,339.313 L1055.66,327.771 L1007.02,325.031 L962.285,307.085 L940.625,309.851 L923.873,315.789 L889.725,318.619 L885.424,317.755 L875.483,312.178 L858.747,313.042 L831.957,303.495 L799.551,300.625 L776.91,312.85 L774.764,315.831 L770.216,328.52 L766.564,332.412 L748.637,337.546 L730.637,346.036 L730.188,350.618 L728.104,355.979 L729.541,361.447 L729.114,364.553 L721.95,378.51 L716.617,381.151 L714.577,384.261 L708.92,408.262 L708.141,422.41 L706.544,428.026 L701.451,437.399 L669.465,472.838 L650.042,499.98 L648.904,502.923 L648.327,507.986 L645.008,517.396 L635.836,525.601 L628.021,536.605 L622.45,553.12 L621.711,559.531 L617.333,569.004 L616.401,575.261 L607.957,597.204 L604.36,610.203 L597.76,621.216 L585.332,636.317 L568.999,652.953 L557.235,662.431 L546.768,674.55 L536.006,691.776 L525.55,705.482 L517.552,723.68 L511.6,733.137 L503.159,740.774 L494.209,751.851 L482.807,757.624 L475.143,766.284 L464.665,775.007 L459.273,776.826 L449.554,784.047 L448.306,785.874 L446.584,793.56 L432.44,814.817 L417.434,821.87 L411.971,828.17 L409.042,834.706 L402.301,841.535 L397.079,844.402 L388.957,856.424 L387.171,861.401 L380.55,869.212 L371.851,876.17 L369.43,879.907 L347.456,902.531 L336.467,908.307 L331.799,913.026 L315.207,939.637 L311.6,949.283 L306.935,957.465 L306.848,962.242 L311.616,976.526 L311.858,981.008 L310.854,983.53 L307.631,985.687 L304.26,985.665 L288.514,977.856 L274.269,978.956 L270.892,980.287 L265.94,985.662 L264.347,996.004 L262.412,999.309 L250.497,1008.13 L243.703,1010.77 L236.169,1018.74 L224.289,1027.6 L220.279,1033.47 L214.1,1036.24 L200.751,1056.4 L196.045,1059.45 L187.179,1068.01 L172.025,1086.87 L164.973,1093.14 L162.236,1097.74 L146.109,1109.07 L141.286,1113.9 L140.204,1116.29 L139.331,1128.77 L135.191,1135.83 L109.793,1151.39 L103.138,1160.56 L97.3004,1161.95 L67.8234,1182.07 L35.6578,1202 L28.5583,1209.36 L20.1387,1220.81 L17.4586,1227.11 L-11.0082,1263.26 L-18.0497,1271.54 L-32.0216,1283.24 L-43.4861,1304.56 L-65.6161,1336.73 L-90.7951,1363.26 L-108.758,1376.65 L-110.155,1379.47 L-111.785,1389.54 L-114.463,1393.27 L-165.931,1417.96 L-175.4,1426.25" vector-effect="none" fill-rule="evenodd"/>
   <path d="" vector-effect="none" fill-rule="evenodd"/>
  </g>
  <g stroke-dashoffset="0" stroke-linecap="square" stroke="#ffffff" stroke-dasharray="35.4331,35.4331" stroke-opacity="1" fill="none" stroke-width="3.89764" stroke-linejoin="bevel" font-family="Ubuntu" font-style="normal" font-weight="400" font-size="45.8333" transform="matrix(0.999466,0,0,0.999466,0,0)">
   <path d="M1929.4,407.45 L1928.07,407.728 L1899.82,418.937 L1880.38,417.253 L1876.57,419.501 L1869.73,427.465 L1865.51,429.195 L1845.23,429.953 L1801.14,427.974 L1762.04,421.898 L1733.4,424.258 L1685.77,423.463 L1681.68,424.191 L1659.98,434.635 L1643.95,433.324 L1630.49,430.561 L1621.4,432.558 L1612.43,439.346 L1604.46,439.202 L1568.3,427.721 L1555.33,427.533 L1544.11,425.553 L1535.69,421.4 L1513.92,419.004 L1492.65,407.492 L1323.54,371.076 L1308.04,371.669 L1271.75,364.074 L1245.94,366.59 L1228.73,363.108 L1214.01,363.606 L1171.47,352.493 L1124.26,348.032 L1113.73,340.265 L1102.34,339.313 L1055.66,327.771 L1007.02,325.031 L962.285,307.085 L940.625,309.851 L923.873,315.789 L889.725,318.619 L885.424,317.755 L875.483,312.178 L858.747,313.042 L831.957,303.495 L799.551,300.625 L776.91,312.85 L774.764,315.831 L770.216,328.52 L766.564,332.412 L748.637,337.546 L730.637,346.036 L730.188,350.618 L728.104,355.979 L729.541,361.447 L729.114,364.553 L721.95,378.51 L716.617,381.151 L714.577,384.261 L708.92,408.262 L708.141,422.41 L706.544,428.026 L701.451,437.399 L669.465,472.838 L650.042,499.98 L648.904,502.923 L648.327,507.986 L645.008,517.396 L635.836,525.601 L628.021,536.605 L622.45,553.12 L621.711,559.531 L617.333,569.004 L616.401,575.261 L607.957,597.204 L604.36,610.203 L597.76,621.216 L585.332,636.317 L568.999,652.953 L557.235,662.431 L546.768,674.55 L536.006,691.776 L525.55,705.482 L517.552,723.68 L511.6,733.137 L503.159,740.774 L494.209,751.851 L482.807,757.624 L475.143,766.284 L464.665,775.007 L459.273,776.826 L449.554,784.047 L448.306,785.874 L446.584,793.56 L432.44,814.817 L417.434,821.87 L411.971,828.17 L409.042,834.706 L402.301,841.535 L397.079,844.402 L388.957,856.424 L387.171,861.401 L380.55,869.212 L371.851,876.17 L369.43,879.907 L347.456,902.531 L336.467,908.307 L331.799,913.026 L315.207,939.637 L311.6,949.283 L306.935,957.465 L306.848,962.242 L311.616,976.526 L311.858,981.008 L310.854,983.53 L307.631,985.687 L304.26,985.665 L288.514,977.856 L274.269,978.956 L270.892,980.287 L265.94,985.662 L264.347,996.004 L262.412,999.309 L250.497,1008.13 L243.703,1010.77 L236.169,1018.74 L224.289,1027.6 L220.279,1033.47 L214.1,1036.24 L200.751,1056.4 L196.045,1059.45 L187.179,1068.01 L172.025,1086.87 L164.973,1093.14 L162.236,1097.74 L146.109,1109.07 L141.286,1113.9 L140.204,1116.29 L139.331,1128.77 L135.191,1135.83 L109.793,1151.39 L103.138,1160.56 L97.3004,1161.95 L67.8234,1182.07 L35.6578,1202 L28.5583,1209.36 L20.1387,1220.81 L17.4586,1227.11 L-11.0082,1263.26 L-18.0497,1271.54 L-32.0216,1283.24 L-43.4861,1304.56 L-65.6161,1336.73 L-90.7951,1363.26 L-108.758,1376.65 L-110.155,1379.47 L-111.785,1389.54 L-114.463,1393.27 L-165.931,1417.96 L-175.4,1426.25" vector-effect="none" fill-rule="evenodd"/>
   <path d="" vector-effect="none" fill-rule="evenodd"/>
  </g>
  <g stroke-linecap="round" stroke="#000000" stroke-opacity="1" fill="none" stroke-width="7.79528" stroke-linejoin="round" font-family="Ubuntu" font-style="normal" font-weight="400" font-size="45.8333" transform="matrix(0.999466,0,0,0.999466,0,0)">
   <path d="" vector-effect="none" fill-rule="evenodd"/>
   <path d="M694.088,335.189 L677.81,328.507 L664.882,325.16 L624.774,323.058 L597.814,325.846 L572.123,324.081 L566.688,324.971 L528.997,320.674 L502.663,313.808 L494.284,310.128 L476.302,311.593 L465.846,306.373 L454.872,305.622 L445.54,303.134 L412.912,302.469 L386.944,296.439 L371.916,286.793 L357.35,286.395 L348.899,279.93 L344.411,278.761 L328.025,268.352 L324.349,267.481 L312.085,267.71 L305.352,270.454 L287.841,268.441 L283.477,272.394 L282.021,277.43 L278.496,283.972 L268.205,290.673 L222.499,298.518 L200.101,296.942 L180.117,291.419 L172.683,292.332 L166.343,291.156 L150.298,291.225 L147.73,289.306 L146.016,284.361 L141.529,277.554 L133.624,272.515 L122.216,267.652 L110.17,270.644 L100.436,275.952 L97.561,275.315 L94.0343,271.411 L91.4131,270.527 L79.2195,276.077 L57.4855,273.459 L53.1269,274.504 L38.7666,282.23 L34.2933,289.229 L9.84115,313.297 L-21.9393,325.777 L-30.0063,323.839 L-43.9026,315.513 L-59.2241,311.446 L-98.8984,309.871 L-175.4,313.923" vector-effect="none" fill-rule="evenodd"/>
   <path d="M694.088,335.189 L695.875,337.01" vector-effect="none" fill-rule="evenodd"/>
  </g>
  <g stroke-dashoffset="0" stroke-linecap="square" stroke="#ffffff" stroke-dasharray="35.4331,35.4331" stroke-opacity="1" fill="none" stroke-width="3.89764" stroke-linejoin="bevel" font-family="Ubuntu" font-style="normal" font-weight="400" font-size="45.8333" transform="matrix(0.999466,0,0,0.999466,0,0)">
   <path d="" vector-effect="none" fill-rule="evenodd"/>
   <path d="M694.088,335.189 L677.81,328.507 L664.882,325.16 L624.774,323.058 L597.814,325.846 L572.123,324.081 L566.688,324.971 L528.997,320.674 L502.663,313.808 L494.284,310.128 L476.302,311.593 L465.846,306.373 L454.872,305.622 L445.54,303.134 L412.912,302.469 L386.944,296.439 L371.916,286.793 L357.35,286.395 L348.899,279.93 L344.411,278.761 L328.025,268.352 L324.349,267.481 L312.085,267.71 L305.352,270.454 L287.841,268.441 L283.477,272.394 L282.021,277.43 L278.496,283.972 L268.205,290.673 L222.499,298.518 L200.101,296.942 L180.117,291.419 L172.683,292.332 L166.343,291.156 L150.298,291.225 L147.73,289.306 L146.016,284.361 L141.529,277.554 L133.624,272.515 L122.216,267.652 L110.17,270.644 L100.436,275.952 L97.561,275.315 L94.0343,271.411 L91.4131,270.527 L79.2195,276.077 L57.4855,273.459 L53.1269,274.504 L38.7666,282.23 L34.2933,289.229 L9.84115,313.297 L-21.9393,325.777 L-30.0063,323.839 L-43.9026,315.513 L-59.2241,311.446 L-98.8984,309.871 L-175.4,313.923" vector-effect="none" fill-rule="evenodd"/>
   <path d="M694.088,335.189 L695.875,337.01" vector-effect="none" fill-rule="evenodd"/>
  </g>
  <g stroke-linecap="square" stroke="#232323" stroke-opacity="1" fill="none" stroke-width="4.25197" stroke-linejoin="bevel" font-family="Ubuntu" font-style="normal" font-weight="400" font-size="45.8333" transform="matrix(0.999466,0,0,0.999466,0,0)">
   <path d="M72.9217,1178.59 L71.0958,1179.82" vector-effect="none" fill-rule="evenodd"/>
   <path d="M72.9217,1178.59 L76.2018,1178.12 L92.2184,1181.93 L111.204,1182.57 L123.466,1176.85 L129.892,1176.61 L141.299,1172.97 L146.411,1173.52 L163.986,1179.13 L169.185,1185.51 L184.365,1193.98 L195.366,1192.99 L209.795,1199.82 L224.941,1203.25 L235.017,1209.27 L239.303,1214.76 L250.344,1216.99 L253.747,1216 L261.801,1209.91 L276.776,1203.18 L285.331,1202.38 L299.066,1203.69 L313.645,1200.42 L316.937,1201.86 L320.473,1208.04 L325.698,1210.65 L340.375,1212.11 L374.9,1206.84 L392.38,1206.25 L401.468,1202.56 L420.093,1204.33 L424.348,1203.56 L442.449,1212.41 L446.66,1211.51 L458.266,1212.42 L466.367,1209.44 L475.426,1210.51 L482.454,1208.75 L507.451,1208.94 L520.482,1211.62 L589.522,1200.04 L601.106,1194.5 L611.838,1194.19 L635.783,1184.02 L653.801,1178.23 L686.477,1178.19 L689.492,1177.26 L691.305,1175.55 L692.034,1173.15 L691.297,1168.04 L691.942,1152.13 L697.775,1141.82 L701.15,1137.67 L711.852,1130.31 L721.34,1114.94 L724.409,1106.79 L737.551,1091.06 L744.306,1089.03 L748.419,1085.37 L749.652,1082.34 L749.822,1074.42 L753.506,1068.39 L756.287,1067.03 L765.712,1070.77 L775.85,1071.27 L784.032,1068.7 L795.252,1070.8 L801.477,1073.32 L827.83,1089.73 L843.744,1087.39 L851.865,1084.46 L875.623,1091.45 L889.751,1090.79 L892.258,1089.73 L899.136,1082.73 L908.461,1076.84 L917.701,1077.2 L921.082,1078.82 L924.862,1078.24 L929.339,1081.41 L932.594,1081.7 L936.052,1079.63 L938.464,1074.91 L942.332,1073.21 L954.367,1073.99 L975.202,1078.98 L992.547,1081.19 L1002.4,1075.39 L1007.75,1077.97 L1015.33,1077.7 L1022.67,1075.36 L1032.97,1079.29 L1039.01,1080.21 L1047.01,1084.28 L1069.6,1085.52 L1078.63,1084.4 L1092.03,1089.71 L1111.51,1086.02 L1121.33,1087 L1124.35,1085.93" vector-effect="none" fill-rule="evenodd"/>
   <path d="M1124.35,1085.93 L1125.71,1084.96" vector-effect="none" fill-rule="evenodd"/>
   <path d="M1507.72,1195.1 L1508.44,1196.84" vector-effect="none" fill-rule="evenodd"/>
   <path d="M1507.72,1195.1 L1508.45,1192.49 L1511.65,1189.96 L1516.14,1189.2 L1519.36,1184.49 L1520.79,1164.48 L1530.76,1142.6 L1531.22,1133.5 L1539.53,1125.2" vector-effect="none" fill-rule="evenodd"/>
  </g>
  <g stroke-linecap="round" stroke="#000000" stroke-opacity="1" fill="none" stroke-width="7.79528" stroke-linejoin="round" font-family="Ubuntu" font-style="normal" font-weight="400" font-size="45.8333" transform="matrix(0.999466,0,0,0.999466,0,0)">
   <path d="M1339.4,983.165 L1332.12,978.492 L1327.57,978.738 L1322.69,980.823 L1318.43,985.135 L1316.59,992.508 L1315.03,995.269 L1300.29,1007.31 L1286.01,1013.95 L1262.29,1022.29 L1215.11,1021.88 L1199.7,1026.81 L1124.11,1043.27 L1121.14,1045.08 L1120.17,1047.94 L1121.04,1060.05 L1128.04,1077.67 L1128.38,1080.41 L1127.07,1083.69 L1119.97,1089.88 L1118.39,1092.51 L1098.44,1203.57 L1099.04,1206.82 L1104.96,1219.85 L1111.55,1249.18 L1105.04,1314.38 L1039.63,1418.48 L1030.83,1470.28 L1011.33,1493.08 L1004.85,1504.07 L986.646,1516.25 L891.416,1612.04 L875.396,1642.34 L867.709,1650.47 L824.738,1686.36 L810.127,1692.25 L807.676,1695.09 L807.604,1703.43 L816.576,1767.93 L826.187,1861.9 L824.598,1871.55" vector-effect="none" fill-rule="evenodd"/>
   <path d="" vector-effect="none" fill-rule="evenodd"/>
  </g>
  <g stroke-dashoffset="0" stroke-linecap="square" stroke="#ffffff" stroke-dasharray="35.4331,35.4331" stroke-opacity="1" fill="none" stroke-width="3.89764" stroke-linejoin="bevel" font-family="Ubuntu" font-style="normal" font-weight="400" font-size="45.8333" transform="matrix(0.999466,0,0,0.999466,0,0)">
   <path d="M1339.4,983.165 L1332.12,978.492 L1327.57,978.738 L1322.69,980.823 L1318.43,985.135 L1316.59,992.508 L1315.03,995.269 L1300.29,1007.31 L1286.01,1013.95 L1262.29,1022.29 L1215.11,1021.88 L1199.7,1026.81 L1124.11,1043.27 L1121.14,1045.08 L1120.17,1047.94 L1121.04,1060.05 L1128.04,1077.67 L1128.38,1080.41 L1127.07,1083.69 L1119.97,1089.88 L1118.39,1092.51 L1098.44,1203.57 L1099.04,1206.82 L1104.96,1219.85 L1111.55,1249.18 L1105.04,1314.38 L1039.63,1418.48 L1030.83,1470.28 L1011.33,1493.08 L1004.85,1504.07 L986.646,1516.25 L891.416,1612.04 L875.396,1642.34 L867.709,1650.47 L824.738,1686.36 L810.127,1692.25 L807.676,1695.09 L807.604,1703.43 L816.576,1767.93 L826.187,1861.9 L824.598,1871.55" vector-effect="none" fill-rule="evenodd"/>
   <path d="" vector-effect="none" fill-rule="evenodd"/>
  </g>
  <g stroke-linecap="square" stroke="#000000" stroke-opacity="1" fill="none" stroke-width="1" stroke-linejoin="bevel" font-family="Ubuntu" font-style="normal" font-weight="400" font-size="45.8333" transform="matrix(0.999466,0,0,0.999466,0,0)"/>
  <g stroke-linecap="square" stroke="#000000" stroke-opacity="1" fill-opacity="1" fill="#ffffff" stroke-width="4.72441" stroke-linejoin="bevel" font-family="Ubuntu" font-style="normal" font-weight="400" font-size="45.8333" transform="matrix(0.999466,0,0,0.999466,0,0)">
   <path d="M290.318,978.602 C290.318,985.125 285.03,990.413 278.507,990.413 C271.984,990.413 266.696,985.125 266.696,978.602 C266.696,972.079 271.984,966.791 278.507,966.791 C285.03,966.791 290.318,972.079 290.318,978.602 " vector-effect="none" fill-rule="evenodd"/>
   <path d="M714.591,343.001 C714.591,349.524 709.303,354.812 702.78,354.812 C696.257,354.812 690.969,349.524 690.969,343.001 C690.969,336.478 696.257,331.19 702.78,331.19 C709.303,331.19 714.591,336.478 714.591,343.001 " vector-effect="none" fill-rule="evenodd"/>
   <path d="M1545.91,1226.77 C1545.91,1233.29 1540.62,1238.58 1534.1,1238.58 C1527.58,1238.58 1522.29,1233.29 1522.29,1226.77 C1522.29,1220.25 1527.58,1214.96 1534.1,1214.96 C1540.62,1214.96 1545.91,1220.25 1545.91,1226.77 " vector-effect="none" fill-rule="evenodd"/>
   <path d="M1132.42,1054.89 C1132.42,1061.41 1127.13,1066.7 1120.6,1066.7 C1114.08,1066.7 1108.79,1061.41 1108.79,1054.89 C1108.79,1048.37 1114.08,1043.08 1120.6,1043.08 C1127.13,1043.08 1132.42,1048.37 1132.42,1054.89 " vector-effect="none" fill-rule="evenodd"/>
   <path d="M78.1752,1182.96 C78.1752,1189.48 72.8872,1194.77 66.3642,1194.77 C59.8411,1194.77 54.5532,1189.48 54.5532,1182.96 C54.5532,1176.43 59.8411,1171.14 66.3642,1171.14 C72.8872,1171.14 78.1752,1176.43 78.1752,1182.96 " vector-effect="none" fill-rule="evenodd"/>
   <path d="M772.115,1068.14 C772.115,1074.66 766.827,1079.95 760.304,1079.95 C753.781,1079.95 748.493,1074.66 748.493,1068.14 C748.493,1061.61 753.781,1056.33 760.304,1056.33 C766.827,1056.33 772.115,1061.61 772.115,1068.14 " vector-effect="none" fill-rule="evenodd"/>
  </g>
  <g stroke-linecap="square" stroke="#000000" stroke-opacity="1" fill="none" stroke-width="1" stroke-linejoin="bevel" font-family="Ubuntu" font-style="normal" font-weight="400" font-size="45.8333" transform="matrix(0.999466,0,0,0.999466,0,0)"/>
  <g stroke-linecap="square" stroke="#000000" stroke-opacity="1" fill="none" stroke-width="1" stroke-linejoin="bevel" font-family="Ubuntu" font-style="normal" font-weight="400" font-size="45.8333" transform="matrix(0.999466,0,0,0.999466,0,0)"/>
  <g stroke-linecap="square" stroke="#000000" stroke-opacity="1" fill="none" stroke-width="1" stroke-linejoin="bevel" font-family="Ubuntu" font-style="normal" font-weight="400" font-size="45.8333" transform="matrix(0.999466,0,0,0.999466,0,0)"/>
  <g stroke-linecap="square" stroke="#000000" stroke-opacity="1" fill="none" stroke-width="1" stroke-linejoin="bevel" font-family="Ubuntu" font-style="normal" font-weight="400" font-size="45.8333" transform="matrix(0.999466,0,0,0.999466,0,0)"/>
  <g stroke-linecap="square" stroke="#000000" stroke-opacity="1" fill="none" stroke-width="1" stroke-linejoin="bevel" font-family="Ubuntu" font-style="normal" font-weight="400" font-size="45.8333" transform="matrix(0.319829,0,0,0.319829,886.846,1014.1)"/>
  <g stroke="none" fill-opacity="0.694118" fill="#6d6d6d" font-family="Ubuntu" font-style="normal" font-weight="400" font-size="45.8333" transform="matrix(0.999466,0,0,0.999466,886.846,1014.1)">
   <path d="M-113.816,-49.3 L113.816,-49.3 L113.816,49.3 L-113.816,49.3 L-113.816,-49.3" vector-effect="non-scaling-stroke" fill-rule="evenodd"/>
  </g>
  <g stroke-linecap="square" stroke="#000000" stroke-opacity="1" fill="none" stroke-width="1" stroke-linejoin="bevel" font-family="Ubuntu" font-style="normal" font-weight="400" font-size="45.8333" transform="matrix(0.319829,0,0,0.319829,886.846,1014.1)"/>
  <g stroke-linecap="square" stroke="#000000" stroke-opacity="1" fill="none" stroke-width="1" stroke-linejoin="bevel" font-family="Ubuntu" font-style="normal" font-weight="400" font-size="45.8333" transform="matrix(0.999466,0,0,0.999466,0,0)"/>
  <g stroke-linecap="square" stroke="#ffffff" stroke-opacity="1" fill="none" stroke-width="1" stroke-linejoin="bevel" font-family="Ubuntu" font-style="normal" font-weight="400" font-size="42" transform="matrix(0.999466,0,0,0.999466,774.391,1004.1)">
   <text stroke="none" xml:space="preserve" fill-opacity="1" fill="#ffffff" font-family="Ubuntu" y="0" font-style="normal" font-weight="400" font-size="42" x="0">Кувшиново</text>
  </g>
  <g stroke-linecap="square" stroke="#000000" stroke-opacity="1" fill="none" stroke-width="1" stroke-linejoin="bevel" font-family="Ubuntu" font-style="normal" font-weight="400" font-size="45.8333" transform="matrix(0.999466,0,0,0.999466,0,0)"/>
  <g stroke-linecap="square" stroke="#ffffff" stroke-opacity="1" fill="none" stroke-width="1" stroke-linejoin="bevel" font-family="Ubuntu" font-style="normal" font-weight="400" font-size="42" transform="matrix(0.999466,0,0,0.999466,774.391,1052.08)">
   <text stroke="none" xml:space="preserve" fill-opacity="1" fill="#ffffff" font-family="Ubuntu" y="0" font-style="normal" font-weight="400" font-size="42" x="0">Kuvshinovo</text>
  </g>
  <g stroke-linecap="square" stroke="#000000" stroke-opacity="1" fill="none" stroke-width="1" stroke-linejoin="bevel" font-family="Ubuntu" font-style="normal" font-weight="400" font-size="45.8333" transform="matrix(0.999466,0,0,0.999466,0,0)"/>
  <g stroke-linecap="square" stroke="#000000" stroke-opacity="1" fill="none" stroke-width="1" stroke-linejoin="bevel" font-family="Ubuntu" font-style="normal" font-weight="400" font-size="45.8333" transform="matrix(0.319829,0,0,0.319829,392.711,924.108)"/>
  <g stroke="none" fill-opacity="0.694118" fill="#6d6d6d" font-family="Ubuntu" font-style="normal" font-weight="400" font-size="45.8333" transform="matrix(0.999466,0,0,0.999466,392.711,924.108)">
   <path d="M-100.714,-49.3 L100.714,-49.3 L100.714,49.3 L-100.714,49.3 L-100.714,-49.3" vector-effect="non-scaling-stroke" fill-rule="evenodd"/>
  </g>
  <g stroke-linecap="square" stroke="#000000" stroke-opacity="1" fill="none" stroke-width="1" stroke-linejoin="bevel" font-family="Ubuntu" font-style="normal" font-weight="400" font-size="45.8333" transform="matrix(0.319829,0,0,0.319829,392.711,924.108)"/>
  <g stroke-linecap="square" stroke="#000000" stroke-opacity="1" fill="none" stroke-width="1" stroke-linejoin="bevel" font-family="Ubuntu" font-style="normal" font-weight="400" font-size="45.8333" transform="matrix(0.999466,0,0,0.999466,0,0)"/>
  <g stroke-linecap="square" stroke="#ffffff" stroke-opacity="1" fill="none" stroke-width="1" stroke-linejoin="bevel" font-family="Ubuntu" font-style="normal" font-weight="400" font-size="42" transform="matrix(0.999466,0,0,0.999466,293.35,914.114)">
   <text stroke="none" xml:space="preserve" fill-opacity="1" fill="#ffffff" font-family="Ubuntu" y="0" font-style="normal" font-weight="400" font-size="42" x="0">Осташков</text>
  </g>
  <g stroke-linecap="square" stroke="#000000" stroke-opacity="1" fill="none" stroke-width="1" stroke-linejoin="bevel" font-family="Ubuntu" font-style="normal" font-weight="400" font-size="45.8333" transform="matrix(0.999466,0,0,0.999466,0,0)"/>
  <g stroke-linecap="square" stroke="#ffffff" stroke-opacity="1" fill="none" stroke-width="1" stroke-linejoin="bevel" font-family="Ubuntu" font-style="normal" font-weight="400" font-size="42" transform="matrix(0.999466,0,0,0.999466,293.35,962.088)">
   <text stroke="none" xml:space="preserve" fill-opacity="1" fill="#ffffff" font-family="Ubuntu" y="0" font-style="normal" font-weight="400" font-size="42" x="0">Ostashkov</text>
  </g>
  <g stroke-linecap="square" stroke="#000000" stroke-opacity="1" fill="none" stroke-width="1" stroke-linejoin="bevel" font-family="Ubuntu" font-style="normal" font-weight="400" font-size="45.8333" transform="matrix(0.999466,0,0,0.999466,0,0)"/>
  <g stroke-linecap="square" stroke="#000000" stroke-opacity="1" fill="none" stroke-width="1" stroke-linejoin="bevel" font-family="Ubuntu" font-style="normal" font-weight="400" font-size="45.8333" transform="matrix(0.319829,0,0,0.319829,807.223,289.346)"/>
  <g stroke="none" fill-opacity="0.694118" fill="#6d6d6d" font-family="Ubuntu" font-style="normal" font-weight="400" font-size="45.8333" transform="matrix(0.999466,0,0,0.999466,807.223,289.346)">
   <path d="M-91.675,-49.3 L91.675,-49.3 L91.675,49.3 L-91.675,49.3 L-91.675,-49.3" vector-effect="non-scaling-stroke" fill-rule="evenodd"/>
  </g>
  <g stroke-linecap="square" stroke="#000000" stroke-opacity="1" fill="none" stroke-width="1" stroke-linejoin="bevel" font-family="Ubuntu" font-style="normal" font-weight="400" font-size="45.8333" transform="matrix(0.319829,0,0,0.319829,807.223,289.346)"/>
  <g stroke-linecap="square" stroke="#000000" stroke-opacity="1" fill="none" stroke-width="1" stroke-linejoin="bevel" font-family="Ubuntu" font-style="normal" font-weight="400" font-size="45.8333" transform="matrix(0.999466,0,0,0.999466,0,0)"/>
  <g stroke-linecap="square" stroke="#ffffff" stroke-opacity="1" fill="none" stroke-width="1" stroke-linejoin="bevel" font-family="Ubuntu" font-style="normal" font-weight="400" font-size="42" transform="matrix(0.999466,0,0,0.999466,716.897,279.351)">
   <text stroke="none" xml:space="preserve" fill-opacity="1" fill="#ffffff" font-family="Ubuntu" y="0" font-style="normal" font-weight="400" font-size="42" x="0">Бологое</text>
  </g>
  <g stroke-linecap="square" stroke="#000000" stroke-opacity="1" fill="none" stroke-width="1" stroke-linejoin="bevel" font-family="Ubuntu" font-style="normal" font-weight="400" font-size="45.8333" transform="matrix(0.999466,0,0,0.999466,0,0)"/>
  <g stroke-linecap="square" stroke="#ffffff" stroke-opacity="1" fill="none" stroke-width="1" stroke-linejoin="bevel" font-family="Ubuntu" font-style="normal" font-weight="400" font-size="42" transform="matrix(0.999466,0,0,0.999466,716.897,327.326)">
   <text stroke="none" xml:space="preserve" fill-opacity="1" fill="#ffffff" font-family="Ubuntu" y="0" font-style="normal" font-weight="400" font-size="42" x="0">Bologoye</text>
  </g>
  <g stroke-linecap="square" stroke="#000000" stroke-opacity="1" fill="none" stroke-width="1" stroke-linejoin="bevel" font-family="Ubuntu" font-style="normal" font-weight="400" font-size="45.8333" transform="matrix(0.999466,0,0,0.999466,0,0)"/>
  <g stroke-linecap="square" stroke="#000000" stroke-opacity="1" fill="none" stroke-width="1" stroke-linejoin="bevel" font-family="Ubuntu" font-style="normal" font-weight="400" font-size="45.8333" transform="matrix(0.319829,0,0,0.319829,163.519,1128.85)"/>
  <g stroke="none" fill-opacity="0.694118" fill="#6d6d6d" font-family="Ubuntu" font-style="normal" font-weight="400" font-size="45.8333" transform="matrix(0.999466,0,0,0.999466,163.519,1128.85)">
   <path d="M-83.5422,-49.3 L83.5422,-49.3 L83.5422,49.3 L-83.5422,49.3 L-83.5422,-49.3" vector-effect="non-scaling-stroke" fill-rule="evenodd"/>
  </g>
  <g stroke-linecap="square" stroke="#000000" stroke-opacity="1" fill="none" stroke-width="1" stroke-linejoin="bevel" font-family="Ubuntu" font-style="normal" font-weight="400" font-size="45.8333" transform="matrix(0.319829,0,0,0.319829,163.519,1128.85)"/>
  <g stroke-linecap="square" stroke="#000000" stroke-opacity="1" fill="none" stroke-width="1" stroke-linejoin="bevel" font-family="Ubuntu" font-style="normal" font-weight="400" font-size="45.8333" transform="matrix(0.999466,0,0,0.999466,0,0)"/>
  <g stroke-linecap="square" stroke="#ffffff" stroke-opacity="1" fill="none" stroke-width="1" stroke-linejoin="bevel" font-family="Ubuntu" font-style="normal" font-weight="400" font-size="42" transform="matrix(0.999466,0,0,0.999466,81.3207,1118.86)">
   <text stroke="none" xml:space="preserve" fill-opacity="1" fill="#ffffff" font-family="Ubuntu" y="0" font-style="normal" font-weight="400" font-size="42" x="0">Соблаго</text>
  </g>
  <g stroke-linecap="square" stroke="#000000" stroke-opacity="1" fill="none" stroke-width="1" stroke-linejoin="bevel" font-family="Ubuntu" font-style="normal" font-weight="400" font-size="45.8333" transform="matrix(0.999466,0,0,0.999466,0,0)"/>
  <g stroke-linecap="square" stroke="#ffffff" stroke-opacity="1" fill="none" stroke-width="1" stroke-linejoin="bevel" font-family="Ubuntu" font-style="normal" font-weight="400" font-size="42" transform="matrix(0.999466,0,0,0.999466,81.3207,1166.83)">
   <text stroke="none" xml:space="preserve" fill-opacity="1" fill="#ffffff" font-family="Ubuntu" y="0" font-style="normal" font-weight="400" font-size="42" x="0">Soblago</text>
  </g>
  <g stroke-linecap="square" stroke="#000000" stroke-opacity="1" fill="none" stroke-width="1" stroke-linejoin="bevel" font-family="Ubuntu" font-style="normal" font-weight="400" font-size="45.8333" transform="matrix(0.999466,0,0,0.999466,0,0)"/>
  <g stroke-linecap="square" stroke="#000000" stroke-opacity="1" fill="none" stroke-width="1" stroke-linejoin="bevel" font-family="Ubuntu" font-style="normal" font-weight="400" font-size="45.8333" transform="matrix(0.319829,0,0,0.319829,1209,1000.85)"/>
  <g stroke="none" fill-opacity="0.694118" fill="#6d6d6d" font-family="Ubuntu" font-style="normal" font-weight="400" font-size="45.8333" transform="matrix(0.999466,0,0,0.999466,1209,1000.85)">
   <path d="M-75.3469,-49.3 L75.3469,-49.3 L75.3469,49.3 L-75.3469,49.3 L-75.3469,-49.3" vector-effect="non-scaling-stroke" fill-rule="evenodd"/>
  </g>
  <g stroke-linecap="square" stroke="#000000" stroke-opacity="1" fill="none" stroke-width="1" stroke-linejoin="bevel" font-family="Ubuntu" font-style="normal" font-weight="400" font-size="45.8333" transform="matrix(0.319829,0,0,0.319829,1209,1000.85)"/>
  <g stroke-linecap="square" stroke="#000000" stroke-opacity="1" fill="none" stroke-width="1" stroke-linejoin="bevel" font-family="Ubuntu" font-style="normal" font-weight="400" font-size="45.8333" transform="matrix(0.999466,0,0,0.999466,0,0)"/>
  <g stroke-linecap="square" stroke="#ffffff" stroke-opacity="1" fill="none" stroke-width="1" stroke-linejoin="bevel" font-family="Ubuntu" font-style="normal" font-weight="400" font-size="42" transform="matrix(0.999466,0,0,0.999466,1135,990.859)">
   <text stroke="none" xml:space="preserve" fill-opacity="1" fill="#ffffff" font-family="Ubuntu" y="0" font-style="normal" font-weight="400" font-size="42" x="0">Торжок</text>
  </g>
  <g stroke-linecap="square" stroke="#000000" stroke-opacity="1" fill="none" stroke-width="1" stroke-linejoin="bevel" font-family="Ubuntu" font-style="normal" font-weight="400" font-size="45.8333" transform="matrix(0.999466,0,0,0.999466,0,0)"/>
  <g stroke-linecap="square" stroke="#ffffff" stroke-opacity="1" fill="none" stroke-width="1" stroke-linejoin="bevel" font-family="Ubuntu" font-style="normal" font-weight="400" font-size="42" transform="matrix(0.999466,0,0,0.999466,1135,1038.83)">
   <text stroke="none" xml:space="preserve" fill-opacity="1" fill="#ffffff" font-family="Ubuntu" y="0" font-style="normal" font-weight="400" font-size="42" x="0">Torzok</text>
  </g>
  <g stroke-linecap="square" stroke="#000000" stroke-opacity="1" fill="none" stroke-width="1" stroke-linejoin="bevel" font-family="Ubuntu" font-style="normal" font-weight="400" font-size="45.8333" transform="matrix(0.999466,0,0,0.999466,0,0)"/>
  <g stroke-linecap="square" stroke="#000000" stroke-opacity="1" fill="none" stroke-width="1" stroke-linejoin="bevel" font-family="Ubuntu" font-style="normal" font-weight="400" font-size="45.8333" transform="matrix(0.319829,0,0,0.319829,1604.74,1172.64)"/>
  <g stroke="none" fill-opacity="0.694118" fill="#6d6d6d" font-family="Ubuntu" font-style="normal" font-weight="400" font-size="45.8333" transform="matrix(0.999466,0,0,0.999466,1604.74,1172.64)">
   <path d="M-58.3,-49.3 L58.3,-49.3 L58.3,49.3 L-58.3,49.3 L-58.3,-49.3" vector-effect="non-scaling-stroke" fill-rule="evenodd"/>
  </g>
  <g stroke-linecap="square" stroke="#000000" stroke-opacity="1" fill="none" stroke-width="1" stroke-linejoin="bevel" font-family="Ubuntu" font-style="normal" font-weight="400" font-size="45.8333" transform="matrix(0.319829,0,0,0.319829,1604.74,1172.64)"/>
  <g stroke-linecap="square" stroke="#000000" stroke-opacity="1" fill="none" stroke-width="1" stroke-linejoin="bevel" font-family="Ubuntu" font-style="normal" font-weight="400" font-size="45.8333" transform="matrix(0.999466,0,0,0.999466,0,0)"/>
  <g stroke-linecap="square" stroke="#ffffff" stroke-opacity="1" fill="none" stroke-width="1" stroke-linejoin="bevel" font-family="Ubuntu" font-style="normal" font-weight="400" font-size="42" transform="matrix(0.999466,0,0,0.999466,1547.77,1162.65)">
   <text stroke="none" xml:space="preserve" fill-opacity="1" fill="#ffffff" font-family="Ubuntu" y="0" font-style="normal" font-weight="400" font-size="42" x="0">Тверь</text>
  </g>
  <g stroke-linecap="square" stroke="#000000" stroke-opacity="1" fill="none" stroke-width="1" stroke-linejoin="bevel" font-family="Ubuntu" font-style="normal" font-weight="400" font-size="45.8333" transform="matrix(0.999466,0,0,0.999466,0,0)"/>
  <g stroke-linecap="square" stroke="#ffffff" stroke-opacity="1" fill="none" stroke-width="1" stroke-linejoin="bevel" font-family="Ubuntu" font-style="normal" font-weight="400" font-size="42" transform="matrix(0.999466,0,0,0.999466,1547.77,1210.62)">
   <text stroke="none" xml:space="preserve" fill-opacity="1" fill="#ffffff" font-family="Ubuntu" y="0" font-style="normal" font-weight="400" font-size="42" x="0">Tver</text>
  </g>
  <g stroke-linecap="square" stroke="#000000" stroke-opacity="1" fill="none" stroke-width="1" stroke-linejoin="bevel" font-family="Ubuntu" font-style="normal" font-weight="400" font-size="45.8333" transform="matrix(0.999466,0,0,0.999466,0,0)"/>
  <g stroke-linecap="square" stroke="#000000" stroke-opacity="1" fill="none" stroke-width="1" stroke-linejoin="bevel" font-family="Ubuntu" font-style="normal" font-weight="400" font-size="45.8333" transform="matrix(11.8047,0,0,11.8047,0,0)"/>
  <g stroke-linecap="square" stroke="#000000" stroke-opacity="1" fill="none" stroke-width="1" stroke-linejoin="bevel" font-family="Ubuntu" font-style="normal" font-weight="400" font-size="45.8333" transform="matrix(11.8047,0,0,11.8047,0,0)"/>
  <g stroke-linecap="square" stroke="#000000" stroke-opacity="1" fill="none" stroke-width="1" stroke-linejoin="bevel" font-family="Ubuntu" font-style="normal" font-weight="400" font-size="45.8333" transform="matrix(11.8047,0,0,11.8047,0,0)"/>
  <g stroke-linecap="square" stroke="#000000" stroke-opacity="1" fill="none" stroke-width="1" stroke-linejoin="bevel" font-family="Ubuntu" font-style="normal" font-weight="400" font-size="45.8333" transform="matrix(1,0,0,1,0,0)"/>
  <g stroke-linecap="square" stroke="#000000" stroke-opacity="1" fill="none" stroke-width="1" stroke-linejoin="bevel" font-family="Ubuntu" font-style="normal" font-weight="400" font-size="45.8333" transform="matrix(11.8047,0,0,11.8047,0,0)"/>
  <g stroke-linecap="square" stroke="#000000" stroke-opacity="1" fill="none" stroke-width="1" stroke-linejoin="bevel" font-family="Ubuntu" font-style="normal" font-weight="400" font-size="45.8333" transform="matrix(11.8047,0,0,11.8047,0,0)"/>
  <g stroke-linecap="square" stroke="#000000" stroke-opacity="1" fill="none" stroke-width="1" stroke-linejoin="bevel" font-family="Ubuntu" font-style="normal" font-weight="400" font-size="45.8333" transform="matrix(1,0,0,1,0,0)"/>
 </g>
 <metadata>
  <rdf:RDF xmlns:rdfs="http://www.w3.org/2000/01/rdf-schema#" xmlns:rdf="http://www.w3.org/1999/02/22-rdf-syntax-ns#" xmlns:dc="http://purl.org/dc/elements/1.1/">
   <rdf:Description dc:description="" dc:title="" dc:identifier="" dc:format="image/svg+xml" dc:date="2000-01-01T00:00:00">
    <dc:creator>
     <rdf:Bag>
      <rdf:li></rdf:li>
     </rdf:Bag>
    </dc:creator>
    <dc:publisher>
     <rdf:Bag>
      <rdf:li>QGIS 3.24.0-Tisler</rdf:li>
     </rdf:Bag>
    </dc:publisher>
    <dc:subject>
     <rdf:Bag/>
    </dc:subject>
   </rdf:Description>
   <cc:Work rdf:about="">
    <dc:format>image/svg+xml</dc:format>
    <dc:title></dc:title>
    <dc:date>2000-01-01T00:00:00</dc:date>
    <dc:identifier></dc:identifier>
    <dc:description></dc:description>
    <dc:creator>
     <cc:Agent>
      <dc:title></dc:title>
     </cc:Agent>
    </dc:creator>
    <dc:publisher>
     <cc:Agent>
      <dc:title>QGIS 3.24.0-Tisler</dc:title>
     </cc:Agent>
    </dc:publisher>
   </cc:Work>
  </rdf:RDF>
 </metadata>
</svg>
