<?xml version='1.0' encoding='UTF-8' standalone='no'?>
<svg viewBox="0 0 2497 2393" baseProfile="tiny" version="1.2" xmlns:xlink="http://www.w3.org/1999/xlink" xmlns="http://www.w3.org/2000/svg" xmlns:cc="http://creativecommons.org/ns#" height="202.607mm" width="211.413mm">
 <defs/>
 <g fill="none" stroke-width="1" stroke="black" stroke-linecap="square" fill-rule="evenodd" stroke-linejoin="bevel">
  <g font-family="Ubuntu" fill="none" stroke-opacity="1" font-size="45.8333" stroke-width="1" font-style="normal" transform="matrix(1,0,0,1,0,0)" stroke="#000000" font-weight="400" stroke-linecap="square" stroke-linejoin="bevel"/>
  <g font-family="Ubuntu" fill="none" stroke-opacity="1" font-size="45.8333" stroke-width="1" font-style="normal" transform="matrix(1,0,0,1,0,0)" stroke="#000000" font-weight="400" stroke-linecap="square" stroke-linejoin="bevel"/>
  <g font-family="Ubuntu" fill="none" stroke-opacity="1" font-size="45.8333" stroke-width="1" font-style="normal" transform="matrix(11.8088,0,0,11.8088,0,0)" stroke="#000000" font-weight="400" stroke-linecap="square" stroke-linejoin="bevel"/>
  <g font-family="Ubuntu" fill="none" stroke-opacity="1" font-size="45.8333" stroke-width="1" font-style="normal" transform="matrix(0.999811,0,0,0.999811,0,0)" stroke="#000000" font-weight="400" stroke-linecap="square" stroke-linejoin="bevel"/>
  <g font-family="Ubuntu" fill="#ffffff" font-size="45.8333" font-style="normal" transform="matrix(0.999811,0,0,0.999811,0,0)" stroke="none" font-weight="400" fill-opacity="1">
   <path vector-effect="none" d="M-2,-2 L2500,-2 L2500,2396 L-2,2396 L-2,-2" fill-rule="evenodd"/>
  </g>
  <g font-family="Ubuntu" fill="none" stroke-opacity="1" font-size="45.8333" stroke-width="1" font-style="normal" transform="matrix(0.999811,0,0,0.999811,0,0)" stroke="#000000" font-weight="400" stroke-linecap="square" stroke-linejoin="bevel"/>
  <g font-family="Ubuntu" fill="none" stroke-opacity="1" font-size="45.8333" stroke-width="1" font-style="normal" transform="matrix(11.8088,0,0,11.8088,0,0)" stroke="#000000" font-weight="400" stroke-linecap="square" stroke-linejoin="bevel"/>
  <g font-family="Ubuntu" fill="none" stroke-opacity="1" font-size="45.8333" stroke-width="1" font-style="normal" transform="matrix(11.8088,0,0,11.8088,0,0)" stroke="#000000" font-weight="400" stroke-linecap="square" stroke-linejoin="bevel"/>
  <g font-family="Ubuntu" fill="none" stroke-opacity="1" font-size="45.8333" stroke-width="1" font-style="normal" transform="matrix(11.8088,0,0,11.8088,0,0)" stroke="#000000" font-weight="400" stroke-linecap="square" stroke-linejoin="bevel"/>
  <g font-family="Ubuntu" fill="none" stroke-opacity="1" font-size="45.8333" stroke-width="1" font-style="normal" transform="matrix(11.8088,0,0,11.8088,0,0)" stroke="#000000" font-weight="400" stroke-linecap="square" stroke-linejoin="bevel"/>
  <g font-family="Ubuntu" fill="none" stroke-opacity="1" font-size="45.8333" stroke-width="1" font-style="normal" transform="matrix(11.8088,0,0,11.8088,0,0)" stroke="#000000" font-weight="400" stroke-linecap="square" stroke-linejoin="bevel"/>
  <g font-family="Ubuntu" fill="#1a1a1a" font-size="45.8333" font-style="normal" transform="matrix(11.8088,0,0,11.8088,0,0)" stroke="none" font-weight="400" fill-opacity="1">
   <path vector-effect="none" d="M0,0 L211.453,0 L211.453,202.626 L0,202.626 L0,0" fill-rule="evenodd"/>
  </g>
  <g font-family="Ubuntu" fill="none" stroke-opacity="1" font-size="45.8333" stroke-width="1" font-style="normal" transform="matrix(11.8088,0,0,11.8088,0,0)" stroke="#000000" font-weight="400" stroke-linecap="square" stroke-linejoin="bevel"/>
  <g font-family="Ubuntu" fill="none" stroke-opacity="1" font-size="45.8333" stroke-width="1" font-style="normal" transform="matrix(11.8088,0,0,11.8088,0,0)" stroke="#000000" font-weight="400" stroke-linecap="square" stroke-linejoin="bevel"/>
  <g font-family="Ubuntu" fill="#000000" font-size="45.8333" font-style="normal" transform="matrix(0.999811,0,0,0.999811,0,0)" stroke="none" font-weight="400" fill-opacity="0">
   <rect x="0" height="2393" y="0" width="2497"/>
  </g>
  <g font-family="Ubuntu" fill="none" stroke-opacity="1" font-size="45.8333" stroke-width="1" font-style="normal" transform="matrix(0.999811,0,0,0.999811,0,0)" stroke="#000000" font-weight="400" stroke-linecap="square" stroke-linejoin="bevel"/>
  <g font-family="Ubuntu" fill="#fff5de" font-size="45.8333" font-style="normal" transform="matrix(0.999811,0,0,0.999811,0,0)" stroke="none" font-weight="400" fill-opacity="1">
   <path vector-effect="none" d="M-256.414,2694.82 L-274.464,-242.72 L2736.81,-311.403 L2851.9,2624.84 L-256.414,2694.82" fill-rule="evenodd"/>
  </g>
  <g font-family="Ubuntu" fill="none" stroke-opacity="1" font-size="45.8333" stroke-width="1" font-style="normal" transform="matrix(0.999811,0,0,0.999811,0,0)" stroke="#000000" font-weight="400" stroke-linecap="square" stroke-linejoin="bevel"/>
  <g font-family="Ubuntu" fill="none" stroke-opacity="1" font-size="45.8333" stroke-width="12.5197" font-style="normal" transform="matrix(0.999811,0,0,0.999811,0,0)" stroke="#232323" font-weight="400" stroke-linecap="square" stroke-linejoin="bevel">
   <path vector-effect="none" d="M-262.075,1769.27 L-219.676,1737.71 L-205.633,1719.93 L-175.615,1643.18 L-177.372,1623.46 L-175.511,1615.09 L-145.96,1567.32 L-104.006,1514.21 L-92.6636,1475.72 L-86.5051,1438 L-83.3486,1401.75 L-72.6719,1360.96 L-20.227,1301.06 L0.708894,1230.76 L-4.32162,1196.66 L-1.49399,1184.85 L12.8256,1158.02 L30.8967,1143.14 L93.1654,1063.94 L115.679,1014.54 L117.613,1004.57 L117.157,963.103 L121.499,950.156 L231.996,812.43 L319.495,772.214 L320.262,765.429 L314.719,754.376 L315.665,721.844 L313.505,713.359 L258.554,667.903 L255.467,660.835 L257.625,653.011 L267.671,647.888 L343.483,650.168 L388.08,628.906 L414.729,627.761 L459.627,588.912 L478.255,522.438 L520.267,431.859 L560.017,334.334 L576.02,302.853 L610.995,252.753 L653.435,167.515 L679.942,134.044 L696.482,100.32 L697.734,91.8494 L690.681,48.997 L695.451,26.6835 L707.174,1.63939 L715.809,-28.3316 L713.687,-48.2625 L704.035,-77.9456 L703.47,-91.9473 L717.999,-129.498 L718.516,-143.157 L726.784,-165.419 L728.16,-254.468" fill-rule="evenodd"/>
  </g>
  <g font-family="Ubuntu" fill="none" stroke-opacity="1" font-size="45.8333" stroke-dashoffset="0" stroke-width="6.25984" font-style="normal" transform="matrix(0.999811,0,0,0.999811,0,0)" stroke="#ffffff" font-weight="400" stroke-linecap="square" stroke-dasharray="35.4331,35.4331" stroke-linejoin="bevel">
   <path vector-effect="none" d="M-262.075,1769.27 L-219.676,1737.71 L-205.633,1719.93 L-175.615,1643.18 L-177.372,1623.46 L-175.511,1615.09 L-145.96,1567.32 L-104.006,1514.21 L-92.6636,1475.72 L-86.5051,1438 L-83.3486,1401.75 L-72.6719,1360.96 L-20.227,1301.06 L0.708894,1230.76 L-4.32162,1196.66 L-1.49399,1184.85 L12.8256,1158.02 L30.8967,1143.14 L93.1654,1063.94 L115.679,1014.54 L117.613,1004.57 L117.157,963.103 L121.499,950.156 L231.996,812.43 L319.495,772.214 L320.262,765.429 L314.719,754.376 L315.665,721.844 L313.505,713.359 L258.554,667.903 L255.467,660.835 L257.625,653.011 L267.671,647.888 L343.483,650.168 L388.08,628.906 L414.729,627.761 L459.627,588.912 L478.255,522.438 L520.267,431.859 L560.017,334.334 L576.02,302.853 L610.995,252.753 L653.435,167.515 L679.942,134.044 L696.482,100.32 L697.734,91.8494 L690.681,48.997 L695.451,26.6835 L707.174,1.63939 L715.809,-28.3316 L713.687,-48.2625 L704.035,-77.9456 L703.47,-91.9473 L717.999,-129.498 L718.516,-143.157 L726.784,-165.419 L728.16,-254.468" fill-rule="evenodd"/>
  </g>
  <g font-family="Ubuntu" fill="none" stroke-opacity="1" font-size="45.8333" stroke-width="4.25197" font-style="normal" transform="matrix(0.999811,0,0,0.999811,0,0)" stroke="#232323" font-weight="400" stroke-linecap="square" stroke-linejoin="bevel">
   <path vector-effect="none" d="M-97.0322,1491.34 L-89.8472,1487.26 L-76.7564,1499.48 L-37.5665,1505.71 L91.1034,1509.36 L233.257,1488.72 L285.392,1485.33 L308.003,1496.05 L314.593,1506.35 L318.416,1520.29" fill-rule="evenodd"/>
   <path vector-effect="none" d="M2000.45,2239.82 L2015.8,2243.09 L2025.59,2233.23 L2027.3,2110.39 L2031.66,2101.18" fill-rule="evenodd"/>
  </g>
  <g font-family="Ubuntu" fill="none" stroke-opacity="1" font-size="45.8333" stroke-width="7.79528" font-style="normal" transform="matrix(0.999811,0,0,0.999811,0,0)" stroke="#000000" font-weight="400" stroke-linecap="round" stroke-linejoin="round">
   <path vector-effect="none" d="M258.959,668.922 L223.962,637.602 L197.122,579.958 L167.701,541.008 L32.1998,443.713 L-29.4415,413.545 L-67.8361,409.087 L-81.2839,400.145 L-97.9813,377.998 L-228.384,322.009 L-259.429,296.934 L-271.174,289.805" fill-rule="evenodd"/>
   <path vector-effect="none" d="M258.959,668.922 L260.535,669.62" fill-rule="evenodd"/>
  </g>
  <g font-family="Ubuntu" fill="none" stroke-opacity="1" font-size="45.8333" stroke-dashoffset="0" stroke-width="3.89764" font-style="normal" transform="matrix(0.999811,0,0,0.999811,0,0)" stroke="#ffffff" font-weight="400" stroke-linecap="square" stroke-dasharray="35.4331,35.4331" stroke-linejoin="bevel">
   <path vector-effect="none" d="M258.959,668.922 L223.962,637.602 L197.122,579.958 L167.701,541.008 L32.1998,443.713 L-29.4415,413.545 L-67.8361,409.087 L-81.2839,400.145 L-97.9813,377.998 L-228.384,322.009 L-259.429,296.934 L-271.174,289.805" fill-rule="evenodd"/>
   <path vector-effect="none" d="M258.959,668.922 L260.535,669.62" fill-rule="evenodd"/>
  </g>
  <g font-family="Ubuntu" fill="none" stroke-opacity="1" font-size="45.8333" stroke-width="4.25197" font-style="normal" transform="matrix(0.999811,0,0,0.999811,0,0)" stroke="#232323" font-weight="400" stroke-linecap="square" stroke-linejoin="bevel">
   <path vector-effect="none" d="" fill-rule="evenodd"/>
   <path vector-effect="none" d="M1315.56,2672.19 L1315.33,2659.78 L1335.44,2604.97 L1425.42,2540.59 L1532.34,2415.77 L1784.63,2241.89 L1794.98,2232.19 L1838.57,2174.59 L1847.5,2170.83 L1861.53,2172.21 L1869.95,2176.33 L1877.47,2185.54" fill-rule="evenodd"/>
   <path vector-effect="none" d="M1877.47,2185.54 L1879.48,2188.64" fill-rule="evenodd"/>
  </g>
  <g font-family="Ubuntu" fill="none" stroke-opacity="1" font-size="45.8333" stroke-width="7.79528" font-style="normal" transform="matrix(0.999811,0,0,0.999811,0,0)" stroke="#000000" font-weight="400" stroke-linecap="round" stroke-linejoin="round">
   <path vector-effect="none" d="M1999.25,2238.86 L1999.75,2239.35" fill-rule="evenodd"/>
   <path vector-effect="none" d="M1999.25,2238.86 L1965,2216.26 L1886.56,2194.69 L1877.48,2185.27 L1875.19,2172.38 L1879.56,2162.74 L1886.53,2157.46 L1924.29,2148.97 L1992.05,2122.74 L2031.97,2100.59" fill-rule="evenodd"/>
   <path vector-effect="none" d="M2031.97,2100.59 L2033.9,2099.48" fill-rule="evenodd"/>
  </g>
  <g font-family="Ubuntu" fill="none" stroke-opacity="1" font-size="45.8333" stroke-dashoffset="0" stroke-width="3.89764" font-style="normal" transform="matrix(0.999811,0,0,0.999811,0,0)" stroke="#ffffff" font-weight="400" stroke-linecap="square" stroke-dasharray="35.4331,35.4331" stroke-linejoin="bevel">
   <path vector-effect="none" d="M1999.25,2238.86 L1999.75,2239.35" fill-rule="evenodd"/>
   <path vector-effect="none" d="M1999.25,2238.86 L1965,2216.26 L1886.56,2194.69 L1877.48,2185.27 L1875.19,2172.38 L1879.56,2162.74 L1886.53,2157.46 L1924.29,2148.97 L1992.05,2122.74 L2031.97,2100.59" fill-rule="evenodd"/>
   <path vector-effect="none" d="M2031.97,2100.59 L2033.9,2099.48" fill-rule="evenodd"/>
  </g>
  <g font-family="Ubuntu" fill="none" stroke-opacity="1" font-size="45.8333" stroke-width="4.25197" font-style="normal" transform="matrix(0.999811,0,0,0.999811,0,0)" stroke="#232323" font-weight="400" stroke-linecap="square" stroke-linejoin="bevel">
   <path vector-effect="none" d="M2257.49,1986.5 L2261,1985.35" fill-rule="evenodd"/>
   <path vector-effect="none" d="M2261,1985.35 L2519.25,1901.49 L2635.92,1854.94 L2713.97,1831.36 L2772.62,1825.51 L2819.21,1787.08" fill-rule="evenodd"/>
   <path vector-effect="none" d="M2063.43,1608.09 L2062.36,1611.3" fill-rule="evenodd"/>
   <path vector-effect="none" d="M2063.43,1608.09 L2067.66,1596.15 L2083.31,1575.68 L2114.95,1548.8 L2115.22,1539.67 L2106.95,1519.99 L2109.11,1485.85 L2112.42,1477.77 L2122.9,1470.62 L2168.39,1464.56 L2200.37,1454.49 L2238.29,1414.27 L2284.62,1332.86 L2281.26,1324.79 L2241.39,1284.15 L2218.56,1277.47 L2189.44,1243.87 L2152.85,1177.04 L2145.58,1145.61 L2114.23,1117.27 L2113.63,1111.84 L2134.29,1070.23" fill-rule="evenodd"/>
   <path vector-effect="none" d="M1684.75,443.545 L1682.78,449.046" fill-rule="evenodd"/>
   <path vector-effect="none" d="M1684.75,443.545 L1724.66,342.339" fill-rule="evenodd"/>
   <path vector-effect="none" d="M1281.29,1085.01 L1314.75,1057.33 L1347.71,1023.01 L1362.04,1023.35 L1389.81,1042.12 L1403.05,1039.94 L1413,1031.28 L1440.02,970.125 L1440.28,960.636 L1435.94,944.485 L1439.03,933.575 L1505.71,838.109 L1537.21,787.307 L1569.16,748.888 L1590.1,713.46 L1610.54,646.724 L1654.79,539.418 L1665.62,522.077 L1675.53,467.904 L1683.55,447.572 L1696.42,437.061 L1759.7,422.275 L1768.37,413.933 L1780.13,393.025 L1830.63,362.562 L1836.19,351.692 L1843.18,268.374 L1846.52,262.429 L1913.88,249.327 L1932.76,255.425 L1977.54,249.815 L2012.61,237.714 L2061.32,229.472 L2081.08,218.433 L2124.34,208.286 L2152.8,215.077 L2212.23,210.415 L2230.4,200.677 L2250.48,178.646 L2349.27,158.467 L2396.99,171.676 L2448.82,193.98 L2457.4,193.449 L2463.66,184.105 L2474.9,175.583 L2483.37,150.002 L2527.92,121.346 L2620.73,92.166 L2664.17,32.7327 L2667.83,-3.38945 L2674.49,-16.6272 L2707.11,-32.8254 L2722.12,-28.3834 L2729.35,-30.2623 L2741.87,-53.9151 L2746.73,-59.8559" fill-rule="evenodd"/>
   <path vector-effect="none" d="" fill-rule="evenodd"/>
  </g>
  <g font-family="Ubuntu" fill="none" stroke-opacity="1" font-size="45.8333" stroke-width="7.79528" font-style="normal" transform="matrix(0.999811,0,0,0.999811,0,0)" stroke="#000000" font-weight="400" stroke-linecap="round" stroke-linejoin="round">
   <path vector-effect="none" d="M320.041,763.39 L318.121,761.509" fill-rule="evenodd"/>
   <path vector-effect="none" d="M2417.58,2640.76 L2417.51,2636.78 L2419.96,2594.31 L2413.67,2581.17 L2390.21,2565.95 L2382.77,2549.31 L2376.41,2542.75 L2295.03,2520.38 L2225.41,2477.81 L2191.73,2411.32 L2170.13,2391.9 L2135.36,2379.23 L2097.67,2335.01 L2038.28,2307.28 L2014.31,2286.1 L2001.56,2268.9 L2000.45,2260.51 L2004.23,2247.22 L1999.75,2239.35 L2014.33,2243.46 L2021.74,2239.64 L2025.59,2233.23 L2027.3,2110.39 L2031.03,2101.77 L2175.08,2014.56 L2236.79,1996.58 L2261.2,1984.34 L2265.69,1975.57 L2263.09,1965.14 L2097.48,1675.36 L2059.56,1641.54 L2058.32,1632.43 L2063.52,1604.56 L2061.7,1587.62 L2055.29,1581.47 L2045.27,1579.69 L2028.33,1585.51 L1997.24,1582.5 L1931.5,1589.18 L1911.73,1577.91 L1904.97,1565.4 L1897.99,1559.7 L1867.06,1549.17 L1844.71,1553.65 L1809.7,1544.52 L1797.52,1535.56 L1774.86,1531 L1754.36,1519.14 L1739.2,1500.78 L1716.59,1495.24 L1711.01,1486.56 L1709.88,1468.7 L1696.15,1451.56 L1693.99,1423.12 L1687.33,1398.46 L1658.71,1342.02 L1609.37,1304.17 L1484.24,1239.57 L1467.52,1224.33 L1350.26,1141.15 L1340.73,1132.29 L1334.13,1097.23 L1324.16,1085.44 L1311.45,1080.89 L1288.62,1081.2 L1260.05,1102.08 L1251.09,1104.9 L1217.11,1090.88 L1206.39,1090.23 L1158.21,1111.83 L1136.91,1115.59 L1094.35,1144.64 L1024.93,1162.32 L937.021,1160.92 L906.73,1143.41 L891.623,1118.31 L801.221,1063.52 L667.025,1020.82 L620.521,990.559 L463.637,936.982 L371.564,799.815 L369.934,787.907 L375.715,769.438 L371.573,757.885 L358.631,752.706 L328.171,765.511 L320.041,763.39" fill-rule="evenodd"/>
   <path vector-effect="none" d="" fill-rule="evenodd"/>
  </g>
  <g font-family="Ubuntu" fill="none" stroke-opacity="1" font-size="45.8333" stroke-dashoffset="0" stroke-width="3.89764" font-style="normal" transform="matrix(0.999811,0,0,0.999811,0,0)" stroke="#ffffff" font-weight="400" stroke-linecap="square" stroke-dasharray="35.4331,35.4331" stroke-linejoin="bevel">
   <path vector-effect="none" d="M320.041,763.39 L318.121,761.509" fill-rule="evenodd"/>
   <path vector-effect="none" d="M2417.58,2640.76 L2417.51,2636.78 L2419.96,2594.31 L2413.67,2581.17 L2390.21,2565.95 L2382.77,2549.31 L2376.41,2542.75 L2295.03,2520.38 L2225.41,2477.81 L2191.73,2411.32 L2170.13,2391.9 L2135.36,2379.23 L2097.67,2335.01 L2038.28,2307.28 L2014.31,2286.1 L2001.56,2268.9 L2000.45,2260.51 L2004.23,2247.22 L1999.75,2239.35 L2014.33,2243.46 L2021.74,2239.64 L2025.59,2233.23 L2027.3,2110.39 L2031.03,2101.77 L2175.08,2014.56 L2236.79,1996.58 L2261.2,1984.34 L2265.69,1975.57 L2263.09,1965.14 L2097.48,1675.36 L2059.56,1641.54 L2058.32,1632.43 L2063.52,1604.56 L2061.7,1587.62 L2055.29,1581.47 L2045.27,1579.69 L2028.33,1585.51 L1997.24,1582.5 L1931.5,1589.18 L1911.73,1577.91 L1904.97,1565.4 L1897.99,1559.7 L1867.06,1549.17 L1844.71,1553.65 L1809.7,1544.52 L1797.52,1535.56 L1774.86,1531 L1754.36,1519.14 L1739.2,1500.78 L1716.59,1495.24 L1711.01,1486.56 L1709.88,1468.7 L1696.15,1451.56 L1693.99,1423.12 L1687.33,1398.46 L1658.71,1342.02 L1609.37,1304.17 L1484.24,1239.57 L1467.52,1224.33 L1350.26,1141.15 L1340.73,1132.29 L1334.13,1097.23 L1324.16,1085.44 L1311.45,1080.89 L1288.62,1081.2 L1260.05,1102.08 L1251.09,1104.9 L1217.11,1090.88 L1206.39,1090.23 L1158.21,1111.83 L1136.91,1115.59 L1094.35,1144.64 L1024.93,1162.32 L937.021,1160.92 L906.73,1143.41 L891.623,1118.31 L801.221,1063.52 L667.025,1020.82 L620.521,990.559 L463.637,936.982 L371.564,799.815 L369.934,787.907 L375.715,769.438 L371.573,757.885 L358.631,752.706 L328.171,765.511 L320.041,763.39" fill-rule="evenodd"/>
   <path vector-effect="none" d="" fill-rule="evenodd"/>
  </g>
  <g font-family="Ubuntu" fill="none" stroke-opacity="1" font-size="45.8333" stroke-width="1" font-style="normal" transform="matrix(0.999811,0,0,0.999811,0,0)" stroke="#000000" font-weight="400" stroke-linecap="square" stroke-linejoin="bevel"/>
  <g font-family="Ubuntu" fill="#ffffff" stroke-opacity="1" font-size="45.8333" stroke-width="4.72441" font-style="normal" transform="matrix(0.999811,0,0,0.999811,0,0)" stroke="#000000" font-weight="400" stroke-linecap="square" fill-opacity="1" stroke-linejoin="bevel">
   <path vector-effect="none" d="M1905.09,2197.4 C1905.09,2203.93 1899.8,2209.21 1893.28,2209.21 C1886.76,2209.21 1881.47,2203.93 1881.47,2197.4 C1881.47,2190.88 1886.76,2185.59 1893.28,2185.59 C1899.8,2185.59 1905.09,2190.88 1905.09,2197.4 " fill-rule="evenodd"/>
   <path vector-effect="none" d="M2072.96,1618.48 C2072.96,1625 2067.67,1630.29 2061.15,1630.29 C2054.63,1630.29 2049.34,1625 2049.34,1618.48 C2049.34,1611.95 2054.63,1606.67 2061.15,1606.67 C2067.67,1606.67 2072.96,1611.95 2072.96,1618.48 " fill-rule="evenodd"/>
   <path vector-effect="none" d="M1285.18,1091.76 C1285.18,1098.28 1279.89,1103.57 1273.36,1103.57 C1266.84,1103.57 1261.55,1098.28 1261.55,1091.76 C1261.55,1085.24 1266.84,1079.95 1273.36,1079.95 C1279.89,1079.95 1285.18,1085.24 1285.18,1091.76 " fill-rule="evenodd"/>
   <path vector-effect="none" d="M1850.58,324.751 C1850.58,331.274 1845.29,336.562 1838.77,336.562 C1832.25,336.562 1826.96,331.274 1826.96,324.751 C1826.96,318.228 1832.25,312.94 1838.77,312.94 C1845.29,312.94 1850.58,318.228 1850.58,324.751 " fill-rule="evenodd"/>
   <path vector-effect="none" d="M308.849,695.578 C308.849,702.101 303.561,707.389 297.038,707.389 C290.515,707.389 285.227,702.101 285.227,695.578 C285.227,689.055 290.515,683.767 297.038,683.767 C303.561,683.767 308.849,689.055 308.849,695.578 " fill-rule="evenodd"/>
  </g>
  <g font-family="Ubuntu" fill="none" stroke-opacity="1" font-size="45.8333" stroke-width="1" font-style="normal" transform="matrix(0.999811,0,0,0.999811,0,0)" stroke="#000000" font-weight="400" stroke-linecap="square" stroke-linejoin="bevel"/>
  <g font-family="Ubuntu" fill="none" stroke-opacity="1" font-size="45.8333" stroke-width="1" font-style="normal" transform="matrix(0.999811,0,0,0.999811,0,0)" stroke="#000000" font-weight="400" stroke-linecap="square" stroke-linejoin="bevel"/>
  <g font-family="Ubuntu" fill="none" stroke-opacity="1" font-size="45.8333" stroke-width="1" font-style="normal" transform="matrix(0.999811,0,0,0.999811,0,0)" stroke="#000000" font-weight="400" stroke-linecap="square" stroke-linejoin="bevel"/>
  <g font-family="Ubuntu" fill="none" stroke-opacity="1" font-size="45.8333" stroke-width="1" font-style="normal" transform="matrix(0.999811,0,0,0.999811,0,0)" stroke="#000000" font-weight="400" stroke-linecap="square" stroke-linejoin="bevel"/>
  <g font-family="Ubuntu" fill="none" stroke-opacity="1" font-size="45.8333" stroke-width="1" font-style="normal" transform="matrix(0.319939,0,0,0.319939,418.358,641.457)" stroke="#000000" font-weight="400" stroke-linecap="square" stroke-linejoin="bevel"/>
  <g font-family="Ubuntu" fill="#6d6d6d" font-size="45.8333" font-style="normal" transform="matrix(0.999811,0,0,0.999811,418.358,641.457)" stroke="none" font-weight="400" fill-opacity="0.694118">
   <path vector-effect="non-scaling-stroke" d="M-108.198,-49.3 L108.198,-49.3 L108.198,49.3 L-108.198,49.3 L-108.198,-49.3" fill-rule="evenodd"/>
  </g>
  <g font-family="Ubuntu" fill="none" stroke-opacity="1" font-size="45.8333" stroke-width="1" font-style="normal" transform="matrix(0.319939,0,0,0.319939,418.358,641.457)" stroke="#000000" font-weight="400" stroke-linecap="square" stroke-linejoin="bevel"/>
  <g font-family="Ubuntu" fill="none" stroke-opacity="1" font-size="45.8333" stroke-width="1" font-style="normal" transform="matrix(0.999811,0,0,0.999811,0,0)" stroke="#000000" font-weight="400" stroke-linecap="square" stroke-linejoin="bevel"/>
  <g font-family="Ubuntu" fill="none" stroke-opacity="1" font-size="42" stroke-width="1" font-style="normal" transform="matrix(0.999811,0,0,0.999811,311.479,631.459)" stroke="#ffffff" font-weight="400" stroke-linecap="square" stroke-linejoin="bevel">
   <text font-family="Ubuntu" fill="#ffffff" font-size="42" font-style="normal" xml:space="preserve" stroke="none" font-weight="400" x="0" fill-opacity="1" y="0">Ярославль</text>
  </g>
  <g font-family="Ubuntu" fill="none" stroke-opacity="1" font-size="45.8333" stroke-width="1" font-style="normal" transform="matrix(0.999811,0,0,0.999811,0,0)" stroke="#000000" font-weight="400" stroke-linecap="square" stroke-linejoin="bevel"/>
  <g font-family="Ubuntu" fill="none" stroke-opacity="1" font-size="42" stroke-width="1" font-style="normal" transform="matrix(0.999811,0,0,0.999811,311.479,679.449)" stroke="#ffffff" font-weight="400" stroke-linecap="square" stroke-linejoin="bevel">
   <text font-family="Ubuntu" fill="#ffffff" font-size="42" font-style="normal" xml:space="preserve" stroke="none" font-weight="400" x="0" fill-opacity="1" y="0">Yaroslavl</text>
  </g>
  <g font-family="Ubuntu" fill="none" stroke-opacity="1" font-size="45.8333" stroke-width="1" font-style="normal" transform="matrix(0.999811,0,0,0.999811,0,0)" stroke="#000000" font-weight="400" stroke-linecap="square" stroke-linejoin="bevel"/>
  <g font-family="Ubuntu" fill="none" stroke-opacity="1" font-size="45.8333" stroke-width="1" font-style="normal" transform="matrix(0.319939,0,0,0.319939,2178.68,1564.18)" stroke="#000000" font-weight="400" stroke-linecap="square" stroke-linejoin="bevel"/>
  <g font-family="Ubuntu" fill="#6d6d6d" font-size="45.8333" font-style="normal" transform="matrix(0.999811,0,0,0.999811,2178.68,1564.18)" stroke="none" font-weight="400" fill-opacity="0.694118">
   <path vector-effect="non-scaling-stroke" d="M-104.738,-49.3 L104.738,-49.3 L104.738,49.3 L-104.738,49.3 L-104.738,-49.3" fill-rule="evenodd"/>
  </g>
  <g font-family="Ubuntu" fill="none" stroke-opacity="1" font-size="45.8333" stroke-width="1" font-style="normal" transform="matrix(0.319939,0,0,0.319939,2178.68,1564.18)" stroke="#000000" font-weight="400" stroke-linecap="square" stroke-linejoin="bevel"/>
  <g font-family="Ubuntu" fill="none" stroke-opacity="1" font-size="45.8333" stroke-width="1" font-style="normal" transform="matrix(0.999811,0,0,0.999811,0,0)" stroke="#000000" font-weight="400" stroke-linecap="square" stroke-linejoin="bevel"/>
  <g font-family="Ubuntu" fill="none" stroke-opacity="1" font-size="42" stroke-width="1" font-style="normal" transform="matrix(0.999811,0,0,0.999811,2075.26,1554.18)" stroke="#ffffff" font-weight="400" stroke-linecap="square" stroke-linejoin="bevel">
   <text font-family="Ubuntu" fill="#ffffff" font-size="42" font-style="normal" xml:space="preserve" stroke="none" font-weight="400" x="0" fill-opacity="1" y="0">Фурманов</text>
  </g>
  <g font-family="Ubuntu" fill="none" stroke-opacity="1" font-size="45.8333" stroke-width="1" font-style="normal" transform="matrix(0.999811,0,0,0.999811,0,0)" stroke="#000000" font-weight="400" stroke-linecap="square" stroke-linejoin="bevel"/>
  <g font-family="Ubuntu" fill="none" stroke-opacity="1" font-size="42" stroke-width="1" font-style="normal" transform="matrix(0.999811,0,0,0.999811,2075.26,1602.17)" stroke="#ffffff" font-weight="400" stroke-linecap="square" stroke-linejoin="bevel">
   <text font-family="Ubuntu" fill="#ffffff" font-size="42" font-style="normal" xml:space="preserve" stroke="none" font-weight="400" x="0" fill-opacity="1" y="0">Furmanov</text>
  </g>
  <g font-family="Ubuntu" fill="none" stroke-opacity="1" font-size="45.8333" stroke-width="1" font-style="normal" transform="matrix(0.999811,0,0,0.999811,0,0)" stroke="#000000" font-weight="400" stroke-linecap="square" stroke-linejoin="bevel"/>
  <g font-family="Ubuntu" fill="none" stroke-opacity="1" font-size="45.8333" stroke-width="1" font-style="normal" transform="matrix(0.319939,0,0,0.319939,1948.92,271.2)" stroke="#000000" font-weight="400" stroke-linecap="square" stroke-linejoin="bevel"/>
  <g font-family="Ubuntu" fill="#6d6d6d" font-size="45.8333" font-style="normal" transform="matrix(0.999811,0,0,0.999811,1948.92,271.2)" stroke="none" font-weight="400" fill-opacity="0.694118">
   <path vector-effect="non-scaling-stroke" d="M-97.3234,-49.3 L97.3234,-49.3 L97.3234,49.3 L-97.3234,49.3 L-97.3234,-49.3" fill-rule="evenodd"/>
  </g>
  <g font-family="Ubuntu" fill="none" stroke-opacity="1" font-size="45.8333" stroke-width="1" font-style="normal" transform="matrix(0.319939,0,0,0.319939,1948.92,271.2)" stroke="#000000" font-weight="400" stroke-linecap="square" stroke-linejoin="bevel"/>
  <g font-family="Ubuntu" fill="none" stroke-opacity="1" font-size="45.8333" stroke-width="1" font-style="normal" transform="matrix(0.999811,0,0,0.999811,0,0)" stroke="#000000" font-weight="400" stroke-linecap="square" stroke-linejoin="bevel"/>
  <g font-family="Ubuntu" fill="none" stroke-opacity="1" font-size="42" stroke-width="1" font-style="normal" transform="matrix(0.999811,0,0,0.999811,1852.92,261.202)" stroke="#ffffff" font-weight="400" stroke-linecap="square" stroke-linejoin="bevel">
   <text font-family="Ubuntu" fill="#ffffff" font-size="42" font-style="normal" xml:space="preserve" stroke="none" font-weight="400" x="0" fill-opacity="1" y="0">Кострома</text>
  </g>
  <g font-family="Ubuntu" fill="none" stroke-opacity="1" font-size="45.8333" stroke-width="1" font-style="normal" transform="matrix(0.999811,0,0,0.999811,0,0)" stroke="#000000" font-weight="400" stroke-linecap="square" stroke-linejoin="bevel"/>
  <g font-family="Ubuntu" fill="none" stroke-opacity="1" font-size="42" stroke-width="1" font-style="normal" transform="matrix(0.999811,0,0,0.999811,1852.92,309.193)" stroke="#ffffff" font-weight="400" stroke-linecap="square" stroke-linejoin="bevel">
   <text font-family="Ubuntu" fill="#ffffff" font-size="42" font-style="normal" xml:space="preserve" stroke="none" font-weight="400" x="0" fill-opacity="1" y="0">Kostroma</text>
  </g>
  <g font-family="Ubuntu" fill="none" stroke-opacity="1" font-size="45.8333" stroke-width="1" font-style="normal" transform="matrix(0.999811,0,0,0.999811,0,0)" stroke="#000000" font-weight="400" stroke-linecap="square" stroke-linejoin="bevel"/>
  <g font-family="Ubuntu" fill="none" stroke-opacity="1" font-size="45.8333" stroke-width="1" font-style="normal" transform="matrix(0.319939,0,0,0.319939,1377.3,1038.06)" stroke="#000000" font-weight="400" stroke-linecap="square" stroke-linejoin="bevel"/>
  <g font-family="Ubuntu" fill="#6d6d6d" font-size="45.8333" font-style="normal" transform="matrix(0.999811,0,0,0.999811,1377.3,1038.06)" stroke="none" font-weight="400" fill-opacity="0.694118">
   <path vector-effect="non-scaling-stroke" d="M-90.4953,-49.3 L90.4953,-49.3 L90.4953,49.3 L-90.4953,49.3 L-90.4953,-49.3" fill-rule="evenodd"/>
  </g>
  <g font-family="Ubuntu" fill="none" stroke-opacity="1" font-size="45.8333" stroke-width="1" font-style="normal" transform="matrix(0.319939,0,0,0.319939,1377.3,1038.06)" stroke="#000000" font-weight="400" stroke-linecap="square" stroke-linejoin="bevel"/>
  <g font-family="Ubuntu" fill="none" stroke-opacity="1" font-size="45.8333" stroke-width="1" font-style="normal" transform="matrix(0.999811,0,0,0.999811,0,0)" stroke="#000000" font-weight="400" stroke-linecap="square" stroke-linejoin="bevel"/>
  <g font-family="Ubuntu" fill="none" stroke-opacity="1" font-size="42" stroke-width="1" font-style="normal" transform="matrix(0.999811,0,0,0.999811,1288.12,1028.06)" stroke="#ffffff" font-weight="400" stroke-linecap="square" stroke-linejoin="bevel">
   <text font-family="Ubuntu" fill="#ffffff" font-size="42" font-style="normal" xml:space="preserve" stroke="none" font-weight="400" x="0" fill-opacity="1" y="0">Нерехта</text>
  </g>
  <g font-family="Ubuntu" fill="none" stroke-opacity="1" font-size="45.8333" stroke-width="1" font-style="normal" transform="matrix(0.999811,0,0,0.999811,0,0)" stroke="#000000" font-weight="400" stroke-linecap="square" stroke-linejoin="bevel"/>
  <g font-family="Ubuntu" fill="none" stroke-opacity="1" font-size="42" stroke-width="1" font-style="normal" transform="matrix(0.999811,0,0,0.999811,1288.12,1076.05)" stroke="#ffffff" font-weight="400" stroke-linecap="square" stroke-linejoin="bevel">
   <text font-family="Ubuntu" fill="#ffffff" font-size="42" font-style="normal" xml:space="preserve" stroke="none" font-weight="400" x="0" fill-opacity="1" y="0">Nerekhta</text>
  </g>
  <g font-family="Ubuntu" fill="none" stroke-opacity="1" font-size="45.8333" stroke-width="1" font-style="normal" transform="matrix(0.999811,0,0,0.999811,0,0)" stroke="#000000" font-weight="400" stroke-linecap="square" stroke-linejoin="bevel"/>
  <g font-family="Ubuntu" fill="none" stroke-opacity="1" font-size="45.8333" stroke-width="1" font-style="normal" transform="matrix(0.319939,0,0,0.319939,1993.73,2143)" stroke="#000000" font-weight="400" stroke-linecap="square" stroke-linejoin="bevel"/>
  <g font-family="Ubuntu" fill="#6d6d6d" font-size="45.8333" font-style="normal" transform="matrix(0.999811,0,0,0.999811,1993.73,2143)" stroke="none" font-weight="400" fill-opacity="0.694118">
   <path vector-effect="non-scaling-stroke" d="M-87.6281,-49.3 L87.6281,-49.3 L87.6281,49.3 L-87.6281,49.3 L-87.6281,-49.3" fill-rule="evenodd"/>
  </g>
  <g font-family="Ubuntu" fill="none" stroke-opacity="1" font-size="45.8333" stroke-width="1" font-style="normal" transform="matrix(0.319939,0,0,0.319939,1993.73,2143)" stroke="#000000" font-weight="400" stroke-linecap="square" stroke-linejoin="bevel"/>
  <g font-family="Ubuntu" fill="none" stroke-opacity="1" font-size="45.8333" stroke-width="1" font-style="normal" transform="matrix(0.999811,0,0,0.999811,0,0)" stroke="#000000" font-weight="400" stroke-linecap="square" stroke-linejoin="bevel"/>
  <g font-family="Ubuntu" fill="none" stroke-opacity="1" font-size="42" stroke-width="1" font-style="normal" transform="matrix(0.999811,0,0,0.999811,1907.42,2133)" stroke="#ffffff" font-weight="400" stroke-linecap="square" stroke-linejoin="bevel">
   <text font-family="Ubuntu" fill="#ffffff" font-size="42" font-style="normal" xml:space="preserve" stroke="none" font-weight="400" x="0" fill-opacity="1" y="0">Иваново</text>
  </g>
  <g font-family="Ubuntu" fill="none" stroke-opacity="1" font-size="45.8333" stroke-width="1" font-style="normal" transform="matrix(0.999811,0,0,0.999811,0,0)" stroke="#000000" font-weight="400" stroke-linecap="square" stroke-linejoin="bevel"/>
  <g font-family="Ubuntu" fill="none" stroke-opacity="1" font-size="42" stroke-width="1" font-style="normal" transform="matrix(0.999811,0,0,0.999811,1907.42,2180.99)" stroke="#ffffff" font-weight="400" stroke-linecap="square" stroke-linejoin="bevel">
   <text font-family="Ubuntu" fill="#ffffff" font-size="42" font-style="normal" xml:space="preserve" stroke="none" font-weight="400" x="0" fill-opacity="1" y="0">Ivanovo</text>
  </g>
  <g font-family="Ubuntu" fill="none" stroke-opacity="1" font-size="45.8333" stroke-width="1" font-style="normal" transform="matrix(0.999811,0,0,0.999811,0,0)" stroke="#000000" font-weight="400" stroke-linecap="square" stroke-linejoin="bevel"/>
  <g font-family="Ubuntu" fill="none" stroke-opacity="1" font-size="45.8333" stroke-width="1" font-style="normal" transform="matrix(11.8088,0,0,11.8088,0,0)" stroke="#000000" font-weight="400" stroke-linecap="square" stroke-linejoin="bevel"/>
  <g font-family="Ubuntu" fill="none" stroke-opacity="1" font-size="45.8333" stroke-width="1" font-style="normal" transform="matrix(11.8088,0,0,11.8088,0,0)" stroke="#000000" font-weight="400" stroke-linecap="square" stroke-linejoin="bevel"/>
  <g font-family="Ubuntu" fill="none" stroke-opacity="1" font-size="45.8333" stroke-width="1" font-style="normal" transform="matrix(11.8088,0,0,11.8088,0,0)" stroke="#000000" font-weight="400" stroke-linecap="square" stroke-linejoin="bevel"/>
  <g font-family="Ubuntu" fill="none" stroke-opacity="0.184314" font-size="45.8333" stroke-width="3.54331" font-style="normal" transform="matrix(0.999811,0,0,0.999811,0,0)" stroke="#000000" font-weight="400" stroke-linecap="butt" stroke-linejoin="bevel">
   <path vector-effect="none" d="M80.4963,0 L80.4963,2393.22" fill-rule="evenodd"/>
   <path vector-effect="none" d="M307.458,0 L307.458,2393.22" fill-rule="evenodd"/>
   <path vector-effect="none" d="M534.42,0 L534.42,2393.22" fill-rule="evenodd"/>
   <path vector-effect="none" d="M761.382,0 L761.382,2393.22" fill-rule="evenodd"/>
   <path vector-effect="none" d="M988.344,0 L988.344,2393.22" fill-rule="evenodd"/>
   <path vector-effect="none" d="M1215.31,0 L1215.31,2393.22" fill-rule="evenodd"/>
   <path vector-effect="none" d="M1442.27,0 L1442.27,2393.22" fill-rule="evenodd"/>
   <path vector-effect="none" d="M1669.23,0 L1669.23,2393.22" fill-rule="evenodd"/>
   <path vector-effect="none" d="M1896.19,0 L1896.19,2393.22" fill-rule="evenodd"/>
   <path vector-effect="none" d="M2123.15,0 L2123.15,2393.22" fill-rule="evenodd"/>
   <path vector-effect="none" d="M2350.12,0 L2350.12,2393.22" fill-rule="evenodd"/>
   <path vector-effect="none" d="M0,2223.59 L2497.47,2223.59" fill-rule="evenodd"/>
   <path vector-effect="none" d="M0,1996.62 L2497.47,1996.62" fill-rule="evenodd"/>
   <path vector-effect="none" d="M0,1769.66 L2497.47,1769.66" fill-rule="evenodd"/>
   <path vector-effect="none" d="M0,1542.7 L2497.47,1542.7" fill-rule="evenodd"/>
   <path vector-effect="none" d="M0,1315.74 L2497.47,1315.74" fill-rule="evenodd"/>
   <path vector-effect="none" d="M0,1088.78 L2497.47,1088.78" fill-rule="evenodd"/>
   <path vector-effect="none" d="M0,861.814 L2497.47,861.814" fill-rule="evenodd"/>
   <path vector-effect="none" d="M0,634.852 L2497.47,634.852" fill-rule="evenodd"/>
   <path vector-effect="none" d="M0,407.89 L2497.47,407.89" fill-rule="evenodd"/>
   <path vector-effect="none" d="M0,180.928 L2497.47,180.928" fill-rule="evenodd"/>
  </g>
  <g font-family="Ubuntu" fill="none" stroke-opacity="0.184314" font-size="45.8333" stroke-width="3.54331" font-style="normal" transform="matrix(0.999811,0,0,0.999811,0,0)" stroke="#000000" font-weight="400" stroke-linecap="butt" stroke-linejoin="bevel"/>
  <g font-family="Ubuntu" fill="none" stroke-opacity="0.184314" font-size="45.8333" stroke-width="3.54331" font-style="normal" transform="matrix(11.8088,0,0,11.8088,0,0)" stroke="#000000" font-weight="400" stroke-linecap="butt" stroke-linejoin="bevel"/>
  <g font-family="Ubuntu" fill="none" stroke-opacity="1" font-size="45.8333" stroke-width="1" font-style="normal" transform="matrix(11.8088,0,0,11.8088,0,0)" stroke="#000000" font-weight="400" stroke-linecap="square" stroke-linejoin="bevel"/>
  <g font-family="Ubuntu" fill="none" stroke-opacity="1" font-size="45.8333" stroke-width="1" font-style="normal" transform="matrix(11.8088,0,0,11.8088,0,0)" stroke="#000000" font-weight="400" stroke-linecap="square" stroke-linejoin="bevel"/>
  <g font-family="Ubuntu" fill="none" stroke-opacity="1" font-size="45.8333" stroke-width="1" font-style="normal" transform="matrix(1,0,0,1,0,0)" stroke="#000000" font-weight="400" stroke-linecap="square" stroke-linejoin="bevel"/>
  <g font-family="Ubuntu" fill="none" stroke-opacity="1" font-size="45.8333" stroke-width="1" font-style="normal" transform="matrix(11.8088,0,0,11.8088,0,0)" stroke="#000000" font-weight="400" stroke-linecap="square" stroke-linejoin="bevel"/>
  <g font-family="Ubuntu" fill="none" stroke-opacity="1" font-size="45.8333" stroke-width="1" font-style="normal" transform="matrix(11.8088,0,0,11.8088,0,0)" stroke="#000000" font-weight="400" stroke-linecap="square" stroke-linejoin="bevel"/>
  <g font-family="Ubuntu" fill="none" stroke-opacity="1" font-size="45.8333" stroke-width="1" font-style="normal" transform="matrix(11.8088,0,0,11.8088,0,2240.35)" stroke="#000000" font-weight="400" stroke-linecap="square" stroke-linejoin="bevel"/>
  <g font-family="Ubuntu" fill="none" stroke-opacity="1" font-size="45.8333" stroke-width="1" font-style="normal" transform="matrix(0.999811,0,0,0.999811,0,2240.35)" stroke="#000000" font-weight="400" stroke-linecap="square" stroke-linejoin="bevel"/>
  <g font-family="Ubuntu" fill="none" stroke-miterlimit="2" stroke-opacity="1" font-size="45.8333" stroke-width="3.54331" font-style="normal" transform="matrix(0.999811,0,0,0.999811,0,2240.35)" stroke="#000000" font-weight="400" stroke-linecap="square" stroke-linejoin="miter">
   <path vector-effect="none" d="M29.4481,129.677 L29.4481,94.2441" fill-rule="evenodd"/>
   <path vector-effect="none" d="M256.41,129.677 L256.41,94.2441" fill-rule="evenodd"/>
   <path vector-effect="none" d="M29.4481,111.961 L256.41,111.961" fill-rule="evenodd"/>
  </g>
  <g font-family="Ubuntu" fill="none" stroke-opacity="1" font-size="45.8333" stroke-width="1" font-style="normal" transform="matrix(0.999811,0,0,0.999811,0,2240.35)" stroke="#000000" font-weight="400" stroke-linecap="square" stroke-linejoin="bevel"/>
  <g font-family="Ubuntu" fill="none" stroke-opacity="1" font-size="50" stroke-width="1" font-style="normal" transform="matrix(0.999811,0,0,0.999811,15.3514,2299.15)" stroke="#000000" font-weight="400" stroke-linecap="square" stroke-linejoin="bevel">
   <text font-family="Ubuntu" fill="#000000" font-size="50" font-style="normal" xml:space="preserve" stroke="none" font-weight="400" x="0" fill-opacity="1" y="0">0</text>
  </g>
  <g font-family="Ubuntu" fill="none" stroke-opacity="1" font-size="45.8333" stroke-width="1" font-style="normal" transform="matrix(0.999811,0,0,0.999811,0,2240.35)" stroke="#000000" font-weight="400" stroke-linecap="square" stroke-linejoin="bevel"/>
  <g font-family="Ubuntu" fill="none" stroke-opacity="1" font-size="50" stroke-width="1" font-style="normal" transform="matrix(0.999811,0,0,0.999811,228.179,2299.15)" stroke="#000000" font-weight="400" stroke-linecap="square" stroke-linejoin="bevel">
   <text font-family="Ubuntu" fill="#000000" font-size="50" font-style="normal" xml:space="preserve" stroke="none" font-weight="400" x="0" fill-opacity="1" y="0">10 km</text>
  </g>
  <g font-family="Ubuntu" fill="none" stroke-opacity="1" font-size="45.8333" stroke-width="1" font-style="normal" transform="matrix(0.999811,0,0,0.999811,0,2240.35)" stroke="#000000" font-weight="400" stroke-linecap="square" stroke-linejoin="bevel"/>
  <g font-family="Ubuntu" fill="none" stroke-opacity="1" font-size="45.8333" stroke-width="1" font-style="normal" transform="matrix(0.999811,0,0,0.999811,0,2240.35)" stroke="#000000" font-weight="400" stroke-linecap="square" stroke-linejoin="bevel"/>
  <g font-family="Ubuntu" fill="none" stroke-opacity="1" font-size="45.8333" stroke-width="1" font-style="normal" transform="matrix(11.8088,0,0,11.8088,0,2240.35)" stroke="#000000" font-weight="400" stroke-linecap="square" stroke-linejoin="bevel"/>
  <g font-family="Ubuntu" fill="none" stroke-opacity="1" font-size="45.8333" stroke-width="1" font-style="normal" transform="matrix(11.8088,0,0,11.8088,0,2240.35)" stroke="#000000" font-weight="400" stroke-linecap="square" stroke-linejoin="bevel"/>
  <g font-family="Ubuntu" fill="none" stroke-opacity="1" font-size="45.8333" stroke-width="1" font-style="normal" transform="matrix(11.8088,0,0,11.8088,1724.16,2209.17)" stroke="#000000" font-weight="400" stroke-linecap="square" stroke-linejoin="bevel"/>
  <g font-family="Ubuntu" fill="none" stroke-opacity="1" font-size="45.8333" stroke-width="1" font-style="normal" transform="matrix(0.999811,0,0,0.999811,1724.16,2209.17)" stroke="#000000" font-weight="400" stroke-linecap="square" stroke-linejoin="bevel"/>
  <g font-family="Ubuntu" fill="none" stroke-opacity="1" font-size="417" stroke-width="1" font-style="normal" transform="matrix(0.0999811,0,0,0.0999811,1910.95,2382.04)" stroke="#000000" font-weight="400" stroke-linecap="square" stroke-linejoin="bevel">
   <text font-family="Ubuntu" fill="#000000" font-size="417" font-style="normal" xml:space="preserve" stroke="none" font-weight="400" x="0" fill-opacity="1" y="0">basemap data: Openstreetmap</text>
  </g>
  <g font-family="Ubuntu" fill="none" stroke-opacity="1" font-size="45.8333" stroke-width="1" font-style="normal" transform="matrix(0.999811,0,0,0.999811,1724.16,2209.17)" stroke="#000000" font-weight="400" stroke-linecap="square" stroke-linejoin="bevel"/>
  <g font-family="Ubuntu" fill="none" stroke-opacity="1" font-size="45.8333" stroke-width="1" font-style="normal" transform="matrix(0.999811,0,0,0.999811,1724.16,2209.17)" stroke="#000000" font-weight="400" stroke-linecap="square" stroke-linejoin="bevel"/>
  <g font-family="Ubuntu" fill="none" stroke-opacity="1" font-size="45.8333" stroke-width="1" font-style="normal" transform="matrix(11.8088,0,0,11.8088,1724.16,2209.17)" stroke="#000000" font-weight="400" stroke-linecap="square" stroke-linejoin="bevel"/>
  <g font-family="Ubuntu" fill="none" stroke-opacity="1" font-size="45.8333" stroke-width="1" font-style="normal" transform="matrix(11.8088,0,0,11.8088,1724.16,2209.17)" stroke="#000000" font-weight="400" stroke-linecap="square" stroke-linejoin="bevel"/>
  <g font-family="Ubuntu" fill="none" stroke-opacity="1" font-size="45.8333" stroke-width="1" font-style="normal" transform="matrix(11.8088,0,0,11.8088,0,0)" stroke="#000000" font-weight="400" stroke-linecap="square" stroke-linejoin="bevel"/>
  <g font-family="Ubuntu" fill="none" stroke-opacity="1" font-size="45.8333" stroke-width="1" font-style="normal" transform="matrix(11.8088,0,0,11.8088,0,0)" stroke="#000000" font-weight="400" stroke-linecap="square" stroke-linejoin="bevel"/>
  <g font-family="Ubuntu" fill="none" stroke-opacity="1" font-size="45.8333" stroke-width="1" font-style="normal" transform="matrix(1,0,0,1,0,0)" stroke="#000000" font-weight="400" stroke-linecap="square" stroke-linejoin="bevel"/>
 </g>
 <metadata>
  <rdf:RDF xmlns:rdf="http://www.w3.org/1999/02/22-rdf-syntax-ns#" xmlns:dc="http://purl.org/dc/elements/1.1/" xmlns:rdfs="http://www.w3.org/2000/01/rdf-schema#">
   <rdf:Description dc:title="" dc:date="2000-01-01T00:00:00" dc:identifier="" dc:description="" dc:format="image/svg+xml">
    <dc:creator>
     <rdf:Bag>
      <rdf:li></rdf:li>
     </rdf:Bag>
    </dc:creator>
    <dc:publisher>
     <rdf:Bag>
      <rdf:li>QGIS 3.24.0-Tisler</rdf:li>
     </rdf:Bag>
    </dc:publisher>
    <dc:subject>
     <rdf:Bag/>
    </dc:subject>
   </rdf:Description>
   <cc:Work rdf:about="">
    <dc:format>image/svg+xml</dc:format>
    <dc:title></dc:title>
    <dc:date>2000-01-01T00:00:00</dc:date>
    <dc:identifier></dc:identifier>
    <dc:description></dc:description>
    <dc:creator>
     <cc:Agent>
      <dc:title></dc:title>
     </cc:Agent>
    </dc:creator>
    <dc:publisher>
     <cc:Agent>
      <dc:title>QGIS 3.24.0-Tisler</dc:title>
     </cc:Agent>
    </dc:publisher>
   </cc:Work>
  </rdf:RDF>
 </metadata>
</svg>
