<?xml version='1.0' encoding='UTF-8' standalone='no'?>
<svg viewBox="0 0 2497 2393" baseProfile="tiny" version="1.2" xmlns:xlink="http://www.w3.org/1999/xlink" xmlns="http://www.w3.org/2000/svg" xmlns:cc="http://creativecommons.org/ns#" height="202.607mm" width="211.413mm">
 <defs/>
 <g fill="none" stroke-width="1" stroke="black" stroke-linecap="square" fill-rule="evenodd" stroke-linejoin="bevel">
  <g font-family="Ubuntu" fill="none" stroke-opacity="1" font-size="45.8333" stroke-width="1" font-style="normal" transform="matrix(1,0,0,1,0,0)" stroke="#000000" font-weight="400" stroke-linecap="square" stroke-linejoin="bevel"/>
  <g font-family="Ubuntu" fill="none" stroke-opacity="1" font-size="45.8333" stroke-width="1" font-style="normal" transform="matrix(1,0,0,1,0,0)" stroke="#000000" font-weight="400" stroke-linecap="square" stroke-linejoin="bevel"/>
  <g font-family="Ubuntu" fill="none" stroke-opacity="1" font-size="45.8333" stroke-width="1" font-style="normal" transform="matrix(11.8088,0,0,11.8088,0,0)" stroke="#000000" font-weight="400" stroke-linecap="square" stroke-linejoin="bevel"/>
  <g font-family="Ubuntu" fill="none" stroke-opacity="1" font-size="45.8333" stroke-width="1" font-style="normal" transform="matrix(0.999811,0,0,0.999811,0,0)" stroke="#000000" font-weight="400" stroke-linecap="square" stroke-linejoin="bevel"/>
  <g font-family="Ubuntu" fill="#ffffff" font-size="45.8333" font-style="normal" transform="matrix(0.999811,0,0,0.999811,0,0)" stroke="none" font-weight="400" fill-opacity="1">
   <path vector-effect="none" d="M-2,-2 L2500,-2 L2500,2396 L-2,2396 L-2,-2" fill-rule="evenodd"/>
  </g>
  <g font-family="Ubuntu" fill="none" stroke-opacity="1" font-size="45.8333" stroke-width="1" font-style="normal" transform="matrix(0.999811,0,0,0.999811,0,0)" stroke="#000000" font-weight="400" stroke-linecap="square" stroke-linejoin="bevel"/>
  <g font-family="Ubuntu" fill="none" stroke-opacity="1" font-size="45.8333" stroke-width="1" font-style="normal" transform="matrix(11.8088,0,0,11.8088,0,0)" stroke="#000000" font-weight="400" stroke-linecap="square" stroke-linejoin="bevel"/>
  <g font-family="Ubuntu" fill="none" stroke-opacity="1" font-size="45.8333" stroke-width="1" font-style="normal" transform="matrix(11.8088,0,0,11.8088,0,0)" stroke="#000000" font-weight="400" stroke-linecap="square" stroke-linejoin="bevel"/>
  <g font-family="Ubuntu" fill="none" stroke-opacity="1" font-size="45.8333" stroke-width="1" font-style="normal" transform="matrix(11.8088,0,0,11.8088,0,0)" stroke="#000000" font-weight="400" stroke-linecap="square" stroke-linejoin="bevel"/>
  <g font-family="Ubuntu" fill="none" stroke-opacity="1" font-size="45.8333" stroke-width="1" font-style="normal" transform="matrix(11.8088,0,0,11.8088,0,0)" stroke="#000000" font-weight="400" stroke-linecap="square" stroke-linejoin="bevel"/>
  <g font-family="Ubuntu" fill="none" stroke-opacity="1" font-size="45.8333" stroke-width="1" font-style="normal" transform="matrix(11.8088,0,0,11.8088,0,0)" stroke="#000000" font-weight="400" stroke-linecap="square" stroke-linejoin="bevel"/>
  <g font-family="Ubuntu" fill="#1a1a1a" font-size="45.8333" font-style="normal" transform="matrix(11.8088,0,0,11.8088,0,0)" stroke="none" font-weight="400" fill-opacity="1">
   <path vector-effect="none" d="M0,0 L211.453,0 L211.453,202.626 L0,202.626 L0,0" fill-rule="evenodd"/>
  </g>
  <g font-family="Ubuntu" fill="none" stroke-opacity="1" font-size="45.8333" stroke-width="1" font-style="normal" transform="matrix(11.8088,0,0,11.8088,0,0)" stroke="#000000" font-weight="400" stroke-linecap="square" stroke-linejoin="bevel"/>
  <g font-family="Ubuntu" fill="none" stroke-opacity="1" font-size="45.8333" stroke-width="1" font-style="normal" transform="matrix(11.8088,0,0,11.8088,0,0)" stroke="#000000" font-weight="400" stroke-linecap="square" stroke-linejoin="bevel"/>
  <g font-family="Ubuntu" fill="#000000" font-size="45.8333" font-style="normal" transform="matrix(0.999811,0,0,0.999811,0,0)" stroke="none" font-weight="400" fill-opacity="0">
   <rect x="0" height="2393" y="0" width="2497"/>
  </g>
  <g font-family="Ubuntu" fill="none" stroke-opacity="1" font-size="45.8333" stroke-width="1" font-style="normal" transform="matrix(0.999811,0,0,0.999811,0,0)" stroke="#000000" font-weight="400" stroke-linecap="square" stroke-linejoin="bevel"/>
  <g font-family="Ubuntu" fill="#fff5de" font-size="45.8333" font-style="normal" transform="matrix(0.999811,0,0,0.999811,0,0)" stroke="none" font-weight="400" fill-opacity="1">
   <path vector-effect="none" d="M-478.983,2603.32 L-219.892,-351.343 L2740.29,-254.171 L2808.78,2706.82 L-478.983,2603.32" fill-rule="evenodd"/>
  </g>
  <g font-family="Ubuntu" fill="none" stroke-opacity="1" font-size="45.8333" stroke-width="1" font-style="normal" transform="matrix(0.999811,0,0,0.999811,0,0)" stroke="#000000" font-weight="400" stroke-linecap="square" stroke-linejoin="bevel"/>
  <g font-family="Ubuntu" fill="none" stroke-opacity="1" font-size="45.8333" stroke-width="12.5197" font-style="normal" transform="matrix(0.999811,0,0,0.999811,0,0)" stroke="#232323" font-weight="400" stroke-linecap="square" stroke-linejoin="bevel">
   <path vector-effect="none" d="M2776.24,1284.59 L2758.43,1278.28 L2750.94,1273.87 L2688.47,1200.7 L2670.77,1184.77 L2653.79,1149.27 L2650.38,1144.83 L2584.79,1073.96 L2576.16,1068.89 L2561.31,1064.55 L2554.67,1060.08 L2484.35,974.096 L2441.6,928.629 L2414.76,895.487 L2371.8,855.142 L2308.16,767.037 L2254.42,698.257 L2203.38,657.347 L2158.61,608.967 L2134.88,586.843 L2108.12,559.462 L2084.25,536.518 L2041.59,499.763 L1968.07,450.719 L1923.33,429.352 L1918.97,426.223 L1829.55,340.286 L1664.63,182.3 L1632.08,146.988 L1625.89,136.689 L1528.34,30.541 L1405.57,-103.3 L1271.93,-248.972 L1268.44,-253.79 L1264.32,-260.807" fill-rule="evenodd"/>
  </g>
  <g font-family="Ubuntu" fill="none" stroke-opacity="1" font-size="45.8333" stroke-dashoffset="0" stroke-width="6.25984" font-style="normal" transform="matrix(0.999811,0,0,0.999811,0,0)" stroke="#ffffff" font-weight="400" stroke-linecap="square" stroke-dasharray="35.4331,35.4331" stroke-linejoin="bevel">
   <path vector-effect="none" d="M2776.24,1284.59 L2758.43,1278.28 L2750.94,1273.87 L2688.47,1200.7 L2670.77,1184.77 L2653.79,1149.27 L2650.38,1144.83 L2584.79,1073.96 L2576.16,1068.89 L2561.31,1064.55 L2554.67,1060.08 L2484.35,974.096 L2441.6,928.629 L2414.76,895.487 L2371.8,855.142 L2308.16,767.037 L2254.42,698.257 L2203.38,657.347 L2158.61,608.967 L2134.88,586.843 L2108.12,559.462 L2084.25,536.518 L2041.59,499.763 L1968.07,450.719 L1923.33,429.352 L1918.97,426.223 L1829.55,340.286 L1664.63,182.3 L1632.08,146.988 L1625.89,136.689 L1528.34,30.541 L1405.57,-103.3 L1271.93,-248.972 L1268.44,-253.79 L1264.32,-260.807" fill-rule="evenodd"/>
  </g>
  <g font-family="Ubuntu" fill="none" stroke-opacity="1" font-size="45.8333" stroke-width="12.5197" font-style="normal" transform="matrix(0.999811,0,0,0.999811,0,0)" stroke="#232323" font-weight="400" stroke-linecap="square" stroke-linejoin="bevel">
   <path vector-effect="none" d="M1086.77,-267.198 L1086.18,-262.95 L1086.85,-250.931 L1084.7,-246.132 L1074.63,-201.866 L1064.96,-172.675 L1064.99,-149.463 L1067.97,-135.639 L1069.7,-91.5602 L1076.42,-51.1121 L1071.82,-17.6725 L1070.69,9.25303 L1072.64,46.3874 L1077.36,62.7967 L1085.8,172.776 L1085.28,181.227 L1086.92,202.026 L1084.84,219.583 L1081.78,236.12 L1081.64,241.824 L1083.24,248.764 L1078.82,257.02 L1053.51,275.475 L1047.74,283.123 L1041.57,288.174 L1037.58,299.074 L1039.08,305.006 L1038.5,309.678 L1042.57,328.359 L1031.33,446.715 L1025.25,478.41 L1017.03,558.614 L1012.11,569.025 L1012.79,581.04 L1009.54,610.008 L1005.9,624.556 L999.542,674.509 L994.158,703.834 L986.895,751.895 L983.489,786.15 L991.284,849.007 L990.934,864.377 L985.886,876.988 L972.76,899.753 L939.675,964.482 L937.651,972.548 L932.157,982.736 L915.728,1008.6 L891.363,1057.04 L878.519,1077.46 L873.021,1082.91 L853.319,1088.66 L850.672,1091.76 L853.501,1114.48 L853.03,1163.54 L854.833,1171.25 L855.212,1176.35 L848.557,1200.7 L846.048,1219.61 L839.523,1238.9 L843.105,1263.02 L842.947,1284.79 L839.57,1307.17 L840.49,1309.47 L845.961,1315.2 L846.598,1319.84 L843.88,1325 L839.139,1327.56 L836.459,1331.11 L841.187,1367.74 L834.017,1422.93 L826.404,1444.49 L826.053,1458.62 L825.276,1462.25 L817.327,1480.81 L814.169,1484.38 L810.161,1492.64 L810.286,1495.86 L812.279,1502.92 L816.558,1514.76 L817.373,1538.1 L813.038,1548.61 L809.091,1577.96 L800.332,1605.61 L800.829,1611.81 L802.428,1618.35 L800.772,1628.58 L800.836,1631.7 L807.791,1651.76 L810.686,1668.06 L808.187,1677.19 L811.652,1703.05 L810.73,1710.22 L810.569,1729.44 L819.279,1742.57 L820.988,1751.55 L827.09,1763.39 L828.209,1767.37 L831.638,1771.16 L838.39,1775.48 L864.729,1806.24 L875.861,1815.17 L887.86,1832.26 L894.463,1838.04 L899.768,1845.28 L904.124,1857.47 L905.305,1869.22 L911.543,1903.36 L913.761,1921.5 L917.937,1931.09 L920.024,1939.55 L921.286,1974.67 L920.192,1979.3 L916.199,1988.53 L912.61,2005.02 L904.843,2029.94 L899.929,2041.73 L900.467,2053.15 L901.369,2057.13 L897.831,2072.81 L897.937,2074.59 L906.552,2087.23 L909.614,2094.88 L912.939,2106.19 L914.917,2120.86 L903.09,2197.31 L900.164,2205.31 L896.73,2219.91 L890.248,2229.76 L886.573,2239.32 L887.23,2246.01 L893.66,2254.51 L894.328,2258.88 L892.075,2261.78 L885.637,2264.91 L882.501,2267.72 L881.182,2272.05 L880.569,2279.26 L877.644,2284.68 L876.193,2291.07 L870.231,2306.03 L859.366,2312.53 L855.758,2318.8 L850.686,2324.74 L849.425,2329 L850.277,2334.12 L848.255,2340.3 L851.475,2353.42 L851.939,2363.91 L844.792,2384.45 L841.034,2390.46 L840.516,2396.66 L837.09,2400.36 L831.312,2402.18 L826.896,2405.04 L817.614,2403.04 L810.855,2405.53 L803.12,2409.74 L798.214,2415.06 L796.428,2422.62 L797.604,2429.94 L795.962,2437.73 L790.177,2444.39 L782.839,2455.42 L781.762,2467.41 L779.243,2472.8 L779.886,2476.38 L782.318,2480.17 L783.212,2491.14 L794.835,2506.46 L795.22,2510.21 L794.687,2514.48 L797.231,2523.96 L796.064,2528.23 L791.147,2534.38 L789.527,2538.18 L789.578,2540.16 L791.526,2545.02 L791.466,2552.88 L793.692,2562.42 L793.118,2566.24 L789.903,2570.38 L785.759,2581.57 L785.644,2583.75 L790.794,2596.94 L790.547,2601.13 L788.562,2605.98 L788.8,2613.47 L790.485,2621.48 L795.753,2634.23 L800.078,2651.01 L804.792,2662.63 L805.954,2668.56 L804.071,2676.47 L805.185,2685.92 L805.065,2686.16" fill-rule="evenodd"/>
  </g>
  <g font-family="Ubuntu" fill="none" stroke-opacity="1" font-size="45.8333" stroke-dashoffset="0" stroke-width="6.25984" font-style="normal" transform="matrix(0.999811,0,0,0.999811,0,0)" stroke="#ffffff" font-weight="400" stroke-linecap="square" stroke-dasharray="35.4331,35.4331" stroke-linejoin="bevel">
   <path vector-effect="none" d="M1086.77,-267.198 L1086.18,-262.95 L1086.85,-250.931 L1084.7,-246.132 L1074.63,-201.866 L1064.96,-172.675 L1064.99,-149.463 L1067.97,-135.639 L1069.7,-91.5602 L1076.42,-51.1121 L1071.82,-17.6725 L1070.69,9.25303 L1072.64,46.3874 L1077.36,62.7967 L1085.8,172.776 L1085.28,181.227 L1086.92,202.026 L1084.84,219.583 L1081.78,236.12 L1081.64,241.824 L1083.24,248.764 L1078.82,257.02 L1053.51,275.475 L1047.74,283.123 L1041.57,288.174 L1037.58,299.074 L1039.08,305.006 L1038.5,309.678 L1042.57,328.359 L1031.33,446.715 L1025.25,478.41 L1017.03,558.614 L1012.11,569.025 L1012.79,581.04 L1009.54,610.008 L1005.9,624.556 L999.542,674.509 L994.158,703.834 L986.895,751.895 L983.489,786.15 L991.284,849.007 L990.934,864.377 L985.886,876.988 L972.76,899.753 L939.675,964.482 L937.651,972.548 L932.157,982.736 L915.728,1008.6 L891.363,1057.04 L878.519,1077.46 L873.021,1082.91 L853.319,1088.66 L850.672,1091.76 L853.501,1114.48 L853.03,1163.54 L854.833,1171.25 L855.212,1176.35 L848.557,1200.7 L846.048,1219.61 L839.523,1238.9 L843.105,1263.02 L842.947,1284.79 L839.57,1307.17 L840.49,1309.47 L845.961,1315.2 L846.598,1319.84 L843.88,1325 L839.139,1327.56 L836.459,1331.11 L841.187,1367.74 L834.017,1422.93 L826.404,1444.49 L826.053,1458.62 L825.276,1462.25 L817.327,1480.81 L814.169,1484.38 L810.161,1492.64 L810.286,1495.86 L812.279,1502.92 L816.558,1514.76 L817.373,1538.1 L813.038,1548.61 L809.091,1577.96 L800.332,1605.61 L800.829,1611.81 L802.428,1618.35 L800.772,1628.58 L800.836,1631.7 L807.791,1651.76 L810.686,1668.06 L808.187,1677.19 L811.652,1703.05 L810.73,1710.22 L810.569,1729.44 L819.279,1742.57 L820.988,1751.55 L827.09,1763.39 L828.209,1767.37 L831.638,1771.16 L838.39,1775.48 L864.729,1806.24 L875.861,1815.17 L887.86,1832.26 L894.463,1838.04 L899.768,1845.28 L904.124,1857.47 L905.305,1869.22 L911.543,1903.36 L913.761,1921.5 L917.937,1931.09 L920.024,1939.55 L921.286,1974.67 L920.192,1979.3 L916.199,1988.53 L912.61,2005.02 L904.843,2029.94 L899.929,2041.73 L900.467,2053.15 L901.369,2057.13 L897.831,2072.81 L897.937,2074.59 L906.552,2087.23 L909.614,2094.88 L912.939,2106.19 L914.917,2120.86 L903.09,2197.31 L900.164,2205.31 L896.73,2219.91 L890.248,2229.76 L886.573,2239.32 L887.23,2246.01 L893.66,2254.51 L894.328,2258.88 L892.075,2261.78 L885.637,2264.91 L882.501,2267.72 L881.182,2272.05 L880.569,2279.26 L877.644,2284.68 L876.193,2291.07 L870.231,2306.03 L859.366,2312.53 L855.758,2318.8 L850.686,2324.74 L849.425,2329 L850.277,2334.12 L848.255,2340.3 L851.475,2353.42 L851.939,2363.91 L844.792,2384.45 L841.034,2390.46 L840.516,2396.66 L837.09,2400.36 L831.312,2402.18 L826.896,2405.04 L817.614,2403.04 L810.855,2405.53 L803.12,2409.74 L798.214,2415.06 L796.428,2422.62 L797.604,2429.94 L795.962,2437.73 L790.177,2444.39 L782.839,2455.42 L781.762,2467.41 L779.243,2472.8 L779.886,2476.38 L782.318,2480.17 L783.212,2491.14 L794.835,2506.46 L795.22,2510.21 L794.687,2514.48 L797.231,2523.96 L796.064,2528.23 L791.147,2534.38 L789.527,2538.18 L789.578,2540.16 L791.526,2545.02 L791.466,2552.88 L793.692,2562.42 L793.118,2566.24 L789.903,2570.38 L785.759,2581.57 L785.644,2583.75 L790.794,2596.94 L790.547,2601.13 L788.562,2605.98 L788.8,2613.47 L790.485,2621.48 L795.753,2634.23 L800.078,2651.01 L804.792,2662.63 L805.954,2668.56 L804.071,2676.47 L805.185,2685.92 L805.065,2686.16" fill-rule="evenodd"/>
  </g>
  <g font-family="Ubuntu" fill="none" stroke-opacity="1" font-size="45.8333" stroke-width="12.5197" font-style="normal" transform="matrix(0.999811,0,0,0.999811,0,0)" stroke="#232323" font-weight="400" stroke-linecap="square" stroke-linejoin="bevel">
   <path vector-effect="none" d="M1576.68,83.3878 L1570.61,80.0651 L1569.8,77.9099 L1570.24,75.1726 L1572.31,72.6129 L1597.12,62.4166 L1600.37,59.6347 L1612.31,48.2272 L1632.33,25.7073 L1643,8.7692 L1645.04,-0.866848 L1648.83,-85.1732 L1652.32,-93.7615 L1655.95,-108.132 L1661.66,-115.137 L1667.82,-125.67 L1668.76,-128.972 L1668.33,-138.001 L1674.4,-149.103 L1696.86,-164.639 L1705.81,-173.663 L1743.1,-239.527 L1749.67,-249.469" fill-rule="evenodd"/>
  </g>
  <g font-family="Ubuntu" fill="none" stroke-opacity="1" font-size="45.8333" stroke-dashoffset="0" stroke-width="6.25984" font-style="normal" transform="matrix(0.999811,0,0,0.999811,0,0)" stroke="#ffffff" font-weight="400" stroke-linecap="square" stroke-dasharray="35.4331,35.4331" stroke-linejoin="bevel">
   <path vector-effect="none" d="M1576.68,83.3878 L1570.61,80.0651 L1569.8,77.9099 L1570.24,75.1726 L1572.31,72.6129 L1597.12,62.4166 L1600.37,59.6347 L1612.31,48.2272 L1632.33,25.7073 L1643,8.7692 L1645.04,-0.866848 L1648.83,-85.1732 L1652.32,-93.7615 L1655.95,-108.132 L1661.66,-115.137 L1667.82,-125.67 L1668.76,-128.972 L1668.33,-138.001 L1674.4,-149.103 L1696.86,-164.639 L1705.81,-173.663 L1743.1,-239.527 L1749.67,-249.469" fill-rule="evenodd"/>
  </g>
  <g font-family="Ubuntu" fill="none" stroke-opacity="1" font-size="45.8333" stroke-width="7.79528" font-style="normal" transform="matrix(0.999811,0,0,0.999811,0,0)" stroke="#000000" font-weight="400" stroke-linecap="round" stroke-linejoin="round">
   <path vector-effect="none" d="M1584.52,91.9576 L1585.07,95.7741 L1578.29,103.237 L1566.98,136.212 L1565.75,144.055 L1557.88,161.761 L1551.68,169.398 L1541.16,188.748 L1537.56,193.421 L1530.55,205.525 L1511.42,274.126 L1510.79,280.684 L1503.03,308.802 L1501.56,331.195 L1489.37,362.486 L1480.89,375.446 L1474.5,390.858 L1468.66,400.228 L1453.7,430.837 L1446.23,460.044 L1442.43,469.341 L1423.25,504.16 L1416.5,518.362 L1414.04,520.108 L1408.36,520.16 L1406.19,522.569 L1406.9,535.508 L1410.53,544.322 L1409.17,554.69 L1405.58,563.939" fill-rule="evenodd"/>
  </g>
  <g font-family="Ubuntu" fill="none" stroke-opacity="1" font-size="45.8333" stroke-dashoffset="0" stroke-width="3.89764" font-style="normal" transform="matrix(0.999811,0,0,0.999811,0,0)" stroke="#ffffff" font-weight="400" stroke-linecap="square" stroke-dasharray="35.4331,35.4331" stroke-linejoin="bevel">
   <path vector-effect="none" d="M1584.52,91.9576 L1585.07,95.7741 L1578.29,103.237 L1566.98,136.212 L1565.75,144.055 L1557.88,161.761 L1551.68,169.398 L1541.16,188.748 L1537.56,193.421 L1530.55,205.525 L1511.42,274.126 L1510.79,280.684 L1503.03,308.802 L1501.56,331.195 L1489.37,362.486 L1480.89,375.446 L1474.5,390.858 L1468.66,400.228 L1453.7,430.837 L1446.23,460.044 L1442.43,469.341 L1423.25,504.16 L1416.5,518.362 L1414.04,520.108 L1408.36,520.16 L1406.19,522.569 L1406.9,535.508 L1410.53,544.322 L1409.17,554.69 L1405.58,563.939" fill-rule="evenodd"/>
  </g>
  <g font-family="Ubuntu" fill="none" stroke-opacity="1" font-size="45.8333" stroke-width="7.79528" font-style="normal" transform="matrix(0.999811,0,0,0.999811,0,0)" stroke="#000000" font-weight="400" stroke-linecap="round" stroke-linejoin="round">
   <path vector-effect="none" d="M839.705,381.914 L836.497,388.122 L837.75,400.587 L838.566,402.493 L850.049,404.734 L870.029,416.811 L883.106,427.903 L891.191,429.081 L898.448,428.482 L905.402,431.846 L916.146,433.173 L930.149,438.404 L945.765,439.119 L959.946,445.78 L974.568,448.584 L989.639,448.58 L1011.34,451.52 L1020.4,450.772 L1023.9,449.326 L1026.6,443.804 L1029.2,442.853 L1031.07,444.175 L1031.31,446.729 L1033.37,444.417 L1036.16,445.375 L1038.05,454.399 L1045.19,459.958 L1106.05,479.039 L1138.29,478.091 L1147.19,476.483 L1164.34,478.704 L1207.19,478.88 L1224.75,484.681 L1314.39,504.447 L1372.81,521.798 L1405.55,542.326 L1409.4,542.74 L1410.48,545.133" fill-rule="evenodd"/>
  </g>
  <g font-family="Ubuntu" fill="none" stroke-opacity="1" font-size="45.8333" stroke-dashoffset="0" stroke-width="3.89764" font-style="normal" transform="matrix(0.999811,0,0,0.999811,0,0)" stroke="#ffffff" font-weight="400" stroke-linecap="square" stroke-dasharray="35.4331,35.4331" stroke-linejoin="bevel">
   <path vector-effect="none" d="M839.705,381.914 L836.497,388.122 L837.75,400.587 L838.566,402.493 L850.049,404.734 L870.029,416.811 L883.106,427.903 L891.191,429.081 L898.448,428.482 L905.402,431.846 L916.146,433.173 L930.149,438.404 L945.765,439.119 L959.946,445.78 L974.568,448.584 L989.639,448.58 L1011.34,451.52 L1020.4,450.772 L1023.9,449.326 L1026.6,443.804 L1029.2,442.853 L1031.07,444.175 L1031.31,446.729 L1033.37,444.417 L1036.16,445.375 L1038.05,454.399 L1045.19,459.958 L1106.05,479.039 L1138.29,478.091 L1147.19,476.483 L1164.34,478.704 L1207.19,478.88 L1224.75,484.681 L1314.39,504.447 L1372.81,521.798 L1405.55,542.326 L1409.4,542.74 L1410.48,545.133" fill-rule="evenodd"/>
  </g>
  <g font-family="Ubuntu" fill="none" stroke-opacity="1" font-size="45.8333" stroke-width="7.79528" font-style="normal" transform="matrix(0.999811,0,0,0.999811,0,0)" stroke="#000000" font-weight="400" stroke-linecap="round" stroke-linejoin="round">
   <path vector-effect="none" d="M2801.95,2405.71 L2794.9,2400.56 L2789.54,2398.95 L2783.28,2401.99 L2778.24,2401.88 L2775.84,2399.71 L2774.4,2395.12 L2772.08,2392.3 L2751.15,2377.64 L2716.19,2362.85 L2711.77,2358.65 L2704.31,2346.37 L2701.41,2344.79 L2689.07,2345.23 L2581.96,2360.99 L2495.76,2379.77 L2435.9,2384.96 L2395.05,2385.01 L2261.2,2366.58 L2255.92,2367.19 L2248.57,2364.92 L2241.89,2364.7 L2233.89,2367.04 L2225.12,2364.08 L2207.81,2362.26 L2192.34,2358.81 L2188.13,2359.43 L2183.03,2365.5 L2178.58,2368.38 L2172.57,2370.16 L2166.78,2367.14 L2159.05,2365.3 L2087.53,2357.51 L2019.49,2364.93 L2008.8,2362.42 L1883.44,2352.22 L1846.8,2343.4 L1834.74,2342.12 L1812.77,2335.73 L1789.92,2326.75 L1748.15,2321.85 L1740.68,2323.85 L1731.6,2328.67 L1722.53,2331.05 L1712.9,2327.79 L1704.71,2326.98 L1692.42,2321.84 L1681.34,2321.89 L1676.06,2320.29 L1664.14,2311.28 L1656.23,2307.02 L1650.58,2305.86 L1642.27,2307.06 L1636.08,2304.57 L1619.16,2304.24 L1615.01,2303.17 L1607.54,2304.75 L1602.06,2303.94 L1583.04,2307.93 L1569.84,2307.8 L1558.54,2313.55 L1549.26,2314.31 L1527.86,2312.39 L1522.98,2310.38 L1513.27,2310.55 L1504.3,2312.48 L1472.11,2305.04 L1440.98,2301.5 L1434.25,2302.41 L1415.86,2308.05 L1409.43,2307.98 L1399.66,2310.36 L1395.98,2309.61 L1390.23,2305.08 L1381.75,2303.96 L1372.86,2299.86 L1364.74,2301.78 L1357.89,2299.25 L1349.3,2300.27 L1343.82,2304.43 L1339.72,2305.37 L1296.39,2305.08 L1292.59,2303.37 L1284.88,2302.5 L1276.1,2299.14 L1270.95,2298.98 L1254.79,2291.81 L1250.06,2292.48 L1244.04,2296.04 L1237.73,2295.53 L1233.17,2293.05 L1230,2287.93 L1223.91,2286.48 L1214.66,2279.66 L1210.83,2278.38 L1201.42,2270.96 L1185.42,2268.56 L1172.95,2271.34 L1163.79,2267.51 L1146.7,2265.27 L1142.39,2266.14 L1132.26,2265.15 L1104.69,2254.32 L1093.25,2256.39 L1073.39,2253.26 L1056.59,2254.99 L1047.24,2259.06 L1034.43,2254.91 L1030.52,2257.35 L1026.28,2265.73 L1022.8,2267.24 L1017.06,2267.33 L1010.48,2264.68 L1004.01,2266.38 L999.76,2264.86 L975.001,2262.16 L966.261,2265.3 L960.206,2263.78 L945.133,2267.02 L933.341,2264.87 L924.021,2267.18 L914.886,2263.75 L911.414,2261.15 L900.892,2257.28 L894.276,2256.35 L889.795,2253.81 L887.282,2249.94 L885.778,2238.61 L881.415,2234.8 L876.837,2234.84 L868.776,2232.13 L860.777,2234.17 L856.842,2234.2 L851.612,2232.26 L842.841,2233.69 L827.79,2233.65 L818.596,2229.41 L812.467,2228.3 L809.926,2229.45 L806.94,2234.33 L804.26,2235.26 L799.323,2233.35 L794.942,2228.83 L790.472,2226.9 L779.713,2227.13 L771.572,2224.69 L764.498,2226.42 L758.615,2224.58 L751.752,2225.73 L743.309,2222.45 L737.788,2222.77 L730.466,2219.42 L717.499,2222.47 L708.924,2222.44 L702.791,2226.3 L699.024,2227.21 L690.846,2225.2 L684.156,2226.61 L679.366,2229.04 L666.329,2226.35 L656.428,2230.97 L647.309,2232.33 L614.17,2229.48 L600.464,2232.7 L589.377,2230.53 L572.546,2234.78 L565.189,2231.15 L557.097,2229.62 L529.267,2230.15 L524.559,2232.44 L507.337,2236.06 L502.788,2238.18 L485.196,2234.71 L475.847,2236.88 L468.147,2236.92 L449.41,2242.31 L437.369,2239.05 L425.688,2242.11 L420.28,2240.06 L399.559,2239.3 L388.198,2241.96 L378.394,2234.53 L369.306,2231.03 L362.889,2229.91 L348.205,2230.03 L311.022,2220.81 L298.462,2214.41 L275.011,2206.55 L270.222,2210.22 L255.698,2217.35 L239.401,2221.5 L230.906,2221.28 L216.768,2227.93 L195.16,2229.42 L185.655,2231.32 L175.734,2237.64 L172.927,2238.21 L165.693,2234.34 L153.664,2234.01 L134.117,2226.52 L124.495,2221.79 L117.496,2214.54 L112.883,2211.46 L88.0977,2210.55 L84.757,2208.57 L82.5984,2205.46 L81.4355,2201.86 L78.7334,2199.64 L72.8098,2198.78 L59.7718,2199.64 L45.92,2183.25 L42.8678,2169.49 L39.4365,2163.27 L32.5009,2158.95 L22.5397,2155.73 L12.5777,2156.88" fill-rule="evenodd"/>
  </g>
  <g font-family="Ubuntu" fill="none" stroke-opacity="1" font-size="45.8333" stroke-dashoffset="0" stroke-width="3.89764" font-style="normal" transform="matrix(0.999811,0,0,0.999811,0,0)" stroke="#ffffff" font-weight="400" stroke-linecap="square" stroke-dasharray="35.4331,35.4331" stroke-linejoin="bevel">
   <path vector-effect="none" d="M2801.95,2405.71 L2794.9,2400.56 L2789.54,2398.95 L2783.28,2401.99 L2778.24,2401.88 L2775.84,2399.71 L2774.4,2395.12 L2772.08,2392.3 L2751.15,2377.64 L2716.19,2362.85 L2711.77,2358.65 L2704.31,2346.37 L2701.41,2344.79 L2689.07,2345.23 L2581.96,2360.99 L2495.76,2379.77 L2435.9,2384.96 L2395.05,2385.01 L2261.2,2366.58 L2255.92,2367.19 L2248.57,2364.92 L2241.89,2364.7 L2233.89,2367.04 L2225.12,2364.08 L2207.81,2362.26 L2192.34,2358.81 L2188.13,2359.43 L2183.03,2365.5 L2178.58,2368.38 L2172.57,2370.16 L2166.78,2367.14 L2159.05,2365.3 L2087.53,2357.51 L2019.49,2364.93 L2008.8,2362.42 L1883.44,2352.22 L1846.8,2343.4 L1834.74,2342.12 L1812.77,2335.73 L1789.92,2326.75 L1748.15,2321.85 L1740.68,2323.85 L1731.6,2328.67 L1722.53,2331.05 L1712.9,2327.79 L1704.71,2326.98 L1692.42,2321.84 L1681.34,2321.89 L1676.06,2320.29 L1664.14,2311.28 L1656.23,2307.02 L1650.58,2305.86 L1642.27,2307.06 L1636.08,2304.57 L1619.16,2304.24 L1615.01,2303.17 L1607.54,2304.75 L1602.06,2303.94 L1583.04,2307.93 L1569.84,2307.8 L1558.54,2313.55 L1549.26,2314.31 L1527.86,2312.39 L1522.98,2310.38 L1513.27,2310.55 L1504.3,2312.48 L1472.11,2305.04 L1440.98,2301.5 L1434.25,2302.41 L1415.86,2308.05 L1409.43,2307.98 L1399.66,2310.36 L1395.98,2309.61 L1390.23,2305.08 L1381.75,2303.96 L1372.86,2299.86 L1364.74,2301.78 L1357.89,2299.25 L1349.3,2300.27 L1343.82,2304.43 L1339.72,2305.37 L1296.39,2305.08 L1292.59,2303.37 L1284.88,2302.5 L1276.1,2299.14 L1270.95,2298.98 L1254.79,2291.81 L1250.06,2292.48 L1244.04,2296.04 L1237.73,2295.53 L1233.17,2293.05 L1230,2287.93 L1223.91,2286.48 L1214.66,2279.66 L1210.83,2278.38 L1201.42,2270.96 L1185.42,2268.56 L1172.95,2271.34 L1163.79,2267.51 L1146.7,2265.27 L1142.39,2266.14 L1132.26,2265.15 L1104.69,2254.32 L1093.25,2256.39 L1073.39,2253.26 L1056.59,2254.99 L1047.24,2259.06 L1034.43,2254.91 L1030.52,2257.35 L1026.28,2265.73 L1022.8,2267.24 L1017.06,2267.33 L1010.48,2264.68 L1004.01,2266.38 L999.76,2264.86 L975.001,2262.16 L966.261,2265.3 L960.206,2263.78 L945.133,2267.02 L933.341,2264.87 L924.021,2267.18 L914.886,2263.75 L911.414,2261.15 L900.892,2257.28 L894.276,2256.35 L889.795,2253.81 L887.282,2249.94 L885.778,2238.61 L881.415,2234.8 L876.837,2234.84 L868.776,2232.13 L860.777,2234.17 L856.842,2234.2 L851.612,2232.26 L842.841,2233.69 L827.79,2233.65 L818.596,2229.41 L812.467,2228.3 L809.926,2229.45 L806.94,2234.33 L804.26,2235.26 L799.323,2233.35 L794.942,2228.83 L790.472,2226.9 L779.713,2227.13 L771.572,2224.69 L764.498,2226.42 L758.615,2224.58 L751.752,2225.73 L743.309,2222.45 L737.788,2222.77 L730.466,2219.42 L717.499,2222.47 L708.924,2222.44 L702.791,2226.3 L699.024,2227.21 L690.846,2225.2 L684.156,2226.61 L679.366,2229.04 L666.329,2226.35 L656.428,2230.97 L647.309,2232.33 L614.17,2229.48 L600.464,2232.7 L589.377,2230.53 L572.546,2234.78 L565.189,2231.15 L557.097,2229.62 L529.267,2230.15 L524.559,2232.44 L507.337,2236.06 L502.788,2238.18 L485.196,2234.71 L475.847,2236.88 L468.147,2236.92 L449.41,2242.31 L437.369,2239.05 L425.688,2242.11 L420.28,2240.06 L399.559,2239.3 L388.198,2241.96 L378.394,2234.53 L369.306,2231.03 L362.889,2229.91 L348.205,2230.03 L311.022,2220.81 L298.462,2214.41 L275.011,2206.55 L270.222,2210.22 L255.698,2217.35 L239.401,2221.5 L230.906,2221.28 L216.768,2227.93 L195.16,2229.42 L185.655,2231.32 L175.734,2237.64 L172.927,2238.21 L165.693,2234.34 L153.664,2234.01 L134.117,2226.52 L124.495,2221.79 L117.496,2214.54 L112.883,2211.46 L88.0977,2210.55 L84.757,2208.57 L82.5984,2205.46 L81.4355,2201.86 L78.7334,2199.64 L72.8098,2198.78 L59.7718,2199.64 L45.92,2183.25 L42.8678,2169.49 L39.4365,2163.27 L32.5009,2158.95 L22.5397,2155.73 L12.5777,2156.88" fill-rule="evenodd"/>
  </g>
  <g font-family="Ubuntu" fill="none" stroke-opacity="1" font-size="45.8333" stroke-width="7.79528" font-style="normal" transform="matrix(0.999811,0,0,0.999811,0,0)" stroke="#000000" font-weight="400" stroke-linecap="round" stroke-linejoin="round">
   <path vector-effect="none" d="M992.054,-271.1 L987.709,-260.1 L952.565,-105.02 L925.979,14.7448 L874.699,251.991 L840.139,381.099 L795.856,433.423 L771.674,450.805 L737.18,496.391 L672.452,557.75 L638.179,605.518 L590.474,650.247 L460.304,800.36 L389.64,870.648 L378.154,884.136 L365.675,894.522 L316.159,943.721 L290.064,978.25 L219.579,1044.23 L207.781,1060.08 L203.99,1061.84 L196.905,1061.83 L192.132,1066.21 L190.624,1070.14 L191.071,1079.17 L192.321,1085.77 L196.902,1099.04 L197.1,1101.9 L195.676,1105.5 L189.61,1115.22 L179.508,1126.95 L169.375,1155.08 L163.467,1179.28 L163.146,1225.83 L158.247,1245.59 L166.004,1332.58 L169.782,1342 L170.324,1349.84 L169.054,1356.48 L170.948,1364.85 L168.257,1376.48 L133.107,1447.43 L117.715,1465.91 L103.044,1480.77 L92.1729,1497.75 L68.7105,1510.6 L61.1138,1518.6 L59.2988,1521.65 L52.8475,1540.15 L49.3446,1547.83 L40.7155,1554.13 L10.7697,1602.72 L7.77533,1604.64 L-17.8044,1611.84 L-65.9545,1648.42 L-94.5559,1659.34 L-98.1754,1662.29 L-115.585,1705.94 L-127.843,1785.66" fill-rule="evenodd"/>
  </g>
  <g font-family="Ubuntu" fill="none" stroke-opacity="1" font-size="45.8333" stroke-dashoffset="0" stroke-width="3.89764" font-style="normal" transform="matrix(0.999811,0,0,0.999811,0,0)" stroke="#ffffff" font-weight="400" stroke-linecap="square" stroke-dasharray="35.4331,35.4331" stroke-linejoin="bevel">
   <path vector-effect="none" d="M992.054,-271.1 L987.709,-260.1 L952.565,-105.02 L925.979,14.7448 L874.699,251.991 L840.139,381.099 L795.856,433.423 L771.674,450.805 L737.18,496.391 L672.452,557.75 L638.179,605.518 L590.474,650.247 L460.304,800.36 L389.64,870.648 L378.154,884.136 L365.675,894.522 L316.159,943.721 L290.064,978.25 L219.579,1044.23 L207.781,1060.08 L203.99,1061.84 L196.905,1061.83 L192.132,1066.21 L190.624,1070.14 L191.071,1079.17 L192.321,1085.77 L196.902,1099.04 L197.1,1101.9 L195.676,1105.5 L189.61,1115.22 L179.508,1126.95 L169.375,1155.08 L163.467,1179.28 L163.146,1225.83 L158.247,1245.59 L166.004,1332.58 L169.782,1342 L170.324,1349.84 L169.054,1356.48 L170.948,1364.85 L168.257,1376.48 L133.107,1447.43 L117.715,1465.91 L103.044,1480.77 L92.1729,1497.75 L68.7105,1510.6 L61.1138,1518.6 L59.2988,1521.65 L52.8475,1540.15 L49.3446,1547.83 L40.7155,1554.13 L10.7697,1602.72 L7.77533,1604.64 L-17.8044,1611.84 L-65.9545,1648.42 L-94.5559,1659.34 L-98.1754,1662.29 L-115.585,1705.94 L-127.843,1785.66" fill-rule="evenodd"/>
  </g>
  <g font-family="Ubuntu" fill="none" stroke-opacity="1" font-size="45.8333" stroke-width="4.25197" font-style="normal" transform="matrix(0.999811,0,0,0.999811,0,0)" stroke="#232323" font-weight="400" stroke-linecap="square" stroke-linejoin="bevel">
   <path vector-effect="none" d="M2327.53,793.632 L2326.92,790.646 L2327.99,787.306 L2336.22,781.032 L2342.66,779.717 L2369.8,759.938 L2387.02,754.676 L2393.58,751.437 L2399.92,743.086 L2406.77,739.137 L2412.71,730.797 L2420.99,725.504 L2426.57,723.302 L2433.23,717.22 L2441.71,705.048 L2447.46,700.882 L2449.32,694.934 L2452.88,690.153 L2467.33,684.122 L2476.13,675.528 L2484.66,673.51" fill-rule="evenodd"/>
   <path vector-effect="none" d="M459.086,-156.959 L462.78,-156.832 L456.123,-155.643 L406.614,-97.6859 L405.851,-95.8703 L405.354,-87.6881 L404.483,-84.1566 L402.6,-80.796 L399.388,-77.711 L292.72,-25.648 L198.596,38.0537 L147.076,47.696 L145.293,49.3948 L143.013,57.6545" fill-rule="evenodd"/>
   <path vector-effect="none" d="M1858.26,2346.16 L1860.56,2347.66 L1867.57,2356.82 L1868.9,2370.67 L1867.76,2382.1 L1868.11,2385.5 L1867.01,2389.27 L1866.59,2397.46 L1860.27,2407.35 L1825.63,2546.58 L1815.09,2559.04 L1816.08,2583.53 L1806.59,2619.33 L1800.32,2648.95 L1801.02,2651.23" fill-rule="evenodd"/>
  </g>
  <g font-family="Ubuntu" fill="none" stroke-opacity="1" font-size="45.8333" stroke-width="7.79528" font-style="normal" transform="matrix(0.999811,0,0,0.999811,0,0)" stroke="#000000" font-weight="400" stroke-linecap="round" stroke-linejoin="round">
   <path vector-effect="none" d="M2770.38,1031.39 L2761.26,1034.85 L2730.09,1038.13 L2726.14,1037.43 L2716.94,1032.53 L2701.65,1033.64 L2676.98,1025.43 L2647.3,1023.38 L2626.81,1034.92 L2624.89,1037.68 L2620.94,1049.34 L2617.66,1052.95 L2601.34,1057.93 L2584.99,1065.96 L2584.65,1070.15 L2582.82,1075.09 L2584.22,1080.06 L2583.88,1082.91 L2577.52,1095.78 L2572.67,1098.28 L2570.85,1101.15 L2566.01,1123.2 L2565.5,1136.17 L2564.12,1141.34 L2559.57,1150 L2530.68,1182.94 L2513.17,1208.11 L2512.16,1210.83 L2511.69,1215.49 L2508.75,1224.17 L2500.41,1231.83 L2493.35,1242.04 L2488.41,1257.3 L2487.81,1263.2 L2483.88,1271.97 L2483.1,1277.74 L2475.56,1298.05 L2472.39,1310.07 L2466.42,1320.3 L2455.1,1334.36 L2440.18,1349.88 L2429.4,1358.75 L2419.83,1370.05 L2410.03,1386.06 L2400.48,1398.83 L2393.23,1415.73 L2387.79,1424.53 L2380.03,1431.67 L2371.82,1442 L2361.29,1447.44 L2354.25,1455.52 L2344.58,1463.68 L2339.59,1465.4 L2330.62,1472.16 L2329.47,1473.86 L2327.92,1481 L2314.92,1500.81 L2301.01,1507.44 L2295.96,1513.32 L2293.28,1519.4 L2287.04,1525.78 L2282.2,1528.47 L2274.7,1539.68 L2273.06,1544.31 L2266.94,1551.6 L2258.87,1558.11 L2256.63,1561.6 L2236.24,1582.73 L2226.02,1588.14 L2221.68,1592.55 L2206.28,1617.38 L2202.94,1626.38 L2198.6,1634.01 L2198.54,1638.47 L2203.03,1651.77 L2203.27,1655.95 L2202.33,1658.31 L2199.33,1660.33 L2196.17,1660.32 L2181.44,1653.07 L2168.13,1654.12 L2164.98,1655.36 L2160.35,1660.39 L2158.88,1670.04 L2157.07,1673.12 L2145.94,1681.37 L2139.58,1683.84 L2132.54,1691.28 L2121.42,1699.56 L2117.67,1705.05 L2111.88,1707.63 L2099.37,1726.47 L2094.96,1729.33 L2086.64,1737.32 L2072.41,1754.95 L2065.79,1760.8 L2063.21,1765.11 L2048.05,1775.68 L2043.51,1780.19 L2042.49,1782.43 L2041.64,1794.12 L2037.74,1800.73 L2013.83,1815.24 L2007.54,1823.82 L2002.05,1825.1 L1974.24,1843.86 L1943.87,1862.4 L1937.14,1869.28 L1929.14,1879.99 L1926.58,1885.9 L1899.51,1919.71 L1892.81,1927.46 L1879.53,1938.37 L1868.54,1958.37 L1847.36,1988.51 L1823.3,2013.33 L1806.17,2025.79 L1804.82,2028.44 L1803.18,2037.94 L1800.6,2041.44 L1751.56,2064.21 L1741.23,2073.02 L1734.07,2077.64 L1729.22,2078.51 L1722.48,2077.04 L1718.89,2077.65 L1715.53,2083.53 L1707.05,2089.04 L1701.91,2088.76 L1692.48,2084.4 L1688.56,2080.44 L1679.7,2076.12 L1676.18,2076.93 L1669.88,2081.7 L1656.1,2085.32 L1644.15,2086.94 L1634,2086.53 L1629.25,2084.3 L1624.93,2080.24 L1613.26,2078.35 L1597.11,2086.03 L1584.05,2085.5 L1575.96,2090.2 L1556.75,2119.71 L1551.68,2122.39 L1543.54,2128.96 L1521.61,2137 L1489.29,2134.55 L1479.47,2138.17 L1467.18,2138.59 L1460.27,2143.22 L1456.99,2152.03 L1450.15,2157.8 L1443.82,2160.94 L1439.3,2165.19 L1416.33,2167.14 L1404.79,2175.68 L1384.08,2181.92 L1373.65,2180.34 L1366.35,2182.56 L1355.79,2182.49 L1349.03,2185.33 L1338.81,2193.41 L1332.47,2196.59 L1330.16,2199.03 L1327.63,2204.48 L1325.76,2206.15 L1313.54,2212.29 L1298.59,2212.74 L1286.77,2216.95 L1277.04,2215.17 L1267.18,2208.7 L1259.23,2207.56 L1249.54,2208.22 L1241.01,2212.32 L1223.04,2225.33 L1214.87,2233.3 L1190.85,2244.86 L1169.49,2243.21 L1136.34,2244.2 L1084.21,2252.59 L1069.39,2252.53 L1054.96,2255.51 L1049.05,2258.66 L1046.39,2262.97 L1036.79,2271.04 L1034.69,2274.72 L1030.76,2278.31 L1024.99,2289.09 L1018.39,2298.33 L1008.66,2304.13 L998.004,2313.63 L980.273,2326.93 L968.234,2348.08 L963.29,2352.71 L960.946,2358.47 L956.424,2363.46 L949.955,2373.95 L942.09,2381.54 L938.271,2387.75 L926.774,2396.75 L916.706,2406.31 L913.332,2413.9 L904.195,2423.35 L896.028,2426.01 L875.164,2442.65 L869.686,2445.03 L866.116,2448.07 L850.925,2450.08 L839.986,2461.1 L831.045,2463.71 L827.385,2466.77 L821.254,2466.46 L814.399,2469.31 L802.587,2470.2 L781.755,2481.72 L779.289,2481.56 L772.189,2477.67 L768.509,2478.64 L766.241,2481.69 L765.615,2492.22 L752.362,2508.49 L739.682,2511.98 L734.989,2515.12 L724.536,2531.8 L695.921,2540.24 L690.357,2546.78 L683.193,2558.68 L680.757,2566.95 L678.939,2569.66 L673.828,2574.67 L665.64,2575.37 L646.819,2594.72 L639.395,2596.85 L630.151,2602.07 L610.986,2609.03 L608.406,2612.63 L606.911,2616.74 L604.209,2620.07 L597.613,2624.61 L586.616,2627.26 L575.007,2644.39 L563.202,2650.35 L557.69,2656.13 L555.35,2664.13 L548.227,2673.95" fill-rule="evenodd"/>
   <path vector-effect="none" d="" fill-rule="evenodd"/>
  </g>
  <g font-family="Ubuntu" fill="none" stroke-opacity="1" font-size="45.8333" stroke-dashoffset="0" stroke-width="3.89764" font-style="normal" transform="matrix(0.999811,0,0,0.999811,0,0)" stroke="#ffffff" font-weight="400" stroke-linecap="square" stroke-dasharray="35.4331,35.4331" stroke-linejoin="bevel">
   <path vector-effect="none" d="M2770.38,1031.39 L2761.26,1034.85 L2730.09,1038.13 L2726.14,1037.43 L2716.94,1032.53 L2701.65,1033.64 L2676.98,1025.43 L2647.3,1023.38 L2626.81,1034.92 L2624.89,1037.68 L2620.94,1049.34 L2617.66,1052.95 L2601.34,1057.93 L2584.99,1065.96 L2584.65,1070.15 L2582.82,1075.09 L2584.22,1080.06 L2583.88,1082.91 L2577.52,1095.78 L2572.67,1098.28 L2570.85,1101.15 L2566.01,1123.2 L2565.5,1136.17 L2564.12,1141.34 L2559.57,1150 L2530.68,1182.94 L2513.17,1208.11 L2512.16,1210.83 L2511.69,1215.49 L2508.75,1224.17 L2500.41,1231.83 L2493.35,1242.04 L2488.41,1257.3 L2487.81,1263.2 L2483.88,1271.97 L2483.1,1277.74 L2475.56,1298.05 L2472.39,1310.07 L2466.42,1320.3 L2455.1,1334.36 L2440.18,1349.88 L2429.4,1358.75 L2419.83,1370.05 L2410.03,1386.06 L2400.48,1398.83 L2393.23,1415.73 L2387.79,1424.53 L2380.03,1431.67 L2371.82,1442 L2361.29,1447.44 L2354.25,1455.52 L2344.58,1463.68 L2339.59,1465.4 L2330.62,1472.16 L2329.47,1473.86 L2327.92,1481 L2314.92,1500.81 L2301.01,1507.44 L2295.96,1513.32 L2293.28,1519.4 L2287.04,1525.78 L2282.2,1528.47 L2274.7,1539.68 L2273.06,1544.31 L2266.94,1551.6 L2258.87,1558.11 L2256.63,1561.6 L2236.24,1582.73 L2226.02,1588.14 L2221.68,1592.55 L2206.28,1617.38 L2202.94,1626.38 L2198.6,1634.01 L2198.54,1638.47 L2203.03,1651.77 L2203.27,1655.95 L2202.33,1658.31 L2199.33,1660.33 L2196.17,1660.32 L2181.44,1653.07 L2168.13,1654.12 L2164.98,1655.36 L2160.35,1660.39 L2158.88,1670.04 L2157.07,1673.12 L2145.94,1681.37 L2139.58,1683.84 L2132.54,1691.28 L2121.42,1699.56 L2117.67,1705.05 L2111.88,1707.63 L2099.37,1726.47 L2094.96,1729.33 L2086.64,1737.32 L2072.41,1754.95 L2065.79,1760.8 L2063.21,1765.11 L2048.05,1775.68 L2043.51,1780.19 L2042.49,1782.43 L2041.64,1794.12 L2037.74,1800.73 L2013.83,1815.24 L2007.54,1823.82 L2002.05,1825.1 L1974.24,1843.86 L1943.87,1862.4 L1937.14,1869.28 L1929.14,1879.99 L1926.58,1885.9 L1899.51,1919.71 L1892.81,1927.46 L1879.53,1938.37 L1868.54,1958.37 L1847.36,1988.51 L1823.3,2013.33 L1806.17,2025.79 L1804.82,2028.44 L1803.18,2037.94 L1800.6,2041.44 L1751.56,2064.21 L1741.23,2073.02 L1734.07,2077.64 L1729.22,2078.51 L1722.48,2077.04 L1718.89,2077.65 L1715.53,2083.53 L1707.05,2089.04 L1701.91,2088.76 L1692.48,2084.4 L1688.56,2080.44 L1679.7,2076.12 L1676.18,2076.93 L1669.88,2081.7 L1656.1,2085.32 L1644.15,2086.94 L1634,2086.53 L1629.25,2084.3 L1624.93,2080.24 L1613.26,2078.35 L1597.11,2086.03 L1584.05,2085.5 L1575.96,2090.2 L1556.75,2119.71 L1551.68,2122.39 L1543.54,2128.96 L1521.61,2137 L1489.29,2134.55 L1479.47,2138.17 L1467.18,2138.59 L1460.27,2143.22 L1456.99,2152.03 L1450.15,2157.8 L1443.82,2160.94 L1439.3,2165.19 L1416.33,2167.14 L1404.79,2175.68 L1384.08,2181.92 L1373.65,2180.34 L1366.35,2182.56 L1355.79,2182.49 L1349.03,2185.33 L1338.81,2193.41 L1332.47,2196.59 L1330.16,2199.03 L1327.63,2204.48 L1325.76,2206.15 L1313.54,2212.29 L1298.59,2212.74 L1286.77,2216.95 L1277.04,2215.17 L1267.18,2208.7 L1259.23,2207.56 L1249.54,2208.22 L1241.01,2212.32 L1223.04,2225.33 L1214.87,2233.3 L1190.85,2244.86 L1169.49,2243.21 L1136.34,2244.2 L1084.21,2252.59 L1069.39,2252.53 L1054.96,2255.51 L1049.05,2258.66 L1046.39,2262.97 L1036.79,2271.04 L1034.69,2274.72 L1030.76,2278.31 L1024.99,2289.09 L1018.39,2298.33 L1008.66,2304.13 L998.004,2313.63 L980.273,2326.93 L968.234,2348.08 L963.29,2352.71 L960.946,2358.47 L956.424,2363.46 L949.955,2373.95 L942.09,2381.54 L938.271,2387.75 L926.774,2396.75 L916.706,2406.31 L913.332,2413.9 L904.195,2423.35 L896.028,2426.01 L875.164,2442.65 L869.686,2445.03 L866.116,2448.07 L850.925,2450.08 L839.986,2461.1 L831.045,2463.71 L827.385,2466.77 L821.254,2466.46 L814.399,2469.31 L802.587,2470.2 L781.755,2481.72 L779.289,2481.56 L772.189,2477.67 L768.509,2478.64 L766.241,2481.69 L765.615,2492.22 L752.362,2508.49 L739.682,2511.98 L734.989,2515.12 L724.536,2531.8 L695.921,2540.24 L690.357,2546.78 L683.193,2558.68 L680.757,2566.95 L678.939,2569.66 L673.828,2574.67 L665.64,2575.37 L646.819,2594.72 L639.395,2596.85 L630.151,2602.07 L610.986,2609.03 L608.406,2612.63 L606.911,2616.74 L604.209,2620.07 L597.613,2624.61 L586.616,2627.26 L575.007,2644.39 L563.202,2650.35 L557.69,2656.13 L555.35,2664.13 L548.227,2673.95" fill-rule="evenodd"/>
   <path vector-effect="none" d="" fill-rule="evenodd"/>
  </g>
  <g font-family="Ubuntu" fill="none" stroke-opacity="1" font-size="45.8333" stroke-width="7.79528" font-style="normal" transform="matrix(0.999811,0,0,0.999811,0,0)" stroke="#000000" font-weight="400" stroke-linecap="round" stroke-linejoin="round">
   <path vector-effect="none" d="M202.198,1061.91 L201.686,1061.75" fill-rule="evenodd"/>
   <path vector-effect="none" d="M2551.38,1056.59 L2536.39,1050.71 L2524.51,1047.82 L2487.79,1046.41 L2463.16,1049.27 L2439.64,1047.93 L2434.67,1048.8 L2400.15,1045.24 L2376,1039.2 L2368.31,1035.91 L2351.88,1037.39 L2342.28,1032.71 L2332.24,1032.1 L2323.69,1029.89 L2293.85,1029.48 L2270.08,1024.12 L2256.3,1015.39 L2242.99,1015.09 L2235.24,1009.23 L2231.14,1008.18 L2216.14,998.742 L2212.77,997.959 L2201.58,998.203 L2195.43,1000.72 L2179.44,998.925 L2175.46,1002.54 L2174.14,1007.13 L2170.93,1013.1 L2161.53,1019.23 L2119.76,1026.42 L2099.29,1024.97 L2081.03,1019.91 L2074.23,1020.74 L2068.44,1019.65 L2053.77,1019.68 L2051.43,1017.93 L2049.87,1013.41 L2045.79,1007.2 L2038.58,1002.58 L2028.18,998.116 L2017.17,1000.8 L2008.26,1005.61 L2005.63,1005.02 L2002.43,1001.45 L2000.04,1000.63 L1988.88,1005.64 L1969.03,1003.15 L1965.05,1004.08 L1951.89,1011.05 L1947.76,1017.41 L1925.26,1039.23 L1896.11,1050.4 L1888.74,1048.57 L1876.09,1040.86 L1862.11,1037.03 L1825.84,1035.23 L1753.84,1038.19 L1638.26,1019.95 L1629.97,1021.8 L1625.62,1024.97 L1621.79,1025.81 L1556.25,1009.47 L1547.44,1003.21 L1540.88,1000.11 L1464.05,969.323 L1457.53,966.971 L1443.86,964.666 L1441.33,965.449 L1432.77,972.59 L1274.7,1012.65 L1215.71,1011.5 L1122.5,1021.91 L1026.02,1037.78 L956.863,1061.38 L922.684,1068.59 L860.998,1087.15 L838.96,1091.07 L747.637,1100.76 L721.018,1105.44 L688.528,1119.58 L682.22,1120.36 L669.676,1128.34 L641.017,1131.68 L609.829,1139.05 L576.911,1143.37 L561.841,1147.3 L532.739,1147.62 L506.37,1142.8 L471.441,1128.79 L420.29,1124.96 L406.881,1121.42 L366.593,1114.34 L349.655,1108.59 L290.045,1101.69 L269.219,1095.71 L265.331,1092.97 L258.37,1085.02 L250.546,1082.74 L221.514,1068.51 L212.298,1066.52 L202.198,1061.91" fill-rule="evenodd"/>
   <path vector-effect="none" d="M2551.38,1056.59 L2553.04,1058.22" fill-rule="evenodd"/>
  </g>
  <g font-family="Ubuntu" fill="none" stroke-opacity="1" font-size="45.8333" stroke-dashoffset="0" stroke-width="3.89764" font-style="normal" transform="matrix(0.999811,0,0,0.999811,0,0)" stroke="#ffffff" font-weight="400" stroke-linecap="square" stroke-dasharray="35.4331,35.4331" stroke-linejoin="bevel">
   <path vector-effect="none" d="M202.198,1061.91 L201.686,1061.75" fill-rule="evenodd"/>
   <path vector-effect="none" d="M2551.38,1056.59 L2536.39,1050.71 L2524.51,1047.82 L2487.79,1046.41 L2463.16,1049.27 L2439.64,1047.93 L2434.67,1048.8 L2400.15,1045.24 L2376,1039.2 L2368.31,1035.91 L2351.88,1037.39 L2342.28,1032.71 L2332.24,1032.1 L2323.69,1029.89 L2293.85,1029.48 L2270.08,1024.12 L2256.3,1015.39 L2242.99,1015.09 L2235.24,1009.23 L2231.14,1008.18 L2216.14,998.742 L2212.77,997.959 L2201.58,998.203 L2195.43,1000.72 L2179.44,998.925 L2175.46,1002.54 L2174.14,1007.13 L2170.93,1013.1 L2161.53,1019.23 L2119.76,1026.42 L2099.29,1024.97 L2081.03,1019.91 L2074.23,1020.74 L2068.44,1019.65 L2053.77,1019.68 L2051.43,1017.93 L2049.87,1013.41 L2045.79,1007.2 L2038.58,1002.58 L2028.18,998.116 L2017.17,1000.8 L2008.26,1005.61 L2005.63,1005.02 L2002.43,1001.45 L2000.04,1000.63 L1988.88,1005.64 L1969.03,1003.15 L1965.05,1004.08 L1951.89,1011.05 L1947.76,1017.41 L1925.26,1039.23 L1896.11,1050.4 L1888.74,1048.57 L1876.09,1040.86 L1862.11,1037.03 L1825.84,1035.23 L1753.84,1038.19 L1638.26,1019.95 L1629.97,1021.8 L1625.62,1024.97 L1621.79,1025.81 L1556.25,1009.47 L1547.44,1003.21 L1540.88,1000.11 L1464.05,969.323 L1457.53,966.971 L1443.86,964.666 L1441.33,965.449 L1432.77,972.59 L1274.7,1012.65 L1215.71,1011.5 L1122.5,1021.91 L1026.02,1037.78 L956.863,1061.38 L922.684,1068.59 L860.998,1087.15 L838.96,1091.07 L747.637,1100.76 L721.018,1105.44 L688.528,1119.58 L682.22,1120.36 L669.676,1128.34 L641.017,1131.68 L609.829,1139.05 L576.911,1143.37 L561.841,1147.3 L532.739,1147.62 L506.37,1142.8 L471.441,1128.79 L420.29,1124.96 L406.881,1121.42 L366.593,1114.34 L349.655,1108.59 L290.045,1101.69 L269.219,1095.71 L265.331,1092.97 L258.37,1085.02 L250.546,1082.74 L221.514,1068.51 L212.298,1066.52 L202.198,1061.91" fill-rule="evenodd"/>
   <path vector-effect="none" d="M2551.38,1056.59 L2553.04,1058.22" fill-rule="evenodd"/>
  </g>
  <g font-family="Ubuntu" fill="none" stroke-opacity="1" font-size="45.8333" stroke-width="7.79528" font-style="normal" transform="matrix(0.999811,0,0,0.999811,0,0)" stroke="#000000" font-weight="400" stroke-linecap="round" stroke-linejoin="round">
   <path vector-effect="none" d="M191.469,1067.18 L164.168,1076.22 L25.6235,1076.82 L17.9199,1075.15 L3.79954,1076.26 L-5.00343,1070.16 L-19.5029,1056.91 L-39.6394,1057.42 L-43.2832,1056.37 L-53.3368,1048.57 L-80.2395,1031.47 L-97.9322,1017.8 L-105.132,1016.52 L-114.106,1017.95 L-118.268,1016.79" fill-rule="evenodd"/>
   <path vector-effect="none" d="M191.469,1067.18 L191.78,1066.79" fill-rule="evenodd"/>
  </g>
  <g font-family="Ubuntu" fill="none" stroke-opacity="1" font-size="45.8333" stroke-dashoffset="0" stroke-width="3.89764" font-style="normal" transform="matrix(0.999811,0,0,0.999811,0,0)" stroke="#ffffff" font-weight="400" stroke-linecap="square" stroke-dasharray="35.4331,35.4331" stroke-linejoin="bevel">
   <path vector-effect="none" d="M191.469,1067.18 L164.168,1076.22 L25.6235,1076.82 L17.9199,1075.15 L3.79954,1076.26 L-5.00343,1070.16 L-19.5029,1056.91 L-39.6394,1057.42 L-43.2832,1056.37 L-53.3368,1048.57 L-80.2395,1031.47 L-97.9322,1017.8 L-105.132,1016.52 L-114.106,1017.95 L-118.268,1016.79" fill-rule="evenodd"/>
   <path vector-effect="none" d="M191.469,1067.18 L191.78,1066.79" fill-rule="evenodd"/>
  </g>
  <g font-family="Ubuntu" fill="none" stroke-opacity="1" font-size="45.8333" stroke-width="7.79528" font-style="normal" transform="matrix(0.999811,0,0,0.999811,0,0)" stroke="#000000" font-weight="400" stroke-linecap="round" stroke-linejoin="round">
   <path vector-effect="none" d="M1405.9,524.021 L1405.08,518.454 L1378.44,452.686 L1341.64,211.758 L1338.71,206.859 L1306.96,177.23 L1304.44,173.239 L1217.44,-67.7241 L1170.21,-191.4 L1159.82,-206.316 L1157.25,-215.741 L1154.86,-219.756 L1155.09,-230.113 L1154.07,-236.657 L1149.06,-251.732 L1150.02,-254.696 L1155.93,-262.116 L1156.09,-264.456 L1155.96,-264.564" fill-rule="evenodd"/>
   <path vector-effect="none" d="M1405.9,524.021 L1406.05,525.31" fill-rule="evenodd"/>
  </g>
  <g font-family="Ubuntu" fill="none" stroke-opacity="1" font-size="45.8333" stroke-dashoffset="0" stroke-width="3.89764" font-style="normal" transform="matrix(0.999811,0,0,0.999811,0,0)" stroke="#ffffff" font-weight="400" stroke-linecap="square" stroke-dasharray="35.4331,35.4331" stroke-linejoin="bevel">
   <path vector-effect="none" d="M1405.9,524.021 L1405.08,518.454 L1378.44,452.686 L1341.64,211.758 L1338.71,206.859 L1306.96,177.23 L1304.44,173.239 L1217.44,-67.7241 L1170.21,-191.4 L1159.82,-206.316 L1157.25,-215.741 L1154.86,-219.756 L1155.09,-230.113 L1154.07,-236.657 L1149.06,-251.732 L1150.02,-254.696 L1155.93,-262.116 L1156.09,-264.456 L1155.96,-264.564" fill-rule="evenodd"/>
   <path vector-effect="none" d="M1405.9,524.021 L1406.05,525.31" fill-rule="evenodd"/>
  </g>
  <g font-family="Ubuntu" fill="none" stroke-opacity="1" font-size="45.8333" stroke-width="4.25197" font-style="normal" transform="matrix(0.999811,0,0,0.999811,0,0)" stroke="#232323" font-weight="400" stroke-linecap="square" stroke-linejoin="bevel">
   <path vector-effect="none" d="M2241.43,687.667 L2238.14,683.408 L2238.07,679.954 L2235.72,672.565 L2236.3,668.118 L2250.92,654.216 L2254.22,652.32 L2260.57,652.074 L2261.12,650.644 L2260.4,647.118 L2257.48,643.108 L2258.3,640.033 L2266.22,638.731 L2268.49,635.897 L2274.23,632.45 L2278.27,627.921 L2290.39,624.303 L2299.33,617.869 L2305.02,616.428 L2307.7,614.3 L2312.64,606.199 L2314.36,600.97 L2316.75,585.356 L2313.1,577.474 L2312.9,560.772 L2315.31,549.394 L2319.58,544.17 L2320.51,541.303 L2319.16,538.389 L2311.35,533.903 L2309.26,529.885 L2308.31,525.328 L2295.22,510.15 L2294.19,507.471 L2293.46,492.798 L2294.96,481.641 L2293.85,471.128 L2303.97,457.09 L2307.26,448.797 L2309.21,419.639 L2308.31,408.603 L2310.02,403.174 L2309.35,399.105 L2307.27,395.606 L2299.38,389.373 L2291.69,385.226 L2290.96,377.602 L2292.59,370.911 L2292.24,366.34 L2290.18,356.413 L2286.11,351.414 L2285.27,347.197 L2284.02,345.085 L2279.82,340.842 L2271.73,342.589 L2263.19,340.255 L2261.36,336.717 L2263.3,333.156 L2263.18,329.694 L2238.86,299.038 L2239.4,297.406 L2243.29,294.176 L2239.29,275.325 L2237.42,272.373 L2237.93,268.987 L2236.61,263.236 L2236.67,259.343 L2234.48,256.122 L2236.04,252.542 L2236.17,250.25 L2238.88,241.413 L2235.05,200.919 L2235.48,196.445 L2240.68,180.988 L2248.27,168.797 L2248.22,167.637 L2245.95,164.558 L2247.97,159.686 L2252,139.832 L2254.12,135.873 L2252.34,131.131 L2258.68,123.438 L2265.72,119.333 L2268.02,115.392 L2267.53,113.253" fill-rule="evenodd"/>
   <path vector-effect="none" d="M2267.53,113.253 L2266.64,112.409" fill-rule="evenodd"/>
   <path vector-effect="none" d="M1979.05,1840.61 L1977.33,1841.76" fill-rule="evenodd"/>
   <path vector-effect="none" d="M1979.05,1840.61 L1982.14,1840.19 L1997.19,1843.83 L2015.05,1844.5 L2026.6,1839.18 L2032.64,1838.96 L2043.38,1835.58 L2048.19,1836.11 L2064.71,1841.41 L2069.59,1847.41 L2083.86,1855.38 L2094.21,1854.46 L2107.79,1860.89 L2122.04,1864.11 L2131.53,1869.77 L2135.57,1874.92 L2145.97,1877.02 L2149.17,1876.08 L2156.75,1870.35 L2170.84,1864 L2178.89,1863.24 L2191.82,1864.44 L2205.54,1861.33 L2208.64,1862.68 L2211.99,1868.47 L2216.91,1870.91 L2230.74,1872.23 L2263.22,1867.14 L2279.68,1866.5 L2288.21,1862.99 L2305.75,1864.54 L2309.75,1863.8 L2326.85,1871.99 L2330.81,1871.12 L2341.75,1871.89 L2349.35,1869.03 L2357.89,1869.97 L2364.49,1868.26 L2388.03,1868.24 L2400.32,1870.64 L2465.2,1859.06 L2476.04,1853.73 L2486.13,1853.31 L2508.54,1843.47 L2525.42,1837.81 L2556.15,1837.33 L2558.97,1836.41 L2560.65,1834.78 L2561.3,1832.52 L2560.54,1827.73 L2560.92,1812.79 L2566.25,1803.04 L2569.36,1799.11 L2579.3,1792.05 L2587.98,1777.51 L2590.74,1769.83 L2602.83,1754.9 L2609.13,1752.89 L2612.93,1749.4 L2614.04,1746.55 L2614.07,1739.13 L2617.43,1733.44 L2620.01,1732.12 L2628.91,1735.47 L2638.42,1735.77 L2646.04,1733.22 L2656.59,1735 L2662.47,1737.24 L2687.47,1752.13 L2702.35,1749.64 L2709.91,1746.74 L2732.33,1752.82 L2745.56,1751.92 L2747.89,1750.88 L2754.2,1744.19 L2762.82,1738.49 L2771.49,1738.63 L2774.69,1740.07 L2778.22,1739.45 L2782.49,1742.32 L2785.55,1742.53 L2786.78,1741.75" fill-rule="evenodd"/>
   <path vector-effect="none" d="" fill-rule="evenodd"/>
  </g>
  <g font-family="Ubuntu" fill="none" stroke-opacity="1" font-size="45.8333" stroke-width="7.79528" font-style="normal" transform="matrix(0.999811,0,0,0.999811,0,0)" stroke="#000000" font-weight="400" stroke-linecap="round" stroke-linejoin="round">
   <path vector-effect="none" d="" fill-rule="evenodd"/>
   <path vector-effect="none" d="M2752.84,279.602 L2733.45,277.078 L2671.42,273.096 L2664.26,269.467 L2654.75,257.579 L2646.07,253.008 L2621.85,250.177 L2612.31,246.175 L2590.32,242.707 L2577.26,236.17 L2526.7,228.096 L2517.21,228.688 L2507.18,227.254 L2495.03,223.504 L2471.94,206.491 L2462.23,207.257 L2424.18,204.723 L2409.06,199.359 L2400.71,197.626 L2388.7,191.903 L2383.39,185.522 L2376.9,183.406 L2364.65,184.466 L2354.02,173.219 L2344.55,172.054 L2342.35,169.188 L2342.56,164.035 L2341.03,161.384 L2327.43,151.21 L2319.77,147.93 L2309.12,137.185 L2303.48,133.877 L2290.3,121.9 L2270.44,114.758 L2247.57,96.2171 L2232.51,91.9378 L2216.71,81.1445 L2212.43,80.9734 L2201,86.3607 L2177.74,84.7854 L2068.6,45.5849 L2060.73,45.7281 L2045.17,36.9306 L2017.11,26.5683 L2007.67,21.9409 L1981.92,15.6938 L1976.53,11.4111 L1957.34,4.4657 L1940.26,5.76893 L1925.25,1.4993 L1916.37,-4.02777 L1911.03,-12.8225 L1894.5,-25.1636 L1886.27,-37.0629 L1877.5,-46.6267 L1874.96,-56.4983 L1871.07,-61.4006 L1860.75,-69.7498 L1856.75,-77.24 L1836.39,-92.8788 L1831.37,-95.3433 L1813.53,-109.597 L1790.74,-115.363 L1729.83,-162.78 L1699.93,-169.013 L1689.49,-166.851 L1686.52,-167.421 L1649.11,-210.348 L1602.15,-239.756 L1571.74,-250.644 L1569.2,-252.637" fill-rule="evenodd"/>
  </g>
  <g font-family="Ubuntu" fill="none" stroke-opacity="1" font-size="45.8333" stroke-dashoffset="0" stroke-width="3.89764" font-style="normal" transform="matrix(0.999811,0,0,0.999811,0,0)" stroke="#ffffff" font-weight="400" stroke-linecap="square" stroke-dasharray="35.4331,35.4331" stroke-linejoin="bevel">
   <path vector-effect="none" d="" fill-rule="evenodd"/>
   <path vector-effect="none" d="M2752.84,279.602 L2733.45,277.078 L2671.42,273.096 L2664.26,269.467 L2654.75,257.579 L2646.07,253.008 L2621.85,250.177 L2612.31,246.175 L2590.32,242.707 L2577.26,236.17 L2526.7,228.096 L2517.21,228.688 L2507.18,227.254 L2495.03,223.504 L2471.94,206.491 L2462.23,207.257 L2424.18,204.723 L2409.06,199.359 L2400.71,197.626 L2388.7,191.903 L2383.39,185.522 L2376.9,183.406 L2364.65,184.466 L2354.02,173.219 L2344.55,172.054 L2342.35,169.188 L2342.56,164.035 L2341.03,161.384 L2327.43,151.21 L2319.77,147.93 L2309.12,137.185 L2303.48,133.877 L2290.3,121.9 L2270.44,114.758 L2247.57,96.2171 L2232.51,91.9378 L2216.71,81.1445 L2212.43,80.9734 L2201,86.3607 L2177.74,84.7854 L2068.6,45.5849 L2060.73,45.7281 L2045.17,36.9306 L2017.11,26.5683 L2007.67,21.9409 L1981.92,15.6938 L1976.53,11.4111 L1957.34,4.4657 L1940.26,5.76893 L1925.25,1.4993 L1916.37,-4.02777 L1911.03,-12.8225 L1894.5,-25.1636 L1886.27,-37.0629 L1877.5,-46.6267 L1874.96,-56.4983 L1871.07,-61.4006 L1860.75,-69.7498 L1856.75,-77.24 L1836.39,-92.8788 L1831.37,-95.3433 L1813.53,-109.597 L1790.74,-115.363 L1729.83,-162.78 L1699.93,-169.013 L1689.49,-166.851 L1686.52,-167.421 L1649.11,-210.348 L1602.15,-239.756 L1571.74,-250.644 L1569.2,-252.637" fill-rule="evenodd"/>
  </g>
  <g font-family="Ubuntu" fill="none" stroke-opacity="1" font-size="45.8333" stroke-width="1" font-style="normal" transform="matrix(0.999811,0,0,0.999811,0,0)" stroke="#000000" font-weight="400" stroke-linecap="square" stroke-linejoin="bevel"/>
  <g font-family="Ubuntu" fill="#ffffff" stroke-opacity="1" font-size="45.8333" stroke-width="4.72441" font-style="normal" transform="matrix(0.999811,0,0,0.999811,0,0)" stroke="#000000" font-weight="400" stroke-linecap="square" fill-opacity="1" stroke-linejoin="bevel">
   <path vector-effect="none" d="M1078.37,2253.93 C1078.37,2260.45 1073.08,2265.74 1066.56,2265.74 C1060.04,2265.74 1054.75,2260.45 1054.75,2253.93 C1054.75,2247.41 1060.04,2242.12 1066.56,2242.12 C1073.08,2242.12 1078.37,2247.41 1078.37,2253.93 " fill-rule="evenodd"/>
   <path vector-effect="none" d="M2183.9,1653.78 C2183.9,1660.3 2178.61,1665.59 2172.09,1665.59 C2165.57,1665.59 2160.28,1660.3 2160.28,1653.78 C2160.28,1647.26 2165.57,1641.97 2172.09,1641.97 C2178.61,1641.97 2183.9,1647.26 2183.9,1653.78 " fill-rule="evenodd"/>
   <path vector-effect="none" d="M871.009,1087.5 C871.009,1094.03 865.721,1099.31 859.198,1099.31 C852.675,1099.31 847.387,1094.03 847.387,1087.5 C847.387,1080.98 852.675,1075.69 859.198,1075.69 C865.721,1075.69 871.009,1080.98 871.009,1087.5 " fill-rule="evenodd"/>
   <path vector-effect="none" d="M204.471,1065.47 C204.471,1071.99 199.184,1077.28 192.66,1077.28 C186.137,1077.28 180.849,1071.99 180.849,1065.47 C180.849,1058.94 186.137,1053.66 192.66,1053.66 C199.184,1053.66 204.471,1058.94 204.471,1065.47 " fill-rule="evenodd"/>
   <path vector-effect="none" d="M854.815,371.712 C854.815,378.235 849.527,383.523 843.004,383.523 C836.481,383.523 831.193,378.235 831.193,371.712 C831.193,365.189 836.481,359.901 843.004,359.901 C849.527,359.901 854.815,365.189 854.815,371.712 " fill-rule="evenodd"/>
   <path vector-effect="none" d="M1041.97,452.501 C1041.97,459.024 1036.68,464.312 1030.16,464.312 C1023.64,464.312 1018.35,459.024 1018.35,452.501 C1018.35,445.978 1023.64,440.69 1030.16,440.69 C1036.68,440.69 1041.97,445.978 1041.97,452.501 " fill-rule="evenodd"/>
   <path vector-effect="none" d="M1419.17,559.436 C1419.17,565.959 1413.88,571.247 1407.36,571.247 C1400.84,571.247 1395.55,565.959 1395.55,559.436 C1395.55,552.913 1400.84,547.625 1407.36,547.625 C1413.88,547.625 1419.17,552.913 1419.17,559.436 " fill-rule="evenodd"/>
   <path vector-effect="none" d="M1601.87,97.8608 C1601.87,104.384 1596.58,109.672 1590.06,109.672 C1583.54,109.672 1578.25,104.384 1578.25,97.8608 C1578.25,91.3378 1583.54,86.0498 1590.06,86.0498 C1596.58,86.0498 1601.87,91.3378 1601.87,97.8608 " fill-rule="evenodd"/>
   <path vector-effect="none" d="M1984.67,1844.68 C1984.67,1851.21 1979.39,1856.49 1972.86,1856.49 C1966.34,1856.49 1961.05,1851.21 1961.05,1844.68 C1961.05,1838.16 1966.34,1832.87 1972.86,1832.87 C1979.39,1832.87 1984.67,1838.16 1984.67,1844.68 " fill-rule="evenodd"/>
   <path vector-effect="none" d="M898.487,2243.36 C898.487,2249.89 893.199,2255.17 886.676,2255.17 C880.153,2255.17 874.865,2249.89 874.865,2243.36 C874.865,2236.84 880.153,2231.55 886.676,2231.55 C893.199,2231.55 898.487,2236.84 898.487,2243.36 " fill-rule="evenodd"/>
  </g>
  <g font-family="Ubuntu" fill="none" stroke-opacity="1" font-size="45.8333" stroke-width="1" font-style="normal" transform="matrix(0.999811,0,0,0.999811,0,0)" stroke="#000000" font-weight="400" stroke-linecap="square" stroke-linejoin="bevel"/>
  <g font-family="Ubuntu" fill="none" stroke-opacity="1" font-size="45.8333" stroke-width="1" font-style="normal" transform="matrix(0.999811,0,0,0.999811,0,0)" stroke="#000000" font-weight="400" stroke-linecap="square" stroke-linejoin="bevel"/>
  <g font-family="Ubuntu" fill="none" stroke-opacity="1" font-size="45.8333" stroke-width="1" font-style="normal" transform="matrix(0.999811,0,0,0.999811,0,0)" stroke="#000000" font-weight="400" stroke-linecap="square" stroke-linejoin="bevel"/>
  <g font-family="Ubuntu" fill="none" stroke-opacity="1" font-size="45.8333" stroke-width="1" font-style="normal" transform="matrix(0.999811,0,0,0.999811,0,0)" stroke="#000000" font-weight="400" stroke-linecap="square" stroke-linejoin="bevel"/>
  <g font-family="Ubuntu" fill="none" stroke-opacity="1" font-size="45.8333" stroke-width="1" font-style="normal" transform="matrix(0.319939,0,0,0.319939,703.769,2188.95)" stroke="#000000" font-weight="400" stroke-linecap="square" stroke-linejoin="bevel"/>
  <g font-family="Ubuntu" fill="#6d6d6d" font-size="45.8333" font-style="normal" transform="matrix(0.999811,0,0,0.999811,703.769,2188.95)" stroke="none" font-weight="400" fill-opacity="0.694118">
   <path vector-effect="non-scaling-stroke" d="M-169.573,-49.3 L169.573,-49.3 L169.573,49.3 L-169.573,49.3 L-169.573,-49.3" fill-rule="evenodd"/>
  </g>
  <g font-family="Ubuntu" fill="none" stroke-opacity="1" font-size="45.8333" stroke-width="1" font-style="normal" transform="matrix(0.319939,0,0,0.319939,703.769,2188.95)" stroke="#000000" font-weight="400" stroke-linecap="square" stroke-linejoin="bevel"/>
  <g font-family="Ubuntu" fill="none" stroke-opacity="1" font-size="45.8333" stroke-width="1" font-style="normal" transform="matrix(0.999811,0,0,0.999811,0,0)" stroke="#000000" font-weight="400" stroke-linecap="square" stroke-linejoin="bevel"/>
  <g font-family="Ubuntu" fill="none" stroke-opacity="1" font-size="42" stroke-width="1" font-style="normal" transform="matrix(0.999811,0,0,0.999811,535.527,2178.95)" stroke="#ffffff" font-weight="400" stroke-linecap="square" stroke-linejoin="bevel">
   <text font-family="Ubuntu" fill="#ffffff" font-size="42" font-style="normal" xml:space="preserve" stroke="none" font-weight="400" x="0" fill-opacity="1" y="0"></text>
  </g>
  <g font-family="Ubuntu" fill="none" stroke-opacity="1" font-size="45.8333" stroke-width="1" font-style="normal" transform="matrix(0.999811,0,0,0.999811,0,0)" stroke="#000000" font-weight="400" stroke-linecap="square" stroke-linejoin="bevel"/>
  <g font-family="Ubuntu" fill="none" stroke-opacity="1" font-size="42" stroke-width="1" font-style="normal" transform="matrix(0.999811,0,0,0.999811,604.405,2226.94)" stroke="#ffffff" font-weight="400" stroke-linecap="square" stroke-linejoin="bevel">
   <text font-family="Ubuntu" fill="#ffffff" font-size="42" font-style="normal" xml:space="preserve" stroke="none" font-weight="400" x="0" fill-opacity="1" y="0">Novosokolniki</text>
  </g>
  <g font-family="Ubuntu" fill="none" stroke-opacity="1" font-size="45.8333" stroke-width="1" font-style="normal" transform="matrix(0.999811,0,0,0.999811,0,0)" stroke="#000000" font-weight="400" stroke-linecap="square" stroke-linejoin="bevel"/>
  <g font-family="Ubuntu" fill="none" stroke-opacity="1" font-size="45.8333" stroke-width="1" font-style="normal" transform="matrix(0.319939,0,0,0.319939,1221.11,2200.01)" stroke="#000000" font-weight="400" stroke-linecap="square" stroke-linejoin="bevel"/>
  <g font-family="Ubuntu" fill="#6d6d6d" font-size="45.8333" font-style="normal" transform="matrix(0.999811,0,0,0.999811,1221.11,2200.01)" stroke="none" font-weight="400" fill-opacity="0.694118">
   <path vector-effect="non-scaling-stroke" d="M-141.081,-49.3 L141.081,-49.3 L141.081,49.3 L-141.081,49.3 L-141.081,-49.3" fill-rule="evenodd"/>
  </g>
  <g font-family="Ubuntu" fill="none" stroke-opacity="1" font-size="45.8333" stroke-width="1" font-style="normal" transform="matrix(0.319939,0,0,0.319939,1221.11,2200.01)" stroke="#000000" font-weight="400" stroke-linecap="square" stroke-linejoin="bevel"/>
  <g font-family="Ubuntu" fill="none" stroke-opacity="1" font-size="45.8333" stroke-width="1" font-style="normal" transform="matrix(0.999811,0,0,0.999811,0,0)" stroke="#000000" font-weight="400" stroke-linecap="square" stroke-linejoin="bevel"/>
  <g font-family="Ubuntu" fill="none" stroke-opacity="1" font-size="42" stroke-width="1" font-style="normal" transform="matrix(0.999811,0,0,0.999811,1081.35,2190.02)" stroke="#ffffff" font-weight="400" stroke-linecap="square" stroke-linejoin="bevel">
   <text font-family="Ubuntu" fill="#ffffff" font-size="42" font-style="normal" xml:space="preserve" stroke="none" font-weight="400" x="0" fill-opacity="1" y="0"> </text>
  </g>
  <g font-family="Ubuntu" fill="none" stroke-opacity="1" font-size="45.8333" stroke-width="1" font-style="normal" transform="matrix(0.999811,0,0,0.999811,0,0)" stroke="#000000" font-weight="400" stroke-linecap="square" stroke-linejoin="bevel"/>
  <g font-family="Ubuntu" fill="none" stroke-opacity="1" font-size="42" stroke-width="1" font-style="normal" transform="matrix(0.999811,0,0,0.999811,1081.35,2238.01)" stroke="#ffffff" font-weight="400" stroke-linecap="square" stroke-linejoin="bevel">
   <text font-family="Ubuntu" fill="#ffffff" font-size="42" font-style="normal" xml:space="preserve" stroke="none" font-weight="400" x="0" fill-opacity="1" y="0">Velikie Luki</text>
  </g>
  <g font-family="Ubuntu" fill="none" stroke-opacity="1" font-size="45.8333" stroke-width="1" font-style="normal" transform="matrix(0.999811,0,0,0.999811,0,0)" stroke="#000000" font-weight="400" stroke-linecap="square" stroke-linejoin="bevel"/>
  <g font-family="Ubuntu" fill="none" stroke-opacity="1" font-size="45.8333" stroke-width="1" font-style="normal" transform="matrix(0.319939,0,0,0.319939,1149.65,398.425)" stroke="#000000" font-weight="400" stroke-linecap="square" stroke-linejoin="bevel"/>
  <g font-family="Ubuntu" fill="#6d6d6d" font-size="45.8333" font-style="normal" transform="matrix(0.999811,0,0,0.999811,1149.65,398.425)" stroke="none" font-weight="400" fill-opacity="0.694118">
   <path vector-effect="non-scaling-stroke" d="M-106.511,-49.3 L106.511,-49.3 L106.511,49.3 L-106.511,49.3 L-106.511,-49.3" fill-rule="evenodd"/>
  </g>
  <g font-family="Ubuntu" fill="none" stroke-opacity="1" font-size="45.8333" stroke-width="1" font-style="normal" transform="matrix(0.319939,0,0,0.319939,1149.65,398.425)" stroke="#000000" font-weight="400" stroke-linecap="square" stroke-linejoin="bevel"/>
  <g font-family="Ubuntu" fill="none" stroke-opacity="1" font-size="45.8333" stroke-width="1" font-style="normal" transform="matrix(0.999811,0,0,0.999811,0,0)" stroke="#000000" font-weight="400" stroke-linecap="square" stroke-linejoin="bevel"/>
  <g font-family="Ubuntu" fill="none" stroke-opacity="1" font-size="42" stroke-width="1" font-style="normal" transform="matrix(0.999811,0,0,0.999811,1044.46,388.427)" stroke="#ffffff" font-weight="400" stroke-linecap="square" stroke-linejoin="bevel">
   <text font-family="Ubuntu" fill="#ffffff" font-size="42" font-style="normal" xml:space="preserve" stroke="none" font-weight="400" x="0" fill-opacity="1" y="0"></text>
  </g>
  <g font-family="Ubuntu" fill="none" stroke-opacity="1" font-size="45.8333" stroke-width="1" font-style="normal" transform="matrix(0.999811,0,0,0.999811,0,0)" stroke="#000000" font-weight="400" stroke-linecap="square" stroke-linejoin="bevel"/>
  <g font-family="Ubuntu" fill="none" stroke-opacity="1" font-size="42" stroke-width="1" font-style="normal" transform="matrix(0.999811,0,0,0.999811,1044.46,436.418)" stroke="#ffffff" font-weight="400" stroke-linecap="square" stroke-linejoin="bevel">
   <text font-family="Ubuntu" fill="#ffffff" font-size="42" font-style="normal" xml:space="preserve" stroke="none" font-weight="400" x="0" fill-opacity="1" y="0">Batetskaya</text>
  </g>
  <g font-family="Ubuntu" fill="none" stroke-opacity="1" font-size="45.8333" stroke-width="1" font-style="normal" transform="matrix(0.999811,0,0,0.999811,0,0)" stroke="#000000" font-weight="400" stroke-linecap="square" stroke-linejoin="bevel"/>
  <g font-family="Ubuntu" fill="none" stroke-opacity="1" font-size="45.8333" stroke-width="1" font-style="normal" transform="matrix(0.319939,0,0,0.319939,2285.57,1599.98)" stroke="#000000" font-weight="400" stroke-linecap="square" stroke-linejoin="bevel"/>
  <g font-family="Ubuntu" fill="#6d6d6d" font-size="45.8333" font-style="normal" transform="matrix(0.999811,0,0,0.999811,2285.57,1599.98)" stroke="none" font-weight="400" fill-opacity="0.694118">
   <path vector-effect="non-scaling-stroke" d="M-100.714,-49.3 L100.714,-49.3 L100.714,49.3 L-100.714,49.3 L-100.714,-49.3" fill-rule="evenodd"/>
  </g>
  <g font-family="Ubuntu" fill="none" stroke-opacity="1" font-size="45.8333" stroke-width="1" font-style="normal" transform="matrix(0.319939,0,0,0.319939,2285.57,1599.98)" stroke="#000000" font-weight="400" stroke-linecap="square" stroke-linejoin="bevel"/>
  <g font-family="Ubuntu" fill="none" stroke-opacity="1" font-size="45.8333" stroke-width="1" font-style="normal" transform="matrix(0.999811,0,0,0.999811,0,0)" stroke="#000000" font-weight="400" stroke-linecap="square" stroke-linejoin="bevel"/>
  <g font-family="Ubuntu" fill="none" stroke-opacity="1" font-size="42" stroke-width="1" font-style="normal" transform="matrix(0.999811,0,0,0.999811,2186.18,1589.98)" stroke="#ffffff" font-weight="400" stroke-linecap="square" stroke-linejoin="bevel">
   <text font-family="Ubuntu" fill="#ffffff" font-size="42" font-style="normal" xml:space="preserve" stroke="none" font-weight="400" x="0" fill-opacity="1" y="0"></text>
  </g>
  <g font-family="Ubuntu" fill="none" stroke-opacity="1" font-size="45.8333" stroke-width="1" font-style="normal" transform="matrix(0.999811,0,0,0.999811,0,0)" stroke="#000000" font-weight="400" stroke-linecap="square" stroke-linejoin="bevel"/>
  <g font-family="Ubuntu" fill="none" stroke-opacity="1" font-size="42" stroke-width="1" font-style="normal" transform="matrix(0.999811,0,0,0.999811,2186.18,1637.97)" stroke="#ffffff" font-weight="400" stroke-linecap="square" stroke-linejoin="bevel">
   <text font-family="Ubuntu" fill="#ffffff" font-size="42" font-style="normal" xml:space="preserve" stroke="none" font-weight="400" x="0" fill-opacity="1" y="0">Ostashkov</text>
  </g>
  <g font-family="Ubuntu" fill="none" stroke-opacity="1" font-size="45.8333" stroke-width="1" font-style="normal" transform="matrix(0.999811,0,0,0.999811,0,0)" stroke="#000000" font-weight="400" stroke-linecap="square" stroke-linejoin="bevel"/>
  <g font-family="Ubuntu" fill="none" stroke-opacity="1" font-size="45.8333" stroke-width="1" font-style="normal" transform="matrix(0.319939,0,0,0.319939,1519.33,505.34)" stroke="#000000" font-weight="400" stroke-linecap="square" stroke-linejoin="bevel"/>
  <g font-family="Ubuntu" fill="#6d6d6d" font-size="45.8333" font-style="normal" transform="matrix(0.999811,0,0,0.999811,1519.33,505.34)" stroke="none" font-weight="400" fill-opacity="0.694118">
   <path vector-effect="non-scaling-stroke" d="M-98.5578,-49.3 L98.5578,-49.3 L98.5578,49.3 L-98.5578,49.3 L-98.5578,-49.3" fill-rule="evenodd"/>
  </g>
  <g font-family="Ubuntu" fill="none" stroke-opacity="1" font-size="45.8333" stroke-width="1" font-style="normal" transform="matrix(0.319939,0,0,0.319939,1519.33,505.34)" stroke="#000000" font-weight="400" stroke-linecap="square" stroke-linejoin="bevel"/>
  <g font-family="Ubuntu" fill="none" stroke-opacity="1" font-size="45.8333" stroke-width="1" font-style="normal" transform="matrix(0.999811,0,0,0.999811,0,0)" stroke="#000000" font-weight="400" stroke-linecap="square" stroke-linejoin="bevel"/>
  <g font-family="Ubuntu" fill="none" stroke-opacity="1" font-size="42" stroke-width="1" font-style="normal" transform="matrix(0.999811,0,0,0.999811,1422.09,495.342)" stroke="#ffffff" font-weight="400" stroke-linecap="square" stroke-linejoin="bevel">
   <text font-family="Ubuntu" fill="#ffffff" font-size="42" font-style="normal" xml:space="preserve" stroke="none" font-weight="400" x="0" fill-opacity="1" y="0"></text>
  </g>
  <g font-family="Ubuntu" fill="none" stroke-opacity="1" font-size="45.8333" stroke-width="1" font-style="normal" transform="matrix(0.999811,0,0,0.999811,0,0)" stroke="#000000" font-weight="400" stroke-linecap="square" stroke-linejoin="bevel"/>
  <g font-family="Ubuntu" fill="none" stroke-opacity="1" font-size="42" stroke-width="1" font-style="normal" transform="matrix(0.999811,0,0,0.999811,1422.09,543.333)" stroke="#ffffff" font-weight="400" stroke-linecap="square" stroke-linejoin="bevel">
   <text font-family="Ubuntu" fill="#ffffff" font-size="42" font-style="normal" xml:space="preserve" stroke="none" font-weight="400" x="0" fill-opacity="1" y="0">Novgorod</text>
  </g>
  <g font-family="Ubuntu" fill="none" stroke-opacity="1" font-size="45.8333" stroke-width="1" font-style="normal" transform="matrix(0.999811,0,0,0.999811,0,0)" stroke="#000000" font-weight="400" stroke-linecap="square" stroke-linejoin="bevel"/>
  <g font-family="Ubuntu" fill="none" stroke-opacity="1" font-size="45.8333" stroke-width="1" font-style="normal" transform="matrix(0.319939,0,0,0.319939,1688.37,150.332)" stroke="#000000" font-weight="400" stroke-linecap="square" stroke-linejoin="bevel"/>
  <g font-family="Ubuntu" fill="#6d6d6d" font-size="45.8333" font-style="normal" transform="matrix(0.999811,0,0,0.999811,1688.37,150.332)" stroke="none" font-weight="400" fill-opacity="0.694118">
   <path vector-effect="non-scaling-stroke" d="M-85.425,-49.3 L85.425,-49.3 L85.425,49.3 L-85.425,49.3 L-85.425,-49.3" fill-rule="evenodd"/>
  </g>
  <g font-family="Ubuntu" fill="none" stroke-opacity="1" font-size="45.8333" stroke-width="1" font-style="normal" transform="matrix(0.319939,0,0,0.319939,1688.37,150.332)" stroke="#000000" font-weight="400" stroke-linecap="square" stroke-linejoin="bevel"/>
  <g font-family="Ubuntu" fill="none" stroke-opacity="1" font-size="45.8333" stroke-width="1" font-style="normal" transform="matrix(0.999811,0,0,0.999811,0,0)" stroke="#000000" font-weight="400" stroke-linecap="square" stroke-linejoin="bevel"/>
  <g font-family="Ubuntu" fill="none" stroke-opacity="1" font-size="42" stroke-width="1" font-style="normal" transform="matrix(0.999811,0,0,0.999811,1604.26,140.334)" stroke="#ffffff" font-weight="400" stroke-linecap="square" stroke-linejoin="bevel">
   <text font-family="Ubuntu" fill="#ffffff" font-size="42" font-style="normal" xml:space="preserve" stroke="none" font-weight="400" x="0" fill-opacity="1" y="0"></text>
  </g>
  <g font-family="Ubuntu" fill="none" stroke-opacity="1" font-size="45.8333" stroke-width="1" font-style="normal" transform="matrix(0.999811,0,0,0.999811,0,0)" stroke="#000000" font-weight="400" stroke-linecap="square" stroke-linejoin="bevel"/>
  <g font-family="Ubuntu" fill="none" stroke-opacity="1" font-size="42" stroke-width="1" font-style="normal" transform="matrix(0.999811,0,0,0.999811,1604.26,188.325)" stroke="#ffffff" font-weight="400" stroke-linecap="square" stroke-linejoin="bevel">
   <text font-family="Ubuntu" fill="#ffffff" font-size="42" font-style="normal" xml:space="preserve" stroke="none" font-weight="400" x="0" fill-opacity="1" y="0">Chudovo</text>
  </g>
  <g font-family="Ubuntu" fill="none" stroke-opacity="1" font-size="45.8333" stroke-width="1" font-style="normal" transform="matrix(0.999811,0,0,0.999811,0,0)" stroke="#000000" font-weight="400" stroke-linecap="square" stroke-linejoin="bevel"/>
  <g font-family="Ubuntu" fill="none" stroke-opacity="1" font-size="45.8333" stroke-width="1" font-style="normal" transform="matrix(0.319939,0,0,0.319939,2069.21,1790.84)" stroke="#000000" font-weight="400" stroke-linecap="square" stroke-linejoin="bevel"/>
  <g font-family="Ubuntu" fill="#6d6d6d" font-size="45.8333" font-style="normal" transform="matrix(0.999811,0,0,0.999811,2069.21,1790.84)" stroke="none" font-weight="400" fill-opacity="0.694118">
   <path vector-effect="non-scaling-stroke" d="M-83.5422,-49.3 L83.5422,-49.3 L83.5422,49.3 L-83.5422,49.3 L-83.5422,-49.3" fill-rule="evenodd"/>
  </g>
  <g font-family="Ubuntu" fill="none" stroke-opacity="1" font-size="45.8333" stroke-width="1" font-style="normal" transform="matrix(0.319939,0,0,0.319939,2069.21,1790.84)" stroke="#000000" font-weight="400" stroke-linecap="square" stroke-linejoin="bevel"/>
  <g font-family="Ubuntu" fill="none" stroke-opacity="1" font-size="45.8333" stroke-width="1" font-style="normal" transform="matrix(0.999811,0,0,0.999811,0,0)" stroke="#000000" font-weight="400" stroke-linecap="square" stroke-linejoin="bevel"/>
  <g font-family="Ubuntu" fill="none" stroke-opacity="1" font-size="42" stroke-width="1" font-style="normal" transform="matrix(0.999811,0,0,0.999811,1986.99,1780.85)" stroke="#ffffff" font-weight="400" stroke-linecap="square" stroke-linejoin="bevel">
   <text font-family="Ubuntu" fill="#ffffff" font-size="42" font-style="normal" xml:space="preserve" stroke="none" font-weight="400" x="0" fill-opacity="1" y="0"></text>
  </g>
  <g font-family="Ubuntu" fill="none" stroke-opacity="1" font-size="45.8333" stroke-width="1" font-style="normal" transform="matrix(0.999811,0,0,0.999811,0,0)" stroke="#000000" font-weight="400" stroke-linecap="square" stroke-linejoin="bevel"/>
  <g font-family="Ubuntu" fill="none" stroke-opacity="1" font-size="42" stroke-width="1" font-style="normal" transform="matrix(0.999811,0,0,0.999811,1986.99,1828.84)" stroke="#ffffff" font-weight="400" stroke-linecap="square" stroke-linejoin="bevel">
   <text font-family="Ubuntu" fill="#ffffff" font-size="42" font-style="normal" xml:space="preserve" stroke="none" font-weight="400" x="0" fill-opacity="1" y="0">Soblago</text>
  </g>
  <g font-family="Ubuntu" fill="none" stroke-opacity="1" font-size="45.8333" stroke-width="1" font-style="normal" transform="matrix(0.999811,0,0,0.999811,0,0)" stroke="#000000" font-weight="400" stroke-linecap="square" stroke-linejoin="bevel"/>
  <g font-family="Ubuntu" fill="none" stroke-opacity="1" font-size="45.8333" stroke-width="1" font-style="normal" transform="matrix(0.319939,0,0,0.319939,266.594,1011.27)" stroke="#000000" font-weight="400" stroke-linecap="square" stroke-linejoin="bevel"/>
  <g font-family="Ubuntu" fill="#6d6d6d" font-size="45.8333" font-style="normal" transform="matrix(0.999811,0,0,0.999811,266.594,1011.27)" stroke="none" font-weight="400" fill-opacity="0.694118">
   <path vector-effect="non-scaling-stroke" d="M-60.2844,-49.3 L60.2844,-49.3 L60.2844,49.3 L-60.2844,49.3 L-60.2844,-49.3" fill-rule="evenodd"/>
  </g>
  <g font-family="Ubuntu" fill="none" stroke-opacity="1" font-size="45.8333" stroke-width="1" font-style="normal" transform="matrix(0.319939,0,0,0.319939,266.594,1011.27)" stroke="#000000" font-weight="400" stroke-linecap="square" stroke-linejoin="bevel"/>
  <g font-family="Ubuntu" fill="none" stroke-opacity="1" font-size="45.8333" stroke-width="1" font-style="normal" transform="matrix(0.999811,0,0,0.999811,0,0)" stroke="#000000" font-weight="400" stroke-linecap="square" stroke-linejoin="bevel"/>
  <g font-family="Ubuntu" fill="none" stroke-opacity="1" font-size="42" stroke-width="1" font-style="normal" transform="matrix(0.999811,0,0,0.999811,207.621,1001.28)" stroke="#ffffff" font-weight="400" stroke-linecap="square" stroke-linejoin="bevel">
   <text font-family="Ubuntu" fill="#ffffff" font-size="42" font-style="normal" xml:space="preserve" stroke="none" font-weight="400" x="0" fill-opacity="1" y="0"></text>
  </g>
  <g font-family="Ubuntu" fill="none" stroke-opacity="1" font-size="45.8333" stroke-width="1" font-style="normal" transform="matrix(0.999811,0,0,0.999811,0,0)" stroke="#000000" font-weight="400" stroke-linecap="square" stroke-linejoin="bevel"/>
  <g font-family="Ubuntu" fill="none" stroke-opacity="1" font-size="42" stroke-width="1" font-style="normal" transform="matrix(0.999811,0,0,0.999811,207.621,1049.27)" stroke="#ffffff" font-weight="400" stroke-linecap="square" stroke-linejoin="bevel">
   <text font-family="Ubuntu" fill="#ffffff" font-size="42" font-style="normal" xml:space="preserve" stroke="none" font-weight="400" x="0" fill-opacity="1" y="0">Pskov</text>
  </g>
  <g font-family="Ubuntu" fill="none" stroke-opacity="1" font-size="45.8333" stroke-width="1" font-style="normal" transform="matrix(0.999811,0,0,0.999811,0,0)" stroke="#000000" font-weight="400" stroke-linecap="square" stroke-linejoin="bevel"/>
  <g font-family="Ubuntu" fill="none" stroke-opacity="1" font-size="45.8333" stroke-width="1" font-style="normal" transform="matrix(0.319939,0,0,0.319939,903.372,318.152)" stroke="#000000" font-weight="400" stroke-linecap="square" stroke-linejoin="bevel"/>
  <g font-family="Ubuntu" fill="#6d6d6d" font-size="45.8333" font-style="normal" transform="matrix(0.999811,0,0,0.999811,903.372,318.152)" stroke="none" font-weight="400" fill-opacity="0.694118">
   <path vector-effect="non-scaling-stroke" d="M-47.3391,-49.3 L47.3391,-49.3 L47.3391,49.3 L-47.3391,49.3 L-47.3391,-49.3" fill-rule="evenodd"/>
  </g>
  <g font-family="Ubuntu" fill="none" stroke-opacity="1" font-size="45.8333" stroke-width="1" font-style="normal" transform="matrix(0.319939,0,0,0.319939,903.372,318.152)" stroke="#000000" font-weight="400" stroke-linecap="square" stroke-linejoin="bevel"/>
  <g font-family="Ubuntu" fill="none" stroke-opacity="1" font-size="45.8333" stroke-width="1" font-style="normal" transform="matrix(0.999811,0,0,0.999811,0,0)" stroke="#000000" font-weight="400" stroke-linecap="square" stroke-linejoin="bevel"/>
  <g font-family="Ubuntu" fill="none" stroke-opacity="1" font-size="42" stroke-width="1" font-style="normal" transform="matrix(0.999811,0,0,0.999811,857.341,308.154)" stroke="#ffffff" font-weight="400" stroke-linecap="square" stroke-linejoin="bevel">
   <text font-family="Ubuntu" fill="#ffffff" font-size="42" font-style="normal" xml:space="preserve" stroke="none" font-weight="400" x="0" fill-opacity="1" y="0"></text>
  </g>
  <g font-family="Ubuntu" fill="none" stroke-opacity="1" font-size="45.8333" stroke-width="1" font-style="normal" transform="matrix(0.999811,0,0,0.999811,0,0)" stroke="#000000" font-weight="400" stroke-linecap="square" stroke-linejoin="bevel"/>
  <g font-family="Ubuntu" fill="none" stroke-opacity="1" font-size="42" stroke-width="1" font-style="normal" transform="matrix(0.999811,0,0,0.999811,857.341,356.144)" stroke="#ffffff" font-weight="400" stroke-linecap="square" stroke-linejoin="bevel">
   <text font-family="Ubuntu" fill="#ffffff" font-size="42" font-style="normal" xml:space="preserve" stroke="none" font-weight="400" x="0" fill-opacity="1" y="0">Luga</text>
  </g>
  <g font-family="Ubuntu" fill="none" stroke-opacity="1" font-size="45.8333" stroke-width="1" font-style="normal" transform="matrix(0.999811,0,0,0.999811,0,0)" stroke="#000000" font-weight="400" stroke-linecap="square" stroke-linejoin="bevel"/>
  <g font-family="Ubuntu" fill="none" stroke-opacity="1" font-size="45.8333" stroke-width="1" font-style="normal" transform="matrix(0.319939,0,0,0.319939,913.392,1033.31)" stroke="#000000" font-weight="400" stroke-linecap="square" stroke-linejoin="bevel"/>
  <g font-family="Ubuntu" fill="#6d6d6d" font-size="45.8333" font-style="normal" transform="matrix(0.999811,0,0,0.999811,913.392,1033.31)" stroke="none" font-weight="400" fill-opacity="0.694118">
   <path vector-effect="non-scaling-stroke" d="M-41.1672,-49.3 L41.1672,-49.3 L41.1672,49.3 L-41.1672,49.3 L-41.1672,-49.3" fill-rule="evenodd"/>
  </g>
  <g font-family="Ubuntu" fill="none" stroke-opacity="1" font-size="45.8333" stroke-width="1" font-style="normal" transform="matrix(0.319939,0,0,0.319939,913.392,1033.31)" stroke="#000000" font-weight="400" stroke-linecap="square" stroke-linejoin="bevel"/>
  <g font-family="Ubuntu" fill="none" stroke-opacity="1" font-size="45.8333" stroke-width="1" font-style="normal" transform="matrix(0.999811,0,0,0.999811,0,0)" stroke="#000000" font-weight="400" stroke-linecap="square" stroke-linejoin="bevel"/>
  <g font-family="Ubuntu" fill="none" stroke-opacity="1" font-size="42" stroke-width="1" font-style="normal" transform="matrix(0.999811,0,0,0.999811,873.532,1023.31)" stroke="#ffffff" font-weight="400" stroke-linecap="square" stroke-linejoin="bevel">
   <text font-family="Ubuntu" fill="#ffffff" font-size="42" font-style="normal" xml:space="preserve" stroke="none" font-weight="400" x="0" fill-opacity="1" y="0"></text>
  </g>
  <g font-family="Ubuntu" fill="none" stroke-opacity="1" font-size="45.8333" stroke-width="1" font-style="normal" transform="matrix(0.999811,0,0,0.999811,0,0)" stroke="#000000" font-weight="400" stroke-linecap="square" stroke-linejoin="bevel"/>
  <g font-family="Ubuntu" fill="none" stroke-opacity="1" font-size="42" stroke-width="1" font-style="normal" transform="matrix(0.999811,0,0,0.999811,873.532,1071.3)" stroke="#ffffff" font-weight="400" stroke-linecap="square" stroke-linejoin="bevel">
   <text font-family="Ubuntu" fill="#ffffff" font-size="42" font-style="normal" xml:space="preserve" stroke="none" font-weight="400" x="0" fill-opacity="1" y="0">Dno</text>
  </g>
  <g font-family="Ubuntu" fill="none" stroke-opacity="1" font-size="45.8333" stroke-width="1" font-style="normal" transform="matrix(0.999811,0,0,0.999811,0,0)" stroke="#000000" font-weight="400" stroke-linecap="square" stroke-linejoin="bevel"/>
  <g font-family="Ubuntu" fill="none" stroke-opacity="1" font-size="45.8333" stroke-width="1" font-style="normal" transform="matrix(11.8088,0,0,11.8088,0,0)" stroke="#000000" font-weight="400" stroke-linecap="square" stroke-linejoin="bevel"/>
  <g font-family="Ubuntu" fill="none" stroke-opacity="1" font-size="45.8333" stroke-width="1" font-style="normal" transform="matrix(11.8088,0,0,11.8088,0,0)" stroke="#000000" font-weight="400" stroke-linecap="square" stroke-linejoin="bevel"/>
  <g font-family="Ubuntu" fill="none" stroke-opacity="1" font-size="45.8333" stroke-width="1" font-style="normal" transform="matrix(11.8088,0,0,11.8088,0,0)" stroke="#000000" font-weight="400" stroke-linecap="square" stroke-linejoin="bevel"/>
  <g font-family="Ubuntu" fill="none" stroke-opacity="0.184314" font-size="45.8333" stroke-width="3.54331" font-style="normal" transform="matrix(0.999811,0,0,0.999811,0,0)" stroke="#000000" font-weight="400" stroke-linecap="butt" stroke-linejoin="bevel">
   <path vector-effect="none" d="M23.6644,0 L23.6644,2393.22" fill-rule="evenodd"/>
   <path vector-effect="none" d="M93.6465,0 L93.6465,2393.22" fill-rule="evenodd"/>
   <path vector-effect="none" d="M163.629,0 L163.629,2393.22" fill-rule="evenodd"/>
   <path vector-effect="none" d="M233.611,0 L233.611,2393.22" fill-rule="evenodd"/>
   <path vector-effect="none" d="M303.593,0 L303.593,2393.22" fill-rule="evenodd"/>
   <path vector-effect="none" d="M373.575,0 L373.575,2393.22" fill-rule="evenodd"/>
   <path vector-effect="none" d="M443.557,0 L443.557,2393.22" fill-rule="evenodd"/>
   <path vector-effect="none" d="M513.539,0 L513.539,2393.22" fill-rule="evenodd"/>
   <path vector-effect="none" d="M583.521,0 L583.521,2393.22" fill-rule="evenodd"/>
   <path vector-effect="none" d="M653.503,0 L653.503,2393.22" fill-rule="evenodd"/>
   <path vector-effect="none" d="M723.485,0 L723.485,2393.22" fill-rule="evenodd"/>
   <path vector-effect="none" d="M793.467,0 L793.467,2393.22" fill-rule="evenodd"/>
   <path vector-effect="none" d="M863.45,0 L863.45,2393.22" fill-rule="evenodd"/>
   <path vector-effect="none" d="M933.432,0 L933.432,2393.22" fill-rule="evenodd"/>
   <path vector-effect="none" d="M1003.41,0 L1003.41,2393.22" fill-rule="evenodd"/>
   <path vector-effect="none" d="M1073.4,0 L1073.4,2393.22" fill-rule="evenodd"/>
   <path vector-effect="none" d="M1143.38,0 L1143.38,2393.22" fill-rule="evenodd"/>
   <path vector-effect="none" d="M1213.36,0 L1213.36,2393.22" fill-rule="evenodd"/>
   <path vector-effect="none" d="M1283.34,0 L1283.34,2393.22" fill-rule="evenodd"/>
   <path vector-effect="none" d="M1353.32,0 L1353.32,2393.22" fill-rule="evenodd"/>
   <path vector-effect="none" d="M1423.31,0 L1423.31,2393.22" fill-rule="evenodd"/>
   <path vector-effect="none" d="M1493.29,0 L1493.29,2393.22" fill-rule="evenodd"/>
   <path vector-effect="none" d="M1563.27,0 L1563.27,2393.22" fill-rule="evenodd"/>
   <path vector-effect="none" d="M1633.25,0 L1633.25,2393.22" fill-rule="evenodd"/>
   <path vector-effect="none" d="M1703.23,0 L1703.23,2393.22" fill-rule="evenodd"/>
   <path vector-effect="none" d="M1773.22,0 L1773.22,2393.22" fill-rule="evenodd"/>
   <path vector-effect="none" d="M1843.2,0 L1843.2,2393.22" fill-rule="evenodd"/>
   <path vector-effect="none" d="M1913.18,0 L1913.18,2393.22" fill-rule="evenodd"/>
   <path vector-effect="none" d="M1983.16,0 L1983.16,2393.22" fill-rule="evenodd"/>
   <path vector-effect="none" d="M2053.15,0 L2053.15,2393.22" fill-rule="evenodd"/>
   <path vector-effect="none" d="M2123.13,0 L2123.13,2393.22" fill-rule="evenodd"/>
   <path vector-effect="none" d="M2193.11,0 L2193.11,2393.22" fill-rule="evenodd"/>
   <path vector-effect="none" d="M2263.09,0 L2263.09,2393.22" fill-rule="evenodd"/>
   <path vector-effect="none" d="M2333.07,0 L2333.07,2393.22" fill-rule="evenodd"/>
   <path vector-effect="none" d="M2403.06,0 L2403.06,2393.22" fill-rule="evenodd"/>
   <path vector-effect="none" d="M2473.04,0 L2473.04,2393.22" fill-rule="evenodd"/>
   <path vector-effect="none" d="M0,2369.76 L2497.47,2369.76" fill-rule="evenodd"/>
   <path vector-effect="none" d="M0,2299.78 L2497.47,2299.78" fill-rule="evenodd"/>
   <path vector-effect="none" d="M0,2229.8 L2497.47,2229.8" fill-rule="evenodd"/>
   <path vector-effect="none" d="M0,2159.81 L2497.47,2159.81" fill-rule="evenodd"/>
   <path vector-effect="none" d="M0,2089.83 L2497.47,2089.83" fill-rule="evenodd"/>
   <path vector-effect="none" d="M0,2019.85 L2497.47,2019.85" fill-rule="evenodd"/>
   <path vector-effect="none" d="M0,1949.87 L2497.47,1949.87" fill-rule="evenodd"/>
   <path vector-effect="none" d="M0,1879.89 L2497.47,1879.89" fill-rule="evenodd"/>
   <path vector-effect="none" d="M0,1809.9 L2497.47,1809.9" fill-rule="evenodd"/>
   <path vector-effect="none" d="M0,1739.92 L2497.47,1739.92" fill-rule="evenodd"/>
   <path vector-effect="none" d="M0,1669.94 L2497.47,1669.94" fill-rule="evenodd"/>
   <path vector-effect="none" d="M0,1599.96 L2497.47,1599.96" fill-rule="evenodd"/>
   <path vector-effect="none" d="M0,1529.98 L2497.47,1529.98" fill-rule="evenodd"/>
   <path vector-effect="none" d="M0,1459.99 L2497.47,1459.99" fill-rule="evenodd"/>
   <path vector-effect="none" d="M0,1390.01 L2497.47,1390.01" fill-rule="evenodd"/>
   <path vector-effect="none" d="M0,1320.03 L2497.47,1320.03" fill-rule="evenodd"/>
   <path vector-effect="none" d="M0,1250.05 L2497.47,1250.05" fill-rule="evenodd"/>
   <path vector-effect="none" d="M0,1180.07 L2497.47,1180.07" fill-rule="evenodd"/>
   <path vector-effect="none" d="M0,1110.08 L2497.47,1110.08" fill-rule="evenodd"/>
   <path vector-effect="none" d="M0,1040.1 L2497.47,1040.1" fill-rule="evenodd"/>
   <path vector-effect="none" d="M0,970.119 L2497.47,970.119" fill-rule="evenodd"/>
   <path vector-effect="none" d="M0,900.137 L2497.47,900.137" fill-rule="evenodd"/>
   <path vector-effect="none" d="M0,830.155 L2497.47,830.155" fill-rule="evenodd"/>
   <path vector-effect="none" d="M0,760.173 L2497.47,760.173" fill-rule="evenodd"/>
   <path vector-effect="none" d="M0,690.191 L2497.47,690.191" fill-rule="evenodd"/>
   <path vector-effect="none" d="M0,620.208 L2497.47,620.208" fill-rule="evenodd"/>
   <path vector-effect="none" d="M0,550.226 L2497.47,550.226" fill-rule="evenodd"/>
   <path vector-effect="none" d="M0,480.244 L2497.47,480.244" fill-rule="evenodd"/>
   <path vector-effect="none" d="M0,410.262 L2497.47,410.262" fill-rule="evenodd"/>
   <path vector-effect="none" d="M0,340.28 L2497.47,340.28" fill-rule="evenodd"/>
   <path vector-effect="none" d="M0,270.298 L2497.47,270.298" fill-rule="evenodd"/>
   <path vector-effect="none" d="M0,200.316 L2497.47,200.316" fill-rule="evenodd"/>
   <path vector-effect="none" d="M0,130.334 L2497.47,130.334" fill-rule="evenodd"/>
   <path vector-effect="none" d="M0,60.3516 L2497.47,60.3516" fill-rule="evenodd"/>
  </g>
  <g font-family="Ubuntu" fill="none" stroke-opacity="0.184314" font-size="45.8333" stroke-width="3.54331" font-style="normal" transform="matrix(0.999811,0,0,0.999811,0,0)" stroke="#000000" font-weight="400" stroke-linecap="butt" stroke-linejoin="bevel"/>
  <g font-family="Ubuntu" fill="none" stroke-opacity="0.184314" font-size="45.8333" stroke-width="3.54331" font-style="normal" transform="matrix(11.8088,0,0,11.8088,0,0)" stroke="#000000" font-weight="400" stroke-linecap="butt" stroke-linejoin="bevel"/>
  <g font-family="Ubuntu" fill="none" stroke-opacity="1" font-size="45.8333" stroke-width="1" font-style="normal" transform="matrix(11.8088,0,0,11.8088,0,0)" stroke="#000000" font-weight="400" stroke-linecap="square" stroke-linejoin="bevel"/>
  <g font-family="Ubuntu" fill="none" stroke-opacity="1" font-size="45.8333" stroke-width="1" font-style="normal" transform="matrix(11.8088,0,0,11.8088,0,0)" stroke="#000000" font-weight="400" stroke-linecap="square" stroke-linejoin="bevel"/>
  <g font-family="Ubuntu" fill="none" stroke-opacity="1" font-size="45.8333" stroke-width="1" font-style="normal" transform="matrix(1,0,0,1,0,0)" stroke="#000000" font-weight="400" stroke-linecap="square" stroke-linejoin="bevel"/>
  <g font-family="Ubuntu" fill="none" stroke-opacity="1" font-size="45.8333" stroke-width="1" font-style="normal" transform="matrix(11.8088,0,0,11.8088,0,0)" stroke="#000000" font-weight="400" stroke-linecap="square" stroke-linejoin="bevel"/>
  <g font-family="Ubuntu" fill="none" stroke-opacity="1" font-size="45.8333" stroke-width="1" font-style="normal" transform="matrix(11.8088,0,0,11.8088,0,0)" stroke="#000000" font-weight="400" stroke-linecap="square" stroke-linejoin="bevel"/>
  <g font-family="Ubuntu" fill="none" stroke-opacity="1" font-size="45.8333" stroke-width="1" font-style="normal" transform="matrix(11.8088,0,0,11.8088,0,2240.35)" stroke="#000000" font-weight="400" stroke-linecap="square" stroke-linejoin="bevel"/>
  <g font-family="Ubuntu" fill="none" stroke-opacity="1" font-size="45.8333" stroke-width="1" font-style="normal" transform="matrix(0.999811,0,0,0.999811,0,2240.35)" stroke="#000000" font-weight="400" stroke-linecap="square" stroke-linejoin="bevel"/>
  <g font-family="Ubuntu" fill="none" stroke-miterlimit="2" stroke-opacity="1" font-size="45.8333" stroke-width="3.54331" font-style="normal" transform="matrix(0.999811,0,0,0.999811,0,2240.35)" stroke="#000000" font-weight="400" stroke-linecap="square" stroke-linejoin="miter">
   <path vector-effect="none" d="M29.4481,129.677 L29.4481,94.2441" fill-rule="evenodd"/>
   <path vector-effect="none" d="M99.4302,129.677 L99.4302,94.2441" fill-rule="evenodd"/>
   <path vector-effect="none" d="M29.4481,111.961 L99.4302,111.961" fill-rule="evenodd"/>
  </g>
  <g font-family="Ubuntu" fill="none" stroke-opacity="1" font-size="45.8333" stroke-width="1" font-style="normal" transform="matrix(0.999811,0,0,0.999811,0,2240.35)" stroke="#000000" font-weight="400" stroke-linecap="square" stroke-linejoin="bevel"/>
  <g font-family="Ubuntu" fill="none" stroke-opacity="1" font-size="50" stroke-width="1" font-style="normal" transform="matrix(0.999811,0,0,0.999811,15.3514,2299.15)" stroke="#000000" font-weight="400" stroke-linecap="square" stroke-linejoin="bevel">
   <text font-family="Ubuntu" fill="#000000" font-size="50" font-style="normal" xml:space="preserve" stroke="none" font-weight="400" x="0" fill-opacity="1" y="0">0</text>
  </g>
  <g font-family="Ubuntu" fill="none" stroke-opacity="1" font-size="45.8333" stroke-width="1" font-style="normal" transform="matrix(0.999811,0,0,0.999811,0,2240.35)" stroke="#000000" font-weight="400" stroke-linecap="square" stroke-linejoin="bevel"/>
  <g font-family="Ubuntu" fill="none" stroke-opacity="1" font-size="50" stroke-width="1" font-style="normal" transform="matrix(0.999811,0,0,0.999811,71.2292,2299.15)" stroke="#000000" font-weight="400" stroke-linecap="square" stroke-linejoin="bevel">
   <text font-family="Ubuntu" fill="#000000" font-size="50" font-style="normal" xml:space="preserve" stroke="none" font-weight="400" x="0" fill-opacity="1" y="0">10 km</text>
  </g>
  <g font-family="Ubuntu" fill="none" stroke-opacity="1" font-size="45.8333" stroke-width="1" font-style="normal" transform="matrix(0.999811,0,0,0.999811,0,2240.35)" stroke="#000000" font-weight="400" stroke-linecap="square" stroke-linejoin="bevel"/>
  <g font-family="Ubuntu" fill="none" stroke-opacity="1" font-size="45.8333" stroke-width="1" font-style="normal" transform="matrix(0.999811,0,0,0.999811,0,2240.35)" stroke="#000000" font-weight="400" stroke-linecap="square" stroke-linejoin="bevel"/>
  <g font-family="Ubuntu" fill="none" stroke-opacity="1" font-size="45.8333" stroke-width="1" font-style="normal" transform="matrix(11.8088,0,0,11.8088,0,2240.35)" stroke="#000000" font-weight="400" stroke-linecap="square" stroke-linejoin="bevel"/>
  <g font-family="Ubuntu" fill="none" stroke-opacity="1" font-size="45.8333" stroke-width="1" font-style="normal" transform="matrix(11.8088,0,0,11.8088,0,2240.35)" stroke="#000000" font-weight="400" stroke-linecap="square" stroke-linejoin="bevel"/>
  <g font-family="Ubuntu" fill="none" stroke-opacity="1" font-size="45.8333" stroke-width="1" font-style="normal" transform="matrix(11.8088,0,0,11.8088,1724.16,2209.17)" stroke="#000000" font-weight="400" stroke-linecap="square" stroke-linejoin="bevel"/>
  <g font-family="Ubuntu" fill="none" stroke-opacity="1" font-size="45.8333" stroke-width="1" font-style="normal" transform="matrix(0.999811,0,0,0.999811,1724.16,2209.17)" stroke="#000000" font-weight="400" stroke-linecap="square" stroke-linejoin="bevel"/>
  <g font-family="Ubuntu" fill="none" stroke-opacity="1" font-size="417" stroke-width="1" font-style="normal" transform="matrix(0.0999811,0,0,0.0999811,1910.95,2382.04)" stroke="#000000" font-weight="400" stroke-linecap="square" stroke-linejoin="bevel">
   <text font-family="Ubuntu" fill="#000000" font-size="417" font-style="normal" xml:space="preserve" stroke="none" font-weight="400" x="0" fill-opacity="1" y="0">basemap data: Openstreetmap</text>
  </g>
  <g font-family="Ubuntu" fill="none" stroke-opacity="1" font-size="45.8333" stroke-width="1" font-style="normal" transform="matrix(0.999811,0,0,0.999811,1724.16,2209.17)" stroke="#000000" font-weight="400" stroke-linecap="square" stroke-linejoin="bevel"/>
  <g font-family="Ubuntu" fill="none" stroke-opacity="1" font-size="45.8333" stroke-width="1" font-style="normal" transform="matrix(0.999811,0,0,0.999811,1724.16,2209.17)" stroke="#000000" font-weight="400" stroke-linecap="square" stroke-linejoin="bevel"/>
  <g font-family="Ubuntu" fill="none" stroke-opacity="1" font-size="45.8333" stroke-width="1" font-style="normal" transform="matrix(11.8088,0,0,11.8088,1724.16,2209.17)" stroke="#000000" font-weight="400" stroke-linecap="square" stroke-linejoin="bevel"/>
  <g font-family="Ubuntu" fill="none" stroke-opacity="1" font-size="45.8333" stroke-width="1" font-style="normal" transform="matrix(11.8088,0,0,11.8088,1724.16,2209.17)" stroke="#000000" font-weight="400" stroke-linecap="square" stroke-linejoin="bevel"/>
  <g font-family="Ubuntu" fill="none" stroke-opacity="1" font-size="45.8333" stroke-width="1" font-style="normal" transform="matrix(11.8088,0,0,11.8088,0,0)" stroke="#000000" font-weight="400" stroke-linecap="square" stroke-linejoin="bevel"/>
  <g font-family="Ubuntu" fill="none" stroke-opacity="1" font-size="45.8333" stroke-width="1" font-style="normal" transform="matrix(11.8088,0,0,11.8088,0,0)" stroke="#000000" font-weight="400" stroke-linecap="square" stroke-linejoin="bevel"/>
  <g font-family="Ubuntu" fill="none" stroke-opacity="1" font-size="45.8333" stroke-width="1" font-style="normal" transform="matrix(1,0,0,1,0,0)" stroke="#000000" font-weight="400" stroke-linecap="square" stroke-linejoin="bevel"/>
 </g>
 <metadata>
  <rdf:RDF xmlns:rdf="http://www.w3.org/1999/02/22-rdf-syntax-ns#" xmlns:dc="http://purl.org/dc/elements/1.1/" xmlns:rdfs="http://www.w3.org/2000/01/rdf-schema#">
   <rdf:Description dc:title="" dc:date="2000-01-01T00:00:00" dc:identifier="" dc:description="" dc:format="image/svg+xml">
    <dc:creator>
     <rdf:Bag>
      <rdf:li></rdf:li>
     </rdf:Bag>
    </dc:creator>
    <dc:publisher>
     <rdf:Bag>
      <rdf:li>QGIS 3.24.0-Tisler</rdf:li>
     </rdf:Bag>
    </dc:publisher>
    <dc:subject>
     <rdf:Bag/>
    </dc:subject>
   </rdf:Description>
   <cc:Work rdf:about="">
    <dc:format>image/svg+xml</dc:format>
    <dc:title></dc:title>
    <dc:date>2000-01-01T00:00:00</dc:date>
    <dc:identifier></dc:identifier>
    <dc:description></dc:description>
    <dc:creator>
     <cc:Agent>
      <dc:title></dc:title>
     </cc:Agent>
    </dc:creator>
    <dc:publisher>
     <cc:Agent>
      <dc:title>QGIS 3.24.0-Tisler</dc:title>
     </cc:Agent>
    </dc:publisher>
   </cc:Work>
  </rdf:RDF>
 </metadata>
</svg>
