<?xml version='1.0' encoding='UTF-8' standalone='no'?>
<svg viewBox="0 0 2497 2393" baseProfile="tiny" version="1.2" xmlns:xlink="http://www.w3.org/1999/xlink" xmlns="http://www.w3.org/2000/svg" xmlns:cc="http://creativecommons.org/ns#" height="202.607mm" width="211.413mm">
 <defs/>
 <g fill="none" stroke-width="1" stroke="black" stroke-linecap="square" fill-rule="evenodd" stroke-linejoin="bevel">
  <g font-family="Ubuntu" fill="none" stroke-opacity="1" font-size="45.8333" stroke-width="1" font-style="normal" transform="matrix(1,0,0,1,0,0)" stroke="#000000" font-weight="400" stroke-linecap="square" stroke-linejoin="bevel"/>
  <g font-family="Ubuntu" fill="none" stroke-opacity="1" font-size="45.8333" stroke-width="1" font-style="normal" transform="matrix(1,0,0,1,0,0)" stroke="#000000" font-weight="400" stroke-linecap="square" stroke-linejoin="bevel"/>
  <g font-family="Ubuntu" fill="none" stroke-opacity="1" font-size="45.8333" stroke-width="1" font-style="normal" transform="matrix(11.8088,0,0,11.8088,0,0)" stroke="#000000" font-weight="400" stroke-linecap="square" stroke-linejoin="bevel"/>
  <g font-family="Ubuntu" fill="none" stroke-opacity="1" font-size="45.8333" stroke-width="1" font-style="normal" transform="matrix(0.999811,0,0,0.999811,0,0)" stroke="#000000" font-weight="400" stroke-linecap="square" stroke-linejoin="bevel"/>
  <g font-family="Ubuntu" fill="#ffffff" font-size="45.8333" font-style="normal" transform="matrix(0.999811,0,0,0.999811,0,0)" stroke="none" font-weight="400" fill-opacity="1">
   <path vector-effect="none" d="M-2,-2 L2500,-2 L2500,2396 L-2,2396 L-2,-2" fill-rule="evenodd"/>
  </g>
  <g font-family="Ubuntu" fill="none" stroke-opacity="1" font-size="45.8333" stroke-width="1" font-style="normal" transform="matrix(0.999811,0,0,0.999811,0,0)" stroke="#000000" font-weight="400" stroke-linecap="square" stroke-linejoin="bevel"/>
  <g font-family="Ubuntu" fill="none" stroke-opacity="1" font-size="45.8333" stroke-width="1" font-style="normal" transform="matrix(11.8088,0,0,11.8088,0,0)" stroke="#000000" font-weight="400" stroke-linecap="square" stroke-linejoin="bevel"/>
  <g font-family="Ubuntu" fill="none" stroke-opacity="1" font-size="45.8333" stroke-width="1" font-style="normal" transform="matrix(11.8088,0,0,11.8088,0,0)" stroke="#000000" font-weight="400" stroke-linecap="square" stroke-linejoin="bevel"/>
  <g font-family="Ubuntu" fill="none" stroke-opacity="1" font-size="45.8333" stroke-width="1" font-style="normal" transform="matrix(11.8088,0,0,11.8088,0,0)" stroke="#000000" font-weight="400" stroke-linecap="square" stroke-linejoin="bevel"/>
  <g font-family="Ubuntu" fill="none" stroke-opacity="1" font-size="45.8333" stroke-width="1" font-style="normal" transform="matrix(11.8088,0,0,11.8088,0,0)" stroke="#000000" font-weight="400" stroke-linecap="square" stroke-linejoin="bevel"/>
  <g font-family="Ubuntu" fill="none" stroke-opacity="1" font-size="45.8333" stroke-width="1" font-style="normal" transform="matrix(11.8088,0,0,11.8088,0,0)" stroke="#000000" font-weight="400" stroke-linecap="square" stroke-linejoin="bevel"/>
  <g font-family="Ubuntu" fill="#1a1a1a" font-size="45.8333" font-style="normal" transform="matrix(11.8088,0,0,11.8088,0,0)" stroke="none" font-weight="400" fill-opacity="1">
   <path vector-effect="none" d="M0,0 L211.453,0 L211.453,202.626 L0,202.626 L0,0" fill-rule="evenodd"/>
  </g>
  <g font-family="Ubuntu" fill="none" stroke-opacity="1" font-size="45.8333" stroke-width="1" font-style="normal" transform="matrix(11.8088,0,0,11.8088,0,0)" stroke="#000000" font-weight="400" stroke-linecap="square" stroke-linejoin="bevel"/>
  <g font-family="Ubuntu" fill="none" stroke-opacity="1" font-size="45.8333" stroke-width="1" font-style="normal" transform="matrix(11.8088,0,0,11.8088,0,0)" stroke="#000000" font-weight="400" stroke-linecap="square" stroke-linejoin="bevel"/>
  <g font-family="Ubuntu" fill="#000000" font-size="45.8333" font-style="normal" transform="matrix(0.999811,0,0,0.999811,0,0)" stroke="none" font-weight="400" fill-opacity="0">
   <rect x="0" height="2393" y="0" width="2497"/>
  </g>
  <g font-family="Ubuntu" fill="none" stroke-opacity="1" font-size="45.8333" stroke-width="1" font-style="normal" transform="matrix(0.999811,0,0,0.999811,0,0)" stroke="#000000" font-weight="400" stroke-linecap="square" stroke-linejoin="bevel"/>
  <g font-family="Ubuntu" fill="#fff5de" font-size="45.8333" font-style="normal" transform="matrix(0.999811,0,0,0.999811,0,0)" stroke="none" font-weight="400" fill-opacity="1">
   <path vector-effect="none" d="M-257.151,2676.81 L-255.734,-243.107 L2737.41,-293.917 L2836.62,2625.76 L-257.151,2676.81" fill-rule="evenodd"/>
  </g>
  <g font-family="Ubuntu" fill="none" stroke-opacity="1" font-size="45.8333" stroke-width="1" font-style="normal" transform="matrix(0.999811,0,0,0.999811,0,0)" stroke="#000000" font-weight="400" stroke-linecap="square" stroke-linejoin="bevel"/>
  <g font-family="Ubuntu" fill="none" stroke-opacity="1" font-size="45.8333" stroke-width="7.79528" font-style="normal" transform="matrix(0.999811,0,0,0.999811,0,0)" stroke="#000000" font-weight="400" stroke-linecap="round" stroke-linejoin="round">
   <path vector-effect="none" d="M1452.27,175.22 L1460.99,166.662 L1460.12,155.52 L1452.47,137.775 L1441.39,136.882 L1434.82,124.825 L1432.12,97.7247 L1433.59,78.8499 L1436.09,58.9523 L1441.45,51.4645 L1448.8,26.1127 L1459.94,10.8703 L1468.04,7.96426 L1472.55,-4.60426 L1458.23,-25.0807 L1450.85,-39.3446 L1446.48,-55.7455 L1447.64,-75.7185 L1445.1,-83.3612 L1445.09,-97.6181 L1448.43,-109.12 L1446.41,-122.073 L1451.92,-138.217 L1468.69,-138.818 L1472.97,-143.926 L1470.51,-150.614 L1457.55,-154.256 L1454.95,-158.484 L1463.5,-173.018 L1473.24,-195.86 L1476.4,-221.322 L1486.54,-226.103 L1490.97,-231.564 L1489.21,-244.392 L1490.22,-260.033" fill-rule="evenodd"/>
  </g>
  <g font-family="Ubuntu" fill="none" stroke-opacity="1" font-size="45.8333" stroke-dashoffset="0" stroke-width="3.89764" font-style="normal" transform="matrix(0.999811,0,0,0.999811,0,0)" stroke="#ffffff" font-weight="400" stroke-linecap="square" stroke-dasharray="35.4331,35.4331" stroke-linejoin="bevel">
   <path vector-effect="none" d="M1452.27,175.22 L1460.99,166.662 L1460.12,155.52 L1452.47,137.775 L1441.39,136.882 L1434.82,124.825 L1432.12,97.7247 L1433.59,78.8499 L1436.09,58.9523 L1441.45,51.4645 L1448.8,26.1127 L1459.94,10.8703 L1468.04,7.96426 L1472.55,-4.60426 L1458.23,-25.0807 L1450.85,-39.3446 L1446.48,-55.7455 L1447.64,-75.7185 L1445.1,-83.3612 L1445.09,-97.6181 L1448.43,-109.12 L1446.41,-122.073 L1451.92,-138.217 L1468.69,-138.818 L1472.97,-143.926 L1470.51,-150.614 L1457.55,-154.256 L1454.95,-158.484 L1463.5,-173.018 L1473.24,-195.86 L1476.4,-221.322 L1486.54,-226.103 L1490.97,-231.564 L1489.21,-244.392 L1490.22,-260.033" fill-rule="evenodd"/>
  </g>
  <g font-family="Ubuntu" fill="none" stroke-opacity="1" font-size="45.8333" stroke-width="4.25197" font-style="normal" transform="matrix(0.999811,0,0,0.999811,0,0)" stroke="#232323" font-weight="400" stroke-linecap="square" stroke-linejoin="bevel">
   <path vector-effect="none" d="M964.823,1668.98 L974.295,1670.87 L978.654,1667.54 L992.105,1668.84 L1007.52,1665.81 L1018.77,1683.48 L1028.02,1689 L1030.28,1696.94 L1040.85,1706.74 L1045,1707.67 L1052.04,1716 L1059.31,1715.35" fill-rule="evenodd"/>
   <path vector-effect="none" d="M964.823,1668.98 L964.837,1672.59 L960.364,1675.87 L957.424,1686.33 L945.958,1737.74 L936.909,1747.36 L936.175,1788.26 L931.015,1792.81 L923.319,1838.67 L916.526,1856.89 L916.161,1863.62 L913.99,1866.43 L903.343,1864.82 L899.334,1868.32 L885.396,1906.79 L886.241,1924.21 L878.984,1927.71 L862.047,1958.19 L858.089,1974.06 L843.446,2001.56 L838.728,2014.56 L837.2,2038.14 L838.354,2044.25 L826.362,2052.84 L813.729,2092.48 L820.284,2112.93 L809.674,2116.97 L805.059,2128.14 L793.532,2163.39 L794.57,2167.34 L798.216,2170.18 L798.557,2176.39 L787.249,2183.45 L775.198,2205.3 L768.468,2234.75 L771.763,2255 L766.887,2268.22 L770.894,2274.85 L764.152,2282.94 L762.732,2293.92 L764.248,2316.9 L739.904,2351.45 L731.785,2356.37" fill-rule="evenodd"/>
  </g>
  <g font-family="Ubuntu" fill="none" stroke-opacity="1" font-size="45.8333" stroke-width="7.79528" font-style="normal" transform="matrix(0.999811,0,0,0.999811,0,0)" stroke="#000000" font-weight="400" stroke-linecap="round" stroke-linejoin="round">
   <path vector-effect="none" d="M971.49,1624.4 L968.809,1634.13 L964.156,1635.45 L959.586,1653.38 L964.823,1668.98" fill-rule="evenodd"/>
   <path vector-effect="none" d="M1754.72,1751.34 L1752.94,1738.8 L1755.49,1727.98 L1752.39,1711.05 L1751.18,1639.21 L1756.3,1612.77 L1750.01,1581.41 L1752.3,1574.85 L1774.24,1539.89 L1779.28,1429.2 L1765.72,1310.73 L1766.95,1277.54 L1778.56,1229.76 L1780,1206.69 L1783.56,1198.35 L1782.48,1189.34 L1786.32,1173.83 L1797.3,1156.93 L1809.02,1151.73 L1813.45,1144.66 L1814.63,1127.97 L1817.62,1121.37 L1819.74,1106.41 L1817.76,1096.87 L1820.93,1088.68 L1807.34,1080.05 L1734.04,1008.35 L1712.53,979.304 L1677.09,840.778 L1677.83,828.387 L1625.91,748.695 L1590.25,675.596 L1562.98,611.452 L1550.12,604.736 L1552.55,588.674 L1535.03,530.077 L1529.38,522.907 L1513.86,455.596 L1503.31,427.532 L1493.29,372.793 L1489.53,279.742 L1470.97,261.143 L1453.55,256.637 L1447.64,242.697 L1433.59,240.396 L1423.63,229.328 L1427.64,210.302 L1440.27,189.952 L1452.21,175.361 L1452.1,171.248 L1448.94,169.558 L1426.82,171.387 L1414.79,177.574 L1404.26,174.443 L1396.14,179.802 L1380.23,178.136 L1374.16,171.925 L1370.7,153.762 L1358.05,151.686 L1355.57,141.972 L1351.59,134.741 L1345.86,130.185 L1339.81,117.134 L1329.77,117.328 L1319.86,110.944 L1316.47,105.576 L1310.26,105.871 L1303.02,101.376 L1294.1,100.69 L1287.43,103.106 L1281.4,99.5395 L1277.57,94.4843 L1275.86,84.0745 L1269.19,78.2031 L1265.35,67.4946 L1258.28,58.3295 L1244.02,66.216 L1234.33,76.1836 L1204.58,73.5129 L1192.19,83.2014 L1183.27,78.6367 L1175.22,79.15 L1165.1,75.4209 L1154.94,67.54 L1151.23,68.4871 L1147.36,78.3306 L1121.77,108.017 L1109.49,132.41 L1083.02,168.18 L1076.51,186.291 L1056.81,205.617 L1044.8,212.38 L1035.31,221.633 L1030.11,232.261 L1036.2,242.452 L1033.98,250.684 L1019.78,261.201 L1017.5,272.26 L1007.03,287.149 L1005.29,293.822 L1006.32,297.082 L1014.67,304.066 L1020.61,319.214 L1021.73,330.506 L1025.19,340.769 L1017.24,354.296 L1023.03,359.631 L1028.99,370.003 L1029.53,375.344 L1026.75,382.261 L1032.68,389.083 L1032.96,401.594 L1021.02,414.029 L1019.61,421.9 L1017.13,424.43 L1000.76,426.728 L988.591,421.47 L976.087,420.232 L967.285,421.976 L963.959,425.508 L959.879,450.179 L951.98,468.919 L949.872,479.049 L935.606,494.877 L932.402,504.873 L921.05,519.401 L916.205,549.645 L917.908,575.279 L912.42,589.768 L915.164,604.475 L911.322,609.875 L897.061,619.742 L890.478,643.533 L879.086,653.112 L871.381,663.772 L873.468,677.763 L878.991,691.341 L877.082,711.161 L889.283,721.999 L881.521,729.681 L869.781,733.826 L873.656,765.945 L876.745,771.668 L877.211,786.29 L870.595,812.031 L867.11,819.15 L874.302,836.613 L876.2,846.216 L874.286,852.884 L873.261,875.063 L880.004,928.569 L883.026,943.288 L889.173,953.678 L890.437,971.935 L886.232,978.659 L903.499,1030.19 L901.443,1041.77 L919.757,1078.55 L939.869,1129.16 L944.282,1161.36 L940.926,1199.37 L937.377,1205.83 L942.902,1227.17 L940.408,1244.77 L982.879,1370.7 L983.335,1378.11 L978.732,1390.63 L979.062,1396.5 L981.372,1403.05 L989.147,1413.1 L991.624,1427.23 L988.5,1439.58 L992.219,1462.67 L987.758,1475.6 L987.264,1484.76 L988.1,1491.43 L991.731,1496.66 L990.627,1505.95 L995.302,1516.84 L990.723,1522.75 L989.236,1530.05 L991.594,1563.92 L984.214,1580.19 L986.199,1592.57 L982.815,1601.45 L981.825,1613.11 L979.057,1618.25 L971.49,1624.4" fill-rule="evenodd"/>
   <path vector-effect="none" d="M1754.72,1751.34 L1760.48,1796.05 L1768.45,1820.79 L1771.55,1841.58 L1779.09,1867.21 L1778.35,1875.65 L1783.78,1909.4 L1782.75,1913.51 L1762.63,1931.96 L1756.42,1942.03 L1757.91,1951.45 L1768.93,1979.17 L1765.18,1990.6 L1772.17,2042.21 L1772.21,2067.41 L1775.56,2075.09 L1772.23,2089.95 L1772.15,2103.22 L1775.67,2115.42 L1772.6,2127.43 L1777.33,2140.04 L1772.26,2154.46 L1772.96,2164.51 L1775.51,2179.4 L1782.06,2187.58 L1781.65,2204.07 L1789.39,2212.31 L1790.36,2220.1 L1795.26,2228.45 L1792.18,2238.83 L1792.19,2246.01 L1798.07,2260.74 L1808.57,2272.14 L1806.24,2284.84 L1811,2296.05 L1817.61,2302.04 L1819.03,2309.02" fill-rule="evenodd"/>
  </g>
  <g font-family="Ubuntu" fill="none" stroke-opacity="1" font-size="45.8333" stroke-dashoffset="0" stroke-width="3.89764" font-style="normal" transform="matrix(0.999811,0,0,0.999811,0,0)" stroke="#ffffff" font-weight="400" stroke-linecap="square" stroke-dasharray="35.4331,35.4331" stroke-linejoin="bevel">
   <path vector-effect="none" d="M971.49,1624.4 L968.809,1634.13 L964.156,1635.45 L959.586,1653.38 L964.823,1668.98" fill-rule="evenodd"/>
   <path vector-effect="none" d="M1754.72,1751.34 L1752.94,1738.8 L1755.49,1727.98 L1752.39,1711.05 L1751.18,1639.21 L1756.3,1612.77 L1750.01,1581.41 L1752.3,1574.85 L1774.24,1539.89 L1779.28,1429.2 L1765.72,1310.73 L1766.95,1277.54 L1778.56,1229.76 L1780,1206.69 L1783.56,1198.35 L1782.48,1189.34 L1786.32,1173.83 L1797.3,1156.93 L1809.02,1151.73 L1813.45,1144.66 L1814.63,1127.97 L1817.62,1121.37 L1819.74,1106.41 L1817.76,1096.87 L1820.93,1088.68 L1807.34,1080.05 L1734.04,1008.35 L1712.53,979.304 L1677.09,840.778 L1677.83,828.387 L1625.91,748.695 L1590.25,675.596 L1562.98,611.452 L1550.12,604.736 L1552.55,588.674 L1535.03,530.077 L1529.38,522.907 L1513.86,455.596 L1503.31,427.532 L1493.29,372.793 L1489.53,279.742 L1470.97,261.143 L1453.55,256.637 L1447.64,242.697 L1433.59,240.396 L1423.63,229.328 L1427.64,210.302 L1440.27,189.952 L1452.21,175.361 L1452.1,171.248 L1448.94,169.558 L1426.82,171.387 L1414.79,177.574 L1404.26,174.443 L1396.14,179.802 L1380.23,178.136 L1374.16,171.925 L1370.7,153.762 L1358.05,151.686 L1355.57,141.972 L1351.59,134.741 L1345.86,130.185 L1339.81,117.134 L1329.77,117.328 L1319.86,110.944 L1316.47,105.576 L1310.26,105.871 L1303.02,101.376 L1294.1,100.69 L1287.43,103.106 L1281.4,99.5395 L1277.57,94.4843 L1275.86,84.0745 L1269.19,78.2031 L1265.35,67.4946 L1258.28,58.3295 L1244.02,66.216 L1234.33,76.1836 L1204.58,73.5129 L1192.19,83.2014 L1183.27,78.6367 L1175.22,79.15 L1165.1,75.4209 L1154.94,67.54 L1151.23,68.4871 L1147.36,78.3306 L1121.77,108.017 L1109.49,132.41 L1083.02,168.18 L1076.51,186.291 L1056.81,205.617 L1044.8,212.38 L1035.31,221.633 L1030.11,232.261 L1036.2,242.452 L1033.98,250.684 L1019.78,261.201 L1017.5,272.26 L1007.03,287.149 L1005.29,293.822 L1006.32,297.082 L1014.67,304.066 L1020.61,319.214 L1021.73,330.506 L1025.19,340.769 L1017.24,354.296 L1023.03,359.631 L1028.99,370.003 L1029.53,375.344 L1026.75,382.261 L1032.68,389.083 L1032.96,401.594 L1021.02,414.029 L1019.61,421.9 L1017.13,424.43 L1000.76,426.728 L988.591,421.47 L976.087,420.232 L967.285,421.976 L963.959,425.508 L959.879,450.179 L951.98,468.919 L949.872,479.049 L935.606,494.877 L932.402,504.873 L921.05,519.401 L916.205,549.645 L917.908,575.279 L912.42,589.768 L915.164,604.475 L911.322,609.875 L897.061,619.742 L890.478,643.533 L879.086,653.112 L871.381,663.772 L873.468,677.763 L878.991,691.341 L877.082,711.161 L889.283,721.999 L881.521,729.681 L869.781,733.826 L873.656,765.945 L876.745,771.668 L877.211,786.29 L870.595,812.031 L867.11,819.15 L874.302,836.613 L876.2,846.216 L874.286,852.884 L873.261,875.063 L880.004,928.569 L883.026,943.288 L889.173,953.678 L890.437,971.935 L886.232,978.659 L903.499,1030.19 L901.443,1041.77 L919.757,1078.55 L939.869,1129.16 L944.282,1161.36 L940.926,1199.37 L937.377,1205.83 L942.902,1227.17 L940.408,1244.77 L982.879,1370.7 L983.335,1378.11 L978.732,1390.63 L979.062,1396.5 L981.372,1403.05 L989.147,1413.1 L991.624,1427.23 L988.5,1439.58 L992.219,1462.67 L987.758,1475.6 L987.264,1484.76 L988.1,1491.43 L991.731,1496.66 L990.627,1505.95 L995.302,1516.84 L990.723,1522.75 L989.236,1530.05 L991.594,1563.92 L984.214,1580.19 L986.199,1592.57 L982.815,1601.45 L981.825,1613.11 L979.057,1618.25 L971.49,1624.4" fill-rule="evenodd"/>
   <path vector-effect="none" d="M1754.72,1751.34 L1760.48,1796.05 L1768.45,1820.79 L1771.55,1841.58 L1779.09,1867.21 L1778.35,1875.65 L1783.78,1909.4 L1782.75,1913.51 L1762.63,1931.96 L1756.42,1942.03 L1757.91,1951.45 L1768.93,1979.17 L1765.18,1990.6 L1772.17,2042.21 L1772.21,2067.41 L1775.56,2075.09 L1772.23,2089.95 L1772.15,2103.22 L1775.67,2115.42 L1772.6,2127.43 L1777.33,2140.04 L1772.26,2154.46 L1772.96,2164.51 L1775.51,2179.4 L1782.06,2187.58 L1781.65,2204.07 L1789.39,2212.31 L1790.36,2220.1 L1795.26,2228.45 L1792.18,2238.83 L1792.19,2246.01 L1798.07,2260.74 L1808.57,2272.14 L1806.24,2284.84 L1811,2296.05 L1817.61,2302.04 L1819.03,2309.02" fill-rule="evenodd"/>
  </g>
  <g font-family="Ubuntu" fill="none" stroke-opacity="1" font-size="45.8333" stroke-width="1" font-style="normal" transform="matrix(0.999811,0,0,0.999811,0,0)" stroke="#000000" font-weight="400" stroke-linecap="square" stroke-linejoin="bevel"/>
  <g font-family="Ubuntu" fill="#ffffff" stroke-opacity="1" font-size="45.8333" stroke-width="4.72441" font-style="normal" transform="matrix(0.999811,0,0,0.999811,0,0)" stroke="#000000" font-weight="400" stroke-linecap="square" fill-opacity="1" stroke-linejoin="bevel">
   <path vector-effect="none" d="M1766.53,1751.34 C1766.53,1757.87 1761.24,1763.15 1754.72,1763.15 C1748.2,1763.15 1742.91,1757.87 1742.91,1751.34 C1742.91,1744.82 1748.2,1739.53 1754.72,1739.53 C1761.24,1739.53 1766.53,1744.82 1766.53,1751.34 " fill-rule="evenodd"/>
   <path vector-effect="none" d="M1820.01,2289.88 C1820.01,2296.4 1814.72,2301.69 1808.2,2301.69 C1801.67,2301.69 1796.39,2296.4 1796.39,2289.88 C1796.39,2283.36 1801.67,2278.07 1808.2,2278.07 C1814.72,2278.07 1820.01,2283.36 1820.01,2289.88 " fill-rule="evenodd"/>
   <path vector-effect="none" d="M983.309,1624.39 C983.309,1630.91 978.021,1636.2 971.498,1636.2 C964.975,1636.2 959.687,1630.91 959.687,1624.39 C959.687,1617.86 964.975,1612.57 971.498,1612.57 C978.021,1612.57 983.309,1617.86 983.309,1624.39 " fill-rule="evenodd"/>
   <path vector-effect="none" d="M1071.12,1715.35 C1071.12,1721.88 1065.83,1727.17 1059.31,1727.17 C1052.79,1727.17 1047.5,1721.88 1047.5,1715.35 C1047.5,1708.83 1052.79,1703.54 1059.31,1703.54 C1065.83,1703.54 1071.12,1708.83 1071.12,1715.35 " fill-rule="evenodd"/>
   <path vector-effect="none" d="M901.272,962.167 C901.272,968.69 895.984,973.978 889.461,973.978 C882.938,973.978 877.65,968.69 877.65,962.167 C877.65,955.644 882.938,950.356 889.461,950.356 C895.984,950.356 901.272,955.644 901.272,962.167 " fill-rule="evenodd"/>
   <path vector-effect="none" d="M1000.4,421.47 C1000.4,427.993 995.114,433.281 988.591,433.281 C982.068,433.281 976.78,427.993 976.78,421.47 C976.78,414.947 982.068,409.659 988.591,409.659 C995.114,409.659 1000.4,414.947 1000.4,421.47 " fill-rule="evenodd"/>
  </g>
  <g font-family="Ubuntu" fill="none" stroke-opacity="1" font-size="45.8333" stroke-width="1" font-style="normal" transform="matrix(0.999811,0,0,0.999811,0,0)" stroke="#000000" font-weight="400" stroke-linecap="square" stroke-linejoin="bevel"/>
  <g font-family="Ubuntu" fill="none" stroke-opacity="1" font-size="45.8333" stroke-width="1" font-style="normal" transform="matrix(0.999811,0,0,0.999811,0,0)" stroke="#000000" font-weight="400" stroke-linecap="square" stroke-linejoin="bevel"/>
  <g font-family="Ubuntu" fill="none" stroke-opacity="1" font-size="45.8333" stroke-width="1" font-style="normal" transform="matrix(0.999811,0,0,0.999811,0,0)" stroke="#000000" font-weight="400" stroke-linecap="square" stroke-linejoin="bevel"/>
  <g font-family="Ubuntu" fill="none" stroke-opacity="1" font-size="45.8333" stroke-width="1" font-style="normal" transform="matrix(0.999811,0,0,0.999811,0,0)" stroke="#000000" font-weight="400" stroke-linecap="square" stroke-linejoin="bevel"/>
  <g font-family="Ubuntu" fill="none" stroke-opacity="1" font-size="45.8333" stroke-width="1" font-style="normal" transform="matrix(0.319939,0,0,0.319939,1942.02,1697.02)" stroke="#000000" font-weight="400" stroke-linecap="square" stroke-linejoin="bevel"/>
  <g font-family="Ubuntu" fill="#6d6d6d" font-size="45.8333" font-style="normal" transform="matrix(0.999811,0,0,0.999811,1942.02,1697.02)" stroke="none" font-weight="400" fill-opacity="0.694118">
   <path vector-effect="non-scaling-stroke" d="M-174.464,-49.3 L174.464,-49.3 L174.464,49.3 L-174.464,49.3 L-174.464,-49.3" fill-rule="evenodd"/>
  </g>
  <g font-family="Ubuntu" fill="none" stroke-opacity="1" font-size="45.8333" stroke-width="1" font-style="normal" transform="matrix(0.319939,0,0,0.319939,1942.02,1697.02)" stroke="#000000" font-weight="400" stroke-linecap="square" stroke-linejoin="bevel"/>
  <g font-family="Ubuntu" fill="none" stroke-opacity="1" font-size="45.8333" stroke-width="1" font-style="normal" transform="matrix(0.999811,0,0,0.999811,0,0)" stroke="#000000" font-weight="400" stroke-linecap="square" stroke-linejoin="bevel"/>
  <g font-family="Ubuntu" fill="none" stroke-opacity="1" font-size="42" stroke-width="1" font-style="normal" transform="matrix(0.999811,0,0,0.999811,1768.88,1687.02)" stroke="#ffffff" font-weight="400" stroke-linecap="square" stroke-linejoin="bevel">
   <text font-family="Ubuntu" fill="#ffffff" font-size="42" font-style="normal" xml:space="preserve" stroke="none" font-weight="400" x="0" fill-opacity="1" y="0">Южно-Сахалинск</text>
  </g>
  <g font-family="Ubuntu" fill="none" stroke-opacity="1" font-size="45.8333" stroke-width="1" font-style="normal" transform="matrix(0.999811,0,0,0.999811,0,0)" stroke="#000000" font-weight="400" stroke-linecap="square" stroke-linejoin="bevel"/>
  <g font-family="Ubuntu" fill="none" stroke-opacity="1" font-size="42" stroke-width="1" font-style="normal" transform="matrix(0.999811,0,0,0.999811,1768.88,1735.01)" stroke="#ffffff" font-weight="400" stroke-linecap="square" stroke-linejoin="bevel">
   <text font-family="Ubuntu" fill="#ffffff" font-size="42" font-style="normal" xml:space="preserve" stroke="none" font-weight="400" x="0" fill-opacity="1" y="0">Yuzno-Sakhalinsk</text>
  </g>
  <g font-family="Ubuntu" fill="none" stroke-opacity="1" font-size="45.8333" stroke-width="1" font-style="normal" transform="matrix(0.999811,0,0,0.999811,0,0)" stroke="#000000" font-weight="400" stroke-linecap="square" stroke-linejoin="bevel"/>
  <g font-family="Ubuntu" fill="none" stroke-opacity="1" font-size="45.8333" stroke-width="1" font-style="normal" transform="matrix(0.319939,0,0,0.319939,798.284,1570.09)" stroke="#000000" font-weight="400" stroke-linecap="square" stroke-linejoin="bevel"/>
  <g font-family="Ubuntu" fill="#6d6d6d" font-size="45.8333" font-style="normal" transform="matrix(0.999811,0,0,0.999811,798.284,1570.09)" stroke="none" font-weight="400" fill-opacity="0.694118">
   <path vector-effect="non-scaling-stroke" d="M-159.363,-49.3 L159.363,-49.3 L159.363,49.3 L-159.363,49.3 L-159.363,-49.3" fill-rule="evenodd"/>
  </g>
  <g font-family="Ubuntu" fill="none" stroke-opacity="1" font-size="45.8333" stroke-width="1" font-style="normal" transform="matrix(0.319939,0,0,0.319939,798.284,1570.09)" stroke="#000000" font-weight="400" stroke-linecap="square" stroke-linejoin="bevel"/>
  <g font-family="Ubuntu" fill="none" stroke-opacity="1" font-size="45.8333" stroke-width="1" font-style="normal" transform="matrix(0.999811,0,0,0.999811,0,0)" stroke="#000000" font-weight="400" stroke-linecap="square" stroke-linejoin="bevel"/>
  <g font-family="Ubuntu" fill="none" stroke-opacity="1" font-size="42" stroke-width="1" font-style="normal" transform="matrix(0.999811,0,0,0.999811,640.251,1560.09)" stroke="#ffffff" font-weight="400" stroke-linecap="square" stroke-linejoin="bevel">
   <text font-family="Ubuntu" fill="#ffffff" font-size="42" font-style="normal" xml:space="preserve" stroke="none" font-weight="400" x="0" fill-opacity="1" y="0">Холмск-Южный</text>
  </g>
  <g font-family="Ubuntu" fill="none" stroke-opacity="1" font-size="45.8333" stroke-width="1" font-style="normal" transform="matrix(0.999811,0,0,0.999811,0,0)" stroke="#000000" font-weight="400" stroke-linecap="square" stroke-linejoin="bevel"/>
  <g font-family="Ubuntu" fill="none" stroke-opacity="1" font-size="42" stroke-width="1" font-style="normal" transform="matrix(0.999811,0,0,0.999811,682.087,1608.08)" stroke="#ffffff" font-weight="400" stroke-linecap="square" stroke-linejoin="bevel">
   <text font-family="Ubuntu" fill="#ffffff" font-size="42" font-style="normal" xml:space="preserve" stroke="none" font-weight="400" x="0" fill-opacity="1" y="0">Holmsk-Yuznyi</text>
  </g>
  <g font-family="Ubuntu" fill="none" stroke-opacity="1" font-size="45.8333" stroke-width="1" font-style="normal" transform="matrix(0.999811,0,0,0.999811,0,0)" stroke="#000000" font-weight="400" stroke-linecap="square" stroke-linejoin="bevel"/>
  <g font-family="Ubuntu" fill="none" stroke-opacity="1" font-size="45.8333" stroke-width="1" font-style="normal" transform="matrix(0.319939,0,0,0.319939,1202.5,1661.04)" stroke="#000000" font-weight="400" stroke-linecap="square" stroke-linejoin="bevel"/>
  <g font-family="Ubuntu" fill="#6d6d6d" font-size="45.8333" font-style="normal" transform="matrix(0.999811,0,0,0.999811,1202.5,1661.04)" stroke="none" font-weight="400" fill-opacity="0.694118">
   <path vector-effect="non-scaling-stroke" d="M-130.214,-49.3 L130.214,-49.3 L130.214,49.3 L-130.214,49.3 L-130.214,-49.3" fill-rule="evenodd"/>
  </g>
  <g font-family="Ubuntu" fill="none" stroke-opacity="1" font-size="45.8333" stroke-width="1" font-style="normal" transform="matrix(0.319939,0,0,0.319939,1202.5,1661.04)" stroke="#000000" font-weight="400" stroke-linecap="square" stroke-linejoin="bevel"/>
  <g font-family="Ubuntu" fill="none" stroke-opacity="1" font-size="45.8333" stroke-width="1" font-style="normal" transform="matrix(0.999811,0,0,0.999811,0,0)" stroke="#000000" font-weight="400" stroke-linecap="square" stroke-linejoin="bevel"/>
  <g font-family="Ubuntu" fill="none" stroke-opacity="1" font-size="42" stroke-width="1" font-style="normal" transform="matrix(0.999811,0,0,0.999811,1073.61,1651.04)" stroke="#ffffff" font-weight="400" stroke-linecap="square" stroke-linejoin="bevel">
   <text font-family="Ubuntu" fill="#ffffff" font-size="42" font-style="normal" xml:space="preserve" stroke="none" font-weight="400" x="0" fill-opacity="1" y="0">Чёртов Мост</text>
  </g>
  <g font-family="Ubuntu" fill="none" stroke-opacity="1" font-size="45.8333" stroke-width="1" font-style="normal" transform="matrix(0.999811,0,0,0.999811,0,0)" stroke="#000000" font-weight="400" stroke-linecap="square" stroke-linejoin="bevel"/>
  <g font-family="Ubuntu" fill="none" stroke-opacity="1" font-size="42" stroke-width="1" font-style="normal" transform="matrix(0.999811,0,0,0.999811,1073.61,1699.03)" stroke="#ffffff" font-weight="400" stroke-linecap="square" stroke-linejoin="bevel">
   <text font-family="Ubuntu" fill="#ffffff" font-size="42" font-style="normal" xml:space="preserve" stroke="none" font-weight="400" x="0" fill-opacity="1" y="0">Chertov Most</text>
  </g>
  <g font-family="Ubuntu" fill="none" stroke-opacity="1" font-size="45.8333" stroke-width="1" font-style="normal" transform="matrix(0.999811,0,0,0.999811,0,0)" stroke="#000000" font-weight="400" stroke-linecap="square" stroke-linejoin="bevel"/>
  <g font-family="Ubuntu" fill="none" stroke-opacity="1" font-size="45.8333" stroke-width="1" font-style="normal" transform="matrix(0.319939,0,0,0.319939,1915.15,2235.96)" stroke="#000000" font-weight="400" stroke-linecap="square" stroke-linejoin="bevel"/>
  <g font-family="Ubuntu" fill="#6d6d6d" font-size="45.8333" font-style="normal" transform="matrix(0.999811,0,0,0.999811,1915.15,2235.96)" stroke="none" font-weight="400" fill-opacity="0.694118">
   <path vector-effect="non-scaling-stroke" d="M-94.1203,-49.3 L94.1203,-49.3 L94.1203,49.3 L-94.1203,49.3 L-94.1203,-49.3" fill-rule="evenodd"/>
  </g>
  <g font-family="Ubuntu" fill="none" stroke-opacity="1" font-size="45.8333" stroke-width="1" font-style="normal" transform="matrix(0.319939,0,0,0.319939,1915.15,2235.96)" stroke="#000000" font-weight="400" stroke-linecap="square" stroke-linejoin="bevel"/>
  <g font-family="Ubuntu" fill="none" stroke-opacity="1" font-size="45.8333" stroke-width="1" font-style="normal" transform="matrix(0.999811,0,0,0.999811,0,0)" stroke="#000000" font-weight="400" stroke-linecap="square" stroke-linejoin="bevel"/>
  <g font-family="Ubuntu" fill="none" stroke-opacity="1" font-size="42" stroke-width="1" font-style="normal" transform="matrix(0.999811,0,0,0.999811,1822.35,2225.96)" stroke="#ffffff" font-weight="400" stroke-linecap="square" stroke-linejoin="bevel">
   <text font-family="Ubuntu" fill="#ffffff" font-size="42" font-style="normal" xml:space="preserve" stroke="none" font-weight="400" x="0" fill-opacity="1" y="0">Корсаков</text>
  </g>
  <g font-family="Ubuntu" fill="none" stroke-opacity="1" font-size="45.8333" stroke-width="1" font-style="normal" transform="matrix(0.999811,0,0,0.999811,0,0)" stroke="#000000" font-weight="400" stroke-linecap="square" stroke-linejoin="bevel"/>
  <g font-family="Ubuntu" fill="none" stroke-opacity="1" font-size="42" stroke-width="1" font-style="normal" transform="matrix(0.999811,0,0,0.999811,1822.35,2273.95)" stroke="#ffffff" font-weight="400" stroke-linecap="square" stroke-linejoin="bevel">
   <text font-family="Ubuntu" fill="#ffffff" font-size="42" font-style="normal" xml:space="preserve" stroke="none" font-weight="400" x="0" fill-opacity="1" y="0">Korsakov</text>
  </g>
  <g font-family="Ubuntu" fill="none" stroke-opacity="1" font-size="45.8333" stroke-width="1" font-style="normal" transform="matrix(0.999811,0,0,0.999811,0,0)" stroke="#000000" font-weight="400" stroke-linecap="square" stroke-linejoin="bevel"/>
  <g font-family="Ubuntu" fill="none" stroke-opacity="1" font-size="45.8333" stroke-width="1" font-style="normal" transform="matrix(0.319939,0,0,0.319939,986.579,908.495)" stroke="#000000" font-weight="400" stroke-linecap="square" stroke-linejoin="bevel"/>
  <g font-family="Ubuntu" fill="#6d6d6d" font-size="45.8333" font-style="normal" transform="matrix(0.999811,0,0,0.999811,986.579,908.495)" stroke="none" font-weight="400" fill-opacity="0.694118">
   <path vector-effect="non-scaling-stroke" d="M-83.6047,-49.3 L83.6047,-49.3 L83.6047,49.3 L-83.6047,49.3 L-83.6047,-49.3" fill-rule="evenodd"/>
  </g>
  <g font-family="Ubuntu" fill="none" stroke-opacity="1" font-size="45.8333" stroke-width="1" font-style="normal" transform="matrix(0.319939,0,0,0.319939,986.579,908.495)" stroke="#000000" font-weight="400" stroke-linecap="square" stroke-linejoin="bevel"/>
  <g font-family="Ubuntu" fill="none" stroke-opacity="1" font-size="45.8333" stroke-width="1" font-style="normal" transform="matrix(0.999811,0,0,0.999811,0,0)" stroke="#000000" font-weight="400" stroke-linecap="square" stroke-linejoin="bevel"/>
  <g font-family="Ubuntu" fill="none" stroke-opacity="1" font-size="42" stroke-width="1" font-style="normal" transform="matrix(0.999811,0,0,0.999811,904.29,898.497)" stroke="#ffffff" font-weight="400" stroke-linecap="square" stroke-linejoin="bevel">
   <text font-family="Ubuntu" fill="#ffffff" font-size="42" font-style="normal" xml:space="preserve" stroke="none" font-weight="400" x="0" fill-opacity="1" y="0">Чехов</text>
  </g>
  <g font-family="Ubuntu" fill="none" stroke-opacity="1" font-size="45.8333" stroke-width="1" font-style="normal" transform="matrix(0.999811,0,0,0.999811,0,0)" stroke="#000000" font-weight="400" stroke-linecap="square" stroke-linejoin="bevel"/>
  <g font-family="Ubuntu" fill="none" stroke-opacity="1" font-size="42" stroke-width="1" font-style="normal" transform="matrix(0.999811,0,0,0.999811,904.29,946.488)" stroke="#ffffff" font-weight="400" stroke-linecap="square" stroke-linejoin="bevel">
   <text font-family="Ubuntu" fill="#ffffff" font-size="42" font-style="normal" xml:space="preserve" stroke="none" font-weight="400" x="0" fill-opacity="1" y="0">Chekhov</text>
  </g>
  <g font-family="Ubuntu" fill="none" stroke-opacity="1" font-size="45.8333" stroke-width="1" font-style="normal" transform="matrix(0.999811,0,0,0.999811,0,0)" stroke="#000000" font-weight="400" stroke-linecap="square" stroke-linejoin="bevel"/>
  <g font-family="Ubuntu" fill="none" stroke-opacity="1" font-size="45.8333" stroke-width="1" font-style="normal" transform="matrix(0.319939,0,0,0.319939,1077.68,367.401)" stroke="#000000" font-weight="400" stroke-linecap="square" stroke-linejoin="bevel"/>
  <g font-family="Ubuntu" fill="#6d6d6d" font-size="45.8333" font-style="normal" transform="matrix(0.999811,0,0,0.999811,1077.68,367.401)" stroke="none" font-weight="400" fill-opacity="0.694118">
   <path vector-effect="non-scaling-stroke" d="M-75.5891,-49.3 L75.5891,-49.3 L75.5891,49.3 L-75.5891,49.3 L-75.5891,-49.3" fill-rule="evenodd"/>
  </g>
  <g font-family="Ubuntu" fill="none" stroke-opacity="1" font-size="45.8333" stroke-width="1" font-style="normal" transform="matrix(0.319939,0,0,0.319939,1077.68,367.401)" stroke="#000000" font-weight="400" stroke-linecap="square" stroke-linejoin="bevel"/>
  <g font-family="Ubuntu" fill="none" stroke-opacity="1" font-size="45.8333" stroke-width="1" font-style="normal" transform="matrix(0.999811,0,0,0.999811,0,0)" stroke="#000000" font-weight="400" stroke-linecap="square" stroke-linejoin="bevel"/>
  <g font-family="Ubuntu" fill="none" stroke-opacity="1" font-size="42" stroke-width="1" font-style="normal" transform="matrix(0.999811,0,0,0.999811,1003.4,357.402)" stroke="#ffffff" font-weight="400" stroke-linecap="square" stroke-linejoin="bevel">
   <text font-family="Ubuntu" fill="#ffffff" font-size="42" font-style="normal" xml:space="preserve" stroke="none" font-weight="400" x="0" fill-opacity="1" y="0">Томари</text>
  </g>
  <g font-family="Ubuntu" fill="none" stroke-opacity="1" font-size="45.8333" stroke-width="1" font-style="normal" transform="matrix(0.999811,0,0,0.999811,0,0)" stroke="#000000" font-weight="400" stroke-linecap="square" stroke-linejoin="bevel"/>
  <g font-family="Ubuntu" fill="none" stroke-opacity="1" font-size="42" stroke-width="1" font-style="normal" transform="matrix(0.999811,0,0,0.999811,1003.4,405.393)" stroke="#ffffff" font-weight="400" stroke-linecap="square" stroke-linejoin="bevel">
   <text font-family="Ubuntu" fill="#ffffff" font-size="42" font-style="normal" xml:space="preserve" stroke="none" font-weight="400" x="0" fill-opacity="1" y="0">Tomari</text>
  </g>
  <g font-family="Ubuntu" fill="none" stroke-opacity="1" font-size="45.8333" stroke-width="1" font-style="normal" transform="matrix(0.999811,0,0,0.999811,0,0)" stroke="#000000" font-weight="400" stroke-linecap="square" stroke-linejoin="bevel"/>
  <g font-family="Ubuntu" fill="none" stroke-opacity="1" font-size="45.8333" stroke-width="1" font-style="normal" transform="matrix(11.8088,0,0,11.8088,0,0)" stroke="#000000" font-weight="400" stroke-linecap="square" stroke-linejoin="bevel"/>
  <g font-family="Ubuntu" fill="none" stroke-opacity="1" font-size="45.8333" stroke-width="1" font-style="normal" transform="matrix(11.8088,0,0,11.8088,0,0)" stroke="#000000" font-weight="400" stroke-linecap="square" stroke-linejoin="bevel"/>
  <g font-family="Ubuntu" fill="none" stroke-opacity="1" font-size="45.8333" stroke-width="1" font-style="normal" transform="matrix(11.8088,0,0,11.8088,0,0)" stroke="#000000" font-weight="400" stroke-linecap="square" stroke-linejoin="bevel"/>
  <g font-family="Ubuntu" fill="none" stroke-opacity="0.184314" font-size="45.8333" stroke-width="3.54331" font-style="normal" transform="matrix(0.999811,0,0,0.999811,0,0)" stroke="#000000" font-weight="400" stroke-linecap="butt" stroke-linejoin="bevel">
   <path vector-effect="none" d="M91.359,0 L91.359,2393.22" fill-rule="evenodd"/>
   <path vector-effect="none" d="M241.292,0 L241.292,2393.22" fill-rule="evenodd"/>
   <path vector-effect="none" d="M391.225,0 L391.225,2393.22" fill-rule="evenodd"/>
   <path vector-effect="none" d="M541.158,0 L541.158,2393.22" fill-rule="evenodd"/>
   <path vector-effect="none" d="M691.092,0 L691.092,2393.22" fill-rule="evenodd"/>
   <path vector-effect="none" d="M841.025,0 L841.025,2393.22" fill-rule="evenodd"/>
   <path vector-effect="none" d="M990.958,0 L990.958,2393.22" fill-rule="evenodd"/>
   <path vector-effect="none" d="M1140.89,0 L1140.89,2393.22" fill-rule="evenodd"/>
   <path vector-effect="none" d="M1290.82,0 L1290.82,2393.22" fill-rule="evenodd"/>
   <path vector-effect="none" d="M1440.76,0 L1440.76,2393.22" fill-rule="evenodd"/>
   <path vector-effect="none" d="M1590.69,0 L1590.69,2393.22" fill-rule="evenodd"/>
   <path vector-effect="none" d="M1740.62,0 L1740.62,2393.22" fill-rule="evenodd"/>
   <path vector-effect="none" d="M1890.56,0 L1890.56,2393.22" fill-rule="evenodd"/>
   <path vector-effect="none" d="M2040.49,0 L2040.49,2393.22" fill-rule="evenodd"/>
   <path vector-effect="none" d="M2190.42,0 L2190.42,2393.22" fill-rule="evenodd"/>
   <path vector-effect="none" d="M2340.36,0 L2340.36,2393.22" fill-rule="evenodd"/>
   <path vector-effect="none" d="M2490.29,0 L2490.29,2393.22" fill-rule="evenodd"/>
   <path vector-effect="none" d="M0,2379.89 L2497.47,2379.89" fill-rule="evenodd"/>
   <path vector-effect="none" d="M0,2229.96 L2497.47,2229.96" fill-rule="evenodd"/>
   <path vector-effect="none" d="M0,2080.02 L2497.47,2080.02" fill-rule="evenodd"/>
   <path vector-effect="none" d="M0,1930.09 L2497.47,1930.09" fill-rule="evenodd"/>
   <path vector-effect="none" d="M0,1780.16 L2497.47,1780.16" fill-rule="evenodd"/>
   <path vector-effect="none" d="M0,1630.22 L2497.47,1630.22" fill-rule="evenodd"/>
   <path vector-effect="none" d="M0,1480.29 L2497.47,1480.29" fill-rule="evenodd"/>
   <path vector-effect="none" d="M0,1330.36 L2497.47,1330.36" fill-rule="evenodd"/>
   <path vector-effect="none" d="M0,1180.42 L2497.47,1180.42" fill-rule="evenodd"/>
   <path vector-effect="none" d="M0,1030.49 L2497.47,1030.49" fill-rule="evenodd"/>
   <path vector-effect="none" d="M0,880.557 L2497.47,880.557" fill-rule="evenodd"/>
   <path vector-effect="none" d="M0,730.624 L2497.47,730.624" fill-rule="evenodd"/>
   <path vector-effect="none" d="M0,580.69 L2497.47,580.69" fill-rule="evenodd"/>
   <path vector-effect="none" d="M0,430.757 L2497.47,430.757" fill-rule="evenodd"/>
   <path vector-effect="none" d="M0,280.824 L2497.47,280.824" fill-rule="evenodd"/>
   <path vector-effect="none" d="M0,130.891 L2497.47,130.891" fill-rule="evenodd"/>
  </g>
  <g font-family="Ubuntu" fill="none" stroke-opacity="0.184314" font-size="45.8333" stroke-width="3.54331" font-style="normal" transform="matrix(0.999811,0,0,0.999811,0,0)" stroke="#000000" font-weight="400" stroke-linecap="butt" stroke-linejoin="bevel"/>
  <g font-family="Ubuntu" fill="none" stroke-opacity="0.184314" font-size="45.8333" stroke-width="3.54331" font-style="normal" transform="matrix(11.8088,0,0,11.8088,0,0)" stroke="#000000" font-weight="400" stroke-linecap="butt" stroke-linejoin="bevel"/>
  <g font-family="Ubuntu" fill="none" stroke-opacity="1" font-size="45.8333" stroke-width="1" font-style="normal" transform="matrix(11.8088,0,0,11.8088,0,0)" stroke="#000000" font-weight="400" stroke-linecap="square" stroke-linejoin="bevel"/>
  <g font-family="Ubuntu" fill="none" stroke-opacity="1" font-size="45.8333" stroke-width="1" font-style="normal" transform="matrix(11.8088,0,0,11.8088,0,0)" stroke="#000000" font-weight="400" stroke-linecap="square" stroke-linejoin="bevel"/>
  <g font-family="Ubuntu" fill="none" stroke-opacity="1" font-size="45.8333" stroke-width="1" font-style="normal" transform="matrix(1,0,0,1,0,0)" stroke="#000000" font-weight="400" stroke-linecap="square" stroke-linejoin="bevel"/>
  <g font-family="Ubuntu" fill="none" stroke-opacity="1" font-size="45.8333" stroke-width="1" font-style="normal" transform="matrix(11.8088,0,0,11.8088,0,0)" stroke="#000000" font-weight="400" stroke-linecap="square" stroke-linejoin="bevel"/>
  <g font-family="Ubuntu" fill="none" stroke-opacity="1" font-size="45.8333" stroke-width="1" font-style="normal" transform="matrix(11.8088,0,0,11.8088,0,0)" stroke="#000000" font-weight="400" stroke-linecap="square" stroke-linejoin="bevel"/>
  <g font-family="Ubuntu" fill="none" stroke-opacity="1" font-size="45.8333" stroke-width="1" font-style="normal" transform="matrix(11.8088,0,0,11.8088,0,2240.35)" stroke="#000000" font-weight="400" stroke-linecap="square" stroke-linejoin="bevel"/>
  <g font-family="Ubuntu" fill="none" stroke-opacity="1" font-size="45.8333" stroke-width="1" font-style="normal" transform="matrix(0.999811,0,0,0.999811,0,2240.35)" stroke="#000000" font-weight="400" stroke-linecap="square" stroke-linejoin="bevel"/>
  <g font-family="Ubuntu" fill="none" stroke-miterlimit="2" stroke-opacity="1" font-size="45.8333" stroke-width="3.54331" font-style="normal" transform="matrix(0.999811,0,0,0.999811,0,2240.35)" stroke="#000000" font-weight="400" stroke-linecap="square" stroke-linejoin="miter">
   <path vector-effect="none" d="M29.4481,129.677 L29.4481,94.2441" fill-rule="evenodd"/>
   <path vector-effect="none" d="M179.381,129.677 L179.381,94.2441" fill-rule="evenodd"/>
   <path vector-effect="none" d="M29.4481,111.961 L179.381,111.961" fill-rule="evenodd"/>
  </g>
  <g font-family="Ubuntu" fill="none" stroke-opacity="1" font-size="45.8333" stroke-width="1" font-style="normal" transform="matrix(0.999811,0,0,0.999811,0,2240.35)" stroke="#000000" font-weight="400" stroke-linecap="square" stroke-linejoin="bevel"/>
  <g font-family="Ubuntu" fill="none" stroke-opacity="1" font-size="50" stroke-width="1" font-style="normal" transform="matrix(0.999811,0,0,0.999811,15.3514,2299.15)" stroke="#000000" font-weight="400" stroke-linecap="square" stroke-linejoin="bevel">
   <text font-family="Ubuntu" fill="#000000" font-size="50" font-style="normal" xml:space="preserve" stroke="none" font-weight="400" x="0" fill-opacity="1" y="0">0</text>
  </g>
  <g font-family="Ubuntu" fill="none" stroke-opacity="1" font-size="45.8333" stroke-width="1" font-style="normal" transform="matrix(0.999811,0,0,0.999811,0,2240.35)" stroke="#000000" font-weight="400" stroke-linecap="square" stroke-linejoin="bevel"/>
  <g font-family="Ubuntu" fill="none" stroke-opacity="1" font-size="50" stroke-width="1" font-style="normal" transform="matrix(0.999811,0,0,0.999811,151.165,2299.15)" stroke="#000000" font-weight="400" stroke-linecap="square" stroke-linejoin="bevel">
   <text font-family="Ubuntu" fill="#000000" font-size="50" font-style="normal" xml:space="preserve" stroke="none" font-weight="400" x="0" fill-opacity="1" y="0">10 km</text>
  </g>
  <g font-family="Ubuntu" fill="none" stroke-opacity="1" font-size="45.8333" stroke-width="1" font-style="normal" transform="matrix(0.999811,0,0,0.999811,0,2240.35)" stroke="#000000" font-weight="400" stroke-linecap="square" stroke-linejoin="bevel"/>
  <g font-family="Ubuntu" fill="none" stroke-opacity="1" font-size="45.8333" stroke-width="1" font-style="normal" transform="matrix(0.999811,0,0,0.999811,0,2240.35)" stroke="#000000" font-weight="400" stroke-linecap="square" stroke-linejoin="bevel"/>
  <g font-family="Ubuntu" fill="none" stroke-opacity="1" font-size="45.8333" stroke-width="1" font-style="normal" transform="matrix(11.8088,0,0,11.8088,0,2240.35)" stroke="#000000" font-weight="400" stroke-linecap="square" stroke-linejoin="bevel"/>
  <g font-family="Ubuntu" fill="none" stroke-opacity="1" font-size="45.8333" stroke-width="1" font-style="normal" transform="matrix(11.8088,0,0,11.8088,0,2240.35)" stroke="#000000" font-weight="400" stroke-linecap="square" stroke-linejoin="bevel"/>
  <g font-family="Ubuntu" fill="none" stroke-opacity="1" font-size="45.8333" stroke-width="1" font-style="normal" transform="matrix(11.8088,0,0,11.8088,1724.16,2209.17)" stroke="#000000" font-weight="400" stroke-linecap="square" stroke-linejoin="bevel"/>
  <g font-family="Ubuntu" fill="none" stroke-opacity="1" font-size="45.8333" stroke-width="1" font-style="normal" transform="matrix(0.999811,0,0,0.999811,1724.16,2209.17)" stroke="#000000" font-weight="400" stroke-linecap="square" stroke-linejoin="bevel"/>
  <g font-family="Ubuntu" fill="none" stroke-opacity="1" font-size="417" stroke-width="1" font-style="normal" transform="matrix(0.0999811,0,0,0.0999811,1910.95,2382.04)" stroke="#000000" font-weight="400" stroke-linecap="square" stroke-linejoin="bevel">
   <text font-family="Ubuntu" fill="#000000" font-size="417" font-style="normal" xml:space="preserve" stroke="none" font-weight="400" x="0" fill-opacity="1" y="0">basemap data: Openstreetmap</text>
  </g>
  <g font-family="Ubuntu" fill="none" stroke-opacity="1" font-size="45.8333" stroke-width="1" font-style="normal" transform="matrix(0.999811,0,0,0.999811,1724.16,2209.17)" stroke="#000000" font-weight="400" stroke-linecap="square" stroke-linejoin="bevel"/>
  <g font-family="Ubuntu" fill="none" stroke-opacity="1" font-size="45.8333" stroke-width="1" font-style="normal" transform="matrix(0.999811,0,0,0.999811,1724.16,2209.17)" stroke="#000000" font-weight="400" stroke-linecap="square" stroke-linejoin="bevel"/>
  <g font-family="Ubuntu" fill="none" stroke-opacity="1" font-size="45.8333" stroke-width="1" font-style="normal" transform="matrix(11.8088,0,0,11.8088,1724.16,2209.17)" stroke="#000000" font-weight="400" stroke-linecap="square" stroke-linejoin="bevel"/>
  <g font-family="Ubuntu" fill="none" stroke-opacity="1" font-size="45.8333" stroke-width="1" font-style="normal" transform="matrix(11.8088,0,0,11.8088,1724.16,2209.17)" stroke="#000000" font-weight="400" stroke-linecap="square" stroke-linejoin="bevel"/>
  <g font-family="Ubuntu" fill="none" stroke-opacity="1" font-size="45.8333" stroke-width="1" font-style="normal" transform="matrix(11.8088,0,0,11.8088,0,0)" stroke="#000000" font-weight="400" stroke-linecap="square" stroke-linejoin="bevel"/>
  <g font-family="Ubuntu" fill="none" stroke-opacity="1" font-size="45.8333" stroke-width="1" font-style="normal" transform="matrix(11.8088,0,0,11.8088,0,0)" stroke="#000000" font-weight="400" stroke-linecap="square" stroke-linejoin="bevel"/>
  <g font-family="Ubuntu" fill="none" stroke-opacity="1" font-size="45.8333" stroke-width="1" font-style="normal" transform="matrix(1,0,0,1,0,0)" stroke="#000000" font-weight="400" stroke-linecap="square" stroke-linejoin="bevel"/>
 </g>
 <metadata>
  <rdf:RDF xmlns:rdf="http://www.w3.org/1999/02/22-rdf-syntax-ns#" xmlns:dc="http://purl.org/dc/elements/1.1/" xmlns:rdfs="http://www.w3.org/2000/01/rdf-schema#">
   <rdf:Description dc:title="" dc:date="2000-01-01T00:00:00" dc:identifier="" dc:description="" dc:format="image/svg+xml">
    <dc:creator>
     <rdf:Bag>
      <rdf:li></rdf:li>
     </rdf:Bag>
    </dc:creator>
    <dc:publisher>
     <rdf:Bag>
      <rdf:li>QGIS 3.24.0-Tisler</rdf:li>
     </rdf:Bag>
    </dc:publisher>
    <dc:subject>
     <rdf:Bag/>
    </dc:subject>
   </rdf:Description>
   <cc:Work rdf:about="">
    <dc:format>image/svg+xml</dc:format>
    <dc:title></dc:title>
    <dc:date>2000-01-01T00:00:00</dc:date>
    <dc:identifier></dc:identifier>
    <dc:description></dc:description>
    <dc:creator>
     <cc:Agent>
      <dc:title></dc:title>
     </cc:Agent>
    </dc:creator>
    <dc:publisher>
     <cc:Agent>
      <dc:title>QGIS 3.24.0-Tisler</dc:title>
     </cc:Agent>
    </dc:publisher>
   </cc:Work>
  </rdf:RDF>
 </metadata>
</svg>
