<?xml version='1.0' encoding='UTF-8' standalone='no'?>
<svg viewBox="0 0 2497 2393" baseProfile="tiny" version="1.2" xmlns:xlink="http://www.w3.org/1999/xlink" xmlns="http://www.w3.org/2000/svg" xmlns:cc="http://creativecommons.org/ns#" height="202.607mm" width="211.413mm">
 <defs/>
 <g fill="none" stroke-width="1" stroke="black" stroke-linecap="square" fill-rule="evenodd" stroke-linejoin="bevel">
  <g font-family="Ubuntu" fill="none" stroke-opacity="1" font-size="45.8333" stroke-width="1" font-style="normal" transform="matrix(1,0,0,1,0,0)" stroke="#000000" font-weight="400" stroke-linecap="square" stroke-linejoin="bevel"/>
  <g font-family="Ubuntu" fill="none" stroke-opacity="1" font-size="45.8333" stroke-width="1" font-style="normal" transform="matrix(1,0,0,1,0,0)" stroke="#000000" font-weight="400" stroke-linecap="square" stroke-linejoin="bevel"/>
  <g font-family="Ubuntu" fill="none" stroke-opacity="1" font-size="45.8333" stroke-width="1" font-style="normal" transform="matrix(11.8088,0,0,11.8088,0,0)" stroke="#000000" font-weight="400" stroke-linecap="square" stroke-linejoin="bevel"/>
  <g font-family="Ubuntu" fill="none" stroke-opacity="1" font-size="45.8333" stroke-width="1" font-style="normal" transform="matrix(0.999811,0,0,0.999811,0,0)" stroke="#000000" font-weight="400" stroke-linecap="square" stroke-linejoin="bevel"/>
  <g font-family="Ubuntu" fill="#ffffff" font-size="45.8333" font-style="normal" transform="matrix(0.999811,0,0,0.999811,0,0)" stroke="none" font-weight="400" fill-opacity="1">
   <path vector-effect="none" d="M-2,-2 L2500,-2 L2500,2396 L-2,2396 L-2,-2" fill-rule="evenodd"/>
  </g>
  <g font-family="Ubuntu" fill="none" stroke-opacity="1" font-size="45.8333" stroke-width="1" font-style="normal" transform="matrix(0.999811,0,0,0.999811,0,0)" stroke="#000000" font-weight="400" stroke-linecap="square" stroke-linejoin="bevel"/>
  <g font-family="Ubuntu" fill="none" stroke-opacity="1" font-size="45.8333" stroke-width="1" font-style="normal" transform="matrix(11.8088,0,0,11.8088,0,0)" stroke="#000000" font-weight="400" stroke-linecap="square" stroke-linejoin="bevel"/>
  <g font-family="Ubuntu" fill="none" stroke-opacity="1" font-size="45.8333" stroke-width="1" font-style="normal" transform="matrix(11.8088,0,0,11.8088,0,0)" stroke="#000000" font-weight="400" stroke-linecap="square" stroke-linejoin="bevel"/>
  <g font-family="Ubuntu" fill="none" stroke-opacity="1" font-size="45.8333" stroke-width="1" font-style="normal" transform="matrix(11.8088,0,0,11.8088,0,0)" stroke="#000000" font-weight="400" stroke-linecap="square" stroke-linejoin="bevel"/>
  <g font-family="Ubuntu" fill="none" stroke-opacity="1" font-size="45.8333" stroke-width="1" font-style="normal" transform="matrix(11.8088,0,0,11.8088,0,0)" stroke="#000000" font-weight="400" stroke-linecap="square" stroke-linejoin="bevel"/>
  <g font-family="Ubuntu" fill="none" stroke-opacity="1" font-size="45.8333" stroke-width="1" font-style="normal" transform="matrix(11.8088,0,0,11.8088,0,0)" stroke="#000000" font-weight="400" stroke-linecap="square" stroke-linejoin="bevel"/>
  <g font-family="Ubuntu" fill="#1a1a1a" font-size="45.8333" font-style="normal" transform="matrix(11.8088,0,0,11.8088,0,0)" stroke="none" font-weight="400" fill-opacity="1">
   <path vector-effect="none" d="M0,0 L211.453,0 L211.453,202.626 L0,202.626 L0,0" fill-rule="evenodd"/>
  </g>
  <g font-family="Ubuntu" fill="none" stroke-opacity="1" font-size="45.8333" stroke-width="1" font-style="normal" transform="matrix(11.8088,0,0,11.8088,0,0)" stroke="#000000" font-weight="400" stroke-linecap="square" stroke-linejoin="bevel"/>
  <g font-family="Ubuntu" fill="none" stroke-opacity="1" font-size="45.8333" stroke-width="1" font-style="normal" transform="matrix(11.8088,0,0,11.8088,0,0)" stroke="#000000" font-weight="400" stroke-linecap="square" stroke-linejoin="bevel"/>
  <g font-family="Ubuntu" fill="#000000" font-size="45.8333" font-style="normal" transform="matrix(0.999811,0,0,0.999811,0,0)" stroke="none" font-weight="400" fill-opacity="0">
   <rect x="0" height="2393" y="0" width="2497"/>
  </g>
  <g font-family="Ubuntu" fill="none" stroke-opacity="1" font-size="45.8333" stroke-width="1" font-style="normal" transform="matrix(0.999811,0,0,0.999811,0,0)" stroke="#000000" font-weight="400" stroke-linecap="square" stroke-linejoin="bevel"/>
  <g font-family="Ubuntu" fill="#fff5de" font-size="45.8333" font-style="normal" transform="matrix(0.999811,0,0,0.999811,0,0)" stroke="none" font-weight="400" fill-opacity="1">
   <path vector-effect="none" d="M-277.907,2630.72 L-247.035,-255.561 L2747.1,-240.602 L2749.21,2645.76 L-277.907,2630.72" fill-rule="evenodd"/>
  </g>
  <g font-family="Ubuntu" fill="none" stroke-opacity="1" font-size="45.8333" stroke-width="1" font-style="normal" transform="matrix(0.999811,0,0,0.999811,0,0)" stroke="#000000" font-weight="400" stroke-linecap="square" stroke-linejoin="bevel"/>
  <g font-family="Ubuntu" fill="none" stroke-opacity="1" font-size="45.8333" stroke-width="12.5197" font-style="normal" transform="matrix(0.999811,0,0,0.999811,0,0)" stroke="#232323" font-weight="400" stroke-linecap="square" stroke-linejoin="bevel">
   <path vector-effect="none" d="M1700.91,-241.93 L1759.23,113.382 L1752.51,370.798 L1732.72,505.868 L1737.97,530.534 L1752.73,554.894 L1933.69,660.632 L1976.25,728.249 L2078.9,788.131 L2192.75,935.014 L2267.05,1008.48 L2382.23,1037.84 L2570.29,1136.28 L2601.83,1164.24 L2647.35,1229.74 L2748.23,1302.68" fill-rule="evenodd"/>
  </g>
  <g font-family="Ubuntu" fill="none" stroke-opacity="1" font-size="45.8333" stroke-dashoffset="0" stroke-width="6.25984" font-style="normal" transform="matrix(0.999811,0,0,0.999811,0,0)" stroke="#ffffff" font-weight="400" stroke-linecap="square" stroke-dasharray="35.4331,35.4331" stroke-linejoin="bevel">
   <path vector-effect="none" d="M1700.91,-241.93 L1759.23,113.382 L1752.51,370.798 L1732.72,505.868 L1737.97,530.534 L1752.73,554.894 L1933.69,660.632 L1976.25,728.249 L2078.9,788.131 L2192.75,935.014 L2267.05,1008.48 L2382.23,1037.84 L2570.29,1136.28 L2601.83,1164.24 L2647.35,1229.74 L2748.23,1302.68" fill-rule="evenodd"/>
  </g>
  <g font-family="Ubuntu" fill="none" stroke-opacity="1" font-size="45.8333" stroke-width="4.25197" font-style="normal" transform="matrix(0.999811,0,0,0.999811,0,0)" stroke="#232323" font-weight="400" stroke-linecap="square" stroke-linejoin="bevel">
   <path vector-effect="none" d="M1858.87,620.195 L1841.89,610.779 L1860.12,622.334 L1868.88,641.352 L1865.09,660.12 L1850.27,673.689 L1728.44,692.008 L1669.68,687.957 L1554.47,741.054 L1508.82,738.976 L1463.07,703.644 L1380.04,700.527 L1261.79,758.024 L1198.07,819.26 L1171.55,894.983 L1136.85,946.895 L1092.87,1135.09 L1040.37,1405.57 L925.057,1604.88 L837.426,1701.47 L799.451,1776.23 L791.777,1953.83 L769.4,2012.22 L771.329,2036.61 L801.901,2063.41 L892.132,2062.82 L935.662,2074.76" fill-rule="evenodd"/>
   <path vector-effect="none" d="M2692.78,1265.53 L2668.48,1277.05 L2360.61,2027.47 L2297.73,2126.86 L2287.62,2172.45 L2294.88,2261.2 L2275.58,2327.94 L2241.5,2367.12 L2234.71,2419.03 L2193.8,2467.13 L2170.01,2552.12 L2128.95,2645.49" fill-rule="evenodd"/>
  </g>
  <g font-family="Ubuntu" fill="none" stroke-opacity="1" font-size="45.8333" stroke-width="12.5197" font-style="normal" transform="matrix(0.999811,0,0,0.999811,0,0)" stroke="#232323" font-weight="400" stroke-linecap="square" stroke-linejoin="bevel">
   <path vector-effect="none" d="" fill-rule="evenodd"/>
   <path vector-effect="none" d="M992.98,-245.204 L975.482,-231.671 L926.266,-224.929 L856.431,-190.803 L840.971,-167.008 L833.644,-120.861 L718.364,-10.8506 L638.607,7.36318 L572.156,-26.91 L490.213,-10.9072 L451.45,25.1176 L423.973,79.7135 L353.953,175.62 L335.112,219.815 L263.276,267.468 L213.854,313.41 L169.92,335.037 L45.3457,473.641 L-231.13,564.487 L-255.676,550.703" fill-rule="evenodd"/>
   <path vector-effect="none" d="" fill-rule="evenodd"/>
  </g>
  <g font-family="Ubuntu" fill="none" stroke-opacity="1" font-size="45.8333" stroke-dashoffset="0" stroke-width="6.25984" font-style="normal" transform="matrix(0.999811,0,0,0.999811,0,0)" stroke="#ffffff" font-weight="400" stroke-linecap="square" stroke-dasharray="35.4331,35.4331" stroke-linejoin="bevel">
   <path vector-effect="none" d="" fill-rule="evenodd"/>
   <path vector-effect="none" d="M992.98,-245.204 L975.482,-231.671 L926.266,-224.929 L856.431,-190.803 L840.971,-167.008 L833.644,-120.861 L718.364,-10.8506 L638.607,7.36318 L572.156,-26.91 L490.213,-10.9072 L451.45,25.1176 L423.973,79.7135 L353.953,175.62 L335.112,219.815 L263.276,267.468 L213.854,313.41 L169.92,335.037 L45.3457,473.641 L-231.13,564.487 L-255.676,550.703" fill-rule="evenodd"/>
   <path vector-effect="none" d="" fill-rule="evenodd"/>
  </g>
  <g font-family="Ubuntu" fill="none" stroke-opacity="1" font-size="45.8333" stroke-width="1" font-style="normal" transform="matrix(0.999811,0,0,0.999811,0,0)" stroke="#000000" font-weight="400" stroke-linecap="square" stroke-linejoin="bevel"/>
  <g font-family="Ubuntu" fill="#ffffff" stroke-opacity="1" font-size="45.8333" stroke-width="4.72441" font-style="normal" transform="matrix(0.999811,0,0,0.999811,0,0)" stroke="#000000" font-weight="400" stroke-linecap="square" fill-opacity="1" stroke-linejoin="bevel">
   <path vector-effect="none" d="M1834.6,599.009 C1834.6,605.532 1829.31,610.82 1822.79,610.82 C1816.27,610.82 1810.98,605.532 1810.98,599.009 C1810.98,592.486 1816.27,587.198 1822.79,587.198 C1829.31,587.198 1834.6,592.486 1834.6,599.009 " fill-rule="evenodd"/>
   <path vector-effect="none" d="M929.577,2069.17 C929.577,2075.7 924.289,2080.99 917.766,2080.99 C911.243,2080.99 905.955,2075.7 905.955,2069.17 C905.955,2062.65 911.243,2057.36 917.766,2057.36 C924.289,2057.36 929.577,2062.65 929.577,2069.17 " fill-rule="evenodd"/>
  </g>
  <g font-family="Ubuntu" fill="none" stroke-opacity="1" font-size="45.8333" stroke-width="1" font-style="normal" transform="matrix(0.999811,0,0,0.999811,0,0)" stroke="#000000" font-weight="400" stroke-linecap="square" stroke-linejoin="bevel"/>
  <g font-family="Ubuntu" fill="none" stroke-opacity="1" font-size="45.8333" stroke-width="1" font-style="normal" transform="matrix(0.999811,0,0,0.999811,0,0)" stroke="#000000" font-weight="400" stroke-linecap="square" stroke-linejoin="bevel"/>
  <g font-family="Ubuntu" fill="none" stroke-opacity="1" font-size="45.8333" stroke-width="1" font-style="normal" transform="matrix(0.999811,0,0,0.999811,0,0)" stroke="#000000" font-weight="400" stroke-linecap="square" stroke-linejoin="bevel"/>
  <g font-family="Ubuntu" fill="none" stroke-opacity="1" font-size="45.8333" stroke-width="1" font-style="normal" transform="matrix(0.999811,0,0,0.999811,0,0)" stroke="#000000" font-weight="400" stroke-linecap="square" stroke-linejoin="bevel"/>
  <g font-family="Ubuntu" fill="none" stroke-opacity="1" font-size="45.8333" stroke-width="1" font-style="normal" transform="matrix(0.319939,0,0,0.319939,1927.08,545.406)" stroke="#000000" font-weight="400" stroke-linecap="square" stroke-linejoin="bevel"/>
  <g font-family="Ubuntu" fill="#6d6d6d" font-size="45.8333" font-style="normal" transform="matrix(0.999811,0,0,0.999811,1927.08,545.406)" stroke="none" font-weight="400" fill-opacity="0.694118">
   <path vector-effect="non-scaling-stroke" d="M-91.4563,-49.3 L91.4563,-49.3 L91.4563,49.3 L-91.4563,49.3 L-91.4563,-49.3" fill-rule="evenodd"/>
  </g>
  <g font-family="Ubuntu" fill="none" stroke-opacity="1" font-size="45.8333" stroke-width="1" font-style="normal" transform="matrix(0.319939,0,0,0.319939,1927.08,545.406)" stroke="#000000" font-weight="400" stroke-linecap="square" stroke-linejoin="bevel"/>
  <g font-family="Ubuntu" fill="none" stroke-opacity="1" font-size="45.8333" stroke-width="1" font-style="normal" transform="matrix(0.999811,0,0,0.999811,0,0)" stroke="#000000" font-weight="400" stroke-linecap="square" stroke-linejoin="bevel"/>
  <g font-family="Ubuntu" fill="none" stroke-opacity="1" font-size="42" stroke-width="1" font-style="normal" transform="matrix(0.999811,0,0,0.999811,1836.94,535.407)" stroke="#ffffff" font-weight="400" stroke-linecap="square" stroke-linejoin="bevel">
   <text font-family="Ubuntu" fill="#ffffff" font-size="42" font-style="normal" xml:space="preserve" stroke="none" font-weight="400" x="0" fill-opacity="1" y="0">Голутвин</text>
  </g>
  <g font-family="Ubuntu" fill="none" stroke-opacity="1" font-size="45.8333" stroke-width="1" font-style="normal" transform="matrix(0.999811,0,0,0.999811,0,0)" stroke="#000000" font-weight="400" stroke-linecap="square" stroke-linejoin="bevel"/>
  <g font-family="Ubuntu" fill="none" stroke-opacity="1" font-size="42" stroke-width="1" font-style="normal" transform="matrix(0.999811,0,0,0.999811,1836.94,583.398)" stroke="#ffffff" font-weight="400" stroke-linecap="square" stroke-linejoin="bevel">
   <text font-family="Ubuntu" fill="#ffffff" font-size="42" font-style="normal" xml:space="preserve" stroke="none" font-weight="400" x="0" fill-opacity="1" y="0">Golutvin</text>
  </g>
  <g font-family="Ubuntu" fill="none" stroke-opacity="1" font-size="45.8333" stroke-width="1" font-style="normal" transform="matrix(0.999811,0,0,0.999811,0,0)" stroke="#000000" font-weight="400" stroke-linecap="square" stroke-linejoin="bevel"/>
  <g font-family="Ubuntu" fill="none" stroke-opacity="1" font-size="45.8333" stroke-width="1" font-style="normal" transform="matrix(0.319939,0,0,0.319939,998.436,2015.29)" stroke="#000000" font-weight="400" stroke-linecap="square" stroke-linejoin="bevel"/>
  <g font-family="Ubuntu" fill="#6d6d6d" font-size="45.8333" font-style="normal" transform="matrix(0.999811,0,0,0.999811,998.436,2015.29)" stroke="none" font-weight="400" fill-opacity="0.694118">
   <path vector-effect="non-scaling-stroke" d="M-67.6594,-49.3 L67.6594,-49.3 L67.6594,49.3 L-67.6594,49.3 L-67.6594,-49.3" fill-rule="evenodd"/>
  </g>
  <g font-family="Ubuntu" fill="none" stroke-opacity="1" font-size="45.8333" stroke-width="1" font-style="normal" transform="matrix(0.319939,0,0,0.319939,998.436,2015.29)" stroke="#000000" font-weight="400" stroke-linecap="square" stroke-linejoin="bevel"/>
  <g font-family="Ubuntu" fill="none" stroke-opacity="1" font-size="45.8333" stroke-width="1" font-style="normal" transform="matrix(0.999811,0,0,0.999811,0,0)" stroke="#000000" font-weight="400" stroke-linecap="square" stroke-linejoin="bevel"/>
  <g font-family="Ubuntu" fill="none" stroke-opacity="1" font-size="42" stroke-width="1" font-style="normal" transform="matrix(0.999811,0,0,0.999811,932.089,2005.29)" stroke="#ffffff" font-weight="400" stroke-linecap="square" stroke-linejoin="bevel">
   <text font-family="Ubuntu" fill="#ffffff" font-size="42" font-style="normal" xml:space="preserve" stroke="none" font-weight="400" x="0" fill-opacity="1" y="0">Озёры</text>
  </g>
  <g font-family="Ubuntu" fill="none" stroke-opacity="1" font-size="45.8333" stroke-width="1" font-style="normal" transform="matrix(0.999811,0,0,0.999811,0,0)" stroke="#000000" font-weight="400" stroke-linecap="square" stroke-linejoin="bevel"/>
  <g font-family="Ubuntu" fill="none" stroke-opacity="1" font-size="42" stroke-width="1" font-style="normal" transform="matrix(0.999811,0,0,0.999811,932.089,2053.29)" stroke="#ffffff" font-weight="400" stroke-linecap="square" stroke-linejoin="bevel">
   <text font-family="Ubuntu" fill="#ffffff" font-size="42" font-style="normal" xml:space="preserve" stroke="none" font-weight="400" x="0" fill-opacity="1" y="0">Ozory</text>
  </g>
  <g font-family="Ubuntu" fill="none" stroke-opacity="1" font-size="45.8333" stroke-width="1" font-style="normal" transform="matrix(0.999811,0,0,0.999811,0,0)" stroke="#000000" font-weight="400" stroke-linecap="square" stroke-linejoin="bevel"/>
  <g font-family="Ubuntu" fill="none" stroke-opacity="1" font-size="45.8333" stroke-width="1" font-style="normal" transform="matrix(11.8088,0,0,11.8088,0,0)" stroke="#000000" font-weight="400" stroke-linecap="square" stroke-linejoin="bevel"/>
  <g font-family="Ubuntu" fill="none" stroke-opacity="1" font-size="45.8333" stroke-width="1" font-style="normal" transform="matrix(11.8088,0,0,11.8088,0,0)" stroke="#000000" font-weight="400" stroke-linecap="square" stroke-linejoin="bevel"/>
  <g font-family="Ubuntu" fill="none" stroke-opacity="1" font-size="45.8333" stroke-width="1" font-style="normal" transform="matrix(11.8088,0,0,11.8088,0,0)" stroke="#000000" font-weight="400" stroke-linecap="square" stroke-linejoin="bevel"/>
  <g font-family="Ubuntu" fill="none" stroke-opacity="0.184314" font-size="45.8333" stroke-width="3.54331" font-style="normal" transform="matrix(0.999811,0,0,0.999811,0,0)" stroke="#000000" font-weight="400" stroke-linecap="butt" stroke-linejoin="bevel">
   <path vector-effect="none" d="M220.629,0 L220.629,2393.22" fill-rule="evenodd"/>
   <path vector-effect="none" d="M809.531,0 L809.531,2393.22" fill-rule="evenodd"/>
   <path vector-effect="none" d="M1398.43,0 L1398.43,2393.22" fill-rule="evenodd"/>
   <path vector-effect="none" d="M1987.33,0 L1987.33,2393.22" fill-rule="evenodd"/>
   <path vector-effect="none" d="M0,2036.39 L2497.47,2036.39" fill-rule="evenodd"/>
   <path vector-effect="none" d="M0,1447.49 L2497.47,1447.49" fill-rule="evenodd"/>
   <path vector-effect="none" d="M0,858.59 L2497.47,858.59" fill-rule="evenodd"/>
   <path vector-effect="none" d="M0,269.688 L2497.47,269.688" fill-rule="evenodd"/>
  </g>
  <g font-family="Ubuntu" fill="none" stroke-opacity="0.184314" font-size="45.8333" stroke-width="3.54331" font-style="normal" transform="matrix(0.999811,0,0,0.999811,0,0)" stroke="#000000" font-weight="400" stroke-linecap="butt" stroke-linejoin="bevel"/>
  <g font-family="Ubuntu" fill="none" stroke-opacity="0.184314" font-size="45.8333" stroke-width="3.54331" font-style="normal" transform="matrix(11.8088,0,0,11.8088,0,0)" stroke="#000000" font-weight="400" stroke-linecap="butt" stroke-linejoin="bevel"/>
  <g font-family="Ubuntu" fill="none" stroke-opacity="1" font-size="45.8333" stroke-width="1" font-style="normal" transform="matrix(11.8088,0,0,11.8088,0,0)" stroke="#000000" font-weight="400" stroke-linecap="square" stroke-linejoin="bevel"/>
  <g font-family="Ubuntu" fill="none" stroke-opacity="1" font-size="45.8333" stroke-width="1" font-style="normal" transform="matrix(11.8088,0,0,11.8088,0,0)" stroke="#000000" font-weight="400" stroke-linecap="square" stroke-linejoin="bevel"/>
  <g font-family="Ubuntu" fill="none" stroke-opacity="1" font-size="45.8333" stroke-width="1" font-style="normal" transform="matrix(1,0,0,1,0,0)" stroke="#000000" font-weight="400" stroke-linecap="square" stroke-linejoin="bevel"/>
  <g font-family="Ubuntu" fill="none" stroke-opacity="1" font-size="45.8333" stroke-width="1" font-style="normal" transform="matrix(11.8088,0,0,11.8088,0,0)" stroke="#000000" font-weight="400" stroke-linecap="square" stroke-linejoin="bevel"/>
  <g font-family="Ubuntu" fill="none" stroke-opacity="1" font-size="45.8333" stroke-width="1" font-style="normal" transform="matrix(11.8088,0,0,11.8088,0,0)" stroke="#000000" font-weight="400" stroke-linecap="square" stroke-linejoin="bevel"/>
  <g font-family="Ubuntu" fill="none" stroke-opacity="1" font-size="45.8333" stroke-width="1" font-style="normal" transform="matrix(11.8088,0,0,11.8088,0,2240.35)" stroke="#000000" font-weight="400" stroke-linecap="square" stroke-linejoin="bevel"/>
  <g font-family="Ubuntu" fill="none" stroke-opacity="1" font-size="45.8333" stroke-width="1" font-style="normal" transform="matrix(0.999811,0,0,0.999811,0,2240.35)" stroke="#000000" font-weight="400" stroke-linecap="square" stroke-linejoin="bevel"/>
  <g font-family="Ubuntu" fill="none" stroke-miterlimit="2" stroke-opacity="1" font-size="45.8333" stroke-width="3.54331" font-style="normal" transform="matrix(0.999811,0,0,0.999811,0,2240.35)" stroke="#000000" font-weight="400" stroke-linecap="square" stroke-linejoin="miter">
   <path vector-effect="none" d="M29.4481,129.677 L29.4481,94.2441" fill-rule="evenodd"/>
   <path vector-effect="none" d="M618.35,129.677 L618.35,94.2441" fill-rule="evenodd"/>
   <path vector-effect="none" d="M29.4481,111.961 L618.35,111.961" fill-rule="evenodd"/>
  </g>
  <g font-family="Ubuntu" fill="none" stroke-opacity="1" font-size="45.8333" stroke-width="1" font-style="normal" transform="matrix(0.999811,0,0,0.999811,0,2240.35)" stroke="#000000" font-weight="400" stroke-linecap="square" stroke-linejoin="bevel"/>
  <g font-family="Ubuntu" fill="none" stroke-opacity="1" font-size="50" stroke-width="1" font-style="normal" transform="matrix(0.999811,0,0,0.999811,15.3514,2299.15)" stroke="#000000" font-weight="400" stroke-linecap="square" stroke-linejoin="bevel">
   <text font-family="Ubuntu" fill="#000000" font-size="50" font-style="normal" xml:space="preserve" stroke="none" font-weight="400" x="0" fill-opacity="1" y="0">0</text>
  </g>
  <g font-family="Ubuntu" fill="none" stroke-opacity="1" font-size="45.8333" stroke-width="1" font-style="normal" transform="matrix(0.999811,0,0,0.999811,0,2240.35)" stroke="#000000" font-weight="400" stroke-linecap="square" stroke-linejoin="bevel"/>
  <g font-family="Ubuntu" fill="none" stroke-opacity="1" font-size="50" stroke-width="1" font-style="normal" transform="matrix(0.999811,0,0,0.999811,590.05,2299.15)" stroke="#000000" font-weight="400" stroke-linecap="square" stroke-linejoin="bevel">
   <text font-family="Ubuntu" fill="#000000" font-size="50" font-style="normal" xml:space="preserve" stroke="none" font-weight="400" x="0" fill-opacity="1" y="0">10 km</text>
  </g>
  <g font-family="Ubuntu" fill="none" stroke-opacity="1" font-size="45.8333" stroke-width="1" font-style="normal" transform="matrix(0.999811,0,0,0.999811,0,2240.35)" stroke="#000000" font-weight="400" stroke-linecap="square" stroke-linejoin="bevel"/>
  <g font-family="Ubuntu" fill="none" stroke-opacity="1" font-size="45.8333" stroke-width="1" font-style="normal" transform="matrix(0.999811,0,0,0.999811,0,2240.35)" stroke="#000000" font-weight="400" stroke-linecap="square" stroke-linejoin="bevel"/>
  <g font-family="Ubuntu" fill="none" stroke-opacity="1" font-size="45.8333" stroke-width="1" font-style="normal" transform="matrix(11.8088,0,0,11.8088,0,2240.35)" stroke="#000000" font-weight="400" stroke-linecap="square" stroke-linejoin="bevel"/>
  <g font-family="Ubuntu" fill="none" stroke-opacity="1" font-size="45.8333" stroke-width="1" font-style="normal" transform="matrix(11.8088,0,0,11.8088,0,2240.35)" stroke="#000000" font-weight="400" stroke-linecap="square" stroke-linejoin="bevel"/>
  <g font-family="Ubuntu" fill="none" stroke-opacity="1" font-size="45.8333" stroke-width="1" font-style="normal" transform="matrix(11.8088,0,0,11.8088,1724.16,2209.17)" stroke="#000000" font-weight="400" stroke-linecap="square" stroke-linejoin="bevel"/>
  <g font-family="Ubuntu" fill="none" stroke-opacity="1" font-size="45.8333" stroke-width="1" font-style="normal" transform="matrix(0.999811,0,0,0.999811,1724.16,2209.17)" stroke="#000000" font-weight="400" stroke-linecap="square" stroke-linejoin="bevel"/>
  <g font-family="Ubuntu" fill="none" stroke-opacity="1" font-size="417" stroke-width="1" font-style="normal" transform="matrix(0.0999811,0,0,0.0999811,1910.95,2382.04)" stroke="#000000" font-weight="400" stroke-linecap="square" stroke-linejoin="bevel">
   <text font-family="Ubuntu" fill="#000000" font-size="417" font-style="normal" xml:space="preserve" stroke="none" font-weight="400" x="0" fill-opacity="1" y="0">basemap data: Openstreetmap</text>
  </g>
  <g font-family="Ubuntu" fill="none" stroke-opacity="1" font-size="45.8333" stroke-width="1" font-style="normal" transform="matrix(0.999811,0,0,0.999811,1724.16,2209.17)" stroke="#000000" font-weight="400" stroke-linecap="square" stroke-linejoin="bevel"/>
  <g font-family="Ubuntu" fill="none" stroke-opacity="1" font-size="45.8333" stroke-width="1" font-style="normal" transform="matrix(0.999811,0,0,0.999811,1724.16,2209.17)" stroke="#000000" font-weight="400" stroke-linecap="square" stroke-linejoin="bevel"/>
  <g font-family="Ubuntu" fill="none" stroke-opacity="1" font-size="45.8333" stroke-width="1" font-style="normal" transform="matrix(11.8088,0,0,11.8088,1724.16,2209.17)" stroke="#000000" font-weight="400" stroke-linecap="square" stroke-linejoin="bevel"/>
  <g font-family="Ubuntu" fill="none" stroke-opacity="1" font-size="45.8333" stroke-width="1" font-style="normal" transform="matrix(11.8088,0,0,11.8088,1724.16,2209.17)" stroke="#000000" font-weight="400" stroke-linecap="square" stroke-linejoin="bevel"/>
  <g font-family="Ubuntu" fill="none" stroke-opacity="1" font-size="45.8333" stroke-width="1" font-style="normal" transform="matrix(11.8088,0,0,11.8088,0,0)" stroke="#000000" font-weight="400" stroke-linecap="square" stroke-linejoin="bevel"/>
  <g font-family="Ubuntu" fill="none" stroke-opacity="1" font-size="45.8333" stroke-width="1" font-style="normal" transform="matrix(11.8088,0,0,11.8088,0,0)" stroke="#000000" font-weight="400" stroke-linecap="square" stroke-linejoin="bevel"/>
  <g font-family="Ubuntu" fill="none" stroke-opacity="1" font-size="45.8333" stroke-width="1" font-style="normal" transform="matrix(1,0,0,1,0,0)" stroke="#000000" font-weight="400" stroke-linecap="square" stroke-linejoin="bevel"/>
 </g>
 <metadata>
  <rdf:RDF xmlns:rdf="http://www.w3.org/1999/02/22-rdf-syntax-ns#" xmlns:dc="http://purl.org/dc/elements/1.1/" xmlns:rdfs="http://www.w3.org/2000/01/rdf-schema#">
   <rdf:Description dc:title="" dc:date="2000-01-01T00:00:00" dc:identifier="" dc:description="" dc:format="image/svg+xml">
    <dc:creator>
     <rdf:Bag>
      <rdf:li></rdf:li>
     </rdf:Bag>
    </dc:creator>
    <dc:publisher>
     <rdf:Bag>
      <rdf:li>QGIS 3.24.0-Tisler</rdf:li>
     </rdf:Bag>
    </dc:publisher>
    <dc:subject>
     <rdf:Bag/>
    </dc:subject>
   </rdf:Description>
   <cc:Work rdf:about="">
    <dc:format>image/svg+xml</dc:format>
    <dc:title></dc:title>
    <dc:date>2000-01-01T00:00:00</dc:date>
    <dc:identifier></dc:identifier>
    <dc:description></dc:description>
    <dc:creator>
     <cc:Agent>
      <dc:title></dc:title>
     </cc:Agent>
    </dc:creator>
    <dc:publisher>
     <cc:Agent>
      <dc:title>QGIS 3.24.0-Tisler</dc:title>
     </cc:Agent>
    </dc:publisher>
   </cc:Work>
  </rdf:RDF>
 </metadata>
</svg>
