<?xml version='1.0' encoding='UTF-8' standalone='no'?>
<svg viewBox="0 0 2497 2393" baseProfile="tiny" version="1.2" xmlns:xlink="http://www.w3.org/1999/xlink" xmlns="http://www.w3.org/2000/svg" xmlns:cc="http://creativecommons.org/ns#" height="202.607mm" width="211.413mm">
 <defs/>
 <g fill="none" stroke-width="1" stroke="black" stroke-linecap="square" fill-rule="evenodd" stroke-linejoin="bevel">
  <g font-family="Ubuntu" fill="none" stroke-opacity="1" font-size="45.8333" stroke-width="1" font-style="normal" transform="matrix(1,0,0,1,0,0)" stroke="#000000" font-weight="400" stroke-linecap="square" stroke-linejoin="bevel"/>
  <g font-family="Ubuntu" fill="none" stroke-opacity="1" font-size="45.8333" stroke-width="1" font-style="normal" transform="matrix(1,0,0,1,0,0)" stroke="#000000" font-weight="400" stroke-linecap="square" stroke-linejoin="bevel"/>
  <g font-family="Ubuntu" fill="none" stroke-opacity="1" font-size="45.8333" stroke-width="1" font-style="normal" transform="matrix(11.8088,0,0,11.8088,0,0)" stroke="#000000" font-weight="400" stroke-linecap="square" stroke-linejoin="bevel"/>
  <g font-family="Ubuntu" fill="none" stroke-opacity="1" font-size="45.8333" stroke-width="1" font-style="normal" transform="matrix(0.999811,0,0,0.999811,0,0)" stroke="#000000" font-weight="400" stroke-linecap="square" stroke-linejoin="bevel"/>
  <g font-family="Ubuntu" fill="#ffffff" font-size="45.8333" font-style="normal" transform="matrix(0.999811,0,0,0.999811,0,0)" stroke="none" font-weight="400" fill-opacity="1">
   <path vector-effect="none" d="M-2,-2 L2500,-2 L2500,2396 L-2,2396 L-2,-2" fill-rule="evenodd"/>
  </g>
  <g font-family="Ubuntu" fill="none" stroke-opacity="1" font-size="45.8333" stroke-width="1" font-style="normal" transform="matrix(0.999811,0,0,0.999811,0,0)" stroke="#000000" font-weight="400" stroke-linecap="square" stroke-linejoin="bevel"/>
  <g font-family="Ubuntu" fill="none" stroke-opacity="1" font-size="45.8333" stroke-width="1" font-style="normal" transform="matrix(11.8088,0,0,11.8088,0,0)" stroke="#000000" font-weight="400" stroke-linecap="square" stroke-linejoin="bevel"/>
  <g font-family="Ubuntu" fill="none" stroke-opacity="1" font-size="45.8333" stroke-width="1" font-style="normal" transform="matrix(11.8088,0,0,11.8088,0,0)" stroke="#000000" font-weight="400" stroke-linecap="square" stroke-linejoin="bevel"/>
  <g font-family="Ubuntu" fill="none" stroke-opacity="1" font-size="45.8333" stroke-width="1" font-style="normal" transform="matrix(11.8088,0,0,11.8088,0,0)" stroke="#000000" font-weight="400" stroke-linecap="square" stroke-linejoin="bevel"/>
  <g font-family="Ubuntu" fill="none" stroke-opacity="1" font-size="45.8333" stroke-width="1" font-style="normal" transform="matrix(11.8088,0,0,11.8088,0,0)" stroke="#000000" font-weight="400" stroke-linecap="square" stroke-linejoin="bevel"/>
  <g font-family="Ubuntu" fill="none" stroke-opacity="1" font-size="45.8333" stroke-width="1" font-style="normal" transform="matrix(11.8088,0,0,11.8088,0,0)" stroke="#000000" font-weight="400" stroke-linecap="square" stroke-linejoin="bevel"/>
  <g font-family="Ubuntu" fill="#1a1a1a" font-size="45.8333" font-style="normal" transform="matrix(11.8088,0,0,11.8088,0,0)" stroke="none" font-weight="400" fill-opacity="1">
   <path vector-effect="none" d="M0,0 L211.453,0 L211.453,202.626 L0,202.626 L0,0" fill-rule="evenodd"/>
  </g>
  <g font-family="Ubuntu" fill="none" stroke-opacity="1" font-size="45.8333" stroke-width="1" font-style="normal" transform="matrix(11.8088,0,0,11.8088,0,0)" stroke="#000000" font-weight="400" stroke-linecap="square" stroke-linejoin="bevel"/>
  <g font-family="Ubuntu" fill="none" stroke-opacity="1" font-size="45.8333" stroke-width="1" font-style="normal" transform="matrix(11.8088,0,0,11.8088,0,0)" stroke="#000000" font-weight="400" stroke-linecap="square" stroke-linejoin="bevel"/>
  <g font-family="Ubuntu" fill="#000000" font-size="45.8333" font-style="normal" transform="matrix(0.999811,0,0,0.999811,0,0)" stroke="none" font-weight="400" fill-opacity="0">
   <rect x="0" height="2393" y="0" width="2497"/>
  </g>
  <g font-family="Ubuntu" fill="none" stroke-opacity="1" font-size="45.8333" stroke-width="1" font-style="normal" transform="matrix(0.999811,0,0,0.999811,0,0)" stroke="#000000" font-weight="400" stroke-linecap="square" stroke-linejoin="bevel"/>
  <g font-family="Ubuntu" fill="#fff5de" font-size="45.8333" font-style="normal" transform="matrix(0.999811,0,0,0.999811,0,0)" stroke="none" font-weight="400" fill-opacity="1">
   <path vector-effect="none" d="M-368.898,2620.4 L-237.095,-283.313 L2738.85,-260.347 L2826.45,2644.33 L-368.898,2620.4" fill-rule="evenodd"/>
  </g>
  <g font-family="Ubuntu" fill="none" stroke-opacity="1" font-size="45.8333" stroke-width="1" font-style="normal" transform="matrix(0.999811,0,0,0.999811,0,0)" stroke="#000000" font-weight="400" stroke-linecap="square" stroke-linejoin="bevel"/>
  <g font-family="Ubuntu" fill="none" stroke-opacity="1" font-size="45.8333" stroke-width="12.5197" font-style="normal" transform="matrix(0.999811,0,0,0.999811,0,0)" stroke="#232323" font-weight="400" stroke-linecap="square" stroke-linejoin="bevel">
   <path vector-effect="none" d="M2769.79,755.767 L2731.07,712.221 L2608.08,575.45 L2599.53,569.009 L2448.29,515.758 L2437.74,509.549 L2349.85,406.588 L2324.94,384.169 L2301.04,334.227 L2296.24,327.983 L2203.96,228.248 L2191.82,221.127 L2170.91,215.016 L2161.58,208.731 L2062.63,87.7361 L2002.48,23.7598 L1964.71,-22.8746 L1904.26,-79.6445 L1814.71,-203.617 L1783.98,-242.868" fill-rule="evenodd"/>
  </g>
  <g font-family="Ubuntu" fill="none" stroke-opacity="1" font-size="45.8333" stroke-dashoffset="0" stroke-width="6.25984" font-style="normal" transform="matrix(0.999811,0,0,0.999811,0,0)" stroke="#ffffff" font-weight="400" stroke-linecap="square" stroke-dasharray="35.4331,35.4331" stroke-linejoin="bevel">
   <path vector-effect="none" d="M2769.79,755.767 L2731.07,712.221 L2608.08,575.45 L2599.53,569.009 L2448.29,515.758 L2437.74,509.549 L2349.85,406.588 L2324.94,384.169 L2301.04,334.227 L2296.24,327.983 L2203.96,228.248 L2191.82,221.127 L2170.91,215.016 L2161.58,208.731 L2062.63,87.7361 L2002.48,23.7598 L1964.71,-22.8746 L1904.26,-79.6445 L1814.71,-203.617 L1783.98,-242.868" fill-rule="evenodd"/>
  </g>
  <g font-family="Ubuntu" fill="none" stroke-opacity="1" font-size="45.8333" stroke-width="7.79528" font-style="normal" transform="matrix(0.999811,0,0,0.999811,0,0)" stroke="#000000" font-weight="400" stroke-linecap="round" stroke-linejoin="round">
   <path vector-effect="none" d="M2811.66,2147.89 L2777.5,2139.65 L2767.24,2138.14 L2745.6,2140.25 L2736.21,2137.42 L2729.06,2133.27 L2712.64,2132.07 L2702.5,2127.28 L2672.58,2123.34 L2660.97,2126.36 L2638.91,2118.46 L2570.87,2110.53 L2561.35,2114.8 L2547.9,2114.36 L2526.22,2121.81 L2518.23,2117.73 L2515.22,2112.38 L2512.79,2104.54 L2499.6,2094.92 L2492.06,2092.65 L2483.25,2096.93 L2476.17,2096.77 L2472.79,2093.72 L2470.75,2087.26 L2467.49,2083.29 L2438.04,2062.66 L2388.85,2041.85 L2382.63,2035.94 L2372.13,2018.66 L2368.05,2016.44 L2350.68,2017.05 L2199.97,2039.23 L2078.68,2065.66 L1994.45,2072.97 L1936.98,2073.04 L1748.63,2047.1 L1741.21,2047.96 L1730.86,2044.77 L1721.47,2044.45 L1710.21,2047.74 L1697.86,2043.59 L1673.51,2041.02 L1651.74,2036.16 L1645.81,2037.04 L1638.64,2045.58 L1632.37,2049.63 L1623.92,2052.14 L1615.77,2047.89 L1604.9,2045.3 L1504.26,2034.34 L1408.52,2044.79 L1393.48,2041.25 L1217.09,2026.9 L1165.53,2014.49 L1148.57,2012.69 L1117.65,2003.69 L1085.49,1991.06 L1026.72,1984.16 L1016.21,1986.98 L1003.44,1993.76 L990.668,1997.1 L977.125,1992.52 L965.603,1991.39 L948.301,1984.14 L932.712,1984.21 L925.278,1981.96 L908.504,1969.28 L897.375,1963.29 L889.429,1961.66 L877.742,1963.35 L869.025,1959.85 L845.219,1959.38 L839.381,1957.88 L828.865,1960.09 L821.153,1958.96 L794.391,1964.58 L775.826,1964.39 L759.927,1972.48 L746.868,1973.55 L716.752,1970.85 L709.883,1968.02 L696.228,1968.26 L683.6,1970.97 L638.304,1960.51 L594.497,1955.53 L585.036,1956.8 L559.151,1964.75 L550.102,1964.64 L536.356,1967.99 L531.182,1966.94 L523.088,1960.57 L511.159,1958.99 L498.655,1953.23 L487.231,1955.92 L477.591,1952.36 L465.498,1953.79 L457.794,1959.65 L452.024,1960.97 L391.052,1960.56 L385.7,1958.15 L374.853,1956.94 L362.499,1952.2 L355.247,1951.98 L332.519,1941.89 L325.858,1942.84 L317.39,1947.85 L308.506,1947.13 L302.088,1943.63 L297.638,1936.43 L289.065,1934.4 L276.048,1924.79 L270.665,1923 L257.419,1912.55 L234.91,1909.18 L217.352,1913.09 L204.462,1907.71 L180.427,1904.54 L174.35,1905.77 L160.107,1904.38 L121.313,1889.14 L105.216,1892.05 L77.2627,1887.65 L53.6276,1890.09 L40.4757,1895.8 L22.4395,1889.97 L16.9392,1893.41 L10.9791,1905.2 L6.07675,1907.32 L-1.99176,1907.45 L-11.2496,1903.71 L-20.3638,1906.11 L-26.3381,1903.97 L-61.1773,1900.18 L-73.4754,1904.6 L-81.9955,1902.46 L-103.204,1907.01 L-119.797,1903.98 L-132.911,1907.23 L-145.764,1902.41 L-150.65,1898.74 L-165.457,1893.3 L-174.766,1891.99 L-181.07,1888.42 L-184.607,1882.97 L-186.722,1867.03 L-192.861,1861.67 L-199.304,1861.73 L-210.647,1857.91 L-221.901,1860.78 L-227.439,1860.82 L-234.797,1858.09 L-247.14,1860.11 L-268.318,1860.05 L-281.255,1854.09 L-289.879,1852.53 L-293.454,1854.14 L-297.655,1861.01 L-301.426,1862.32 L-308.374,1859.64 L-314.538,1853.28 L-320.828,1850.56 L-334.355,1850.84" fill-rule="evenodd"/>
  </g>
  <g font-family="Ubuntu" fill="none" stroke-opacity="1" font-size="45.8333" stroke-dashoffset="0" stroke-width="3.89764" font-style="normal" transform="matrix(0.999811,0,0,0.999811,0,0)" stroke="#ffffff" font-weight="400" stroke-linecap="square" stroke-dasharray="35.4331,35.4331" stroke-linejoin="bevel">
   <path vector-effect="none" d="M2811.66,2147.89 L2777.5,2139.65 L2767.24,2138.14 L2745.6,2140.25 L2736.21,2137.42 L2729.06,2133.27 L2712.64,2132.07 L2702.5,2127.28 L2672.58,2123.34 L2660.97,2126.36 L2638.91,2118.46 L2570.87,2110.53 L2561.35,2114.8 L2547.9,2114.36 L2526.22,2121.81 L2518.23,2117.73 L2515.22,2112.38 L2512.79,2104.54 L2499.6,2094.92 L2492.06,2092.65 L2483.25,2096.93 L2476.17,2096.77 L2472.79,2093.72 L2470.75,2087.26 L2467.49,2083.29 L2438.04,2062.66 L2388.85,2041.85 L2382.63,2035.94 L2372.13,2018.66 L2368.05,2016.44 L2350.68,2017.05 L2199.97,2039.23 L2078.68,2065.66 L1994.45,2072.97 L1936.98,2073.04 L1748.63,2047.1 L1741.21,2047.96 L1730.86,2044.77 L1721.47,2044.45 L1710.21,2047.74 L1697.86,2043.59 L1673.51,2041.02 L1651.74,2036.16 L1645.81,2037.04 L1638.64,2045.58 L1632.37,2049.63 L1623.92,2052.14 L1615.77,2047.89 L1604.9,2045.3 L1504.26,2034.34 L1408.52,2044.79 L1393.48,2041.25 L1217.09,2026.9 L1165.53,2014.49 L1148.57,2012.69 L1117.65,2003.69 L1085.49,1991.06 L1026.72,1984.16 L1016.21,1986.98 L1003.44,1993.76 L990.668,1997.1 L977.125,1992.52 L965.603,1991.39 L948.301,1984.14 L932.712,1984.21 L925.278,1981.96 L908.504,1969.28 L897.375,1963.29 L889.429,1961.66 L877.742,1963.35 L869.025,1959.85 L845.219,1959.38 L839.381,1957.88 L828.865,1960.09 L821.153,1958.96 L794.391,1964.58 L775.826,1964.39 L759.927,1972.48 L746.868,1973.55 L716.752,1970.85 L709.883,1968.02 L696.228,1968.26 L683.6,1970.97 L638.304,1960.51 L594.497,1955.53 L585.036,1956.8 L559.151,1964.75 L550.102,1964.64 L536.356,1967.99 L531.182,1966.94 L523.088,1960.57 L511.159,1958.99 L498.655,1953.23 L487.231,1955.92 L477.591,1952.36 L465.498,1953.79 L457.794,1959.65 L452.024,1960.97 L391.052,1960.56 L385.7,1958.15 L374.853,1956.94 L362.499,1952.2 L355.247,1951.98 L332.519,1941.89 L325.858,1942.84 L317.39,1947.85 L308.506,1947.13 L302.088,1943.63 L297.638,1936.43 L289.065,1934.4 L276.048,1924.79 L270.665,1923 L257.419,1912.55 L234.91,1909.18 L217.352,1913.09 L204.462,1907.71 L180.427,1904.54 L174.35,1905.77 L160.107,1904.38 L121.313,1889.14 L105.216,1892.05 L77.2627,1887.65 L53.6276,1890.09 L40.4757,1895.8 L22.4395,1889.97 L16.9392,1893.41 L10.9791,1905.2 L6.07675,1907.32 L-1.99176,1907.45 L-11.2496,1903.71 L-20.3638,1906.11 L-26.3381,1903.97 L-61.1773,1900.18 L-73.4754,1904.6 L-81.9955,1902.46 L-103.204,1907.01 L-119.797,1903.98 L-132.911,1907.23 L-145.764,1902.41 L-150.65,1898.74 L-165.457,1893.3 L-174.766,1891.99 L-181.07,1888.42 L-184.607,1882.97 L-186.722,1867.03 L-192.861,1861.67 L-199.304,1861.73 L-210.647,1857.91 L-221.901,1860.78 L-227.439,1860.82 L-234.797,1858.09 L-247.14,1860.11 L-268.318,1860.05 L-281.255,1854.09 L-289.879,1852.53 L-293.454,1854.14 L-297.655,1861.01 L-301.426,1862.32 L-308.374,1859.64 L-314.538,1853.28 L-320.828,1850.56 L-334.355,1850.84" fill-rule="evenodd"/>
  </g>
  <g font-family="Ubuntu" fill="none" stroke-opacity="1" font-size="45.8333" stroke-width="4.25197" font-style="normal" transform="matrix(0.999811,0,0,0.999811,0,0)" stroke="#232323" font-weight="400" stroke-linecap="square" stroke-linejoin="bevel">
   <path vector-effect="none" d="M1181.66,2018.36 L1184.9,2020.48 L1194.75,2033.36 L1196.63,2052.86 L1195.03,2068.93 L1195.51,2073.73 L1193.97,2079.03 L1193.38,2090.56 L1184.49,2104.47 L1135.75,2300.37 L1120.92,2317.92 L1122.31,2352.38 L1108.96,2402.74 L1100.13,2444.42 L1101.12,2447.64" fill-rule="evenodd"/>
  </g>
  <g font-family="Ubuntu" fill="none" stroke-opacity="1" font-size="45.8333" stroke-width="7.79528" font-style="normal" transform="matrix(0.999811,0,0,0.999811,0,0)" stroke="#000000" font-weight="400" stroke-linecap="round" stroke-linejoin="round">
   <path vector-effect="none" d="M2753.23,210.603 L2711.35,207.914 L2697.49,198.326 L2682.78,197.527 L2622.27,184.374 L2559.58,182.504 L2501.43,160.886 L2473.65,165.101 L2452.27,173.225 L2408.41,177.841 L2402.85,176.851 L2389.9,169.962 L2368.39,171.525 L2333.67,159.965 L2291.92,157.087 L2263.08,173.322 L2260.39,177.2 L2254.82,193.608 L2250.21,198.693 L2227.24,205.694 L2204.24,217 L2203.76,222.901 L2201.19,229.84 L2203.15,236.843 L2202.67,240.847 L2193.73,258.959 L2186.91,262.47 L2184.34,266.516 L2177.53,297.542 L2176.81,315.79 L2174.87,323.062 L2168.48,335.25 L2127.81,381.602 L2103.17,417.017 L2101.75,420.841 L2101.1,427.395 L2096.97,439.619 L2085.23,450.391 L2075.29,464.759 L2068.35,486.226 L2067.49,494.538 L2061.97,506.878 L2060.87,514.998 L2050.26,543.572 L2045.8,560.484 L2037.4,574.875 L2021.47,594.663 L2000.48,616.506 L1985.3,628.985 L1971.84,644.878 L1958.06,667.415 L1944.61,685.377 L1934.41,709.159 L1926.77,721.544 L1915.84,731.591 L1904.29,746.124 L1889.47,753.773 L1879.56,765.143 L1865.96,776.624 L1858.94,779.051 L1846.31,788.563 L1844.69,790.957 L1842.52,800.999 L1824.22,828.87 L1804.65,838.207 L1797.55,846.478 L1793.77,855.039 L1785,864.014 L1778.18,867.799 L1767.63,883.57 L1765.33,890.089 L1756.7,900.349 L1745.35,909.506 L1742.2,914.409 L1713.52,944.144 L1699.13,951.762 L1693.02,957.964 L1671.36,992.9 L1666.66,1005.56 L1660.56,1016.31 L1660.46,1022.57 L1666.78,1041.3 L1667.11,1047.18 L1665.8,1050.49 L1661.57,1053.33 L1657.14,1053.32 L1636.4,1043.12 L1617.67,1044.6 L1613.24,1046.35 L1606.73,1053.41 L1604.66,1066.99 L1602.12,1071.34 L1586.45,1082.94 L1577.51,1086.41 L1567.59,1096.89 L1551.95,1108.54 L1546.67,1116.26 L1538.53,1119.9 L1520.92,1146.4 L1514.72,1150.42 L1503.01,1161.66 L1482.99,1186.47 L1473.67,1194.71 L1470.04,1200.77 L1448.71,1215.65 L1442.33,1221.99 L1440.89,1225.14 L1439.69,1241.59 L1434.2,1250.9 L1400.55,1271.31 L1391.71,1283.38 L1383.98,1285.18 L1344.85,1311.58 L1302.12,1337.67 L1292.65,1347.35 L1281.4,1362.42 L1277.79,1370.73 L1239.7,1418.31 L1230.27,1429.21 L1211.59,1444.56 L1196.12,1472.71 L1166.32,1515.12 L1132.47,1550.04 L1108.36,1567.57 L1106.46,1571.3 L1104.15,1584.67 L1100.53,1589.6 L1031.53,1621.64 L1016.98,1634.03 L1006.92,1640.53 L1000.08,1641.76 L990.596,1639.69 L985.548,1640.55 L980.816,1648.82 L968.884,1656.57 L961.662,1656.18 L948.385,1650.04 L942.872,1644.48 L930.398,1638.39 L925.452,1639.54 L916.585,1646.25 L897.191,1651.34 L880.38,1653.62 L866.107,1653.05 L859.412,1649.9 L853.343,1644.19 L836.916,1641.54 L814.192,1652.33 L795.821,1651.59 L784.437,1658.21 L757.407,1699.72 L750.274,1703.5 L738.816,1712.75 L707.96,1724.05 L662.473,1720.61 L648.657,1725.71 L631.374,1726.3 L621.649,1732.81 L617.035,1745.21 L607.411,1753.33 L598.496,1757.74 L592.138,1763.73 L559.815,1766.47 L543.585,1778.48 L514.442,1787.27 L499.769,1785.04 L489.496,1788.16 L474.626,1788.07 L465.124,1792.07 L450.735,1803.44 L441.811,1807.91 L438.569,1811.35 L435.01,1819 L432.378,1821.37 L415.178,1830 L394.141,1830.63 L377.516,1836.56 L363.826,1834.06 L349.951,1824.94 L338.762,1823.34 L325.125,1824.28 L313.119,1830.04 L287.842,1848.35 L276.34,1859.56 L242.547,1875.83 L212.492,1873.51 L165.845,1874.9 L92.4855,1886.7 L71.6367,1886.62 L51.3267,1890.81 L43.0169,1895.25 L39.2706,1901.31 L25.7614,1912.66 L22.8154,1917.85 L17.2814,1922.89 L9.16087,1938.07 L-0.117766,1951.06 L-13.8206,1959.22 L-28.8097,1972.59 L-53.759,1991.31 L-70.6988,2021.08 L-77.6562,2027.59 L-80.9545,2035.69 L-87.3164,2042.71 L-96.4193,2057.47 L-107.486,2068.15 L-112.86,2076.89 L-129.037,2089.55 L-143.204,2103.01 L-147.952,2113.68 L-160.808,2126.99 L-172.3,2130.72 L-201.657,2154.14 L-209.366,2157.49 L-214.389,2161.77 L-235.765,2164.59 L-251.157,2180.11 L-263.737,2183.77 L-268.887,2188.08 L-277.515,2187.64 L-287.16,2191.66 L-303.781,2192.91 L-333.093,2209.11 L-336.563,2208.88 L-346.553,2203.41 L-350.26,2204.39" fill-rule="evenodd"/>
   <path vector-effect="none" d="" fill-rule="evenodd"/>
  </g>
  <g font-family="Ubuntu" fill="none" stroke-opacity="1" font-size="45.8333" stroke-dashoffset="0" stroke-width="3.89764" font-style="normal" transform="matrix(0.999811,0,0,0.999811,0,0)" stroke="#ffffff" font-weight="400" stroke-linecap="square" stroke-dasharray="35.4331,35.4331" stroke-linejoin="bevel">
   <path vector-effect="none" d="M2753.23,210.603 L2711.35,207.914 L2697.49,198.326 L2682.78,197.527 L2622.27,184.374 L2559.58,182.504 L2501.43,160.886 L2473.65,165.101 L2452.27,173.225 L2408.41,177.841 L2402.85,176.851 L2389.9,169.962 L2368.39,171.525 L2333.67,159.965 L2291.92,157.087 L2263.08,173.322 L2260.39,177.2 L2254.82,193.608 L2250.21,198.693 L2227.24,205.694 L2204.24,217 L2203.76,222.901 L2201.19,229.84 L2203.15,236.843 L2202.67,240.847 L2193.73,258.959 L2186.91,262.47 L2184.34,266.516 L2177.53,297.542 L2176.81,315.79 L2174.87,323.062 L2168.48,335.25 L2127.81,381.602 L2103.17,417.017 L2101.75,420.841 L2101.1,427.395 L2096.97,439.619 L2085.23,450.391 L2075.29,464.759 L2068.35,486.226 L2067.49,494.538 L2061.97,506.878 L2060.87,514.998 L2050.26,543.572 L2045.8,560.484 L2037.4,574.875 L2021.47,594.663 L2000.48,616.506 L1985.3,628.985 L1971.84,644.878 L1958.06,667.415 L1944.61,685.377 L1934.41,709.159 L1926.77,721.544 L1915.84,731.591 L1904.29,746.124 L1889.47,753.773 L1879.56,765.143 L1865.96,776.624 L1858.94,779.051 L1846.31,788.563 L1844.69,790.957 L1842.52,800.999 L1824.22,828.87 L1804.65,838.207 L1797.55,846.478 L1793.77,855.039 L1785,864.014 L1778.18,867.799 L1767.63,883.57 L1765.33,890.089 L1756.7,900.349 L1745.35,909.506 L1742.2,914.409 L1713.52,944.144 L1699.13,951.762 L1693.02,957.964 L1671.36,992.9 L1666.66,1005.56 L1660.56,1016.31 L1660.46,1022.57 L1666.78,1041.3 L1667.11,1047.18 L1665.8,1050.49 L1661.57,1053.33 L1657.14,1053.32 L1636.4,1043.12 L1617.67,1044.6 L1613.24,1046.35 L1606.73,1053.41 L1604.66,1066.99 L1602.12,1071.34 L1586.45,1082.94 L1577.51,1086.41 L1567.59,1096.89 L1551.95,1108.54 L1546.67,1116.26 L1538.53,1119.9 L1520.92,1146.4 L1514.72,1150.42 L1503.01,1161.66 L1482.99,1186.47 L1473.67,1194.71 L1470.04,1200.77 L1448.71,1215.65 L1442.33,1221.99 L1440.89,1225.14 L1439.69,1241.59 L1434.2,1250.9 L1400.55,1271.31 L1391.71,1283.38 L1383.98,1285.18 L1344.85,1311.58 L1302.12,1337.67 L1292.65,1347.35 L1281.4,1362.42 L1277.79,1370.73 L1239.7,1418.31 L1230.27,1429.21 L1211.59,1444.56 L1196.12,1472.71 L1166.32,1515.12 L1132.47,1550.04 L1108.36,1567.57 L1106.46,1571.3 L1104.15,1584.67 L1100.53,1589.6 L1031.53,1621.64 L1016.98,1634.03 L1006.92,1640.53 L1000.08,1641.76 L990.596,1639.69 L985.548,1640.55 L980.816,1648.82 L968.884,1656.57 L961.662,1656.18 L948.385,1650.04 L942.872,1644.48 L930.398,1638.39 L925.452,1639.54 L916.585,1646.25 L897.191,1651.34 L880.38,1653.62 L866.107,1653.05 L859.412,1649.9 L853.343,1644.19 L836.916,1641.54 L814.192,1652.33 L795.821,1651.59 L784.437,1658.21 L757.407,1699.72 L750.274,1703.5 L738.816,1712.75 L707.96,1724.05 L662.473,1720.61 L648.657,1725.71 L631.374,1726.3 L621.649,1732.81 L617.035,1745.21 L607.411,1753.33 L598.496,1757.74 L592.138,1763.73 L559.815,1766.47 L543.585,1778.48 L514.442,1787.27 L499.769,1785.04 L489.496,1788.16 L474.626,1788.07 L465.124,1792.07 L450.735,1803.44 L441.811,1807.91 L438.569,1811.35 L435.01,1819 L432.378,1821.37 L415.178,1830 L394.141,1830.63 L377.516,1836.56 L363.826,1834.06 L349.951,1824.94 L338.762,1823.34 L325.125,1824.28 L313.119,1830.04 L287.842,1848.35 L276.34,1859.56 L242.547,1875.83 L212.492,1873.51 L165.845,1874.9 L92.4855,1886.7 L71.6367,1886.62 L51.3267,1890.81 L43.0169,1895.25 L39.2706,1901.31 L25.7614,1912.66 L22.8154,1917.85 L17.2814,1922.89 L9.16087,1938.07 L-0.117766,1951.06 L-13.8206,1959.22 L-28.8097,1972.59 L-53.759,1991.31 L-70.6988,2021.08 L-77.6562,2027.59 L-80.9545,2035.69 L-87.3164,2042.71 L-96.4193,2057.47 L-107.486,2068.15 L-112.86,2076.89 L-129.037,2089.55 L-143.204,2103.01 L-147.952,2113.68 L-160.808,2126.99 L-172.3,2130.72 L-201.657,2154.14 L-209.366,2157.49 L-214.389,2161.77 L-235.765,2164.59 L-251.157,2180.11 L-263.737,2183.77 L-268.887,2188.08 L-277.515,2187.64 L-287.16,2191.66 L-303.781,2192.91 L-333.093,2209.11 L-336.563,2208.88 L-346.553,2203.41 L-350.26,2204.39" fill-rule="evenodd"/>
   <path vector-effect="none" d="" fill-rule="evenodd"/>
  </g>
  <g font-family="Ubuntu" fill="none" stroke-opacity="1" font-size="45.8333" stroke-width="7.79528" font-style="normal" transform="matrix(0.999811,0,0,0.999811,0,0)" stroke="#000000" font-weight="400" stroke-linecap="round" stroke-linejoin="round">
   <path vector-effect="none" d="" fill-rule="evenodd"/>
   <path vector-effect="none" d="M2156.94,203.807 L2135.85,195.535 L2119.14,191.479 L2067.48,189.488 L2032.81,193.51 L1999.71,191.633 L1992.73,192.855 L1944.15,187.848 L1910.17,179.351 L1899.35,174.722 L1876.23,176.802 L1862.72,170.207 L1848.59,169.35 L1836.56,166.245 L1794.58,165.674 L1761.13,158.124 L1741.74,145.841 L1723.01,145.417 L1712.11,137.167 L1706.33,135.69 L1685.22,122.415 L1680.5,121.314 L1664.74,121.657 L1656.09,125.201 L1633.58,122.672 L1627.99,127.754 L1626.13,134.218 L1621.61,142.622 L1608.39,151.244 L1549.61,161.357 L1520.81,159.322 L1495.11,152.204 L1485.55,153.363 L1477.4,151.838 L1456.76,151.883 L1453.47,149.412 L1451.28,143.06 L1445.53,134.31 L1435.39,127.818 L1420.75,121.535 L1405.25,125.318 L1392.72,132.079 L1389.03,131.246 L1384.51,126.219 L1381.15,125.072 L1365.45,132.121 L1337.53,128.621 L1331.92,129.931 L1313.4,139.737 L1307.6,148.684 L1275.94,179.381 L1234.91,195.108 L1224.54,192.534 L1206.75,181.685 L1187.08,176.285 L1136.04,173.758 L1034.73,177.917 L872.094,152.262 L860.432,154.865 L854.309,159.322 L848.914,160.508 L756.703,137.507 L744.305,128.695 L735.074,124.34 L626.957,81.0195 L617.783,77.7106 L598.548,74.4674 L594.998,75.5688 L582.954,85.617 L360.531,141.981 L277.522,140.361 L146.37,155.019 L10.6125,177.35 L-86.6984,210.547 L-134.792,220.7 L-221.591,246.82 L-252.601,252.324 L-261.749,253.309" fill-rule="evenodd"/>
   <path vector-effect="none" d="M2156.94,203.807 L2159.28,206.111" fill-rule="evenodd"/>
  </g>
  <g font-family="Ubuntu" fill="none" stroke-opacity="1" font-size="45.8333" stroke-dashoffset="0" stroke-width="3.89764" font-style="normal" transform="matrix(0.999811,0,0,0.999811,0,0)" stroke="#ffffff" font-weight="400" stroke-linecap="square" stroke-dasharray="35.4331,35.4331" stroke-linejoin="bevel">
   <path vector-effect="none" d="" fill-rule="evenodd"/>
   <path vector-effect="none" d="M2156.94,203.807 L2135.85,195.535 L2119.14,191.479 L2067.48,189.488 L2032.81,193.51 L1999.71,191.633 L1992.73,192.855 L1944.15,187.848 L1910.17,179.351 L1899.35,174.722 L1876.23,176.802 L1862.72,170.207 L1848.59,169.35 L1836.56,166.245 L1794.58,165.674 L1761.13,158.124 L1741.74,145.841 L1723.01,145.417 L1712.11,137.167 L1706.33,135.69 L1685.22,122.415 L1680.5,121.314 L1664.74,121.657 L1656.09,125.201 L1633.58,122.672 L1627.99,127.754 L1626.13,134.218 L1621.61,142.622 L1608.39,151.244 L1549.61,161.357 L1520.81,159.322 L1495.11,152.204 L1485.55,153.363 L1477.4,151.838 L1456.76,151.883 L1453.47,149.412 L1451.28,143.06 L1445.53,134.31 L1435.39,127.818 L1420.75,121.535 L1405.25,125.318 L1392.72,132.079 L1389.03,131.246 L1384.51,126.219 L1381.15,125.072 L1365.45,132.121 L1337.53,128.621 L1331.92,129.931 L1313.4,139.737 L1307.6,148.684 L1275.94,179.381 L1234.91,195.108 L1224.54,192.534 L1206.75,181.685 L1187.08,176.285 L1136.04,173.758 L1034.73,177.917 L872.094,152.262 L860.432,154.865 L854.309,159.322 L848.914,160.508 L756.703,137.507 L744.305,128.695 L735.074,124.34 L626.957,81.0195 L617.783,77.7106 L598.548,74.4674 L594.998,75.5688 L582.954,85.617 L360.531,141.981 L277.522,140.361 L146.37,155.019 L10.6125,177.35 L-86.6984,210.547 L-134.792,220.7 L-221.591,246.82 L-252.601,252.324 L-261.749,253.309" fill-rule="evenodd"/>
   <path vector-effect="none" d="M2156.94,203.807 L2159.28,206.111" fill-rule="evenodd"/>
  </g>
  <g font-family="Ubuntu" fill="none" stroke-opacity="1" font-size="45.8333" stroke-width="4.25197" font-style="normal" transform="matrix(0.999811,0,0,0.999811,0,0)" stroke="#232323" font-weight="400" stroke-linecap="square" stroke-linejoin="bevel">
   <path vector-effect="none" d="M1351.62,1307.01 L1349.2,1308.62" fill-rule="evenodd"/>
   <path vector-effect="none" d="M1351.62,1307.01 L1355.97,1306.41 L1377.14,1311.55 L1402.27,1312.48 L1418.53,1304.99 L1427.03,1304.69 L1442.14,1299.93 L1448.9,1300.68 L1472.15,1308.14 L1479.01,1316.57 L1499.09,1327.79 L1513.66,1326.5 L1532.76,1335.55 L1552.82,1340.08 L1566.17,1348.04 L1571.86,1355.29 L1586.49,1358.24 L1591,1356.91 L1601.66,1348.86 L1621.48,1339.93 L1632.81,1338.85 L1651.01,1340.55 L1670.31,1336.17 L1674.67,1338.06 L1679.38,1346.21 L1686.32,1349.64 L1705.77,1351.51 L1751.48,1344.33 L1774.63,1343.44 L1786.64,1338.49 L1811.33,1340.68 L1816.96,1339.63 L1841.01,1351.16 L1846.58,1349.94 L1861.97,1351.02 L1872.67,1347 L1884.69,1348.32 L1893.98,1345.91 L1927.1,1345.88 L1944.39,1349.26 L2035.68,1332.97 L2050.93,1325.47 L2065.14,1324.88 L2096.67,1311.04 L2120.41,1303.07 L2163.65,1302.39 L2167.63,1301.1 L2169.99,1298.8 L2170.91,1295.62 L2169.83,1288.89 L2170.37,1267.87 L2177.87,1254.15 L2182.25,1248.61 L2196.24,1238.68 L2208.45,1218.22 L2212.33,1207.42 L2229.34,1186.4 L2238.21,1183.58 L2243.55,1178.67 L2245.11,1174.66 L2245.16,1164.22 L2249.88,1156.2 L2253.52,1154.35 L2266.03,1159.06 L2279.42,1159.48 L2290.14,1155.9 L2304.99,1158.4 L2313.26,1161.56 L2348.44,1182.5 L2369.38,1179 L2380.02,1174.92 L2411.56,1183.48 L2430.18,1182.22 L2433.46,1180.76 L2442.33,1171.33 L2454.46,1163.32 L2466.66,1163.51 L2471.17,1165.54 L2476.14,1164.66 L2482.14,1168.71 L2486.44,1169 L2490.94,1166.17 L2493.98,1159.87 L2499.03,1157.52 L2514.92,1158.17 L2542.56,1164.08 L2565.51,1166.43 L2578.32,1158.47 L2585.46,1161.68 L2595.45,1161.07 L2605.06,1157.75 L2618.77,1162.56 L2626.77,1163.57 L2637.46,1168.65 L2667.31,1169.48 L2679.18,1167.68 L2697.06,1174.17 L2722.62,1168.59 L2735.61,1169.5 L2739.56,1167.98" fill-rule="evenodd"/>
   <path vector-effect="none" d="M2739.56,1167.98 L2741.31,1166.65" fill-rule="evenodd"/>
  </g>
  <g font-family="Ubuntu" fill="none" stroke-opacity="1" font-size="45.8333" stroke-width="7.79528" font-style="normal" transform="matrix(0.999811,0,0,0.999811,0,0)" stroke="#000000" font-weight="400" stroke-linecap="round" stroke-linejoin="round">
   <path vector-effect="none" d="M2780.24,1101.26 L2737.61,1111.85 L2733.77,1114.36 L2732.59,1118.15 L2734.2,1134.04 L2744.11,1156.96 L2744.66,1160.55 L2743.06,1164.92 L2733.93,1173.35 L2731.95,1176.87 L2709.76,1324.14 L2710.68,1328.41 L2719,1345.41 L2728.85,1383.97 L2722.67,1470.6 L2639.38,1611.28 L2629.44,1680.59 L2604.16,1711.66 L2595.87,1726.54 L2571.92,1743.4 L2447.27,1874.41 L2426.62,1915.45 L2416.52,1926.57 L2359.72,1975.87 L2340.21,1984.15 L2336.98,1988.02 L2337.1,1999.23 L2350.82,2085.72 L2366.22,2212.12 L2359.33,2259.51 L2361.99,2304.52 L2363.06,2406.41 L2361.65,2431.67 L2357.99,2439.96 L2350.33,2446.19 L2343.85,2456.84 L2351.53,2528.94 L2353.35,2655.78" fill-rule="evenodd"/>
   <path vector-effect="none" d="" fill-rule="evenodd"/>
  </g>
  <g font-family="Ubuntu" fill="none" stroke-opacity="1" font-size="45.8333" stroke-dashoffset="0" stroke-width="3.89764" font-style="normal" transform="matrix(0.999811,0,0,0.999811,0,0)" stroke="#ffffff" font-weight="400" stroke-linecap="square" stroke-dasharray="35.4331,35.4331" stroke-linejoin="bevel">
   <path vector-effect="none" d="M2780.24,1101.26 L2737.61,1111.85 L2733.77,1114.36 L2732.59,1118.15 L2734.2,1134.04 L2744.11,1156.96 L2744.66,1160.55 L2743.06,1164.92 L2733.93,1173.35 L2731.95,1176.87 L2709.76,1324.14 L2710.68,1328.41 L2719,1345.41 L2728.85,1383.97 L2722.67,1470.6 L2639.38,1611.28 L2629.44,1680.59 L2604.16,1711.66 L2595.87,1726.54 L2571.92,1743.4 L2447.27,1874.41 L2426.62,1915.45 L2416.52,1926.57 L2359.72,1975.87 L2340.21,1984.15 L2336.98,1988.02 L2337.1,1999.23 L2350.82,2085.72 L2366.22,2212.12 L2359.33,2259.51 L2361.99,2304.52 L2363.06,2406.41 L2361.65,2431.67 L2357.99,2439.96 L2350.33,2446.19 L2343.85,2456.84 L2351.53,2528.94 L2353.35,2655.78" fill-rule="evenodd"/>
   <path vector-effect="none" d="" fill-rule="evenodd"/>
  </g>
  <g font-family="Ubuntu" fill="none" stroke-opacity="1" font-size="45.8333" stroke-width="1" font-style="normal" transform="matrix(0.999811,0,0,0.999811,0,0)" stroke="#000000" font-weight="400" stroke-linecap="square" stroke-linejoin="bevel"/>
  <g font-family="Ubuntu" fill="#ffffff" stroke-opacity="1" font-size="45.8333" stroke-width="4.72441" font-style="normal" transform="matrix(0.999811,0,0,0.999811,0,0)" stroke="#000000" font-weight="400" stroke-linecap="square" fill-opacity="1" stroke-linejoin="bevel">
   <path vector-effect="none" d="M79.4653,1888.59 C79.4653,1895.11 74.1773,1900.4 67.6543,1900.4 C61.1312,1900.4 55.8433,1895.11 55.8433,1888.59 C55.8433,1882.07 61.1312,1876.78 67.6543,1876.78 C74.1773,1876.78 79.4653,1882.07 79.4653,1888.59 " fill-rule="evenodd"/>
   <path vector-effect="none" d="M1635.06,1044.12 C1635.06,1050.64 1629.77,1055.93 1623.25,1055.93 C1616.72,1055.93 1611.44,1050.64 1611.44,1044.12 C1611.44,1037.6 1616.72,1032.31 1623.25,1032.31 C1629.77,1032.31 1635.06,1037.6 1635.06,1044.12 " fill-rule="evenodd"/>
   <path vector-effect="none" d="M2180.1,213.675 C2180.1,220.198 2174.82,225.486 2168.29,225.486 C2161.77,225.486 2156.48,220.198 2156.48,213.675 C2156.48,207.152 2161.77,201.864 2168.29,201.864 C2174.82,201.864 2180.1,207.152 2180.1,213.675 " fill-rule="evenodd"/>
   <path vector-effect="none" d="M1354.73,1312.74 C1354.73,1319.26 1349.44,1324.55 1342.91,1324.55 C1336.39,1324.55 1331.1,1319.26 1331.1,1312.74 C1331.1,1306.22 1336.39,1300.93 1342.91,1300.93 C1349.44,1300.93 1354.73,1306.22 1354.73,1312.74 " fill-rule="evenodd"/>
   <path vector-effect="none" d="M2270.65,1155.72 C2270.65,1162.24 2265.36,1167.53 2258.84,1167.53 C2252.32,1167.53 2247.03,1162.24 2247.03,1155.72 C2247.03,1149.19 2252.32,1143.9 2258.84,1143.9 C2265.36,1143.9 2270.65,1149.19 2270.65,1155.72 " fill-rule="evenodd"/>
   <path vector-effect="none" d="M1117.46,1576.22 C1117.46,1582.74 1112.17,1588.03 1105.65,1588.03 C1099.13,1588.03 1093.84,1582.74 1093.84,1576.22 C1093.84,1569.7 1099.13,1564.41 1105.65,1564.41 C1112.17,1564.41 1117.46,1569.7 1117.46,1576.22 " fill-rule="evenodd"/>
  </g>
  <g font-family="Ubuntu" fill="none" stroke-opacity="1" font-size="45.8333" stroke-width="1" font-style="normal" transform="matrix(0.999811,0,0,0.999811,0,0)" stroke="#000000" font-weight="400" stroke-linecap="square" stroke-linejoin="bevel"/>
  <g font-family="Ubuntu" fill="none" stroke-opacity="1" font-size="45.8333" stroke-width="1" font-style="normal" transform="matrix(0.999811,0,0,0.999811,0,0)" stroke="#000000" font-weight="400" stroke-linecap="square" stroke-linejoin="bevel"/>
  <g font-family="Ubuntu" fill="none" stroke-opacity="1" font-size="45.8333" stroke-width="1" font-style="normal" transform="matrix(0.999811,0,0,0.999811,0,0)" stroke="#000000" font-weight="400" stroke-linecap="square" stroke-linejoin="bevel"/>
  <g font-family="Ubuntu" fill="none" stroke-opacity="1" font-size="45.8333" stroke-width="1" font-style="normal" transform="matrix(0.999811,0,0,0.999811,0,0)" stroke="#000000" font-weight="400" stroke-linecap="square" stroke-linejoin="bevel"/>
  <g font-family="Ubuntu" fill="none" stroke-opacity="1" font-size="45.8333" stroke-width="1" font-style="normal" transform="matrix(0.319939,0,0,0.319939,222.393,1834.24)" stroke="#000000" font-weight="400" stroke-linecap="square" stroke-linejoin="bevel"/>
  <g font-family="Ubuntu" fill="#6d6d6d" font-size="45.8333" font-style="normal" transform="matrix(0.999811,0,0,0.999811,222.393,1834.24)" stroke="none" font-weight="400" fill-opacity="0.694118">
   <path vector-effect="non-scaling-stroke" d="M-141.081,-49.3 L141.081,-49.3 L141.081,49.3 L-141.081,49.3 L-141.081,-49.3" fill-rule="evenodd"/>
  </g>
  <g font-family="Ubuntu" fill="none" stroke-opacity="1" font-size="45.8333" stroke-width="1" font-style="normal" transform="matrix(0.319939,0,0,0.319939,222.393,1834.24)" stroke="#000000" font-weight="400" stroke-linecap="square" stroke-linejoin="bevel"/>
  <g font-family="Ubuntu" fill="none" stroke-opacity="1" font-size="45.8333" stroke-width="1" font-style="normal" transform="matrix(0.999811,0,0,0.999811,0,0)" stroke="#000000" font-weight="400" stroke-linecap="square" stroke-linejoin="bevel"/>
  <g font-family="Ubuntu" fill="none" stroke-opacity="1" font-size="42" stroke-width="1" font-style="normal" transform="matrix(0.999811,0,0,0.999811,82.6386,1824.25)" stroke="#ffffff" font-weight="400" stroke-linecap="square" stroke-linejoin="bevel">
   <text font-family="Ubuntu" fill="#ffffff" font-size="42" font-style="normal" xml:space="preserve" stroke="none" font-weight="400" x="0" fill-opacity="1" y="0">Великие Луки</text>
  </g>
  <g font-family="Ubuntu" fill="none" stroke-opacity="1" font-size="45.8333" stroke-width="1" font-style="normal" transform="matrix(0.999811,0,0,0.999811,0,0)" stroke="#000000" font-weight="400" stroke-linecap="square" stroke-linejoin="bevel"/>
  <g font-family="Ubuntu" fill="none" stroke-opacity="1" font-size="42" stroke-width="1" font-style="normal" transform="matrix(0.999811,0,0,0.999811,82.6386,1872.24)" stroke="#ffffff" font-weight="400" stroke-linecap="square" stroke-linejoin="bevel">
   <text font-family="Ubuntu" fill="#ffffff" font-size="42" font-style="normal" xml:space="preserve" stroke="none" font-weight="400" x="0" fill-opacity="1" y="0">Velikie Luki</text>
  </g>
  <g font-family="Ubuntu" fill="none" stroke-opacity="1" font-size="45.8333" stroke-width="1" font-style="normal" transform="matrix(0.999811,0,0,0.999811,0,0)" stroke="#000000" font-weight="400" stroke-linecap="square" stroke-linejoin="bevel"/>
  <g font-family="Ubuntu" fill="none" stroke-opacity="1" font-size="45.8333" stroke-width="1" font-style="normal" transform="matrix(0.319939,0,0,0.319939,1242.51,1522.43)" stroke="#000000" font-weight="400" stroke-linecap="square" stroke-linejoin="bevel"/>
  <g font-family="Ubuntu" fill="#6d6d6d" font-size="45.8333" font-style="normal" transform="matrix(0.999811,0,0,0.999811,1242.51,1522.43)" stroke="none" font-weight="400" fill-opacity="0.694118">
   <path vector-effect="non-scaling-stroke" d="M-123.402,-49.3 L123.402,-49.3 L123.402,49.3 L-123.402,49.3 L-123.402,-49.3" fill-rule="evenodd"/>
  </g>
  <g font-family="Ubuntu" fill="none" stroke-opacity="1" font-size="45.8333" stroke-width="1" font-style="normal" transform="matrix(0.319939,0,0,0.319939,1242.51,1522.43)" stroke="#000000" font-weight="400" stroke-linecap="square" stroke-linejoin="bevel"/>
  <g font-family="Ubuntu" fill="none" stroke-opacity="1" font-size="45.8333" stroke-width="1" font-style="normal" transform="matrix(0.999811,0,0,0.999811,0,0)" stroke="#000000" font-weight="400" stroke-linecap="square" stroke-linejoin="bevel"/>
  <g font-family="Ubuntu" fill="none" stroke-opacity="1" font-size="42" stroke-width="1" font-style="normal" transform="matrix(0.999811,0,0,0.999811,1120.44,1512.43)" stroke="#ffffff" font-weight="400" stroke-linecap="square" stroke-linejoin="bevel">
   <text font-family="Ubuntu" fill="#ffffff" font-size="42" font-style="normal" xml:space="preserve" stroke="none" font-weight="400" x="0" fill-opacity="1" y="0">Андреаполь</text>
  </g>
  <g font-family="Ubuntu" fill="none" stroke-opacity="1" font-size="45.8333" stroke-width="1" font-style="normal" transform="matrix(0.999811,0,0,0.999811,0,0)" stroke="#000000" font-weight="400" stroke-linecap="square" stroke-linejoin="bevel"/>
  <g font-family="Ubuntu" fill="none" stroke-opacity="1" font-size="42" stroke-width="1" font-style="normal" transform="matrix(0.999811,0,0,0.999811,1120.44,1560.43)" stroke="#ffffff" font-weight="400" stroke-linecap="square" stroke-linejoin="bevel">
   <text font-family="Ubuntu" fill="#ffffff" font-size="42" font-style="normal" xml:space="preserve" stroke="none" font-weight="400" x="0" fill-opacity="1" y="0">Andreapol</text>
  </g>
  <g font-family="Ubuntu" fill="none" stroke-opacity="1" font-size="45.8333" stroke-width="1" font-style="normal" transform="matrix(0.999811,0,0,0.999811,0,0)" stroke="#000000" font-weight="400" stroke-linecap="square" stroke-linejoin="bevel"/>
  <g font-family="Ubuntu" fill="none" stroke-opacity="1" font-size="45.8333" stroke-width="1" font-style="normal" transform="matrix(0.319939,0,0,0.319939,2131.42,1102.01)" stroke="#000000" font-weight="400" stroke-linecap="square" stroke-linejoin="bevel"/>
  <g font-family="Ubuntu" fill="#6d6d6d" font-size="45.8333" font-style="normal" transform="matrix(0.999811,0,0,0.999811,2131.42,1102.01)" stroke="none" font-weight="400" fill-opacity="0.694118">
   <path vector-effect="non-scaling-stroke" d="M-113.816,-49.3 L113.816,-49.3 L113.816,49.3 L-113.816,49.3 L-113.816,-49.3" fill-rule="evenodd"/>
  </g>
  <g font-family="Ubuntu" fill="none" stroke-opacity="1" font-size="45.8333" stroke-width="1" font-style="normal" transform="matrix(0.319939,0,0,0.319939,2131.42,1102.01)" stroke="#000000" font-weight="400" stroke-linecap="square" stroke-linejoin="bevel"/>
  <g font-family="Ubuntu" fill="none" stroke-opacity="1" font-size="45.8333" stroke-width="1" font-style="normal" transform="matrix(0.999811,0,0,0.999811,0,0)" stroke="#000000" font-weight="400" stroke-linecap="square" stroke-linejoin="bevel"/>
  <g font-family="Ubuntu" fill="none" stroke-opacity="1" font-size="42" stroke-width="1" font-style="normal" transform="matrix(0.999811,0,0,0.999811,2018.93,1092.01)" stroke="#ffffff" font-weight="400" stroke-linecap="square" stroke-linejoin="bevel">
   <text font-family="Ubuntu" fill="#ffffff" font-size="42" font-style="normal" xml:space="preserve" stroke="none" font-weight="400" x="0" fill-opacity="1" y="0">Кувшиново</text>
  </g>
  <g font-family="Ubuntu" fill="none" stroke-opacity="1" font-size="45.8333" stroke-width="1" font-style="normal" transform="matrix(0.999811,0,0,0.999811,0,0)" stroke="#000000" font-weight="400" stroke-linecap="square" stroke-linejoin="bevel"/>
  <g font-family="Ubuntu" fill="none" stroke-opacity="1" font-size="42" stroke-width="1" font-style="normal" transform="matrix(0.999811,0,0,0.999811,2026.1,1140)" stroke="#ffffff" font-weight="400" stroke-linecap="square" stroke-linejoin="bevel">
   <text font-family="Ubuntu" fill="#ffffff" font-size="42" font-style="normal" xml:space="preserve" stroke="none" font-weight="400" x="0" fill-opacity="1" y="0">Kuvshinovo</text>
  </g>
  <g font-family="Ubuntu" fill="none" stroke-opacity="1" font-size="45.8333" stroke-width="1" font-style="normal" transform="matrix(0.999811,0,0,0.999811,0,0)" stroke="#000000" font-weight="400" stroke-linecap="square" stroke-linejoin="bevel"/>
  <g font-family="Ubuntu" fill="none" stroke-opacity="1" font-size="45.8333" stroke-width="1" font-style="normal" transform="matrix(0.319939,0,0,0.319939,1736.83,990.434)" stroke="#000000" font-weight="400" stroke-linecap="square" stroke-linejoin="bevel"/>
  <g font-family="Ubuntu" fill="#6d6d6d" font-size="45.8333" font-style="normal" transform="matrix(0.999811,0,0,0.999811,1736.83,990.434)" stroke="none" font-weight="400" fill-opacity="0.694118">
   <path vector-effect="non-scaling-stroke" d="M-100.714,-49.3 L100.714,-49.3 L100.714,49.3 L-100.714,49.3 L-100.714,-49.3" fill-rule="evenodd"/>
  </g>
  <g font-family="Ubuntu" fill="none" stroke-opacity="1" font-size="45.8333" stroke-width="1" font-style="normal" transform="matrix(0.319939,0,0,0.319939,1736.83,990.434)" stroke="#000000" font-weight="400" stroke-linecap="square" stroke-linejoin="bevel"/>
  <g font-family="Ubuntu" fill="none" stroke-opacity="1" font-size="45.8333" stroke-width="1" font-style="normal" transform="matrix(0.999811,0,0,0.999811,0,0)" stroke="#000000" font-weight="400" stroke-linecap="square" stroke-linejoin="bevel"/>
  <g font-family="Ubuntu" fill="none" stroke-opacity="1" font-size="42" stroke-width="1" font-style="normal" transform="matrix(0.999811,0,0,0.999811,1637.44,980.436)" stroke="#ffffff" font-weight="400" stroke-linecap="square" stroke-linejoin="bevel">
   <text font-family="Ubuntu" fill="#ffffff" font-size="42" font-style="normal" xml:space="preserve" stroke="none" font-weight="400" x="0" fill-opacity="1" y="0">Осташков</text>
  </g>
  <g font-family="Ubuntu" fill="none" stroke-opacity="1" font-size="45.8333" stroke-width="1" font-style="normal" transform="matrix(0.999811,0,0,0.999811,0,0)" stroke="#000000" font-weight="400" stroke-linecap="square" stroke-linejoin="bevel"/>
  <g font-family="Ubuntu" fill="none" stroke-opacity="1" font-size="42" stroke-width="1" font-style="normal" transform="matrix(0.999811,0,0,0.999811,1637.44,1028.43)" stroke="#ffffff" font-weight="400" stroke-linecap="square" stroke-linejoin="bevel">
   <text font-family="Ubuntu" fill="#ffffff" font-size="42" font-style="normal" xml:space="preserve" stroke="none" font-weight="400" x="0" fill-opacity="1" y="0">Ostashkov</text>
  </g>
  <g font-family="Ubuntu" fill="none" stroke-opacity="1" font-size="45.8333" stroke-width="1" font-style="normal" transform="matrix(0.999811,0,0,0.999811,0,0)" stroke="#000000" font-weight="400" stroke-linecap="square" stroke-linejoin="bevel"/>
  <g font-family="Ubuntu" fill="none" stroke-opacity="1" font-size="45.8333" stroke-width="1" font-style="normal" transform="matrix(0.319939,0,0,0.319939,2272.74,160.145)" stroke="#000000" font-weight="400" stroke-linecap="square" stroke-linejoin="bevel"/>
  <g font-family="Ubuntu" fill="#6d6d6d" font-size="45.8333" font-style="normal" transform="matrix(0.999811,0,0,0.999811,2272.74,160.145)" stroke="none" font-weight="400" fill-opacity="0.694118">
   <path vector-effect="non-scaling-stroke" d="M-91.675,-49.3 L91.675,-49.3 L91.675,49.3 L-91.675,49.3 L-91.675,-49.3" fill-rule="evenodd"/>
  </g>
  <g font-family="Ubuntu" fill="none" stroke-opacity="1" font-size="45.8333" stroke-width="1" font-style="normal" transform="matrix(0.319939,0,0,0.319939,2272.74,160.145)" stroke="#000000" font-weight="400" stroke-linecap="square" stroke-linejoin="bevel"/>
  <g font-family="Ubuntu" fill="none" stroke-opacity="1" font-size="45.8333" stroke-width="1" font-style="normal" transform="matrix(0.999811,0,0,0.999811,0,0)" stroke="#000000" font-weight="400" stroke-linecap="square" stroke-linejoin="bevel"/>
  <g font-family="Ubuntu" fill="none" stroke-opacity="1" font-size="42" stroke-width="1" font-style="normal" transform="matrix(0.999811,0,0,0.999811,2182.38,150.147)" stroke="#ffffff" font-weight="400" stroke-linecap="square" stroke-linejoin="bevel">
   <text font-family="Ubuntu" fill="#ffffff" font-size="42" font-style="normal" xml:space="preserve" stroke="none" font-weight="400" x="0" fill-opacity="1" y="0">Бологое</text>
  </g>
  <g font-family="Ubuntu" fill="none" stroke-opacity="1" font-size="45.8333" stroke-width="1" font-style="normal" transform="matrix(0.999811,0,0,0.999811,0,0)" stroke="#000000" font-weight="400" stroke-linecap="square" stroke-linejoin="bevel"/>
  <g font-family="Ubuntu" fill="none" stroke-opacity="1" font-size="42" stroke-width="1" font-style="normal" transform="matrix(0.999811,0,0,0.999811,2182.38,198.137)" stroke="#ffffff" font-weight="400" stroke-linecap="square" stroke-linejoin="bevel">
   <text font-family="Ubuntu" fill="#ffffff" font-size="42" font-style="normal" xml:space="preserve" stroke="none" font-weight="400" x="0" fill-opacity="1" y="0">Bologoye</text>
  </g>
  <g font-family="Ubuntu" fill="none" stroke-opacity="1" font-size="45.8333" stroke-width="1" font-style="normal" transform="matrix(0.999811,0,0,0.999811,0,0)" stroke="#000000" font-weight="400" stroke-linecap="square" stroke-linejoin="bevel"/>
  <g font-family="Ubuntu" fill="none" stroke-opacity="1" font-size="45.8333" stroke-width="1" font-style="normal" transform="matrix(0.319939,0,0,0.319939,1439.38,1259)" stroke="#000000" font-weight="400" stroke-linecap="square" stroke-linejoin="bevel"/>
  <g font-family="Ubuntu" fill="#6d6d6d" font-size="45.8333" font-style="normal" transform="matrix(0.999811,0,0,0.999811,1439.38,1259)" stroke="none" font-weight="400" fill-opacity="0.694118">
   <path vector-effect="non-scaling-stroke" d="M-83.5422,-49.3 L83.5422,-49.3 L83.5422,49.3 L-83.5422,49.3 L-83.5422,-49.3" fill-rule="evenodd"/>
  </g>
  <g font-family="Ubuntu" fill="none" stroke-opacity="1" font-size="45.8333" stroke-width="1" font-style="normal" transform="matrix(0.319939,0,0,0.319939,1439.38,1259)" stroke="#000000" font-weight="400" stroke-linecap="square" stroke-linejoin="bevel"/>
  <g font-family="Ubuntu" fill="none" stroke-opacity="1" font-size="45.8333" stroke-width="1" font-style="normal" transform="matrix(0.999811,0,0,0.999811,0,0)" stroke="#000000" font-weight="400" stroke-linecap="square" stroke-linejoin="bevel"/>
  <g font-family="Ubuntu" fill="none" stroke-opacity="1" font-size="42" stroke-width="1" font-style="normal" transform="matrix(0.999811,0,0,0.999811,1357.16,1249)" stroke="#ffffff" font-weight="400" stroke-linecap="square" stroke-linejoin="bevel">
   <text font-family="Ubuntu" fill="#ffffff" font-size="42" font-style="normal" xml:space="preserve" stroke="none" font-weight="400" x="0" fill-opacity="1" y="0">Соблаго</text>
  </g>
  <g font-family="Ubuntu" fill="none" stroke-opacity="1" font-size="45.8333" stroke-width="1" font-style="normal" transform="matrix(0.999811,0,0,0.999811,0,0)" stroke="#000000" font-weight="400" stroke-linecap="square" stroke-linejoin="bevel"/>
  <g font-family="Ubuntu" fill="none" stroke-opacity="1" font-size="42" stroke-width="1" font-style="normal" transform="matrix(0.999811,0,0,0.999811,1357.16,1296.99)" stroke="#ffffff" font-weight="400" stroke-linecap="square" stroke-linejoin="bevel">
   <text font-family="Ubuntu" fill="#ffffff" font-size="42" font-style="normal" xml:space="preserve" stroke="none" font-weight="400" x="0" fill-opacity="1" y="0">Soblago</text>
  </g>
  <g font-family="Ubuntu" fill="none" stroke-opacity="1" font-size="45.8333" stroke-width="1" font-style="normal" transform="matrix(0.999811,0,0,0.999811,0,0)" stroke="#000000" font-weight="400" stroke-linecap="square" stroke-linejoin="bevel"/>
  <g font-family="Ubuntu" fill="none" stroke-opacity="1" font-size="45.8333" stroke-width="1" font-style="normal" transform="matrix(11.8088,0,0,11.8088,0,0)" stroke="#000000" font-weight="400" stroke-linecap="square" stroke-linejoin="bevel"/>
  <g font-family="Ubuntu" fill="none" stroke-opacity="1" font-size="45.8333" stroke-width="1" font-style="normal" transform="matrix(11.8088,0,0,11.8088,0,0)" stroke="#000000" font-weight="400" stroke-linecap="square" stroke-linejoin="bevel"/>
  <g font-family="Ubuntu" fill="none" stroke-opacity="1" font-size="45.8333" stroke-width="1" font-style="normal" transform="matrix(11.8088,0,0,11.8088,0,0)" stroke="#000000" font-weight="400" stroke-linecap="square" stroke-linejoin="bevel"/>
  <g font-family="Ubuntu" fill="none" stroke-opacity="0.184314" font-size="45.8333" stroke-width="3.54331" font-style="normal" transform="matrix(0.999811,0,0,0.999811,0,0)" stroke="#000000" font-weight="400" stroke-linecap="butt" stroke-linejoin="bevel">
   <path vector-effect="none" d="M77.003,0 L77.003,2393.22" fill-rule="evenodd"/>
   <path vector-effect="none" d="M175.475,0 L175.475,2393.22" fill-rule="evenodd"/>
   <path vector-effect="none" d="M273.947,0 L273.947,2393.22" fill-rule="evenodd"/>
   <path vector-effect="none" d="M372.419,0 L372.419,2393.22" fill-rule="evenodd"/>
   <path vector-effect="none" d="M470.89,0 L470.89,2393.22" fill-rule="evenodd"/>
   <path vector-effect="none" d="M569.362,0 L569.362,2393.22" fill-rule="evenodd"/>
   <path vector-effect="none" d="M667.834,0 L667.834,2393.22" fill-rule="evenodd"/>
   <path vector-effect="none" d="M766.306,0 L766.306,2393.22" fill-rule="evenodd"/>
   <path vector-effect="none" d="M864.778,0 L864.778,2393.22" fill-rule="evenodd"/>
   <path vector-effect="none" d="M963.25,0 L963.25,2393.22" fill-rule="evenodd"/>
   <path vector-effect="none" d="M1061.72,0 L1061.72,2393.22" fill-rule="evenodd"/>
   <path vector-effect="none" d="M1160.19,0 L1160.19,2393.22" fill-rule="evenodd"/>
   <path vector-effect="none" d="M1258.67,0 L1258.67,2393.22" fill-rule="evenodd"/>
   <path vector-effect="none" d="M1357.14,0 L1357.14,2393.22" fill-rule="evenodd"/>
   <path vector-effect="none" d="M1455.61,0 L1455.61,2393.22" fill-rule="evenodd"/>
   <path vector-effect="none" d="M1554.08,0 L1554.08,2393.22" fill-rule="evenodd"/>
   <path vector-effect="none" d="M1652.55,0 L1652.55,2393.22" fill-rule="evenodd"/>
   <path vector-effect="none" d="M1751.02,0 L1751.02,2393.22" fill-rule="evenodd"/>
   <path vector-effect="none" d="M1849.5,0 L1849.5,2393.22" fill-rule="evenodd"/>
   <path vector-effect="none" d="M1947.97,0 L1947.97,2393.22" fill-rule="evenodd"/>
   <path vector-effect="none" d="M2046.44,0 L2046.44,2393.22" fill-rule="evenodd"/>
   <path vector-effect="none" d="M2144.91,0 L2144.91,2393.22" fill-rule="evenodd"/>
   <path vector-effect="none" d="M2243.38,0 L2243.38,2393.22" fill-rule="evenodd"/>
   <path vector-effect="none" d="M2341.86,0 L2341.86,2393.22" fill-rule="evenodd"/>
   <path vector-effect="none" d="M2440.33,0 L2440.33,2393.22" fill-rule="evenodd"/>
   <path vector-effect="none" d="M0,2346.8 L2497.47,2346.8" fill-rule="evenodd"/>
   <path vector-effect="none" d="M0,2248.33 L2497.47,2248.33" fill-rule="evenodd"/>
   <path vector-effect="none" d="M0,2149.85 L2497.47,2149.85" fill-rule="evenodd"/>
   <path vector-effect="none" d="M0,2051.38 L2497.47,2051.38" fill-rule="evenodd"/>
   <path vector-effect="none" d="M0,1952.91 L2497.47,1952.91" fill-rule="evenodd"/>
   <path vector-effect="none" d="M0,1854.44 L2497.47,1854.44" fill-rule="evenodd"/>
   <path vector-effect="none" d="M0,1755.97 L2497.47,1755.97" fill-rule="evenodd"/>
   <path vector-effect="none" d="M0,1657.49 L2497.47,1657.49" fill-rule="evenodd"/>
   <path vector-effect="none" d="M0,1559.02 L2497.47,1559.02" fill-rule="evenodd"/>
   <path vector-effect="none" d="M0,1460.55 L2497.47,1460.55" fill-rule="evenodd"/>
   <path vector-effect="none" d="M0,1362.08 L2497.47,1362.08" fill-rule="evenodd"/>
   <path vector-effect="none" d="M0,1263.61 L2497.47,1263.61" fill-rule="evenodd"/>
   <path vector-effect="none" d="M0,1165.13 L2497.47,1165.13" fill-rule="evenodd"/>
   <path vector-effect="none" d="M0,1066.66 L2497.47,1066.66" fill-rule="evenodd"/>
   <path vector-effect="none" d="M0,968.191 L2497.47,968.191" fill-rule="evenodd"/>
   <path vector-effect="none" d="M0,869.719 L2497.47,869.719" fill-rule="evenodd"/>
   <path vector-effect="none" d="M0,771.247 L2497.47,771.247" fill-rule="evenodd"/>
   <path vector-effect="none" d="M0,672.776 L2497.47,672.776" fill-rule="evenodd"/>
   <path vector-effect="none" d="M0,574.304 L2497.47,574.304" fill-rule="evenodd"/>
   <path vector-effect="none" d="M0,475.832 L2497.47,475.832" fill-rule="evenodd"/>
   <path vector-effect="none" d="M0,377.36 L2497.47,377.36" fill-rule="evenodd"/>
   <path vector-effect="none" d="M0,278.888 L2497.47,278.888" fill-rule="evenodd"/>
   <path vector-effect="none" d="M0,180.416 L2497.47,180.416" fill-rule="evenodd"/>
   <path vector-effect="none" d="M0,81.9445 L2497.47,81.9445" fill-rule="evenodd"/>
  </g>
  <g font-family="Ubuntu" fill="none" stroke-opacity="0.184314" font-size="45.8333" stroke-width="3.54331" font-style="normal" transform="matrix(0.999811,0,0,0.999811,0,0)" stroke="#000000" font-weight="400" stroke-linecap="butt" stroke-linejoin="bevel"/>
  <g font-family="Ubuntu" fill="none" stroke-opacity="0.184314" font-size="45.8333" stroke-width="3.54331" font-style="normal" transform="matrix(11.8088,0,0,11.8088,0,0)" stroke="#000000" font-weight="400" stroke-linecap="butt" stroke-linejoin="bevel"/>
  <g font-family="Ubuntu" fill="none" stroke-opacity="1" font-size="45.8333" stroke-width="1" font-style="normal" transform="matrix(11.8088,0,0,11.8088,0,0)" stroke="#000000" font-weight="400" stroke-linecap="square" stroke-linejoin="bevel"/>
  <g font-family="Ubuntu" fill="none" stroke-opacity="1" font-size="45.8333" stroke-width="1" font-style="normal" transform="matrix(11.8088,0,0,11.8088,0,0)" stroke="#000000" font-weight="400" stroke-linecap="square" stroke-linejoin="bevel"/>
  <g font-family="Ubuntu" fill="none" stroke-opacity="1" font-size="45.8333" stroke-width="1" font-style="normal" transform="matrix(1,0,0,1,0,0)" stroke="#000000" font-weight="400" stroke-linecap="square" stroke-linejoin="bevel"/>
  <g font-family="Ubuntu" fill="none" stroke-opacity="1" font-size="45.8333" stroke-width="1" font-style="normal" transform="matrix(11.8088,0,0,11.8088,0,0)" stroke="#000000" font-weight="400" stroke-linecap="square" stroke-linejoin="bevel"/>
  <g font-family="Ubuntu" fill="none" stroke-opacity="1" font-size="45.8333" stroke-width="1" font-style="normal" transform="matrix(11.8088,0,0,11.8088,0,0)" stroke="#000000" font-weight="400" stroke-linecap="square" stroke-linejoin="bevel"/>
  <g font-family="Ubuntu" fill="none" stroke-opacity="1" font-size="45.8333" stroke-width="1" font-style="normal" transform="matrix(11.8088,0,0,11.8088,0,2240.35)" stroke="#000000" font-weight="400" stroke-linecap="square" stroke-linejoin="bevel"/>
  <g font-family="Ubuntu" fill="none" stroke-opacity="1" font-size="45.8333" stroke-width="1" font-style="normal" transform="matrix(0.999811,0,0,0.999811,0,2240.35)" stroke="#000000" font-weight="400" stroke-linecap="square" stroke-linejoin="bevel"/>
  <g font-family="Ubuntu" fill="none" stroke-miterlimit="2" stroke-opacity="1" font-size="45.8333" stroke-width="3.54331" font-style="normal" transform="matrix(0.999811,0,0,0.999811,0,2240.35)" stroke="#000000" font-weight="400" stroke-linecap="square" stroke-linejoin="miter">
   <path vector-effect="none" d="M29.4481,129.677 L29.4481,94.2441" fill-rule="evenodd"/>
   <path vector-effect="none" d="M127.92,129.677 L127.92,94.2441" fill-rule="evenodd"/>
   <path vector-effect="none" d="M29.4481,111.961 L127.92,111.961" fill-rule="evenodd"/>
  </g>
  <g font-family="Ubuntu" fill="none" stroke-opacity="1" font-size="45.8333" stroke-width="1" font-style="normal" transform="matrix(0.999811,0,0,0.999811,0,2240.35)" stroke="#000000" font-weight="400" stroke-linecap="square" stroke-linejoin="bevel"/>
  <g font-family="Ubuntu" fill="none" stroke-opacity="1" font-size="50" stroke-width="1" font-style="normal" transform="matrix(0.999811,0,0,0.999811,15.3514,2299.15)" stroke="#000000" font-weight="400" stroke-linecap="square" stroke-linejoin="bevel">
   <text font-family="Ubuntu" fill="#000000" font-size="50" font-style="normal" xml:space="preserve" stroke="none" font-weight="400" x="0" fill-opacity="1" y="0">0</text>
  </g>
  <g font-family="Ubuntu" fill="none" stroke-opacity="1" font-size="45.8333" stroke-width="1" font-style="normal" transform="matrix(0.999811,0,0,0.999811,0,2240.35)" stroke="#000000" font-weight="400" stroke-linecap="square" stroke-linejoin="bevel"/>
  <g font-family="Ubuntu" fill="none" stroke-opacity="1" font-size="50" stroke-width="1" font-style="normal" transform="matrix(0.999811,0,0,0.999811,99.7135,2299.15)" stroke="#000000" font-weight="400" stroke-linecap="square" stroke-linejoin="bevel">
   <text font-family="Ubuntu" fill="#000000" font-size="50" font-style="normal" xml:space="preserve" stroke="none" font-weight="400" x="0" fill-opacity="1" y="0">10 km</text>
  </g>
  <g font-family="Ubuntu" fill="none" stroke-opacity="1" font-size="45.8333" stroke-width="1" font-style="normal" transform="matrix(0.999811,0,0,0.999811,0,2240.35)" stroke="#000000" font-weight="400" stroke-linecap="square" stroke-linejoin="bevel"/>
  <g font-family="Ubuntu" fill="none" stroke-opacity="1" font-size="45.8333" stroke-width="1" font-style="normal" transform="matrix(0.999811,0,0,0.999811,0,2240.35)" stroke="#000000" font-weight="400" stroke-linecap="square" stroke-linejoin="bevel"/>
  <g font-family="Ubuntu" fill="none" stroke-opacity="1" font-size="45.8333" stroke-width="1" font-style="normal" transform="matrix(11.8088,0,0,11.8088,0,2240.35)" stroke="#000000" font-weight="400" stroke-linecap="square" stroke-linejoin="bevel"/>
  <g font-family="Ubuntu" fill="none" stroke-opacity="1" font-size="45.8333" stroke-width="1" font-style="normal" transform="matrix(11.8088,0,0,11.8088,0,2240.35)" stroke="#000000" font-weight="400" stroke-linecap="square" stroke-linejoin="bevel"/>
  <g font-family="Ubuntu" fill="none" stroke-opacity="1" font-size="45.8333" stroke-width="1" font-style="normal" transform="matrix(11.8088,0,0,11.8088,1724.16,2209.17)" stroke="#000000" font-weight="400" stroke-linecap="square" stroke-linejoin="bevel"/>
  <g font-family="Ubuntu" fill="none" stroke-opacity="1" font-size="45.8333" stroke-width="1" font-style="normal" transform="matrix(0.999811,0,0,0.999811,1724.16,2209.17)" stroke="#000000" font-weight="400" stroke-linecap="square" stroke-linejoin="bevel"/>
  <g font-family="Ubuntu" fill="none" stroke-opacity="1" font-size="417" stroke-width="1" font-style="normal" transform="matrix(0.0999811,0,0,0.0999811,1910.95,2382.04)" stroke="#000000" font-weight="400" stroke-linecap="square" stroke-linejoin="bevel">
   <text font-family="Ubuntu" fill="#000000" font-size="417" font-style="normal" xml:space="preserve" stroke="none" font-weight="400" x="0" fill-opacity="1" y="0">basemap data: Openstreetmap</text>
  </g>
  <g font-family="Ubuntu" fill="none" stroke-opacity="1" font-size="45.8333" stroke-width="1" font-style="normal" transform="matrix(0.999811,0,0,0.999811,1724.16,2209.17)" stroke="#000000" font-weight="400" stroke-linecap="square" stroke-linejoin="bevel"/>
  <g font-family="Ubuntu" fill="none" stroke-opacity="1" font-size="45.8333" stroke-width="1" font-style="normal" transform="matrix(0.999811,0,0,0.999811,1724.16,2209.17)" stroke="#000000" font-weight="400" stroke-linecap="square" stroke-linejoin="bevel"/>
  <g font-family="Ubuntu" fill="none" stroke-opacity="1" font-size="45.8333" stroke-width="1" font-style="normal" transform="matrix(11.8088,0,0,11.8088,1724.16,2209.17)" stroke="#000000" font-weight="400" stroke-linecap="square" stroke-linejoin="bevel"/>
  <g font-family="Ubuntu" fill="none" stroke-opacity="1" font-size="45.8333" stroke-width="1" font-style="normal" transform="matrix(11.8088,0,0,11.8088,1724.16,2209.17)" stroke="#000000" font-weight="400" stroke-linecap="square" stroke-linejoin="bevel"/>
  <g font-family="Ubuntu" fill="none" stroke-opacity="1" font-size="45.8333" stroke-width="1" font-style="normal" transform="matrix(11.8088,0,0,11.8088,0,0)" stroke="#000000" font-weight="400" stroke-linecap="square" stroke-linejoin="bevel"/>
  <g font-family="Ubuntu" fill="none" stroke-opacity="1" font-size="45.8333" stroke-width="1" font-style="normal" transform="matrix(11.8088,0,0,11.8088,0,0)" stroke="#000000" font-weight="400" stroke-linecap="square" stroke-linejoin="bevel"/>
  <g font-family="Ubuntu" fill="none" stroke-opacity="1" font-size="45.8333" stroke-width="1" font-style="normal" transform="matrix(1,0,0,1,0,0)" stroke="#000000" font-weight="400" stroke-linecap="square" stroke-linejoin="bevel"/>
 </g>
 <metadata>
  <rdf:RDF xmlns:rdf="http://www.w3.org/1999/02/22-rdf-syntax-ns#" xmlns:dc="http://purl.org/dc/elements/1.1/" xmlns:rdfs="http://www.w3.org/2000/01/rdf-schema#">
   <rdf:Description dc:title="" dc:date="2000-01-01T00:00:00" dc:identifier="" dc:description="" dc:format="image/svg+xml">
    <dc:creator>
     <rdf:Bag>
      <rdf:li></rdf:li>
     </rdf:Bag>
    </dc:creator>
    <dc:publisher>
     <rdf:Bag>
      <rdf:li>QGIS 3.24.0-Tisler</rdf:li>
     </rdf:Bag>
    </dc:publisher>
    <dc:subject>
     <rdf:Bag/>
    </dc:subject>
   </rdf:Description>
   <cc:Work rdf:about="">
    <dc:format>image/svg+xml</dc:format>
    <dc:title></dc:title>
    <dc:date>2000-01-01T00:00:00</dc:date>
    <dc:identifier></dc:identifier>
    <dc:description></dc:description>
    <dc:creator>
     <cc:Agent>
      <dc:title></dc:title>
     </cc:Agent>
    </dc:creator>
    <dc:publisher>
     <cc:Agent>
      <dc:title>QGIS 3.24.0-Tisler</dc:title>
     </cc:Agent>
    </dc:publisher>
   </cc:Work>
  </rdf:RDF>
 </metadata>
</svg>
