<?xml version='1.0' encoding='UTF-8' standalone='no'?>
<svg viewBox="0 0 2497 2393" baseProfile="tiny" version="1.2" xmlns:xlink="http://www.w3.org/1999/xlink" xmlns="http://www.w3.org/2000/svg" xmlns:cc="http://creativecommons.org/ns#" height="202.607mm" width="211.413mm">
 <defs/>
 <g fill="none" stroke-width="1" stroke="black" stroke-linecap="square" fill-rule="evenodd" stroke-linejoin="bevel">
  <g font-family="Ubuntu" fill="none" stroke-opacity="1" font-size="45.8333" stroke-width="1" font-style="normal" transform="matrix(1,0,0,1,0,0)" stroke="#000000" font-weight="400" stroke-linecap="square" stroke-linejoin="bevel"/>
  <g font-family="Ubuntu" fill="none" stroke-opacity="1" font-size="45.8333" stroke-width="1" font-style="normal" transform="matrix(1,0,0,1,0,0)" stroke="#000000" font-weight="400" stroke-linecap="square" stroke-linejoin="bevel"/>
  <g font-family="Ubuntu" fill="none" stroke-opacity="1" font-size="45.8333" stroke-width="1" font-style="normal" transform="matrix(11.8088,0,0,11.8088,0,0)" stroke="#000000" font-weight="400" stroke-linecap="square" stroke-linejoin="bevel"/>
  <g font-family="Ubuntu" fill="none" stroke-opacity="1" font-size="45.8333" stroke-width="1" font-style="normal" transform="matrix(0.999811,0,0,0.999811,0,0)" stroke="#000000" font-weight="400" stroke-linecap="square" stroke-linejoin="bevel"/>
  <g font-family="Ubuntu" fill="#ffffff" font-size="45.8333" font-style="normal" transform="matrix(0.999811,0,0,0.999811,0,0)" stroke="none" font-weight="400" fill-opacity="1">
   <path vector-effect="none" d="M-2,-2 L2500,-2 L2500,2396 L-2,2396 L-2,-2" fill-rule="evenodd"/>
  </g>
  <g font-family="Ubuntu" fill="none" stroke-opacity="1" font-size="45.8333" stroke-width="1" font-style="normal" transform="matrix(0.999811,0,0,0.999811,0,0)" stroke="#000000" font-weight="400" stroke-linecap="square" stroke-linejoin="bevel"/>
  <g font-family="Ubuntu" fill="none" stroke-opacity="1" font-size="45.8333" stroke-width="1" font-style="normal" transform="matrix(11.8088,0,0,11.8088,0,0)" stroke="#000000" font-weight="400" stroke-linecap="square" stroke-linejoin="bevel"/>
  <g font-family="Ubuntu" fill="none" stroke-opacity="1" font-size="45.8333" stroke-width="1" font-style="normal" transform="matrix(11.8088,0,0,11.8088,0,0)" stroke="#000000" font-weight="400" stroke-linecap="square" stroke-linejoin="bevel"/>
  <g font-family="Ubuntu" fill="none" stroke-opacity="1" font-size="45.8333" stroke-width="1" font-style="normal" transform="matrix(11.8088,0,0,11.8088,0,0)" stroke="#000000" font-weight="400" stroke-linecap="square" stroke-linejoin="bevel"/>
  <g font-family="Ubuntu" fill="none" stroke-opacity="1" font-size="45.8333" stroke-width="1" font-style="normal" transform="matrix(11.8088,0,0,11.8088,0,0)" stroke="#000000" font-weight="400" stroke-linecap="square" stroke-linejoin="bevel"/>
  <g font-family="Ubuntu" fill="none" stroke-opacity="1" font-size="45.8333" stroke-width="1" font-style="normal" transform="matrix(11.8088,0,0,11.8088,0,0)" stroke="#000000" font-weight="400" stroke-linecap="square" stroke-linejoin="bevel"/>
  <g font-family="Ubuntu" fill="#1a1a1a" font-size="45.8333" font-style="normal" transform="matrix(11.8088,0,0,11.8088,0,0)" stroke="none" font-weight="400" fill-opacity="1">
   <path vector-effect="none" d="M0,0 L211.453,0 L211.453,202.626 L0,202.626 L0,0" fill-rule="evenodd"/>
  </g>
  <g font-family="Ubuntu" fill="none" stroke-opacity="1" font-size="45.8333" stroke-width="1" font-style="normal" transform="matrix(11.8088,0,0,11.8088,0,0)" stroke="#000000" font-weight="400" stroke-linecap="square" stroke-linejoin="bevel"/>
  <g font-family="Ubuntu" fill="none" stroke-opacity="1" font-size="45.8333" stroke-width="1" font-style="normal" transform="matrix(11.8088,0,0,11.8088,0,0)" stroke="#000000" font-weight="400" stroke-linecap="square" stroke-linejoin="bevel"/>
  <g font-family="Ubuntu" fill="#000000" font-size="45.8333" font-style="normal" transform="matrix(0.999811,0,0,0.999811,0,0)" stroke="none" font-weight="400" fill-opacity="0">
   <rect x="0" height="2393" y="0" width="2497"/>
  </g>
  <g font-family="Ubuntu" fill="none" stroke-opacity="1" font-size="45.8333" stroke-width="1" font-style="normal" transform="matrix(0.999811,0,0,0.999811,0,0)" stroke="#000000" font-weight="400" stroke-linecap="square" stroke-linejoin="bevel"/>
  <g font-family="Ubuntu" fill="#fff5de" font-size="45.8333" font-style="normal" transform="matrix(0.999811,0,0,0.999811,0,0)" stroke="none" font-weight="400" fill-opacity="1">
   <path vector-effect="none" d="M-311.479,2644.09 L-243.708,-255.449 L2736.74,-275.593 L2843.16,2623.39 L-311.479,2644.09" fill-rule="evenodd"/>
  </g>
  <g font-family="Ubuntu" fill="none" stroke-opacity="1" font-size="45.8333" stroke-width="1" font-style="normal" transform="matrix(0.999811,0,0,0.999811,0,0)" stroke="#000000" font-weight="400" stroke-linecap="square" stroke-linejoin="bevel"/>
  <g font-family="Ubuntu" fill="none" stroke-opacity="1" font-size="45.8333" stroke-width="12.5197" font-style="normal" transform="matrix(0.999811,0,0,0.999811,0,0)" stroke="#232323" font-weight="400" stroke-linecap="square" stroke-linejoin="bevel">
   <path vector-effect="none" d="M-268.269,785.52 L-261.534,769.93 L-256.123,765.077 L-206.749,739.466 L-199.779,732.415 L-185.396,723.342 L-129.17,692.105 L-117.898,692.994 L-97.8009,702.912 L-83.9509,717.488 L-79.8357,736.704 L-75.0685,739.546 L-71.8265,737.784 L-64.7428,727.509 L-57.8857,726.548 L-47.8024,721.468 L-30.6977,718.925 L-19.0633,710.637 L-10.3969,701.689 L2.69082,697.168 L20.4209,684.411 L45.1665,677.591 L62.3658,655.171 L73.4384,634.265 L92.7849,618.586 L130.629,607.71 L143.972,578.493 L154.5,567.612 L182.332,551.608 L228.759,497.831 L242.886,487.869 L253.138,486.198 L260.191,487.835 L276.153,494.965 L282.722,499.731 L290.62,501.706 L312.882,498.266 L341.418,500.089 L344.839,502.466 L365.12,529.78 L374.52,533.99 L379.945,534 L405.028,522.779 L422.224,505.858 L432.5,498.221 L453.914,489.449 L462.867,488.474 L494.213,469.137 L522.9,454.79 L537.502,443.857 L558.243,437.925 L568.226,424.528 L574.197,422.572 L583.605,425.011 L590.259,421.706 L593.535,417.489 L593.832,409.09 L595.805,404.495 L614.328,390.313 L646.748,385.884 L652.109,386.666 L666.886,399.469 L684.534,419.913 L698.099,424.566 L701.941,433.776 L706.704,436.54 L712.893,434.237 L715.617,426.669 L718.787,423.674 L739.505,420.444 L763.226,405.393 L771.627,403.453 L788.518,405.024 L802.236,411.481 L812.361,409.29 L837.979,411.705 L855.268,408.354 L872.609,401.352 L889.943,391.004 L907.91,363.629 L921.717,353.098 L934.84,348.732 L949.689,347.976 L966.364,340.832 L973.42,333.819 L976.794,323.482 L986.461,316.781 L989.946,308.201 L1001.42,303.515 L1002.44,300.619 L1002.18,295.178 L1004.09,291.747 L1010.71,289.178 L1039.92,269.678 L1066.65,258.322 L1079.48,256.731 L1089.82,256.581 L1117.49,265.725 L1121.18,265.321 L1124.19,261.648 L1122.97,250.462 L1126.04,242.34 L1129.27,238.315 L1138.44,237.565 L1143.91,240.513 L1148.39,240.596 L1155.32,234.689 L1166.52,229.35 L1170.39,218.856 L1172.86,215.694 L1183.92,211.065 L1191.26,210.679 L1200.86,199.042 L1236.94,193.119 L1248.58,184.209 L1284.29,186.859 L1301.19,182.138 L1317.46,167.044 L1332,173.522 L1339.55,169.789 L1349.14,170.32 L1356.93,166.261 L1364,159.887 L1394.24,175.167 L1404.68,183.699 L1435.9,186.214 L1458.4,201.459 L1465.7,204.474 L1484.77,203.986 L1490.18,207.008 L1496.88,207.051 L1525.35,195.973 L1548.46,204.463 L1555.34,209.899 L1564.36,208.902 L1574.1,211.083 L1577.86,209.778 L1591.73,198.069 L1596.99,197.531 L1601.62,201.691 L1601.26,210.29 L1602.76,213.256 L1611.93,214.527 L1619.24,217.849 L1621.79,221.106 L1621.57,224.82 L1618.22,230.096 L1611.18,251.276 L1612.13,255.252 L1616.51,256.982 L1625.28,253.34 L1628.62,253.794 L1644.31,263.688 L1668.44,290.283 L1681.06,295.616 L1685.53,300.74 L1696.06,306.474 L1702.79,305.528 L1710.54,300.766 L1715.68,301.82 L1720.37,306.874 L1720.46,311.739 L1716.82,315.373 L1710.85,316.387 L1709.43,319.629 L1719.02,332.569 L1725.07,333.213 L1729.19,326.218 L1732.16,324.541 L1739.92,328.348 L1747.32,325.5 L1761.07,329.295 L1773.67,326.492 L1785.14,330.487 L1801.93,322.654 L1821.64,330.36 L1830.69,335.996 L1839.2,332.413 L1846.11,333.799 L1849.26,337.832 L1850.49,347.153 L1853.67,350.847 L1874.57,352.182 L1877.7,354.407 L1878.23,358.167 L1873.45,367.634 L1874.79,372.265 L1892.35,374.822 L1903.53,371.829 L1904.21,369.431 L1902.44,363.177 L1908.2,353.277 L1949.86,304.138 L1957.12,286.48 L1959.45,276.637 L1963.56,270.734 L1967.07,261.786 L1980.41,247.484 L1995.64,225.48 L2013.49,210.608 L2017.5,201.837 L2031.96,193.461 L2035.84,187.923 L2040.59,184.658 L2044.28,178.026 L2050.82,176.189 L2064.19,166.99 L2078.72,167.24 L2088.45,171.154 L2092.9,170.817 L2095.49,168.389 L2103.98,151.565 L2111.35,145.122 L2114.34,140.042 L2129.72,132.371 L2135.84,126.413 L2167.35,112.885 L2182.68,103.904 L2191.37,101.089 L2204.32,100.522 L2211.42,89.3036 L2214.2,87.1461 L2228.56,83.2644 L2236.25,86.0812 L2239.56,85.2016 L2245.79,75.4929 L2255.44,72.4688 L2285.94,46.2271 L2301.75,22.4611 L2315.83,11.5659 L2332.28,3.91054 L2341.14,-7.13703 L2358.96,-21.3855 L2374.63,-17.8673 L2378.02,-11.9746 L2384.42,-7.5757 L2388.69,-1.3467 L2402.08,6.24065 L2403.35,9.1603 L2403.2,17.9574 L2405.7,24.8764 L2404.56,29.6792 L2405.32,33.7933 L2412.77,42.4284 L2418.4,43.884 L2428.89,39.4884 L2438.53,38.9608 L2453.08,48.7626 L2463.94,44.06 L2466.24,37.9892 L2471.37,33.833 L2472.53,27.9758 L2479.56,20.7116 L2488.26,18.7565 L2495.75,13.6109 L2509.02,10.7156 L2515.89,4.28165 L2536.31,-2.83297 L2542.1,-0.851909 L2545.07,10.2929 L2554.46,17.3531 L2564.16,14.2731 L2571.19,20.4869 L2581.45,21.4937 L2595.78,15.5782 L2604.47,14.8427 L2610.49,10.5578 L2614.99,-3.57149 L2623.59,-14.624 L2631.92,-15.9791 L2635.21,-18.5291 L2636.06,-21.0819 L2635.6,-26.4796 L2637.69,-31.1873 L2637.37,-38.2354 L2643.4,-46.7941 L2645.88,-48.1717 L2660.68,-45.972 L2667.94,-50.0424 L2674.71,-49.7153 L2682.79,-52.1088 L2689.67,-46.9522 L2689.53,-40.5294 L2690.88,-37.6714 L2699.84,-35.5521 L2711.4,-23.0931 L2716.47,-23.0592 L2720.58,-29.9492 L2724.73,-32.5024 L2743.65,-28.1232 L2746.02,-26.2249" fill-rule="evenodd"/>
  </g>
  <g font-family="Ubuntu" fill="none" stroke-opacity="1" font-size="45.8333" stroke-dashoffset="0" stroke-width="6.25984" font-style="normal" transform="matrix(0.999811,0,0,0.999811,0,0)" stroke="#ffffff" font-weight="400" stroke-linecap="square" stroke-dasharray="35.4331,35.4331" stroke-linejoin="bevel">
   <path vector-effect="none" d="M-268.269,785.52 L-261.534,769.93 L-256.123,765.077 L-206.749,739.466 L-199.779,732.415 L-185.396,723.342 L-129.17,692.105 L-117.898,692.994 L-97.8009,702.912 L-83.9509,717.488 L-79.8357,736.704 L-75.0685,739.546 L-71.8265,737.784 L-64.7428,727.509 L-57.8857,726.548 L-47.8024,721.468 L-30.6977,718.925 L-19.0633,710.637 L-10.3969,701.689 L2.69082,697.168 L20.4209,684.411 L45.1665,677.591 L62.3658,655.171 L73.4384,634.265 L92.7849,618.586 L130.629,607.71 L143.972,578.493 L154.5,567.612 L182.332,551.608 L228.759,497.831 L242.886,487.869 L253.138,486.198 L260.191,487.835 L276.153,494.965 L282.722,499.731 L290.62,501.706 L312.882,498.266 L341.418,500.089 L344.839,502.466 L365.12,529.78 L374.52,533.99 L379.945,534 L405.028,522.779 L422.224,505.858 L432.5,498.221 L453.914,489.449 L462.867,488.474 L494.213,469.137 L522.9,454.79 L537.502,443.857 L558.243,437.925 L568.226,424.528 L574.197,422.572 L583.605,425.011 L590.259,421.706 L593.535,417.489 L593.832,409.09 L595.805,404.495 L614.328,390.313 L646.748,385.884 L652.109,386.666 L666.886,399.469 L684.534,419.913 L698.099,424.566 L701.941,433.776 L706.704,436.54 L712.893,434.237 L715.617,426.669 L718.787,423.674 L739.505,420.444 L763.226,405.393 L771.627,403.453 L788.518,405.024 L802.236,411.481 L812.361,409.29 L837.979,411.705 L855.268,408.354 L872.609,401.352 L889.943,391.004 L907.91,363.629 L921.717,353.098 L934.84,348.732 L949.689,347.976 L966.364,340.832 L973.42,333.819 L976.794,323.482 L986.461,316.781 L989.946,308.201 L1001.42,303.515 L1002.44,300.619 L1002.18,295.178 L1004.09,291.747 L1010.71,289.178 L1039.92,269.678 L1066.65,258.322 L1079.48,256.731 L1089.82,256.581 L1117.49,265.725 L1121.18,265.321 L1124.19,261.648 L1122.97,250.462 L1126.04,242.34 L1129.27,238.315 L1138.44,237.565 L1143.91,240.513 L1148.39,240.596 L1155.32,234.689 L1166.52,229.35 L1170.39,218.856 L1172.86,215.694 L1183.92,211.065 L1191.26,210.679 L1200.86,199.042 L1236.94,193.119 L1248.58,184.209 L1284.29,186.859 L1301.19,182.138 L1317.46,167.044 L1332,173.522 L1339.55,169.789 L1349.14,170.32 L1356.93,166.261 L1364,159.887 L1394.24,175.167 L1404.68,183.699 L1435.9,186.214 L1458.4,201.459 L1465.7,204.474 L1484.77,203.986 L1490.18,207.008 L1496.88,207.051 L1525.35,195.973 L1548.46,204.463 L1555.34,209.899 L1564.36,208.902 L1574.1,211.083 L1577.86,209.778 L1591.73,198.069 L1596.99,197.531 L1601.62,201.691 L1601.26,210.29 L1602.76,213.256 L1611.93,214.527 L1619.24,217.849 L1621.79,221.106 L1621.57,224.82 L1618.22,230.096 L1611.18,251.276 L1612.13,255.252 L1616.51,256.982 L1625.28,253.34 L1628.62,253.794 L1644.31,263.688 L1668.44,290.283 L1681.06,295.616 L1685.53,300.74 L1696.06,306.474 L1702.79,305.528 L1710.54,300.766 L1715.68,301.82 L1720.37,306.874 L1720.46,311.739 L1716.82,315.373 L1710.85,316.387 L1709.43,319.629 L1719.02,332.569 L1725.07,333.213 L1729.19,326.218 L1732.16,324.541 L1739.92,328.348 L1747.32,325.5 L1761.07,329.295 L1773.67,326.492 L1785.14,330.487 L1801.93,322.654 L1821.64,330.36 L1830.69,335.996 L1839.2,332.413 L1846.11,333.799 L1849.26,337.832 L1850.49,347.153 L1853.67,350.847 L1874.57,352.182 L1877.7,354.407 L1878.23,358.167 L1873.45,367.634 L1874.79,372.265 L1892.35,374.822 L1903.53,371.829 L1904.21,369.431 L1902.44,363.177 L1908.2,353.277 L1949.86,304.138 L1957.12,286.48 L1959.45,276.637 L1963.56,270.734 L1967.07,261.786 L1980.41,247.484 L1995.64,225.48 L2013.49,210.608 L2017.5,201.837 L2031.96,193.461 L2035.84,187.923 L2040.59,184.658 L2044.28,178.026 L2050.82,176.189 L2064.19,166.99 L2078.72,167.24 L2088.45,171.154 L2092.9,170.817 L2095.49,168.389 L2103.98,151.565 L2111.35,145.122 L2114.34,140.042 L2129.72,132.371 L2135.84,126.413 L2167.35,112.885 L2182.68,103.904 L2191.37,101.089 L2204.32,100.522 L2211.42,89.3036 L2214.2,87.1461 L2228.56,83.2644 L2236.25,86.0812 L2239.56,85.2016 L2245.79,75.4929 L2255.44,72.4688 L2285.94,46.2271 L2301.75,22.4611 L2315.83,11.5659 L2332.28,3.91054 L2341.14,-7.13703 L2358.96,-21.3855 L2374.63,-17.8673 L2378.02,-11.9746 L2384.42,-7.5757 L2388.69,-1.3467 L2402.08,6.24065 L2403.35,9.1603 L2403.2,17.9574 L2405.7,24.8764 L2404.56,29.6792 L2405.32,33.7933 L2412.77,42.4284 L2418.4,43.884 L2428.89,39.4884 L2438.53,38.9608 L2453.08,48.7626 L2463.94,44.06 L2466.24,37.9892 L2471.37,33.833 L2472.53,27.9758 L2479.56,20.7116 L2488.26,18.7565 L2495.75,13.6109 L2509.02,10.7156 L2515.89,4.28165 L2536.31,-2.83297 L2542.1,-0.851909 L2545.07,10.2929 L2554.46,17.3531 L2564.16,14.2731 L2571.19,20.4869 L2581.45,21.4937 L2595.78,15.5782 L2604.47,14.8427 L2610.49,10.5578 L2614.99,-3.57149 L2623.59,-14.624 L2631.92,-15.9791 L2635.21,-18.5291 L2636.06,-21.0819 L2635.6,-26.4796 L2637.69,-31.1873 L2637.37,-38.2354 L2643.4,-46.7941 L2645.88,-48.1717 L2660.68,-45.972 L2667.94,-50.0424 L2674.71,-49.7153 L2682.79,-52.1088 L2689.67,-46.9522 L2689.53,-40.5294 L2690.88,-37.6714 L2699.84,-35.5521 L2711.4,-23.0931 L2716.47,-23.0592 L2720.58,-29.9492 L2724.73,-32.5024 L2743.65,-28.1232 L2746.02,-26.2249" fill-rule="evenodd"/>
  </g>
  <g font-family="Ubuntu" fill="none" stroke-opacity="1" font-size="45.8333" stroke-width="7.79528" font-style="normal" transform="matrix(0.999811,0,0,0.999811,0,0)" stroke="#000000" font-weight="400" stroke-linecap="round" stroke-linejoin="round">
   <path vector-effect="none" d="M50.5191,671.933 L66.1574,664.782 L69.9362,665.885 L71.113,671.965 L87.7107,689.549 L142.37,783.407 L148.91,792.483 L184.326,800.914 L294.728,867.448 L306.416,891.57 L309.428,894.86 L355.804,910.026 L387.171,941.357 L451.015,971.137 L516.938,974.13 L543.408,967.84 L602.532,971.854 L647.391,963.94 L784.891,921.082 L871.895,885.338 L880.929,877.66 L886.891,876.853 L895.889,871.278 L931.942,885.885 L995.837,932.394 L1032.45,939.922 L1035.44,939.123 L1040.13,934.116 L1047.52,919.598 L1052.36,913.684 L1052.75,908.957 L1045.85,896.726 L1044.23,890.255 L1044.53,886.159 L1047.07,883.072 L1058.77,880.913 L1111.88,890.335 L1113.72,892.347 L1115.63,899.962 L1116.1,922.928 L1119.51,929.309 L1117.88,938.153 L1119.79,945.359 L1134.89,953.359 L1148.83,952.455 L1159.88,955.107 L1171.93,978.35 L1191.92,991.913 L1198.76,1001.79 L1202.21,1002.28 L1204.97,1000.07 L1204.67,989.74 L1207.99,984.232 L1211.25,984.097 L1217.32,988.633 L1223.75,989.749 L1234.54,985.24 L1238.45,988.627 L1236.58,996.87 L1238.04,1003.11 L1257.96,1011.89 L1269.86,1014.89 L1280.17,1027.87 L1284.16,1028.03 L1294.86,1022.78 L1296.15,1019.91 L1295.11,1013.98 L1297.32,1010.84 L1301.11,1010.6 L1305.61,1014.06 L1314.16,1028.29 L1315.32,1035.87 L1314.63,1042.03 L1320.4,1064.52 L1326.83,1076.28 L1334.47,1084.65 L1333.21,1094.14 L1345.6,1101.55 L1347.36,1104.43 L1341.96,1117.78 L1343.41,1128.99 L1342.95,1133.37 L1346.04,1141.7 L1343.78,1164.92 L1352.27,1186.82 L1350.51,1189.8 L1345.55,1192.14 L1336.12,1193.23 L1331.8,1201.52 L1344.88,1223.09 L1344.6,1225.92 L1340.96,1229.96 L1340.95,1232.98 L1349.56,1237.14 L1350.45,1239.57 L1349.44,1243.64 L1350.13,1246.4 L1357.06,1251.9 L1360,1258.18 L1366.78,1262.75 L1366.62,1266.35 L1362.24,1269.64 L1361.41,1272.68 L1363.55,1277.12 L1365.15,1286.02 L1368.62,1288.7 L1374.82,1289.8 L1379.32,1294.61 L1378.98,1299.71 L1374.81,1304.02 L1375.55,1307.22 L1381.67,1308.43 L1394.29,1316.06 L1400.87,1315.83 L1415.24,1320.84 L1416.85,1322.83 L1419.12,1332.46 L1432.1,1345.82 L1433.96,1351.58 L1451.89,1351.24 L1459.93,1359.4 L1460.51,1362.96 L1457.19,1369.44 L1456.53,1375.53 L1453.53,1382.44 L1457.31,1388.08 L1457.24,1395.99 L1460.28,1402.25 L1459.08,1407.01 L1452.38,1419.79 L1451.87,1424.35 L1454,1429.75 L1451.27,1444.44 L1453.83,1454.27 L1457.52,1459.22 L1467.19,1462.21 L1495.61,1453.99 L1503.33,1455.61 L1507.72,1461.29 L1510.8,1462.71 L1524.42,1460.85 L1531.4,1456.94 L1541.46,1462.18 L1542.27,1464.87 L1541.53,1471.62 L1536.42,1484.1 L1541.75,1499.34 L1543.2,1518.9 L1551.74,1528.11 L1545.29,1538.45 L1546.23,1541.38 L1550.67,1544.46 L1551.12,1547.79 L1544.56,1551.57 L1543.42,1553.91 L1547.25,1559.65 L1546.14,1565.55 L1547.31,1568.08 L1559.41,1570.89 L1577.06,1568.3 L1587.17,1570.44 L1597.21,1581.65 L1607.33,1586.85 L1615.03,1587.36 L1622.79,1583.29 L1633.05,1584.63 L1637.67,1587.8 L1643.59,1587.49 L1648.93,1590.41 L1665.94,1588.64 L1672.82,1592.17 L1681.37,1599.58 L1702.24,1606.91 L1715.65,1604.97 L1740.83,1590 L1773.65,1587.28 L1784.05,1592.78 L1789.76,1593.51 L1803.84,1589.05 L1813.95,1581.95 L1826.97,1578.43 L1834.96,1578.68 L1851.58,1589.01 L1856.57,1589.56 L1862.95,1585.5 L1867.68,1578.44 L1893.34,1568.08 L1907.56,1571.13 L1914.41,1564.71 L1930.41,1575.1 L1940.17,1572.87 L1949.33,1576.89 L1967.83,1572.71 L1971.85,1573.68 L1974.82,1577.87 L1977.55,1578.73 L1979.93,1577.19 L1981.72,1571.4 L1986.73,1568.9 L1990.92,1561.59 L1990.43,1550.64 L1996.56,1547.6 L2001.05,1549.52 L2001.08,1553.61 L2003.07,1557.64 L2003.57,1568.44 L2006.17,1570.03 L2008.78,1569 L2012.03,1550.54 L2017.46,1540.34 L2021.91,1524.6 L2038.57,1518.93 L2047.62,1509.06 L2057.16,1508.91 L2064.7,1523.34 L2072.23,1525.97 L2075.25,1530.61 L2072.98,1538.5 L2065.74,1549.76 L2064.34,1554.43 L2065.93,1556.93 L2071.65,1557.97 L2076.82,1561.89 L2080.05,1569.8 L2081.47,1577.49 L2080.75,1588.48 L2085.79,1597.23 L2080.52,1607.65 L2081.37,1614.62 L2089.6,1622.46 L2099.33,1621.16 L2109.92,1627.72 L2120.68,1630.23 L2125.1,1636.12 L2123.74,1640.43 L2114.48,1645.67 L2109.72,1659.47 L2106.43,1664.22 L2105.46,1674.65 L2106.84,1680.05 L2104.83,1694.04 L2113.64,1699.31 L2121.43,1718.42 L2130.7,1730.2 L2131.68,1736.03 L2130.27,1742.34 L2132.66,1747.6 L2134.82,1749.09 L2151.46,1749.52 L2154.49,1752.83 L2157.48,1767.77 L2155.2,1782.86 L2155.07,1804.95 L2157.92,1818.35 L2159.13,1834.23 L2174.53,1840.88 L2213.68,1873.13 L2215,1876.98 L2213.69,1900.39 L2214.47,1903.63 L2217.67,1906.61 L2226.3,1908.84 L2236.03,1916.85 L2238.18,1921.01 L2239.71,1930.72 L2251.26,1946.41 L2264.25,1951.96 L2273.25,1961.57 L2286.14,1970.98 L2291.28,1972.32 L2301.27,1971.18 L2307.67,1974.77 L2342.8,2020.54 L2351.93,2024.94 L2376.13,2066.25 L2375.74,2099.2 L2377.83,2105.68 L2383.05,2109.58 L2403.41,2112.08 L2410.21,2110.58 L2416.93,2112.45 L2423.07,2118.01 L2432.32,2122.87 L2434.88,2127.62 L2435.96,2136.51 L2439.99,2139.1 L2443.67,2137.46 L2442.98,2138.66 L2455.37,2124.31 L2468.47,2116.79 L2474.64,2119.21 L2481.64,2118.33 L2485.61,2119.94 L2487.89,2124.3 L2486.94,2132.59 L2490.26,2136.68 L2503.05,2137.91 L2525.68,2147.73 L2546.05,2143.7 L2552.91,2140.36 L2569.41,2143.64 L2578.94,2137.96 L2585.63,2139.35 L2589.96,2144.66 L2592.04,2156.05 L2600.71,2169.75 L2605.98,2196.66 L2624.5,2221.49 L2632.17,2225.02 L2663.77,2222.12 L2668.63,2224.95 L2682.17,2239.51 L2702.44,2244.2 L2709.74,2258.96 L2707.09,2274.27 L2709.38,2280.94 L2727.98,2298.94 L2736.14,2303.7 L2761.07,2312.83 L2776.9,2323.4 L2778.24,2328.96 L2773.02,2337.78 L2771.4,2344.97 L2773,2352.17 L2776.84,2355.91 L2794.26,2364.49 L2797.95,2369.3 L2807.35,2390.23 L2826.14,2402.99 L2831.11,2403.91 L2835.15,2402.14" fill-rule="evenodd"/>
  </g>
  <g font-family="Ubuntu" fill="none" stroke-opacity="1" font-size="45.8333" stroke-dashoffset="0" stroke-width="3.89764" font-style="normal" transform="matrix(0.999811,0,0,0.999811,0,0)" stroke="#ffffff" font-weight="400" stroke-linecap="square" stroke-dasharray="35.4331,35.4331" stroke-linejoin="bevel">
   <path vector-effect="none" d="M50.5191,671.933 L66.1574,664.782 L69.9362,665.885 L71.113,671.965 L87.7107,689.549 L142.37,783.407 L148.91,792.483 L184.326,800.914 L294.728,867.448 L306.416,891.57 L309.428,894.86 L355.804,910.026 L387.171,941.357 L451.015,971.137 L516.938,974.13 L543.408,967.84 L602.532,971.854 L647.391,963.94 L784.891,921.082 L871.895,885.338 L880.929,877.66 L886.891,876.853 L895.889,871.278 L931.942,885.885 L995.837,932.394 L1032.45,939.922 L1035.44,939.123 L1040.13,934.116 L1047.52,919.598 L1052.36,913.684 L1052.75,908.957 L1045.85,896.726 L1044.23,890.255 L1044.53,886.159 L1047.07,883.072 L1058.77,880.913 L1111.88,890.335 L1113.72,892.347 L1115.63,899.962 L1116.1,922.928 L1119.51,929.309 L1117.88,938.153 L1119.79,945.359 L1134.89,953.359 L1148.83,952.455 L1159.88,955.107 L1171.93,978.35 L1191.92,991.913 L1198.76,1001.79 L1202.21,1002.28 L1204.97,1000.07 L1204.67,989.74 L1207.99,984.232 L1211.25,984.097 L1217.32,988.633 L1223.75,989.749 L1234.54,985.24 L1238.45,988.627 L1236.58,996.87 L1238.04,1003.11 L1257.96,1011.89 L1269.86,1014.89 L1280.17,1027.87 L1284.16,1028.03 L1294.86,1022.78 L1296.15,1019.91 L1295.11,1013.98 L1297.32,1010.84 L1301.11,1010.6 L1305.61,1014.06 L1314.16,1028.29 L1315.32,1035.87 L1314.63,1042.03 L1320.4,1064.52 L1326.83,1076.28 L1334.47,1084.65 L1333.21,1094.14 L1345.6,1101.55 L1347.36,1104.43 L1341.96,1117.78 L1343.41,1128.99 L1342.95,1133.37 L1346.04,1141.7 L1343.78,1164.92 L1352.27,1186.82 L1350.51,1189.8 L1345.55,1192.14 L1336.12,1193.23 L1331.8,1201.52 L1344.88,1223.09 L1344.6,1225.92 L1340.96,1229.96 L1340.95,1232.98 L1349.56,1237.14 L1350.45,1239.57 L1349.44,1243.64 L1350.13,1246.4 L1357.06,1251.9 L1360,1258.18 L1366.78,1262.75 L1366.62,1266.35 L1362.24,1269.64 L1361.41,1272.68 L1363.55,1277.12 L1365.15,1286.02 L1368.62,1288.7 L1374.82,1289.8 L1379.32,1294.61 L1378.98,1299.71 L1374.81,1304.02 L1375.55,1307.22 L1381.67,1308.43 L1394.29,1316.06 L1400.87,1315.83 L1415.24,1320.84 L1416.85,1322.83 L1419.12,1332.46 L1432.1,1345.82 L1433.96,1351.58 L1451.89,1351.24 L1459.93,1359.4 L1460.51,1362.96 L1457.19,1369.44 L1456.53,1375.53 L1453.53,1382.44 L1457.31,1388.08 L1457.24,1395.99 L1460.28,1402.25 L1459.08,1407.01 L1452.38,1419.79 L1451.87,1424.35 L1454,1429.75 L1451.27,1444.44 L1453.83,1454.27 L1457.52,1459.22 L1467.19,1462.21 L1495.61,1453.99 L1503.33,1455.61 L1507.72,1461.29 L1510.8,1462.71 L1524.42,1460.85 L1531.4,1456.94 L1541.46,1462.18 L1542.27,1464.87 L1541.53,1471.62 L1536.42,1484.1 L1541.75,1499.34 L1543.2,1518.9 L1551.74,1528.11 L1545.29,1538.45 L1546.23,1541.38 L1550.67,1544.46 L1551.12,1547.79 L1544.56,1551.57 L1543.42,1553.91 L1547.25,1559.65 L1546.14,1565.55 L1547.31,1568.08 L1559.41,1570.89 L1577.06,1568.3 L1587.17,1570.44 L1597.21,1581.65 L1607.33,1586.85 L1615.03,1587.36 L1622.79,1583.29 L1633.05,1584.63 L1637.67,1587.8 L1643.59,1587.49 L1648.93,1590.41 L1665.94,1588.64 L1672.82,1592.17 L1681.37,1599.58 L1702.24,1606.91 L1715.65,1604.97 L1740.83,1590 L1773.65,1587.28 L1784.05,1592.78 L1789.76,1593.51 L1803.84,1589.05 L1813.95,1581.95 L1826.97,1578.43 L1834.96,1578.68 L1851.58,1589.01 L1856.57,1589.56 L1862.95,1585.5 L1867.68,1578.44 L1893.34,1568.08 L1907.56,1571.13 L1914.41,1564.71 L1930.41,1575.1 L1940.17,1572.87 L1949.33,1576.89 L1967.83,1572.71 L1971.85,1573.68 L1974.82,1577.87 L1977.55,1578.73 L1979.93,1577.19 L1981.72,1571.4 L1986.73,1568.9 L1990.92,1561.59 L1990.43,1550.64 L1996.56,1547.6 L2001.05,1549.52 L2001.08,1553.61 L2003.07,1557.64 L2003.57,1568.44 L2006.17,1570.03 L2008.78,1569 L2012.03,1550.54 L2017.46,1540.34 L2021.91,1524.6 L2038.57,1518.93 L2047.62,1509.06 L2057.16,1508.91 L2064.7,1523.34 L2072.23,1525.97 L2075.25,1530.61 L2072.98,1538.5 L2065.74,1549.76 L2064.34,1554.43 L2065.93,1556.93 L2071.65,1557.97 L2076.82,1561.89 L2080.05,1569.8 L2081.47,1577.49 L2080.75,1588.48 L2085.79,1597.23 L2080.52,1607.65 L2081.37,1614.62 L2089.6,1622.46 L2099.33,1621.16 L2109.92,1627.72 L2120.68,1630.23 L2125.1,1636.12 L2123.74,1640.43 L2114.48,1645.67 L2109.72,1659.47 L2106.43,1664.22 L2105.46,1674.65 L2106.84,1680.05 L2104.83,1694.04 L2113.64,1699.31 L2121.43,1718.42 L2130.7,1730.2 L2131.68,1736.03 L2130.27,1742.34 L2132.66,1747.6 L2134.82,1749.09 L2151.46,1749.52 L2154.49,1752.83 L2157.48,1767.77 L2155.2,1782.86 L2155.07,1804.95 L2157.92,1818.35 L2159.13,1834.23 L2174.53,1840.88 L2213.68,1873.13 L2215,1876.98 L2213.69,1900.39 L2214.47,1903.63 L2217.67,1906.61 L2226.3,1908.84 L2236.03,1916.85 L2238.18,1921.01 L2239.71,1930.72 L2251.26,1946.41 L2264.25,1951.96 L2273.25,1961.57 L2286.14,1970.98 L2291.28,1972.32 L2301.27,1971.18 L2307.67,1974.77 L2342.8,2020.54 L2351.93,2024.94 L2376.13,2066.25 L2375.74,2099.2 L2377.83,2105.68 L2383.05,2109.58 L2403.41,2112.08 L2410.21,2110.58 L2416.93,2112.45 L2423.07,2118.01 L2432.32,2122.87 L2434.88,2127.62 L2435.96,2136.51 L2439.99,2139.1 L2443.67,2137.46 L2442.98,2138.66 L2455.37,2124.31 L2468.47,2116.79 L2474.64,2119.21 L2481.64,2118.33 L2485.61,2119.94 L2487.89,2124.3 L2486.94,2132.59 L2490.26,2136.68 L2503.05,2137.91 L2525.68,2147.73 L2546.05,2143.7 L2552.91,2140.36 L2569.41,2143.64 L2578.94,2137.96 L2585.63,2139.35 L2589.96,2144.66 L2592.04,2156.05 L2600.71,2169.75 L2605.98,2196.66 L2624.5,2221.49 L2632.17,2225.02 L2663.77,2222.12 L2668.63,2224.95 L2682.17,2239.51 L2702.44,2244.2 L2709.74,2258.96 L2707.09,2274.27 L2709.38,2280.94 L2727.98,2298.94 L2736.14,2303.7 L2761.07,2312.83 L2776.9,2323.4 L2778.24,2328.96 L2773.02,2337.78 L2771.4,2344.97 L2773,2352.17 L2776.84,2355.91 L2794.26,2364.49 L2797.95,2369.3 L2807.35,2390.23 L2826.14,2402.99 L2831.11,2403.91 L2835.15,2402.14" fill-rule="evenodd"/>
  </g>
  <g font-family="Ubuntu" fill="none" stroke-opacity="1" font-size="45.8333" stroke-width="4.25197" font-style="normal" transform="matrix(0.999811,0,0,0.999811,0,0)" stroke="#232323" font-weight="400" stroke-linecap="square" stroke-linejoin="bevel">
   <path vector-effect="none" d="M2649.85,-272.433 L2638.78,-257.144 L2630.77,-249.126 L2627.53,-242.091 L2626.59,-236.576 L2619.04,-235.458 L2613.07,-229.888 L2611.99,-224.989 L2616.54,-221.116 L2617.06,-218.173 L2609.95,-211.65 L2605.43,-203.705 L2608.07,-188.307 L2606.48,-178.663 L2609.23,-172.176 L2606.92,-167.862 L2584.83,-151.412 L2585.08,-145.698 L2587.89,-141.638 L2588.13,-138.456 L2576.34,-112.839 L2570.24,-105.703 L2565.76,-94.0688 L2565.73,-90.6486 L2568.92,-85.5292 L2568.04,-81.8738 L2558.8,-68.379 L2551.84,-64.2654 L2543.46,-52.5692 L2533.5,-48.7634 L2510.97,-30.2629 L2506.91,-23.0535 L2498.25,-19.9377 L2494.86,-10.0414 L2490.45,-3.63828 L2491.67,4.68981 L2490.72,8.40603 L2471.54,20.6993 L2469.46,32.5136 L2463.8,36.4034 L2462.5,42.4786 L2456.06,43.4784 L2452.02,46.1914 L2448.62,44.6902" fill-rule="evenodd"/>
   <path vector-effect="none" d="M2382.96,2109.68 L2378.78,2110.75 L2377.44,2115.02 L2392.58,2148.57 L2391.74,2152.84 L2383.39,2162.72 L2379.66,2164.93 L2369.24,2165.53 L2359.85,2161.43 L2341.76,2167.88 L2327.68,2167.98 L2319.12,2182.09 L2317.05,2195.94 L2313.09,2203.65 L2311.88,2209.77 L2298.21,2216.07 L2295.83,2219.57 L2300.4,2239.14 L2305.16,2248.14 L2314.76,2285.3 L2321.5,2296.07 L2311.39,2332.28 L2309.92,2356.35 L2326.13,2406.19 L2322.32,2412.19 L2301.17,2416.9 L2292.87,2424.13 L2293.41,2430.09 L2306.32,2443.32 L2299.55,2459.45 L2300.35,2462.87 L2307.32,2470.38 L2306.98,2474.63 L2303.18,2481.97 L2304.03,2485.7 L2308.52,2492.77 L2306.75,2501.58 L2308.31,2510.34 L2297.72,2538.93 L2273.67,2568.12 L2270.23,2578.28 L2253.95,2591.99 L2252.95,2610.83 L2255.29,2620.51 L2255.19,2626.63 L2251,2641.51" fill-rule="evenodd"/>
   <path vector-effect="none" d="M2407.11,36.1183 L2401.92,34.871 L2396.19,40.3491 L2382.98,43.098 L2375.39,47.1138 L2369.54,55.3052 L2364.85,57.643 L2349.5,72.5315 L2343.55,84.7153 L2341.54,97.8492 L2336.03,108.094 L2334,125.515 L2337.82,133.852 L2345.96,139.385 L2348.51,144.019 L2346.81,147.296 L2341.1,151.691 L2340.41,158.626 L2334,169.295 L2337.07,172.466 L2349.54,169.902 L2352.77,172.046 L2354.1,174.949 L2353.7,177.151 L2349.49,180.762 L2347.81,184.741 L2350.04,191.43 L2349.52,193.9 L2346.82,195.496 L2326.15,196.639 L2314.24,202.38 L2311.17,200.229 L2309.18,195.985 L2293.41,184.281 L2281.52,185.105 L2276.29,190.86 L2270.17,202.812 L2271.72,205.648 L2280.12,210.427 L2281.71,219.777 L2286.22,225.257 L2286.93,228.599 L2278.57,245.584 L2279.07,256.867 L2278.29,260.506 L2269.02,277.497 L2264.43,282.56 L2262.12,289.111 L2261.05,299.32 L2257.85,301.071 L2254.67,298.854 L2254.7,296.051 L2258.07,291.878 L2257.12,287.479 L2257.92,281.567 L2256.69,278.937 L2253.61,278.157 L2249.46,283.671 L2244.37,285.629 L2239.57,292.802 L2231.85,297.885 L2215.6,301.522 L2207.73,312.393 L2200.74,316.62" fill-rule="evenodd"/>
   <path vector-effect="none" d="M1903.62,372.028 L1908.62,366.873 L1912.9,367.87 L1915.39,373.458 L1922.16,381.686 L1925.75,390.445 L1923.76,404.322 L1917.27,411.812 L1915.82,415.502 L1916.97,418.369 L1921.2,419.709 L1927.78,417.434 L1933.34,419.453 L1941.87,412.071 L1951.74,411.503 L1955.16,414.692 L1958.07,426.309 L1948.97,436.47 L1933.22,443.489 L1929.6,450.828 L1921.12,451.057 L1906.45,460.863 L1898.88,461.979 L1890.09,474.833 L1886.33,477.859 L1871.39,480.925 L1862.05,479.456 L1845.32,487.735 L1833.54,498.151 L1825.61,501.443 L1812.93,510.997 L1806.17,520.294 L1799.1,524.619 L1797.92,529.582 L1793.9,534.186 L1792.18,539.659 L1775.39,544.915 L1768.98,550.339" fill-rule="evenodd"/>
  </g>
  <g font-family="Ubuntu" fill="none" stroke-opacity="1" font-size="45.8333" stroke-width="7.79528" font-style="normal" transform="matrix(0.999811,0,0,0.999811,0,0)" stroke="#000000" font-weight="400" stroke-linecap="round" stroke-linejoin="round">
   <path vector-effect="none" d="M109.394,727.177 L123.44,738.162 L159.417,737.617 L183.336,721.87 L235.252,706.363 L271.027,690.348 L281.233,682.315 L311.875,668.834 L319.389,668.076 L334.246,670.472 L339.082,668.965 L341.951,665.754 L345.091,657.459 L349.129,633.703 L372.032,600.712 L378.897,593.683 L387.652,588.102 L410.714,577.364 L418.876,575.62 L422.425,572.394 L424.638,562.932 L432.022,544.024 L435.087,528.492 L439.837,514.77 L442.253,498.883 L447.053,492.553" fill-rule="evenodd"/>
   <path vector-effect="none" d="M447.053,492.553 L448.647,491.633" fill-rule="evenodd"/>
  </g>
  <g font-family="Ubuntu" fill="none" stroke-opacity="1" font-size="45.8333" stroke-dashoffset="0" stroke-width="3.89764" font-style="normal" transform="matrix(0.999811,0,0,0.999811,0,0)" stroke="#ffffff" font-weight="400" stroke-linecap="square" stroke-dasharray="35.4331,35.4331" stroke-linejoin="bevel">
   <path vector-effect="none" d="M109.394,727.177 L123.44,738.162 L159.417,737.617 L183.336,721.87 L235.252,706.363 L271.027,690.348 L281.233,682.315 L311.875,668.834 L319.389,668.076 L334.246,670.472 L339.082,668.965 L341.951,665.754 L345.091,657.459 L349.129,633.703 L372.032,600.712 L378.897,593.683 L387.652,588.102 L410.714,577.364 L418.876,575.62 L422.425,572.394 L424.638,562.932 L432.022,544.024 L435.087,528.492 L439.837,514.77 L442.253,498.883 L447.053,492.553" fill-rule="evenodd"/>
   <path vector-effect="none" d="M447.053,492.553 L448.647,491.633" fill-rule="evenodd"/>
  </g>
  <g font-family="Ubuntu" fill="none" stroke-opacity="1" font-size="45.8333" stroke-width="7.79528" font-style="normal" transform="matrix(0.999811,0,0,0.999811,0,0)" stroke="#000000" font-weight="400" stroke-linecap="round" stroke-linejoin="round">
   <path vector-effect="none" d="M259.327,327.941 L261.014,352.372 L265.774,359.04 L265.389,370.361 L266.549,372.146 L273.284,372.587 L275.027,374.97 L274.016,380.031 L276.099,383.598 L272.478,389.217 L272.027,396.648 L274.591,399.632 L275.45,406.491 L273.115,413.192 L273.857,419.933 L284.633,428.929 L285.472,432.838 L282.345,445.973 L282.961,448.757 L288.108,453.845 L296.064,457.076 L297.576,459.282 L297.253,461.465 L292.15,466.957 L292.005,469.083 L296.377,474.812 L303.747,493.44 L302.476,498.067 L297.176,500.52" fill-rule="evenodd"/>
  </g>
  <g font-family="Ubuntu" fill="none" stroke-opacity="1" font-size="45.8333" stroke-dashoffset="0" stroke-width="3.89764" font-style="normal" transform="matrix(0.999811,0,0,0.999811,0,0)" stroke="#ffffff" font-weight="400" stroke-linecap="square" stroke-dasharray="35.4331,35.4331" stroke-linejoin="bevel">
   <path vector-effect="none" d="M259.327,327.941 L261.014,352.372 L265.774,359.04 L265.389,370.361 L266.549,372.146 L273.284,372.587 L275.027,374.97 L274.016,380.031 L276.099,383.598 L272.478,389.217 L272.027,396.648 L274.591,399.632 L275.45,406.491 L273.115,413.192 L273.857,419.933 L284.633,428.929 L285.472,432.838 L282.345,445.973 L282.961,448.757 L288.108,453.845 L296.064,457.076 L297.576,459.282 L297.253,461.465 L292.15,466.957 L292.005,469.083 L296.377,474.812 L303.747,493.44 L302.476,498.067 L297.176,500.52" fill-rule="evenodd"/>
  </g>
  <g font-family="Ubuntu" fill="none" stroke-opacity="1" font-size="45.8333" stroke-width="7.79528" font-style="normal" transform="matrix(0.999811,0,0,0.999811,0,0)" stroke="#000000" font-weight="400" stroke-linecap="round" stroke-linejoin="round">
   <path vector-effect="none" d="M285.093,451.059 L281.76,448.905 L278.887,451.32 L280.313,454.441 L285.25,457.399 L282.851,464.461 L278.463,464.76 L274.553,455.549 L270.711,454.968 L269.156,456.189 L263.069,470.974" fill-rule="evenodd"/>
  </g>
  <g font-family="Ubuntu" fill="none" stroke-opacity="1" font-size="45.8333" stroke-dashoffset="0" stroke-width="3.89764" font-style="normal" transform="matrix(0.999811,0,0,0.999811,0,0)" stroke="#ffffff" font-weight="400" stroke-linecap="square" stroke-dasharray="35.4331,35.4331" stroke-linejoin="bevel">
   <path vector-effect="none" d="M285.093,451.059 L281.76,448.905 L278.887,451.32 L280.313,454.441 L285.25,457.399 L282.851,464.461 L278.463,464.76 L274.553,455.549 L270.711,454.968 L269.156,456.189 L263.069,470.974" fill-rule="evenodd"/>
  </g>
  <g font-family="Ubuntu" fill="none" stroke-opacity="1" font-size="45.8333" stroke-width="4.25197" font-style="normal" transform="matrix(0.999811,0,0,0.999811,0,0)" stroke="#232323" font-weight="400" stroke-linecap="square" stroke-linejoin="bevel">
   <path vector-effect="none" d="M283.744,438.369 L284.718,431.603 L284.058,429.941 L280.606,429.1 L278.581,432.382 L276.024,433.235 L268.738,422.126" fill-rule="evenodd"/>
  </g>
  <g font-family="Ubuntu" fill="none" stroke-opacity="1" font-size="45.8333" stroke-width="7.79528" font-style="normal" transform="matrix(0.999811,0,0,0.999811,0,0)" stroke="#000000" font-weight="400" stroke-linecap="round" stroke-linejoin="round">
   <path vector-effect="none" d="" fill-rule="evenodd"/>
   <path vector-effect="none" d="M449.2,970.746 L456.963,975.411 L459.913,987.777 L466.905,997.097 L475.944,1057.33 L485.811,1084.62 L486.084,1089.71 L483.825,1094.67 L471.232,1108.12 L473.42,1125.62 L469.543,1149.58 L417.018,1281.27 L406.01,1328.66 L407.528,1341.32 L407.029,1345.17 L390.03,1368.2 L387.61,1377.64 L386.275,1390.62 L379.418,1406.32 L375.672,1422 L365.548,1446.62 L355.598,1518.02 L309.534,1651.19 L297.567,1673.83 L276.599,1702.35 L269.636,1717.13 L223.893,1774.06 L209.112,1802.09 L205.687,1815.53 L201.14,1822.53 L141.55,1948.54 L138.954,1952.14 L125.849,1961.63 L122.695,1968.14 L114.21,2025.92 L121.647,2051.6 L127.567,2061.02 L128.641,2065.19 L133.399,2101.82 L122.219,2135.69 L119.178,2152.99 L121.834,2160.54 L121.948,2165.54 L119.195,2178.44 L102.716,2540.3 L103.408,2545.14 L133.295,2613.9 L132.78,2618.91 L124.221,2642.37 L127.929,2652.4" fill-rule="evenodd"/>
   <path vector-effect="none" d="M449.2,970.746 L448.182,970.201" fill-rule="evenodd"/>
  </g>
  <g font-family="Ubuntu" fill="none" stroke-opacity="1" font-size="45.8333" stroke-dashoffset="0" stroke-width="3.89764" font-style="normal" transform="matrix(0.999811,0,0,0.999811,0,0)" stroke="#ffffff" font-weight="400" stroke-linecap="square" stroke-dasharray="35.4331,35.4331" stroke-linejoin="bevel">
   <path vector-effect="none" d="" fill-rule="evenodd"/>
   <path vector-effect="none" d="M449.2,970.746 L456.963,975.411 L459.913,987.777 L466.905,997.097 L475.944,1057.33 L485.811,1084.62 L486.084,1089.71 L483.825,1094.67 L471.232,1108.12 L473.42,1125.62 L469.543,1149.58 L417.018,1281.27 L406.01,1328.66 L407.528,1341.32 L407.029,1345.17 L390.03,1368.2 L387.61,1377.64 L386.275,1390.62 L379.418,1406.32 L375.672,1422 L365.548,1446.62 L355.598,1518.02 L309.534,1651.19 L297.567,1673.83 L276.599,1702.35 L269.636,1717.13 L223.893,1774.06 L209.112,1802.09 L205.687,1815.53 L201.14,1822.53 L141.55,1948.54 L138.954,1952.14 L125.849,1961.63 L122.695,1968.14 L114.21,2025.92 L121.647,2051.6 L127.567,2061.02 L128.641,2065.19 L133.399,2101.82 L122.219,2135.69 L119.178,2152.99 L121.834,2160.54 L121.948,2165.54 L119.195,2178.44 L102.716,2540.3 L103.408,2545.14 L133.295,2613.9 L132.78,2618.91 L124.221,2642.37 L127.929,2652.4" fill-rule="evenodd"/>
   <path vector-effect="none" d="M449.2,970.746 L448.182,970.201" fill-rule="evenodd"/>
  </g>
  <g font-family="Ubuntu" fill="none" stroke-opacity="1" font-size="45.8333" stroke-width="1" font-style="normal" transform="matrix(0.999811,0,0,0.999811,0,0)" stroke="#000000" font-weight="400" stroke-linecap="square" stroke-linejoin="bevel"/>
  <g font-family="Ubuntu" fill="#ffffff" stroke-opacity="1" font-size="45.8333" stroke-width="4.72441" font-style="normal" transform="matrix(0.999811,0,0,0.999811,0,0)" stroke="#000000" font-weight="400" stroke-linecap="square" fill-opacity="1" stroke-linejoin="bevel">
   <path vector-effect="none" d="M177.11,561.655 C177.11,568.178 171.822,573.466 165.298,573.466 C158.775,573.466 153.487,568.178 153.487,561.655 C153.487,555.132 158.775,549.844 165.298,549.844 C171.822,549.844 177.11,555.132 177.11,561.655 " fill-rule="evenodd"/>
   <path vector-effect="none" d="M2386.32,2165.29 C2386.32,2171.81 2381.03,2177.1 2374.51,2177.1 C2367.99,2177.1 2362.7,2171.81 2362.7,2165.29 C2362.7,2158.77 2367.99,2153.48 2374.51,2153.48 C2381.03,2153.48 2386.32,2158.77 2386.32,2165.29 " fill-rule="evenodd"/>
   <path vector-effect="none" d="M1351.1,1214.2 C1351.1,1220.72 1345.81,1226.01 1339.29,1226.01 C1332.76,1226.01 1327.48,1220.72 1327.48,1214.2 C1327.48,1207.67 1332.76,1202.39 1339.29,1202.39 C1345.81,1202.39 1351.1,1207.67 1351.1,1214.2 " fill-rule="evenodd"/>
   <path vector-effect="none" d="M1891.14,1573.65 C1891.14,1580.17 1885.86,1585.46 1879.33,1585.46 C1872.81,1585.46 1867.52,1580.17 1867.52,1573.65 C1867.52,1567.13 1872.81,1561.84 1879.33,1561.84 C1885.86,1561.84 1891.14,1567.13 1891.14,1573.65 " fill-rule="evenodd"/>
  </g>
  <g font-family="Ubuntu" fill="none" stroke-opacity="1" font-size="45.8333" stroke-width="1" font-style="normal" transform="matrix(0.999811,0,0,0.999811,0,0)" stroke="#000000" font-weight="400" stroke-linecap="square" stroke-linejoin="bevel"/>
  <g font-family="Ubuntu" fill="none" stroke-opacity="1" font-size="45.8333" stroke-width="1" font-style="normal" transform="matrix(0.999811,0,0,0.999811,0,0)" stroke="#000000" font-weight="400" stroke-linecap="square" stroke-linejoin="bevel"/>
  <g font-family="Ubuntu" fill="none" stroke-opacity="1" font-size="45.8333" stroke-width="1" font-style="normal" transform="matrix(0.999811,0,0,0.999811,0,0)" stroke="#000000" font-weight="400" stroke-linecap="square" stroke-linejoin="bevel"/>
  <g font-family="Ubuntu" fill="none" stroke-opacity="1" font-size="45.8333" stroke-width="1" font-style="normal" transform="matrix(0.999811,0,0,0.999811,0,0)" stroke="#000000" font-weight="400" stroke-linecap="square" stroke-linejoin="bevel"/>
  <g font-family="Ubuntu" fill="none" stroke-opacity="1" font-size="45.8333" stroke-width="1" font-style="normal" transform="matrix(0.319939,0,0,0.319939,2219.57,2111.39)" stroke="#000000" font-weight="400" stroke-linecap="square" stroke-linejoin="bevel"/>
  <g font-family="Ubuntu" fill="#6d6d6d" font-size="45.8333" font-style="normal" transform="matrix(0.999811,0,0,0.999811,2219.57,2111.39)" stroke="none" font-weight="400" fill-opacity="0.694118">
   <path vector-effect="non-scaling-stroke" d="M-140.816,-49.3 L140.816,-49.3 L140.816,49.3 L-140.816,49.3 L-140.816,-49.3" fill-rule="evenodd"/>
  </g>
  <g font-family="Ubuntu" fill="none" stroke-opacity="1" font-size="45.8333" stroke-width="1" font-style="normal" transform="matrix(0.319939,0,0,0.319939,2219.57,2111.39)" stroke="#000000" font-weight="400" stroke-linecap="square" stroke-linejoin="bevel"/>
  <g font-family="Ubuntu" fill="none" stroke-opacity="1" font-size="45.8333" stroke-width="1" font-style="normal" transform="matrix(0.999811,0,0,0.999811,0,0)" stroke="#000000" font-weight="400" stroke-linecap="square" stroke-linejoin="bevel"/>
  <g font-family="Ubuntu" fill="none" stroke-opacity="1" font-size="42" stroke-width="1" font-style="normal" transform="matrix(0.999811,0,0,0.999811,2080.08,2101.39)" stroke="#ffffff" font-weight="400" stroke-linecap="square" stroke-linejoin="bevel">
   <text font-family="Ubuntu" fill="#ffffff" font-size="42" font-style="normal" xml:space="preserve" stroke="none" font-weight="400" x="0" fill-opacity="1" y="0">Магнитогорск</text>
  </g>
  <g font-family="Ubuntu" fill="none" stroke-opacity="1" font-size="45.8333" stroke-width="1" font-style="normal" transform="matrix(0.999811,0,0,0.999811,0,0)" stroke="#000000" font-weight="400" stroke-linecap="square" stroke-linejoin="bevel"/>
  <g font-family="Ubuntu" fill="none" stroke-opacity="1" font-size="42" stroke-width="1" font-style="normal" transform="matrix(0.999811,0,0,0.999811,2094.71,2149.38)" stroke="#ffffff" font-weight="400" stroke-linecap="square" stroke-linejoin="bevel">
   <text font-family="Ubuntu" fill="#ffffff" font-size="42" font-style="normal" xml:space="preserve" stroke="none" font-weight="400" x="0" fill-opacity="1" y="0">Magnitogorsk</text>
  </g>
  <g font-family="Ubuntu" fill="none" stroke-opacity="1" font-size="45.8333" stroke-width="1" font-style="normal" transform="matrix(0.999811,0,0,0.999811,0,0)" stroke="#000000" font-weight="400" stroke-linecap="square" stroke-linejoin="bevel"/>
  <g font-family="Ubuntu" fill="none" stroke-opacity="1" font-size="45.8333" stroke-width="1" font-style="normal" transform="matrix(0.319939,0,0,0.319939,1991.3,1519.36)" stroke="#000000" font-weight="400" stroke-linecap="square" stroke-linejoin="bevel"/>
  <g font-family="Ubuntu" fill="#6d6d6d" font-size="45.8333" font-style="normal" transform="matrix(0.999811,0,0,0.999811,1991.3,1519.36)" stroke="none" font-weight="400" fill-opacity="0.694118">
   <path vector-effect="non-scaling-stroke" d="M-98.6438,-49.3 L98.6438,-49.3 L98.6438,49.3 L-98.6438,49.3 L-98.6438,-49.3" fill-rule="evenodd"/>
  </g>
  <g font-family="Ubuntu" fill="none" stroke-opacity="1" font-size="45.8333" stroke-width="1" font-style="normal" transform="matrix(0.319939,0,0,0.319939,1991.3,1519.36)" stroke="#000000" font-weight="400" stroke-linecap="square" stroke-linejoin="bevel"/>
  <g font-family="Ubuntu" fill="none" stroke-opacity="1" font-size="45.8333" stroke-width="1" font-style="normal" transform="matrix(0.999811,0,0,0.999811,0,0)" stroke="#000000" font-weight="400" stroke-linecap="square" stroke-linejoin="bevel"/>
  <g font-family="Ubuntu" fill="none" stroke-opacity="1" font-size="42" stroke-width="1" font-style="normal" transform="matrix(0.999811,0,0,0.999811,1893.98,1509.36)" stroke="#ffffff" font-weight="400" stroke-linecap="square" stroke-linejoin="bevel">
   <text font-family="Ubuntu" fill="#ffffff" font-size="42" font-style="normal" xml:space="preserve" stroke="none" font-weight="400" x="0" fill-opacity="1" y="0">Белорецк</text>
  </g>
  <g font-family="Ubuntu" fill="none" stroke-opacity="1" font-size="45.8333" stroke-width="1" font-style="normal" transform="matrix(0.999811,0,0,0.999811,0,0)" stroke="#000000" font-weight="400" stroke-linecap="square" stroke-linejoin="bevel"/>
  <g font-family="Ubuntu" fill="none" stroke-opacity="1" font-size="42" stroke-width="1" font-style="normal" transform="matrix(0.999811,0,0,0.999811,1893.98,1557.36)" stroke="#ffffff" font-weight="400" stroke-linecap="square" stroke-linejoin="bevel">
   <text font-family="Ubuntu" fill="#ffffff" font-size="42" font-style="normal" xml:space="preserve" stroke="none" font-weight="400" x="0" fill-opacity="1" y="0">Beloretsk</text>
  </g>
  <g font-family="Ubuntu" fill="none" stroke-opacity="1" font-size="45.8333" stroke-width="1" font-style="normal" transform="matrix(0.999811,0,0,0.999811,0,0)" stroke="#000000" font-weight="400" stroke-linecap="square" stroke-linejoin="bevel"/>
  <g font-family="Ubuntu" fill="none" stroke-opacity="1" font-size="45.8333" stroke-width="1" font-style="normal" transform="matrix(0.319939,0,0,0.319939,1415.47,1160.48)" stroke="#000000" font-weight="400" stroke-linecap="square" stroke-linejoin="bevel"/>
  <g font-family="Ubuntu" fill="#6d6d6d" font-size="45.8333" font-style="normal" transform="matrix(0.999811,0,0,0.999811,1415.47,1160.48)" stroke="none" font-weight="400" fill-opacity="0.694118">
   <path vector-effect="non-scaling-stroke" d="M-63.2531,-49.3 L63.2531,-49.3 L63.2531,49.3 L-63.2531,49.3 L-63.2531,-49.3" fill-rule="evenodd"/>
  </g>
  <g font-family="Ubuntu" fill="none" stroke-opacity="1" font-size="45.8333" stroke-width="1" font-style="normal" transform="matrix(0.319939,0,0,0.319939,1415.47,1160.48)" stroke="#000000" font-weight="400" stroke-linecap="square" stroke-linejoin="bevel"/>
  <g font-family="Ubuntu" fill="none" stroke-opacity="1" font-size="45.8333" stroke-width="1" font-style="normal" transform="matrix(0.999811,0,0,0.999811,0,0)" stroke="#000000" font-weight="400" stroke-linecap="square" stroke-linejoin="bevel"/>
  <g font-family="Ubuntu" fill="none" stroke-opacity="1" font-size="42" stroke-width="1" font-style="normal" transform="matrix(0.999811,0,0,0.999811,1353.53,1150.48)" stroke="#ffffff" font-weight="400" stroke-linecap="square" stroke-linejoin="bevel">
   <text font-family="Ubuntu" fill="#ffffff" font-size="42" font-style="normal" xml:space="preserve" stroke="none" font-weight="400" x="0" fill-opacity="1" y="0">Инзер</text>
  </g>
  <g font-family="Ubuntu" fill="none" stroke-opacity="1" font-size="45.8333" stroke-width="1" font-style="normal" transform="matrix(0.999811,0,0,0.999811,0,0)" stroke="#000000" font-weight="400" stroke-linecap="square" stroke-linejoin="bevel"/>
  <g font-family="Ubuntu" fill="none" stroke-opacity="1" font-size="42" stroke-width="1" font-style="normal" transform="matrix(0.999811,0,0,0.999811,1353.53,1198.47)" stroke="#ffffff" font-weight="400" stroke-linecap="square" stroke-linejoin="bevel">
   <text font-family="Ubuntu" fill="#ffffff" font-size="42" font-style="normal" xml:space="preserve" stroke="none" font-weight="400" x="0" fill-opacity="1" y="0">Inzer</text>
  </g>
  <g font-family="Ubuntu" fill="none" stroke-opacity="1" font-size="45.8333" stroke-width="1" font-style="normal" transform="matrix(0.999811,0,0,0.999811,0,0)" stroke="#000000" font-weight="400" stroke-linecap="square" stroke-linejoin="bevel"/>
  <g font-family="Ubuntu" fill="none" stroke-opacity="1" font-size="45.8333" stroke-width="1" font-style="normal" transform="matrix(0.319939,0,0,0.319939,218.281,507.559)" stroke="#000000" font-weight="400" stroke-linecap="square" stroke-linejoin="bevel"/>
  <g font-family="Ubuntu" fill="#6d6d6d" font-size="45.8333" font-style="normal" transform="matrix(0.999811,0,0,0.999811,218.281,507.559)" stroke="none" font-weight="400" fill-opacity="0.694118">
   <path vector-effect="non-scaling-stroke" d="M-39.8234,-49.3 L39.8234,-49.3 L39.8234,49.3 L-39.8234,49.3 L-39.8234,-49.3" fill-rule="evenodd"/>
  </g>
  <g font-family="Ubuntu" fill="none" stroke-opacity="1" font-size="45.8333" stroke-width="1" font-style="normal" transform="matrix(0.319939,0,0,0.319939,218.281,507.559)" stroke="#000000" font-weight="400" stroke-linecap="square" stroke-linejoin="bevel"/>
  <g font-family="Ubuntu" fill="none" stroke-opacity="1" font-size="45.8333" stroke-width="1" font-style="normal" transform="matrix(0.999811,0,0,0.999811,0,0)" stroke="#000000" font-weight="400" stroke-linecap="square" stroke-linejoin="bevel"/>
  <g font-family="Ubuntu" fill="none" stroke-opacity="1" font-size="42" stroke-width="1" font-style="normal" transform="matrix(0.999811,0,0,0.999811,179.764,497.561)" stroke="#ffffff" font-weight="400" stroke-linecap="square" stroke-linejoin="bevel">
   <text font-family="Ubuntu" fill="#ffffff" font-size="42" font-style="normal" xml:space="preserve" stroke="none" font-weight="400" x="0" fill-opacity="1" y="0">Уфа</text>
  </g>
  <g font-family="Ubuntu" fill="none" stroke-opacity="1" font-size="45.8333" stroke-width="1" font-style="normal" transform="matrix(0.999811,0,0,0.999811,0,0)" stroke="#000000" font-weight="400" stroke-linecap="square" stroke-linejoin="bevel"/>
  <g font-family="Ubuntu" fill="none" stroke-opacity="1" font-size="42" stroke-width="1" font-style="normal" transform="matrix(0.999811,0,0,0.999811,179.764,545.552)" stroke="#ffffff" font-weight="400" stroke-linecap="square" stroke-linejoin="bevel">
   <text font-family="Ubuntu" fill="#ffffff" font-size="42" font-style="normal" xml:space="preserve" stroke="none" font-weight="400" x="0" fill-opacity="1" y="0">Ufa</text>
  </g>
  <g font-family="Ubuntu" fill="none" stroke-opacity="1" font-size="45.8333" stroke-width="1" font-style="normal" transform="matrix(0.999811,0,0,0.999811,0,0)" stroke="#000000" font-weight="400" stroke-linecap="square" stroke-linejoin="bevel"/>
  <g font-family="Ubuntu" fill="none" stroke-opacity="1" font-size="45.8333" stroke-width="1" font-style="normal" transform="matrix(11.8088,0,0,11.8088,0,0)" stroke="#000000" font-weight="400" stroke-linecap="square" stroke-linejoin="bevel"/>
  <g font-family="Ubuntu" fill="none" stroke-opacity="1" font-size="45.8333" stroke-width="1" font-style="normal" transform="matrix(11.8088,0,0,11.8088,0,0)" stroke="#000000" font-weight="400" stroke-linecap="square" stroke-linejoin="bevel"/>
  <g font-family="Ubuntu" fill="none" stroke-opacity="1" font-size="45.8333" stroke-width="1" font-style="normal" transform="matrix(11.8088,0,0,11.8088,0,0)" stroke="#000000" font-weight="400" stroke-linecap="square" stroke-linejoin="bevel"/>
  <g font-family="Ubuntu" fill="none" stroke-opacity="0.184314" font-size="45.8333" stroke-width="3.54331" font-style="normal" transform="matrix(0.999811,0,0,0.999811,0,0)" stroke="#000000" font-weight="400" stroke-linecap="butt" stroke-linejoin="bevel">
   <path vector-effect="none" d="M28.1338,0 L28.1338,2393.22" fill-rule="evenodd"/>
   <path vector-effect="none" d="M139.147,0 L139.147,2393.22" fill-rule="evenodd"/>
   <path vector-effect="none" d="M250.16,0 L250.16,2393.22" fill-rule="evenodd"/>
   <path vector-effect="none" d="M361.174,0 L361.174,2393.22" fill-rule="evenodd"/>
   <path vector-effect="none" d="M472.187,0 L472.187,2393.22" fill-rule="evenodd"/>
   <path vector-effect="none" d="M583.2,0 L583.2,2393.22" fill-rule="evenodd"/>
   <path vector-effect="none" d="M694.214,0 L694.214,2393.22" fill-rule="evenodd"/>
   <path vector-effect="none" d="M805.227,0 L805.227,2393.22" fill-rule="evenodd"/>
   <path vector-effect="none" d="M916.24,0 L916.24,2393.22" fill-rule="evenodd"/>
   <path vector-effect="none" d="M1027.25,0 L1027.25,2393.22" fill-rule="evenodd"/>
   <path vector-effect="none" d="M1138.27,0 L1138.27,2393.22" fill-rule="evenodd"/>
   <path vector-effect="none" d="M1249.28,0 L1249.28,2393.22" fill-rule="evenodd"/>
   <path vector-effect="none" d="M1360.29,0 L1360.29,2393.22" fill-rule="evenodd"/>
   <path vector-effect="none" d="M1471.31,0 L1471.31,2393.22" fill-rule="evenodd"/>
   <path vector-effect="none" d="M1582.32,0 L1582.32,2393.22" fill-rule="evenodd"/>
   <path vector-effect="none" d="M1693.33,0 L1693.33,2393.22" fill-rule="evenodd"/>
   <path vector-effect="none" d="M1804.35,0 L1804.35,2393.22" fill-rule="evenodd"/>
   <path vector-effect="none" d="M1915.36,0 L1915.36,2393.22" fill-rule="evenodd"/>
   <path vector-effect="none" d="M2026.37,0 L2026.37,2393.22" fill-rule="evenodd"/>
   <path vector-effect="none" d="M2137.39,0 L2137.39,2393.22" fill-rule="evenodd"/>
   <path vector-effect="none" d="M2248.4,0 L2248.4,2393.22" fill-rule="evenodd"/>
   <path vector-effect="none" d="M2359.41,0 L2359.41,2393.22" fill-rule="evenodd"/>
   <path vector-effect="none" d="M2470.43,0 L2470.43,2393.22" fill-rule="evenodd"/>
   <path vector-effect="none" d="M0,2308.5 L2497.47,2308.5" fill-rule="evenodd"/>
   <path vector-effect="none" d="M0,2197.49 L2497.47,2197.49" fill-rule="evenodd"/>
   <path vector-effect="none" d="M0,2086.47 L2497.47,2086.47" fill-rule="evenodd"/>
   <path vector-effect="none" d="M0,1975.46 L2497.47,1975.46" fill-rule="evenodd"/>
   <path vector-effect="none" d="M0,1864.45 L2497.47,1864.45" fill-rule="evenodd"/>
   <path vector-effect="none" d="M0,1753.43 L2497.47,1753.43" fill-rule="evenodd"/>
   <path vector-effect="none" d="M0,1642.42 L2497.47,1642.42" fill-rule="evenodd"/>
   <path vector-effect="none" d="M0,1531.41 L2497.47,1531.41" fill-rule="evenodd"/>
   <path vector-effect="none" d="M0,1420.39 L2497.47,1420.39" fill-rule="evenodd"/>
   <path vector-effect="none" d="M0,1309.38 L2497.47,1309.38" fill-rule="evenodd"/>
   <path vector-effect="none" d="M0,1198.37 L2497.47,1198.37" fill-rule="evenodd"/>
   <path vector-effect="none" d="M0,1087.35 L2497.47,1087.35" fill-rule="evenodd"/>
   <path vector-effect="none" d="M0,976.339 L2497.47,976.339" fill-rule="evenodd"/>
   <path vector-effect="none" d="M0,865.325 L2497.47,865.325" fill-rule="evenodd"/>
   <path vector-effect="none" d="M0,754.312 L2497.47,754.312" fill-rule="evenodd"/>
   <path vector-effect="none" d="M0,643.299 L2497.47,643.299" fill-rule="evenodd"/>
   <path vector-effect="none" d="M0,532.285 L2497.47,532.285" fill-rule="evenodd"/>
   <path vector-effect="none" d="M0,421.272 L2497.47,421.272" fill-rule="evenodd"/>
   <path vector-effect="none" d="M0,310.259 L2497.47,310.259" fill-rule="evenodd"/>
   <path vector-effect="none" d="M0,199.245 L2497.47,199.245" fill-rule="evenodd"/>
   <path vector-effect="none" d="M0,88.232 L2497.47,88.232" fill-rule="evenodd"/>
  </g>
  <g font-family="Ubuntu" fill="none" stroke-opacity="0.184314" font-size="45.8333" stroke-width="3.54331" font-style="normal" transform="matrix(0.999811,0,0,0.999811,0,0)" stroke="#000000" font-weight="400" stroke-linecap="butt" stroke-linejoin="bevel"/>
  <g font-family="Ubuntu" fill="none" stroke-opacity="0.184314" font-size="45.8333" stroke-width="3.54331" font-style="normal" transform="matrix(11.8088,0,0,11.8088,0,0)" stroke="#000000" font-weight="400" stroke-linecap="butt" stroke-linejoin="bevel"/>
  <g font-family="Ubuntu" fill="none" stroke-opacity="1" font-size="45.8333" stroke-width="1" font-style="normal" transform="matrix(11.8088,0,0,11.8088,0,0)" stroke="#000000" font-weight="400" stroke-linecap="square" stroke-linejoin="bevel"/>
  <g font-family="Ubuntu" fill="none" stroke-opacity="1" font-size="45.8333" stroke-width="1" font-style="normal" transform="matrix(11.8088,0,0,11.8088,0,0)" stroke="#000000" font-weight="400" stroke-linecap="square" stroke-linejoin="bevel"/>
  <g font-family="Ubuntu" fill="none" stroke-opacity="1" font-size="45.8333" stroke-width="1" font-style="normal" transform="matrix(1,0,0,1,0,0)" stroke="#000000" font-weight="400" stroke-linecap="square" stroke-linejoin="bevel"/>
  <g font-family="Ubuntu" fill="none" stroke-opacity="1" font-size="45.8333" stroke-width="1" font-style="normal" transform="matrix(11.8088,0,0,11.8088,0,0)" stroke="#000000" font-weight="400" stroke-linecap="square" stroke-linejoin="bevel"/>
  <g font-family="Ubuntu" fill="none" stroke-opacity="1" font-size="45.8333" stroke-width="1" font-style="normal" transform="matrix(11.8088,0,0,11.8088,0,0)" stroke="#000000" font-weight="400" stroke-linecap="square" stroke-linejoin="bevel"/>
  <g font-family="Ubuntu" fill="none" stroke-opacity="1" font-size="45.8333" stroke-width="1" font-style="normal" transform="matrix(11.8088,0,0,11.8088,2247.73,2209.17)" stroke="#000000" font-weight="400" stroke-linecap="square" stroke-linejoin="bevel"/>
  <g font-family="Ubuntu" fill="none" stroke-opacity="1" font-size="45.8333" stroke-width="1" font-style="normal" transform="matrix(0.999811,0,0,0.999811,2247.73,2209.17)" stroke="#000000" font-weight="400" stroke-linecap="square" stroke-linejoin="bevel"/>
  <g font-family="Ubuntu" fill="none" stroke-miterlimit="2" stroke-opacity="1" font-size="45.8333" stroke-width="3.54331" font-style="normal" transform="matrix(0.999811,0,0,0.999811,2247.73,2209.17)" stroke="#000000" font-weight="400" stroke-linecap="square" stroke-linejoin="miter">
   <path vector-effect="none" d="M29.4481,129.677 L29.4481,94.2441" fill-rule="evenodd"/>
   <path vector-effect="none" d="M140.461,129.677 L140.461,94.2441" fill-rule="evenodd"/>
   <path vector-effect="none" d="M29.4481,111.961 L140.461,111.961" fill-rule="evenodd"/>
  </g>
  <g font-family="Ubuntu" fill="none" stroke-opacity="1" font-size="45.8333" stroke-width="1" font-style="normal" transform="matrix(0.999811,0,0,0.999811,2247.73,2209.17)" stroke="#000000" font-weight="400" stroke-linecap="square" stroke-linejoin="bevel"/>
  <g font-family="Ubuntu" fill="none" stroke-opacity="1" font-size="50" stroke-width="1" font-style="normal" transform="matrix(0.999811,0,0,0.999811,2263.08,2267.97)" stroke="#000000" font-weight="400" stroke-linecap="square" stroke-linejoin="bevel">
   <text font-family="Ubuntu" fill="#000000" font-size="50" font-style="normal" xml:space="preserve" stroke="none" font-weight="400" x="0" fill-opacity="1" y="0">0</text>
  </g>
  <g font-family="Ubuntu" fill="none" stroke-opacity="1" font-size="45.8333" stroke-width="1" font-style="normal" transform="matrix(0.999811,0,0,0.999811,2247.73,2209.17)" stroke="#000000" font-weight="400" stroke-linecap="square" stroke-linejoin="bevel"/>
  <g font-family="Ubuntu" fill="none" stroke-opacity="1" font-size="50" stroke-width="1" font-style="normal" transform="matrix(0.999811,0,0,0.999811,2359.98,2267.97)" stroke="#000000" font-weight="400" stroke-linecap="square" stroke-linejoin="bevel">
   <text font-family="Ubuntu" fill="#000000" font-size="50" font-style="normal" xml:space="preserve" stroke="none" font-weight="400" x="0" fill-opacity="1" y="0">10 km</text>
  </g>
  <g font-family="Ubuntu" fill="none" stroke-opacity="1" font-size="45.8333" stroke-width="1" font-style="normal" transform="matrix(0.999811,0,0,0.999811,2247.73,2209.17)" stroke="#000000" font-weight="400" stroke-linecap="square" stroke-linejoin="bevel"/>
  <g font-family="Ubuntu" fill="none" stroke-opacity="1" font-size="45.8333" stroke-width="1" font-style="normal" transform="matrix(0.999811,0,0,0.999811,2247.73,2209.17)" stroke="#000000" font-weight="400" stroke-linecap="square" stroke-linejoin="bevel"/>
  <g font-family="Ubuntu" fill="none" stroke-opacity="1" font-size="45.8333" stroke-width="1" font-style="normal" transform="matrix(11.8088,0,0,11.8088,2247.73,2209.17)" stroke="#000000" font-weight="400" stroke-linecap="square" stroke-linejoin="bevel"/>
  <g font-family="Ubuntu" fill="none" stroke-opacity="1" font-size="45.8333" stroke-width="1" font-style="normal" transform="matrix(11.8088,0,0,11.8088,2247.73,2209.17)" stroke="#000000" font-weight="400" stroke-linecap="square" stroke-linejoin="bevel"/>
  <g font-family="Ubuntu" fill="none" stroke-opacity="1" font-size="45.8333" stroke-width="1" font-style="normal" transform="matrix(11.8088,0,0,11.8088,1724.16,2209.17)" stroke="#000000" font-weight="400" stroke-linecap="square" stroke-linejoin="bevel"/>
  <g font-family="Ubuntu" fill="none" stroke-opacity="1" font-size="45.8333" stroke-width="1" font-style="normal" transform="matrix(0.999811,0,0,0.999811,1724.16,2209.17)" stroke="#000000" font-weight="400" stroke-linecap="square" stroke-linejoin="bevel"/>
  <g font-family="Ubuntu" fill="none" stroke-opacity="1" font-size="417" stroke-width="1" font-style="normal" transform="matrix(0.0999811,0,0,0.0999811,1910.95,2382.04)" stroke="#000000" font-weight="400" stroke-linecap="square" stroke-linejoin="bevel">
   <text font-family="Ubuntu" fill="#000000" font-size="417" font-style="normal" xml:space="preserve" stroke="none" font-weight="400" x="0" fill-opacity="1" y="0">basemap data: Openstreetmap</text>
  </g>
  <g font-family="Ubuntu" fill="none" stroke-opacity="1" font-size="45.8333" stroke-width="1" font-style="normal" transform="matrix(0.999811,0,0,0.999811,1724.16,2209.17)" stroke="#000000" font-weight="400" stroke-linecap="square" stroke-linejoin="bevel"/>
  <g font-family="Ubuntu" fill="none" stroke-opacity="1" font-size="45.8333" stroke-width="1" font-style="normal" transform="matrix(0.999811,0,0,0.999811,1724.16,2209.17)" stroke="#000000" font-weight="400" stroke-linecap="square" stroke-linejoin="bevel"/>
  <g font-family="Ubuntu" fill="none" stroke-opacity="1" font-size="45.8333" stroke-width="1" font-style="normal" transform="matrix(11.8088,0,0,11.8088,1724.16,2209.17)" stroke="#000000" font-weight="400" stroke-linecap="square" stroke-linejoin="bevel"/>
  <g font-family="Ubuntu" fill="none" stroke-opacity="1" font-size="45.8333" stroke-width="1" font-style="normal" transform="matrix(11.8088,0,0,11.8088,1724.16,2209.17)" stroke="#000000" font-weight="400" stroke-linecap="square" stroke-linejoin="bevel"/>
  <g font-family="Ubuntu" fill="none" stroke-opacity="1" font-size="45.8333" stroke-width="1" font-style="normal" transform="matrix(11.8088,0,0,11.8088,0,0)" stroke="#000000" font-weight="400" stroke-linecap="square" stroke-linejoin="bevel"/>
  <g font-family="Ubuntu" fill="none" stroke-opacity="1" font-size="45.8333" stroke-width="1" font-style="normal" transform="matrix(11.8088,0,0,11.8088,0,0)" stroke="#000000" font-weight="400" stroke-linecap="square" stroke-linejoin="bevel"/>
  <g font-family="Ubuntu" fill="none" stroke-opacity="1" font-size="45.8333" stroke-width="1" font-style="normal" transform="matrix(1,0,0,1,0,0)" stroke="#000000" font-weight="400" stroke-linecap="square" stroke-linejoin="bevel"/>
 </g>
 <metadata>
  <rdf:RDF xmlns:rdf="http://www.w3.org/1999/02/22-rdf-syntax-ns#" xmlns:dc="http://purl.org/dc/elements/1.1/" xmlns:rdfs="http://www.w3.org/2000/01/rdf-schema#">
   <rdf:Description dc:title="" dc:date="2000-01-01T00:00:00" dc:identifier="" dc:description="" dc:format="image/svg+xml">
    <dc:creator>
     <rdf:Bag>
      <rdf:li></rdf:li>
     </rdf:Bag>
    </dc:creator>
    <dc:publisher>
     <rdf:Bag>
      <rdf:li>QGIS 3.24.0-Tisler</rdf:li>
     </rdf:Bag>
    </dc:publisher>
    <dc:subject>
     <rdf:Bag/>
    </dc:subject>
   </rdf:Description>
   <cc:Work rdf:about="">
    <dc:format>image/svg+xml</dc:format>
    <dc:title></dc:title>
    <dc:date>2000-01-01T00:00:00</dc:date>
    <dc:identifier></dc:identifier>
    <dc:description></dc:description>
    <dc:creator>
     <cc:Agent>
      <dc:title></dc:title>
     </cc:Agent>
    </dc:creator>
    <dc:publisher>
     <cc:Agent>
      <dc:title>QGIS 3.24.0-Tisler</dc:title>
     </cc:Agent>
    </dc:publisher>
   </cc:Work>
  </rdf:RDF>
 </metadata>
</svg>
