<?xml version='1.0' encoding='UTF-8' standalone='no'?>
<svg viewBox="0 0 2497 2393" baseProfile="tiny" version="1.2" xmlns:xlink="http://www.w3.org/1999/xlink" xmlns="http://www.w3.org/2000/svg" xmlns:cc="http://creativecommons.org/ns#" height="202.607mm" width="211.413mm">
 <defs/>
 <g fill="none" stroke-width="1" stroke="black" stroke-linecap="square" fill-rule="evenodd" stroke-linejoin="bevel">
  <g font-family="Ubuntu" fill="none" stroke-opacity="1" font-size="45.8333" stroke-width="1" font-style="normal" transform="matrix(1,0,0,1,0,0)" stroke="#000000" font-weight="400" stroke-linecap="square" stroke-linejoin="bevel"/>
  <g font-family="Ubuntu" fill="none" stroke-opacity="1" font-size="45.8333" stroke-width="1" font-style="normal" transform="matrix(1,0,0,1,0,0)" stroke="#000000" font-weight="400" stroke-linecap="square" stroke-linejoin="bevel"/>
  <g font-family="Ubuntu" fill="none" stroke-opacity="1" font-size="45.8333" stroke-width="1" font-style="normal" transform="matrix(11.8088,0,0,11.8088,0,0)" stroke="#000000" font-weight="400" stroke-linecap="square" stroke-linejoin="bevel"/>
  <g font-family="Ubuntu" fill="none" stroke-opacity="1" font-size="45.8333" stroke-width="1" font-style="normal" transform="matrix(0.999811,0,0,0.999811,0,0)" stroke="#000000" font-weight="400" stroke-linecap="square" stroke-linejoin="bevel"/>
  <g font-family="Ubuntu" fill="#ffffff" font-size="45.8333" font-style="normal" transform="matrix(0.999811,0,0,0.999811,0,0)" stroke="none" font-weight="400" fill-opacity="1">
   <path vector-effect="none" d="M-2,-2 L2500,-2 L2500,2396 L-2,2396 L-2,-2" fill-rule="evenodd"/>
  </g>
  <g font-family="Ubuntu" fill="none" stroke-opacity="1" font-size="45.8333" stroke-width="1" font-style="normal" transform="matrix(0.999811,0,0,0.999811,0,0)" stroke="#000000" font-weight="400" stroke-linecap="square" stroke-linejoin="bevel"/>
  <g font-family="Ubuntu" fill="none" stroke-opacity="1" font-size="45.8333" stroke-width="1" font-style="normal" transform="matrix(11.8088,0,0,11.8088,0,0)" stroke="#000000" font-weight="400" stroke-linecap="square" stroke-linejoin="bevel"/>
  <g font-family="Ubuntu" fill="none" stroke-opacity="1" font-size="45.8333" stroke-width="1" font-style="normal" transform="matrix(11.8088,0,0,11.8088,0,0)" stroke="#000000" font-weight="400" stroke-linecap="square" stroke-linejoin="bevel"/>
  <g font-family="Ubuntu" fill="none" stroke-opacity="1" font-size="45.8333" stroke-width="1" font-style="normal" transform="matrix(11.8088,0,0,11.8088,0,0)" stroke="#000000" font-weight="400" stroke-linecap="square" stroke-linejoin="bevel"/>
  <g font-family="Ubuntu" fill="none" stroke-opacity="1" font-size="45.8333" stroke-width="1" font-style="normal" transform="matrix(11.8088,0,0,11.8088,0,0)" stroke="#000000" font-weight="400" stroke-linecap="square" stroke-linejoin="bevel"/>
  <g font-family="Ubuntu" fill="none" stroke-opacity="1" font-size="45.8333" stroke-width="1" font-style="normal" transform="matrix(11.8088,0,0,11.8088,0,0)" stroke="#000000" font-weight="400" stroke-linecap="square" stroke-linejoin="bevel"/>
  <g font-family="Ubuntu" fill="#1a1a1a" font-size="45.8333" font-style="normal" transform="matrix(11.8088,0,0,11.8088,0,0)" stroke="none" font-weight="400" fill-opacity="1">
   <path vector-effect="none" d="M0,0 L211.453,0 L211.453,202.626 L0,202.626 L0,0" fill-rule="evenodd"/>
  </g>
  <g font-family="Ubuntu" fill="none" stroke-opacity="1" font-size="45.8333" stroke-width="1" font-style="normal" transform="matrix(11.8088,0,0,11.8088,0,0)" stroke="#000000" font-weight="400" stroke-linecap="square" stroke-linejoin="bevel"/>
  <g font-family="Ubuntu" fill="none" stroke-opacity="1" font-size="45.8333" stroke-width="1" font-style="normal" transform="matrix(11.8088,0,0,11.8088,0,0)" stroke="#000000" font-weight="400" stroke-linecap="square" stroke-linejoin="bevel"/>
  <g font-family="Ubuntu" fill="#000000" font-size="45.8333" font-style="normal" transform="matrix(0.999811,0,0,0.999811,0,0)" stroke="none" font-weight="400" fill-opacity="0">
   <rect x="0" height="2393" y="0" width="2497"/>
  </g>
  <g font-family="Ubuntu" fill="none" stroke-opacity="1" font-size="45.8333" stroke-width="1" font-style="normal" transform="matrix(0.999811,0,0,0.999811,0,0)" stroke="#000000" font-weight="400" stroke-linecap="square" stroke-linejoin="bevel"/>
  <g font-family="Ubuntu" fill="#fff5de" font-size="45.8333" font-style="normal" transform="matrix(0.999811,0,0,0.999811,0,0)" stroke="none" font-weight="400" fill-opacity="1">
   <path vector-effect="none" d="M-378.634,2619.03 L-235.92,-286.971 L2738.23,-261.801 L2832.38,2645.46 L-378.634,2619.03" fill-rule="evenodd"/>
  </g>
  <g font-family="Ubuntu" fill="none" stroke-opacity="1" font-size="45.8333" stroke-width="1" font-style="normal" transform="matrix(0.999811,0,0,0.999811,0,0)" stroke="#000000" font-weight="400" stroke-linecap="square" stroke-linejoin="bevel"/>
  <g font-family="Ubuntu" fill="none" stroke-opacity="1" font-size="45.8333" stroke-width="12.5197" font-style="normal" transform="matrix(0.999811,0,0,0.999811,0,0)" stroke="#232323" font-weight="400" stroke-linecap="square" stroke-linejoin="bevel">
   <path vector-effect="none" d="M2613.46,2651.85 L2604.92,2645.42 L2453.68,2592.16 L2443.14,2585.96 L2355.24,2482.99 L2330.33,2460.58 L2306.44,2410.63 L2301.64,2404.39 L2209.35,2304.65 L2197.21,2297.53 L2176.31,2291.42 L2166.97,2285.14 L2068.02,2164.14 L2007.87,2100.17 L1970.1,2053.53 L1909.65,1996.76 L1820.1,1872.79 L1744.48,1776.01 L1672.67,1718.44 L1609.67,1650.37 L1576.28,1619.24 L1538.63,1580.71 L1505.04,1548.43 L1445.02,1496.71 L1341.56,1427.7 L1278.61,1397.63 L1272.48,1393.23 L1146.65,1272.31 L914.598,1050.01 L868.793,1000.32 L860.084,985.827 L722.822,836.466 L550.069,648.138 L362.023,443.164 L357.114,436.384 L235.611,228.243 L230.22,222.133 L216.81,214.264 L211.714,209.345 L154.369,121.083 L128.851,85.8003 L118.98,66.7596 L107.926,49.2669 L106.546,44.8929 L104.61,27.8942" fill-rule="evenodd"/>
  </g>
  <g font-family="Ubuntu" fill="none" stroke-opacity="1" font-size="45.8333" stroke-dashoffset="0" stroke-width="6.25984" font-style="normal" transform="matrix(0.999811,0,0,0.999811,0,0)" stroke="#ffffff" font-weight="400" stroke-linecap="square" stroke-dasharray="35.4331,35.4331" stroke-linejoin="bevel">
   <path vector-effect="none" d="M2613.46,2651.85 L2604.92,2645.42 L2453.68,2592.16 L2443.14,2585.96 L2355.24,2482.99 L2330.33,2460.58 L2306.44,2410.63 L2301.64,2404.39 L2209.35,2304.65 L2197.21,2297.53 L2176.31,2291.42 L2166.97,2285.14 L2068.02,2164.14 L2007.87,2100.17 L1970.1,2053.53 L1909.65,1996.76 L1820.1,1872.79 L1744.48,1776.01 L1672.67,1718.44 L1609.67,1650.37 L1576.28,1619.24 L1538.63,1580.71 L1505.04,1548.43 L1445.02,1496.71 L1341.56,1427.7 L1278.61,1397.63 L1272.48,1393.23 L1146.65,1272.31 L914.598,1050.01 L868.793,1000.32 L860.084,985.827 L722.822,836.466 L550.069,648.138 L362.023,443.164 L357.114,436.384 L235.611,228.243 L230.22,222.133 L216.81,214.264 L211.714,209.345 L154.369,121.083 L128.851,85.8003 L118.98,66.7596 L107.926,49.2669 L106.546,44.8929 L104.61,27.8942" fill-rule="evenodd"/>
  </g>
  <g font-family="Ubuntu" fill="none" stroke-opacity="1" font-size="45.8333" stroke-width="12.5197" font-style="normal" transform="matrix(0.999811,0,0,0.999811,0,0)" stroke="#232323" font-weight="400" stroke-linecap="square" stroke-linejoin="bevel">
   <path vector-effect="none" d="M102.977,-2.80412 L104.342,-8.33646 L104.18,-11.5183 L95.3833,-28.5765 L92.675,-40.1865 L86.568,-49.0266 L72.3938,-109.491 L41.3866,-163.195 L29.816,-169.54 L-232.175,-286.784" fill-rule="evenodd"/>
  </g>
  <g font-family="Ubuntu" fill="none" stroke-opacity="1" font-size="45.8333" stroke-dashoffset="0" stroke-width="6.25984" font-style="normal" transform="matrix(0.999811,0,0,0.999811,0,0)" stroke="#ffffff" font-weight="400" stroke-linecap="square" stroke-dasharray="35.4331,35.4331" stroke-linejoin="bevel">
   <path vector-effect="none" d="M102.977,-2.80412 L104.342,-8.33646 L104.18,-11.5183 L95.3833,-28.5765 L92.675,-40.1865 L86.568,-49.0266 L72.3938,-109.491 L41.3866,-163.195 L29.816,-169.54 L-232.175,-286.784" fill-rule="evenodd"/>
  </g>
  <g font-family="Ubuntu" fill="none" stroke-opacity="1" font-size="45.8333" stroke-width="12.5197" font-style="normal" transform="matrix(0.999811,0,0,0.999811,0,0)" stroke="#232323" font-weight="400" stroke-linecap="square" stroke-linejoin="bevel">
   <path vector-effect="none" d="M86.3336,37.3898 L90.4312,48.2743 L90.8565,54.5456 L93.834,68.5061 L94.5147,77.9728 L97.9598,88.1526 L136.59,276.177 L135.911,283.904 L124.906,297.056 L123.212,302.509 L124.092,307.166 L128.873,312.92 L130.084,316.885 L129.963,331.985 L125.923,354.631 L125.938,365.114 L103.309,404.425 L100.662,423.495 L101.605,440.407 L98.5688,447.159 L84.4097,509.445 L70.7922,550.52 L70.8426,583.183 L75.0294,602.634 L77.4613,664.657 L86.9262,721.572 L80.4518,768.625 L78.8602,806.512 L81.6015,858.763 L88.2438,881.853 L100.115,1036.61 L99.388,1048.5 L101.695,1077.76 L98.7709,1102.47 L94.471,1125.74 L94.2709,1133.76 L96.5175,1143.53 L90.3062,1155.14 L54.6795,1181.11 L46.563,1191.87 L37.8801,1198.98 L32.2772,1214.32 L34.3827,1222.67 L33.5648,1229.24 L39.2955,1255.53 L23.479,1422.06 L14.9153,1466.66 L3.36134,1579.52 L-3.56307,1594.17 L-2.61785,1611.07 L-7.18873,1651.83 L-12.2992,1672.3 L-21.2529,1742.59 L-28.8286,1783.86 L-39.0484,1851.48 L-43.8405,1899.68 L-32.8729,1988.13 L-33.3643,2009.76 L-40.4674,2027.5 L-58.9382,2059.53 L-105.491,2150.61 L-108.34,2161.96 L-116.069,2176.3 L-139.187,2212.69 L-173.472,2280.85 L-191.544,2309.58 L-199.28,2317.25 L-227.004,2325.34 L-230.728,2329.7 L-226.746,2361.67 L-227.41,2430.7 L-224.873,2441.56 L-224.34,2448.73 L-233.704,2483 L-237.234,2509.61 L-246.416,2536.75 L-241.375,2570.68 L-241.597,2601.32 L-245.21,2625.27" fill-rule="evenodd"/>
  </g>
  <g font-family="Ubuntu" fill="none" stroke-opacity="1" font-size="45.8333" stroke-dashoffset="0" stroke-width="6.25984" font-style="normal" transform="matrix(0.999811,0,0,0.999811,0,0)" stroke="#ffffff" font-weight="400" stroke-linecap="square" stroke-dasharray="35.4331,35.4331" stroke-linejoin="bevel">
   <path vector-effect="none" d="M86.3336,37.3898 L90.4312,48.2743 L90.8565,54.5456 L93.834,68.5061 L94.5147,77.9728 L97.9598,88.1526 L136.59,276.177 L135.911,283.904 L124.906,297.056 L123.212,302.509 L124.092,307.166 L128.873,312.92 L130.084,316.885 L129.963,331.985 L125.923,354.631 L125.938,365.114 L103.309,404.425 L100.662,423.495 L101.605,440.407 L98.5688,447.159 L84.4097,509.445 L70.7922,550.52 L70.8426,583.183 L75.0294,602.634 L77.4613,664.657 L86.9262,721.572 L80.4518,768.625 L78.8602,806.512 L81.6015,858.763 L88.2438,881.853 L100.115,1036.61 L99.388,1048.5 L101.695,1077.76 L98.7709,1102.47 L94.471,1125.74 L94.2709,1133.76 L96.5175,1143.53 L90.3062,1155.14 L54.6795,1181.11 L46.563,1191.87 L37.8801,1198.98 L32.2772,1214.32 L34.3827,1222.67 L33.5648,1229.24 L39.2955,1255.53 L23.479,1422.06 L14.9153,1466.66 L3.36134,1579.52 L-3.56307,1594.17 L-2.61785,1611.07 L-7.18873,1651.83 L-12.2992,1672.3 L-21.2529,1742.59 L-28.8286,1783.86 L-39.0484,1851.48 L-43.8405,1899.68 L-32.8729,1988.13 L-33.3643,2009.76 L-40.4674,2027.5 L-58.9382,2059.53 L-105.491,2150.61 L-108.34,2161.96 L-116.069,2176.3 L-139.187,2212.69 L-173.472,2280.85 L-191.544,2309.58 L-199.28,2317.25 L-227.004,2325.34 L-230.728,2329.7 L-226.746,2361.67 L-227.41,2430.7 L-224.873,2441.56 L-224.34,2448.73 L-233.704,2483 L-237.234,2509.61 L-246.416,2536.75 L-241.375,2570.68 L-241.597,2601.32 L-245.21,2625.27" fill-rule="evenodd"/>
  </g>
  <g font-family="Ubuntu" fill="none" stroke-opacity="1" font-size="45.8333" stroke-width="12.5197" font-style="normal" transform="matrix(0.999811,0,0,0.999811,0,0)" stroke="#232323" font-weight="400" stroke-linecap="square" stroke-linejoin="bevel">
   <path vector-effect="none" d="M790.841,910.827 L782.299,906.151 L781.163,903.119 L781.782,899.267 L784.695,895.665 L819.598,881.318 L824.168,877.404 L840.97,861.352 L869.141,829.664 L884.15,805.831 L887.034,792.272 L892.354,673.644 L897.275,661.56 L902.386,641.339 L910.418,631.482 L919.079,616.662 L920.405,612.015 L919.797,599.31 L928.342,583.689 L959.945,561.827 L972.541,549.131 L1025.01,456.452 L1035.17,441.073 L1047.81,393.106 L1048.24,388.366 L1047.28,382.042 L1049.95,371.198 L1051.07,361.932 L1068.37,343.771 L1073.21,333.473 L1090.91,308.235 L1111.42,293.338 L1138.64,240.13 L1193.05,188.071 L1199.73,176.817 L1201.18,171.511 L1201.13,166.867 L1192.09,149.184 L1186.73,133.105 L1181.49,127.814 L1180.07,124.334 L1180.07,114.028 L1182.2,96.3872 L1186.41,81.2303 L1184.49,66.6633 L1184.93,64.6557 L1187.53,63.2972 L1199.01,66.9564 L1203.54,65.9589 L1205.21,63.7238 L1206.46,56.8695 L1221.5,39.7473 L1245.04,32.3417 L1275.13,2.129 L1284.25,-3.30608 L1320.02,-41.6789 L1326.06,-52.4384 L1336.1,-57.2446 L1337.17,-60.1559 L1337.09,-79.6223 L1353.63,-127.774 L1382.47,-181.603 L1386.67,-185.487 L1404.89,-194.439 L1410.84,-201.44 L1433.8,-242.604" fill-rule="evenodd"/>
  </g>
  <g font-family="Ubuntu" fill="none" stroke-opacity="1" font-size="45.8333" stroke-dashoffset="0" stroke-width="6.25984" font-style="normal" transform="matrix(0.999811,0,0,0.999811,0,0)" stroke="#ffffff" font-weight="400" stroke-linecap="square" stroke-dasharray="35.4331,35.4331" stroke-linejoin="bevel">
   <path vector-effect="none" d="M790.841,910.827 L782.299,906.151 L781.163,903.119 L781.782,899.267 L784.695,895.665 L819.598,881.318 L824.168,877.404 L840.97,861.352 L869.141,829.664 L884.15,805.831 L887.034,792.272 L892.354,673.644 L897.275,661.56 L902.386,641.339 L910.418,631.482 L919.079,616.662 L920.405,612.015 L919.797,599.31 L928.342,583.689 L959.945,561.827 L972.541,549.131 L1025.01,456.452 L1035.17,441.073 L1047.81,393.106 L1048.24,388.366 L1047.28,382.042 L1049.95,371.198 L1051.07,361.932 L1068.37,343.771 L1073.21,333.473 L1090.91,308.235 L1111.42,293.338 L1138.64,240.13 L1193.05,188.071 L1199.73,176.817 L1201.18,171.511 L1201.13,166.867 L1192.09,149.184 L1186.73,133.105 L1181.49,127.814 L1180.07,124.334 L1180.07,114.028 L1182.2,96.3872 L1186.41,81.2303 L1184.49,66.6633 L1184.93,64.6557 L1187.53,63.2972 L1199.01,66.9564 L1203.54,65.9589 L1205.21,63.7238 L1206.46,56.8695 L1221.5,39.7473 L1245.04,32.3417 L1275.13,2.129 L1284.25,-3.30608 L1320.02,-41.6789 L1326.06,-52.4384 L1336.1,-57.2446 L1337.17,-60.1559 L1337.09,-79.6223 L1353.63,-127.774 L1382.47,-181.603 L1386.67,-185.487 L1404.89,-194.439 L1410.84,-201.44 L1433.8,-242.604" fill-rule="evenodd"/>
  </g>
  <g font-family="Ubuntu" fill="none" stroke-opacity="1" font-size="45.8333" stroke-width="7.79528" font-style="normal" transform="matrix(0.999811,0,0,0.999811,0,0)" stroke="#000000" font-weight="400" stroke-linecap="round" stroke-linejoin="round">
   <path vector-effect="none" d="M801.873,922.885 L802.647,928.255 L793.102,938.756 L777.195,985.156 L775.452,996.191 L764.389,1021.11 L755.666,1031.85 L740.86,1059.08 L735.798,1065.65 L725.927,1082.69 L699.012,1179.21 L698.119,1188.44 L687.206,1228.01 L685.141,1259.52 L667.983,1303.55 L656.059,1321.78 L647.065,1343.47 L638.84,1356.65 L617.789,1399.72 L607.284,1440.82 L601.936,1453.9 L574.943,1502.9 L565.447,1522.88 L561.986,1525.34 L553.995,1525.41 L550.946,1528.8 L551.942,1547.01 L557.055,1559.41 L555.135,1574 L550.079,1587.01" fill-rule="evenodd"/>
  </g>
  <g font-family="Ubuntu" fill="none" stroke-opacity="1" font-size="45.8333" stroke-dashoffset="0" stroke-width="3.89764" font-style="normal" transform="matrix(0.999811,0,0,0.999811,0,0)" stroke="#ffffff" font-weight="400" stroke-linecap="square" stroke-dasharray="35.4331,35.4331" stroke-linejoin="bevel">
   <path vector-effect="none" d="M801.873,922.885 L802.647,928.255 L793.102,938.756 L777.195,985.156 L775.452,996.191 L764.389,1021.11 L755.666,1031.85 L740.86,1059.08 L735.798,1065.65 L725.927,1082.69 L699.012,1179.21 L698.119,1188.44 L687.206,1228.01 L685.141,1259.52 L667.983,1303.55 L656.059,1321.78 L647.065,1343.47 L638.84,1356.65 L617.789,1399.72 L607.284,1440.82 L601.936,1453.9 L574.943,1502.9 L565.447,1522.88 L561.986,1525.34 L553.995,1525.41 L550.946,1528.8 L551.942,1547.01 L557.055,1559.41 L555.135,1574 L550.079,1587.01" fill-rule="evenodd"/>
  </g>
  <g font-family="Ubuntu" fill="none" stroke-opacity="1" font-size="45.8333" stroke-width="7.79528" font-style="normal" transform="matrix(0.999811,0,0,0.999811,0,0)" stroke="#000000" font-weight="400" stroke-linecap="round" stroke-linejoin="round">
   <path vector-effect="none" d="M-246.16,1330.88 L-250.673,1339.62 L-248.91,1357.16 L-247.762,1359.84 L-231.604,1362.99 L-203.49,1379.99 L-185.09,1395.59 L-173.713,1397.25 L-163.502,1396.41 L-153.717,1401.14 L-138.599,1403.01 L-118.895,1410.37 L-96.9221,1411.38 L-76.9682,1420.75 L-56.3941,1424.69 L-35.1871,1424.69 L-4.65091,1428.83 L8.09425,1427.77 L13.0205,1425.74 L16.8231,1417.97 L20.4748,1416.63 L23.1045,1418.49 L23.4502,1422.08 L26.3533,1418.83 L30.2682,1420.18 L32.9327,1432.88 L42.9761,1440.7 L128.613,1467.55 L173.983,1466.21 L186.498,1463.95 L210.639,1467.08 L270.925,1467.32 L295.642,1475.49 L421.769,1503.3 L503.974,1527.71 L550.041,1556.6 L555.464,1557.18 L556.985,1560.55" fill-rule="evenodd"/>
  </g>
  <g font-family="Ubuntu" fill="none" stroke-opacity="1" font-size="45.8333" stroke-dashoffset="0" stroke-width="3.89764" font-style="normal" transform="matrix(0.999811,0,0,0.999811,0,0)" stroke="#ffffff" font-weight="400" stroke-linecap="square" stroke-dasharray="35.4331,35.4331" stroke-linejoin="bevel">
   <path vector-effect="none" d="M-246.16,1330.88 L-250.673,1339.62 L-248.91,1357.16 L-247.762,1359.84 L-231.604,1362.99 L-203.49,1379.99 L-185.09,1395.59 L-173.713,1397.25 L-163.502,1396.41 L-153.717,1401.14 L-138.599,1403.01 L-118.895,1410.37 L-96.9221,1411.38 L-76.9682,1420.75 L-56.3941,1424.69 L-35.1871,1424.69 L-4.65091,1428.83 L8.09425,1427.77 L13.0205,1425.74 L16.8231,1417.97 L20.4748,1416.63 L23.1045,1418.49 L23.4502,1422.08 L26.3533,1418.83 L30.2682,1420.18 L32.9327,1432.88 L42.9761,1440.7 L128.613,1467.55 L173.983,1466.21 L186.498,1463.95 L210.639,1467.08 L270.925,1467.32 L295.642,1475.49 L421.769,1503.3 L503.974,1527.71 L550.041,1556.6 L555.464,1557.18 L556.985,1560.55" fill-rule="evenodd"/>
  </g>
  <g font-family="Ubuntu" fill="none" stroke-opacity="1" font-size="45.8333" stroke-width="7.79528" font-style="normal" transform="matrix(0.999811,0,0,0.999811,0,0)" stroke="#000000" font-weight="400" stroke-linecap="round" stroke-linejoin="round">
   <path vector-effect="none" d="M68.8464,51.8748 L65.1666,72.4438 L60.2822,110.1 L56.5616,118.326 L46.2801,129.302 L25.2725,138.104 L6.95452,139.963 L-32.1371,133.653 L-87.2168,106.25 L-144.33,86.2491 L-192.478,59.2264 L-206.625,35.831 L-220.494,26.095" fill-rule="evenodd"/>
  </g>
  <g font-family="Ubuntu" fill="none" stroke-opacity="1" font-size="45.8333" stroke-dashoffset="0" stroke-width="3.89764" font-style="normal" transform="matrix(0.999811,0,0,0.999811,0,0)" stroke="#ffffff" font-weight="400" stroke-linecap="square" stroke-dasharray="35.4331,35.4331" stroke-linejoin="bevel">
   <path vector-effect="none" d="M68.8464,51.8748 L65.1666,72.4438 L60.2822,110.1 L56.5616,118.326 L46.2801,129.302 L25.2725,138.104 L6.95452,139.963 L-32.1371,133.653 L-87.2168,106.25 L-144.33,86.2491 L-192.478,59.2264 L-206.625,35.831 L-220.494,26.095" fill-rule="evenodd"/>
  </g>
  <g font-family="Ubuntu" fill="none" stroke-opacity="1" font-size="45.8333" stroke-width="7.79528" font-style="normal" transform="matrix(0.999811,0,0,0.999811,0,0)" stroke="#000000" font-weight="400" stroke-linecap="round" stroke-linejoin="round">
   <path vector-effect="none" d="M57.3814,117.501 L56.4169,119.914 L56.5472,123.333 L64.4778,139.524 L69.1727,146.069 L81.9953,157.641 L107.798,211.562 L108.493,218.289 L105.355,223.691 L90.4019,235.311 L83.7466,242.628 L27.0832,312.199 L-8.04668,371.78 L-26.1667,397.785 L-37.9024,427.504 L-87.3542,645.717 L-124.762,814.239 L-196.919,1148.07 L-245.549,1329.74 L-307.859,1403.36 L-319.841,1411.98" fill-rule="evenodd"/>
  </g>
  <g font-family="Ubuntu" fill="none" stroke-opacity="1" font-size="45.8333" stroke-dashoffset="0" stroke-width="3.89764" font-style="normal" transform="matrix(0.999811,0,0,0.999811,0,0)" stroke="#ffffff" font-weight="400" stroke-linecap="square" stroke-dasharray="35.4331,35.4331" stroke-linejoin="bevel">
   <path vector-effect="none" d="M57.3814,117.501 L56.4169,119.914 L56.5472,123.333 L64.4778,139.524 L69.1727,146.069 L81.9953,157.641 L107.798,211.562 L108.493,218.289 L105.355,223.691 L90.4019,235.311 L83.7466,242.628 L27.0832,312.199 L-8.04668,371.78 L-26.1667,397.785 L-37.9024,427.504 L-87.3542,645.717 L-124.762,814.239 L-196.919,1148.07 L-245.549,1329.74 L-307.859,1403.36 L-319.841,1411.98" fill-rule="evenodd"/>
  </g>
  <g font-family="Ubuntu" fill="none" stroke-opacity="1" font-size="45.8333" stroke-width="4.25197" font-style="normal" transform="matrix(0.999811,0,0,0.999811,0,0)" stroke="#232323" font-weight="400" stroke-linecap="square" stroke-linejoin="bevel">
   <path vector-effect="none" d="M1847.37,1910.21 L1846.5,1906.01 L1848.01,1901.31 L1859.59,1892.48 L1868.64,1890.63 L1906.84,1862.8 L1931.07,1855.4 L1940.3,1850.84 L1949.23,1839.09 L1958.86,1833.53 L1967.22,1821.8 L1978.86,1814.35 L1986.71,1811.25 L1996.09,1802.69 L2008.02,1785.57 L2016.12,1779.7 L2018.73,1771.33 L2023.74,1764.61 L2044.08,1756.12 L2056.46,1744.03 L2068.46,1741.19" fill-rule="evenodd"/>
   <path vector-effect="none" d="M1255.14,770.754 L1261.27,771.938 L1270.07,767.428 L1271.72,765.211 L1275.12,754.121 L1277.62,751.445 L1292.54,749.41 L1340.05,720.287 L1383.28,704.835 L1417.08,698.282 L1468.73,660.514 L1500.65,633.11 L1573.52,598.679 L1619.53,547.911 L1658.41,521.087 L1668.14,517.194 L1696.33,483.012 L1756.36,442.521 L1773.74,414.96 L1794.12,392.115 L1797.3,389.479 L1811.68,384.44 L1816.81,376.696 L1820.98,375.202" fill-rule="evenodd"/>
   <path vector-effect="none" d="M146.369,-34.4596 L157.499,-31.2098 L187.618,-27.1391 L205.56,-22.2284 L219.592,-33.6223 L236.091,-50.5986 L255.143,-58.7789 L277.725,-61.9303 L289.283,-69.7397 L292.752,-70.3814 L337.236,-55.7768 L364.129,-37.5824 L372.688,-25.3801 L390.191,-13.4912 L429.7,-11.9066 L437.629,-8.66886 L466.163,-5.83851 L470.981,-1.88423 L472.15,3.66134 L469.371,9.83078 L446.07,21.2407 L439.481,28.4624 L434.5,47.0977 L435.438,50.34 L439.457,55.0823 L440.145,59.0816 L436.571,77.057 L433.248,88.0172 L431.654,100.261 L413.644,124.043 L412.734,126.725 L413.082,131.82" fill-rule="evenodd"/>
  </g>
  <g font-family="Ubuntu" fill="none" stroke-opacity="1" font-size="45.8333" stroke-width="7.79528" font-style="normal" transform="matrix(0.999811,0,0,0.999811,0,0)" stroke="#000000" font-weight="400" stroke-linecap="round" stroke-linejoin="round">
   <path vector-effect="none" d="M2821.27,2298.12 L2777.72,2288.22 L2716.74,2284.32 L2702.88,2274.73 L2688.18,2273.93 L2627.66,2260.78 L2564.97,2258.91 L2506.82,2237.29 L2479.04,2241.51 L2457.66,2249.63 L2413.8,2254.25 L2408.24,2253.26 L2395.29,2246.37 L2373.78,2247.93 L2339.07,2236.37 L2297.31,2233.49 L2268.47,2249.73 L2265.78,2253.61 L2260.22,2270.01 L2255.6,2275.1 L2232.63,2282.1 L2209.63,2293.41 L2209.15,2299.31 L2206.58,2306.25 L2208.55,2313.25 L2208.06,2317.25 L2199.12,2335.37 L2192.3,2338.88 L2189.73,2342.92 L2182.92,2373.95 L2182.21,2392.2 L2180.26,2399.47 L2173.87,2411.66 L2133.21,2458.01 L2108.57,2493.42 L2107.15,2497.25 L2106.49,2503.8 L2102.36,2516.03 L2090.62,2526.8 L2080.68,2541.17 L2073.74,2562.63 L2072.89,2570.94 L2067.36,2583.28 L2066.26,2591.4 L2055.66,2619.98 L2051.19,2636.89 L2042.79,2651.28 L2033.38,2662.98" fill-rule="evenodd"/>
   <path vector-effect="none" d="" fill-rule="evenodd"/>
  </g>
  <g font-family="Ubuntu" fill="none" stroke-opacity="1" font-size="45.8333" stroke-dashoffset="0" stroke-width="3.89764" font-style="normal" transform="matrix(0.999811,0,0,0.999811,0,0)" stroke="#ffffff" font-weight="400" stroke-linecap="square" stroke-dasharray="35.4331,35.4331" stroke-linejoin="bevel">
   <path vector-effect="none" d="M2821.27,2298.12 L2777.72,2288.22 L2716.74,2284.32 L2702.88,2274.73 L2688.18,2273.93 L2627.66,2260.78 L2564.97,2258.91 L2506.82,2237.29 L2479.04,2241.51 L2457.66,2249.63 L2413.8,2254.25 L2408.24,2253.26 L2395.29,2246.37 L2373.78,2247.93 L2339.07,2236.37 L2297.31,2233.49 L2268.47,2249.73 L2265.78,2253.61 L2260.22,2270.01 L2255.6,2275.1 L2232.63,2282.1 L2209.63,2293.41 L2209.15,2299.31 L2206.58,2306.25 L2208.55,2313.25 L2208.06,2317.25 L2199.12,2335.37 L2192.3,2338.88 L2189.73,2342.92 L2182.92,2373.95 L2182.21,2392.2 L2180.26,2399.47 L2173.87,2411.66 L2133.21,2458.01 L2108.57,2493.42 L2107.15,2497.25 L2106.49,2503.8 L2102.36,2516.03 L2090.62,2526.8 L2080.68,2541.17 L2073.74,2562.63 L2072.89,2570.94 L2067.36,2583.28 L2066.26,2591.4 L2055.66,2619.98 L2051.19,2636.89 L2042.79,2651.28 L2033.38,2662.98" fill-rule="evenodd"/>
   <path vector-effect="none" d="" fill-rule="evenodd"/>
  </g>
  <g font-family="Ubuntu" fill="none" stroke-opacity="1" font-size="45.8333" stroke-width="7.79528" font-style="normal" transform="matrix(0.999811,0,0,0.999811,0,0)" stroke="#000000" font-weight="400" stroke-linecap="round" stroke-linejoin="round">
   <path vector-effect="none" d="" fill-rule="evenodd"/>
   <path vector-effect="none" d="M2162.33,2280.21 L2141.24,2271.94 L2124.54,2267.89 L2072.87,2265.89 L2038.21,2269.92 L2005.11,2268.04 L1998.12,2269.26 L1949.54,2264.25 L1915.57,2255.76 L1904.74,2251.13 L1881.62,2253.21 L1868.11,2246.61 L1853.98,2245.76 L1841.95,2242.65 L1799.97,2242.08 L1766.52,2234.53 L1747.13,2222.25 L1728.4,2221.82 L1717.5,2213.57 L1711.73,2212.1 L1690.62,2198.82 L1685.89,2197.72 L1670.13,2198.06 L1661.49,2201.61 L1638.98,2199.08 L1633.38,2204.16 L1631.52,2210.62 L1627,2219.03 L1613.79,2227.65 L1555.01,2237.76 L1526.2,2235.73 L1500.5,2228.61 L1490.94,2229.77 L1482.79,2228.24 L1462.16,2228.29 L1458.86,2225.82 L1456.67,2219.47 L1450.93,2210.72 L1440.78,2204.22 L1426.14,2197.94 L1410.65,2201.72 L1398.11,2208.49 L1394.42,2207.65 L1389.91,2202.63 L1386.54,2201.48 L1370.84,2208.53 L1342.92,2205.03 L1337.31,2206.34 L1318.79,2216.14 L1312.99,2225.09 L1281.33,2255.79 L1240.3,2271.51 L1229.94,2268.94 L1212.14,2258.09 L1192.47,2252.69 L1141.44,2250.16 L1040.13,2254.32 L877.487,2228.67 L865.825,2231.27 L859.702,2235.73 L854.307,2236.91 L762.096,2213.91 L749.698,2205.1 L740.466,2200.75 L632.35,2157.43 L623.176,2154.12 L603.941,2150.87 L600.39,2151.98 L588.347,2162.02 L365.924,2218.39 L282.914,2216.77 L151.763,2231.43 L16.0053,2253.76 L-81.3056,2286.95 L-129.399,2297.11 L-216.198,2323.23 L-247.208,2328.73 L-365.167,2341.27" fill-rule="evenodd"/>
   <path vector-effect="none" d="M2162.33,2280.21 L2164.67,2282.52" fill-rule="evenodd"/>
  </g>
  <g font-family="Ubuntu" fill="none" stroke-opacity="1" font-size="45.8333" stroke-dashoffset="0" stroke-width="3.89764" font-style="normal" transform="matrix(0.999811,0,0,0.999811,0,0)" stroke="#ffffff" font-weight="400" stroke-linecap="square" stroke-dasharray="35.4331,35.4331" stroke-linejoin="bevel">
   <path vector-effect="none" d="" fill-rule="evenodd"/>
   <path vector-effect="none" d="M2162.33,2280.21 L2141.24,2271.94 L2124.54,2267.89 L2072.87,2265.89 L2038.21,2269.92 L2005.11,2268.04 L1998.12,2269.26 L1949.54,2264.25 L1915.57,2255.76 L1904.74,2251.13 L1881.62,2253.21 L1868.11,2246.61 L1853.98,2245.76 L1841.95,2242.65 L1799.97,2242.08 L1766.52,2234.53 L1747.13,2222.25 L1728.4,2221.82 L1717.5,2213.57 L1711.73,2212.1 L1690.62,2198.82 L1685.89,2197.72 L1670.13,2198.06 L1661.49,2201.61 L1638.98,2199.08 L1633.38,2204.16 L1631.52,2210.62 L1627,2219.03 L1613.79,2227.65 L1555.01,2237.76 L1526.2,2235.73 L1500.5,2228.61 L1490.94,2229.77 L1482.79,2228.24 L1462.16,2228.29 L1458.86,2225.82 L1456.67,2219.47 L1450.93,2210.72 L1440.78,2204.22 L1426.14,2197.94 L1410.65,2201.72 L1398.11,2208.49 L1394.42,2207.65 L1389.91,2202.63 L1386.54,2201.48 L1370.84,2208.53 L1342.92,2205.03 L1337.31,2206.34 L1318.79,2216.14 L1312.99,2225.09 L1281.33,2255.79 L1240.3,2271.51 L1229.94,2268.94 L1212.14,2258.09 L1192.47,2252.69 L1141.44,2250.16 L1040.13,2254.32 L877.487,2228.67 L865.825,2231.27 L859.702,2235.73 L854.307,2236.91 L762.096,2213.91 L749.698,2205.1 L740.466,2200.75 L632.35,2157.43 L623.176,2154.12 L603.941,2150.87 L600.39,2151.98 L588.347,2162.02 L365.924,2218.39 L282.914,2216.77 L151.763,2231.43 L16.0053,2253.76 L-81.3056,2286.95 L-129.399,2297.11 L-216.198,2323.23 L-247.208,2328.73 L-365.167,2341.27" fill-rule="evenodd"/>
   <path vector-effect="none" d="M2162.33,2280.21 L2164.67,2282.52" fill-rule="evenodd"/>
  </g>
  <g font-family="Ubuntu" fill="none" stroke-opacity="1" font-size="45.8333" stroke-width="7.79528" font-style="normal" transform="matrix(0.999811,0,0,0.999811,0,0)" stroke="#000000" font-weight="400" stroke-linecap="round" stroke-linejoin="round">
   <path vector-effect="none" d="M550.528,1530.84 L549.382,1523.01 L511.901,1430.47 L460.116,1091.46 L455.997,1084.56 L411.319,1042.87 L407.774,1037.26 L285.355,698.197 L218.895,524.173 L204.27,503.184 L200.663,489.922 L197.3,484.273 L197.625,469.7 L196.178,460.492 L189.133,439.279 L190.482,435.109 L198.806,424.668 L199.024,421.375 L195.875,418.623 L179.929,419.016 L176.65,417.017 L176.139,414.197 L179.213,404.054 L178.783,401.145 L162.029,366.784 L128.813,312.454" fill-rule="evenodd"/>
   <path vector-effect="none" d="M550.528,1530.84 L550.747,1532.66" fill-rule="evenodd"/>
  </g>
  <g font-family="Ubuntu" fill="none" stroke-opacity="1" font-size="45.8333" stroke-dashoffset="0" stroke-width="3.89764" font-style="normal" transform="matrix(0.999811,0,0,0.999811,0,0)" stroke="#ffffff" font-weight="400" stroke-linecap="square" stroke-dasharray="35.4331,35.4331" stroke-linejoin="bevel">
   <path vector-effect="none" d="M550.528,1530.84 L549.382,1523.01 L511.901,1430.47 L460.116,1091.46 L455.997,1084.56 L411.319,1042.87 L407.774,1037.26 L285.355,698.197 L218.895,524.173 L204.27,503.184 L200.663,489.922 L197.3,484.273 L197.625,469.7 L196.178,460.492 L189.133,439.279 L190.482,435.109 L198.806,424.668 L199.024,421.375 L195.875,418.623 L179.929,419.016 L176.65,417.017 L176.139,414.197 L179.213,404.054 L178.783,401.145 L162.029,366.784 L128.813,312.454" fill-rule="evenodd"/>
   <path vector-effect="none" d="M550.528,1530.84 L550.747,1532.66" fill-rule="evenodd"/>
  </g>
  <g font-family="Ubuntu" fill="none" stroke-opacity="1" font-size="45.8333" stroke-width="4.25197" font-style="normal" transform="matrix(0.999811,0,0,0.999811,0,0)" stroke="#232323" font-weight="400" stroke-linecap="square" stroke-linejoin="bevel">
   <path vector-effect="none" d="M1726.21,1761.11 L1721.58,1755.12 L1721.48,1750.26 L1718.17,1739.86 L1718.99,1733.6 L1739.57,1714.04 L1744.2,1711.37 L1753.13,1711.03 L1753.91,1709.01 L1752.9,1704.05 L1748.79,1698.41 L1749.94,1694.08 L1761.1,1692.25 L1764.29,1688.26 L1772.36,1683.41 L1778.05,1677.04 L1795.1,1671.95 L1807.68,1662.9 L1815.69,1660.87 L1819.46,1657.87 L1826.4,1646.47 L1828.83,1639.12 L1832.2,1617.15 L1827.06,1606.06 L1826.78,1582.55 L1830.17,1566.54 L1836.17,1559.19 L1837.48,1555.16 L1835.58,1551.06 L1824.59,1544.75 L1821.65,1539.09 L1820.32,1532.68 L1801.9,1511.32 L1800.45,1507.55 L1799.42,1486.91 L1801.53,1471.21 L1799.96,1456.42 L1814.21,1436.66 L1818.84,1424.99 L1821.58,1383.97 L1820.31,1368.44 L1822.73,1360.8 L1821.78,1355.07 L1818.85,1350.15 L1807.76,1341.38 L1796.93,1335.54 L1795.91,1324.82 L1798.2,1315.4 L1797.7,1308.97 L1794.8,1295 L1789.07,1287.97 L1787.9,1282.03 L1786.13,1279.06 L1780.22,1273.09 L1768.85,1275.55 L1756.82,1272.26 L1754.26,1267.29 L1756.98,1262.28 L1756.82,1257.4 L1722.6,1214.27 L1723.36,1211.97 L1728.82,1207.43 L1723.2,1180.9 L1720.56,1176.75 L1721.29,1171.98 L1719.43,1163.89 L1719.51,1158.41 L1716.44,1153.88 L1718.63,1148.84 L1718.8,1145.62 L1722.61,1133.18 L1717.23,1076.2 L1717.84,1069.91 L1725.15,1048.16 L1735.83,1031.01 L1735.76,1029.37 L1732.57,1025.04 L1735.41,1018.19 L1741.08,990.249 L1744.06,984.678 L1741.55,978.006 L1750.49,967.181 L1760.38,961.405 L1763.62,955.86 L1762.94,952.849" fill-rule="evenodd"/>
   <path vector-effect="none" d="M1762.94,952.849 L1761.68,951.662" fill-rule="evenodd"/>
  </g>
  <g font-family="Ubuntu" fill="none" stroke-opacity="1" font-size="45.8333" stroke-width="7.79528" font-style="normal" transform="matrix(0.999811,0,0,0.999811,0,0)" stroke="#000000" font-weight="400" stroke-linecap="round" stroke-linejoin="round">
   <path vector-effect="none" d="M514.684,228.69 L513.27,228.711" fill-rule="evenodd"/>
   <path vector-effect="none" d="M2788.81,1290.05 L2776.24,1288.71 L2770.43,1286.32 L2758.52,1286.74 L2749.87,1284.4 L2741.41,1281.37 L2727.34,1271.15 L2717.4,1267.77 L2713.67,1268.96 L2704.28,1276.91 L2694.04,1279.34 L2684.16,1286.13 L2670.6,1286.99 L2630.88,1281.41 L2620.83,1277.38 L2611.98,1268.46 L2537.95,1211.77 L2502.07,1207.87 L2483.7,1194.13 L2477.45,1191.01 L2418.53,1183.37 L2331.25,1177.77 L2321.17,1172.66 L2307.8,1155.93 L2295.58,1149.5 L2261.5,1145.52 L2248.08,1139.88 L2217.13,1135.01 L2198.76,1125.81 L2127.61,1114.45 L2114.26,1115.28 L2100.15,1113.26 L2083.06,1107.98 L2050.56,1084.05 L2036.89,1085.12 L1983.36,1081.56 L1962.07,1074.01 L1950.33,1071.57 L1933.43,1063.52 L1925.96,1054.54 L1916.83,1051.56 L1899.59,1053.05 L1884.63,1037.23 L1871.31,1035.59 L1868.22,1031.56 L1868.5,1024.31 L1866.35,1020.58 L1847.21,1006.26 L1836.44,1001.64 L1821.46,986.524 L1813.51,981.87 L1794.97,965.017 L1767.03,954.968 L1734.84,928.879 L1713.66,922.857 L1691.43,907.67 L1685.4,907.429 L1669.32,915.01 L1636.6,912.793 L1483.01,857.634 L1471.94,857.836 L1450.05,845.457 L1410.57,830.876 L1397.29,824.365 L1361.05,815.574 L1353.47,809.548 L1326.47,799.775 L1302.43,801.609 L1281.32,795.601 L1268.82,787.824 L1261.3,775.449 L1238.05,758.084 L1226.46,741.34 L1214.12,727.883 L1210.55,713.993 L1205.07,707.095 L1190.56,695.347 L1184.92,684.807 L1156.27,662.802 L1149.21,659.334 L1124.11,639.278 L1092.04,631.165 L1006.33,564.443 L964.264,555.674 L949.573,558.716 L945.395,557.913 L892.761,497.512 L826.673,456.131 L783.883,440.81 L730.753,399.065 L678.938,379.204 L631.645,347.573 L616.874,337.139 L539.175,266.547 L525.608,250.168 L523.561,245.396 L520.266,231.684 L514.684,228.69" fill-rule="evenodd"/>
  </g>
  <g font-family="Ubuntu" fill="none" stroke-opacity="1" font-size="45.8333" stroke-dashoffset="0" stroke-width="3.89764" font-style="normal" transform="matrix(0.999811,0,0,0.999811,0,0)" stroke="#ffffff" font-weight="400" stroke-linecap="square" stroke-dasharray="35.4331,35.4331" stroke-linejoin="bevel">
   <path vector-effect="none" d="M514.684,228.69 L513.27,228.711" fill-rule="evenodd"/>
   <path vector-effect="none" d="M2788.81,1290.05 L2776.24,1288.71 L2770.43,1286.32 L2758.52,1286.74 L2749.87,1284.4 L2741.41,1281.37 L2727.34,1271.15 L2717.4,1267.77 L2713.67,1268.96 L2704.28,1276.91 L2694.04,1279.34 L2684.16,1286.13 L2670.6,1286.99 L2630.88,1281.41 L2620.83,1277.38 L2611.98,1268.46 L2537.95,1211.77 L2502.07,1207.87 L2483.7,1194.13 L2477.45,1191.01 L2418.53,1183.37 L2331.25,1177.77 L2321.17,1172.66 L2307.8,1155.93 L2295.58,1149.5 L2261.5,1145.52 L2248.08,1139.88 L2217.13,1135.01 L2198.76,1125.81 L2127.61,1114.45 L2114.26,1115.28 L2100.15,1113.26 L2083.06,1107.98 L2050.56,1084.05 L2036.89,1085.12 L1983.36,1081.56 L1962.07,1074.01 L1950.33,1071.57 L1933.43,1063.52 L1925.96,1054.54 L1916.83,1051.56 L1899.59,1053.05 L1884.63,1037.23 L1871.31,1035.59 L1868.22,1031.56 L1868.5,1024.31 L1866.35,1020.58 L1847.21,1006.26 L1836.44,1001.64 L1821.46,986.524 L1813.51,981.87 L1794.97,965.017 L1767.03,954.968 L1734.84,928.879 L1713.66,922.857 L1691.43,907.67 L1685.4,907.429 L1669.32,915.01 L1636.6,912.793 L1483.01,857.634 L1471.94,857.836 L1450.05,845.457 L1410.57,830.876 L1397.29,824.365 L1361.05,815.574 L1353.47,809.548 L1326.47,799.775 L1302.43,801.609 L1281.32,795.601 L1268.82,787.824 L1261.3,775.449 L1238.05,758.084 L1226.46,741.34 L1214.12,727.883 L1210.55,713.993 L1205.07,707.095 L1190.56,695.347 L1184.92,684.807 L1156.27,662.802 L1149.21,659.334 L1124.11,639.278 L1092.04,631.165 L1006.33,564.443 L964.264,555.674 L949.573,558.716 L945.395,557.913 L892.761,497.512 L826.673,456.131 L783.883,440.81 L730.753,399.065 L678.938,379.204 L631.645,347.573 L616.874,337.139 L539.175,266.547 L525.608,250.168 L523.561,245.396 L520.266,231.684 L514.684,228.69" fill-rule="evenodd"/>
  </g>
  <g font-family="Ubuntu" fill="none" stroke-opacity="1" font-size="45.8333" stroke-width="12.5197" font-style="normal" transform="matrix(0.999811,0,0,0.999811,0,0)" stroke="#232323" font-weight="400" stroke-linecap="square" stroke-linejoin="bevel">
   <path vector-effect="none" d="M474.554,229.054 L471.127,230.214 L432.623,257.428 L380.956,311.617 L347.406,341.924 L345.355,344.804 L343.338,353.666 L342.014,355.942 L329.709,359.958 L324.059,371.516 L303.315,384.153 L279.908,412.437 L276.729,414.425 L125.965,421.535 L30.7809,409.582 L-3.15247,423.616 L-35.4625,445.876 L-66.3878,442.527 L-109.864,450.207 L-159.843,469.098 L-275.094,502.728" fill-rule="evenodd"/>
   <path vector-effect="none" d="M474.554,229.054 L476.542,229.154" fill-rule="evenodd"/>
  </g>
  <g font-family="Ubuntu" fill="none" stroke-opacity="1" font-size="45.8333" stroke-dashoffset="0" stroke-width="6.25984" font-style="normal" transform="matrix(0.999811,0,0,0.999811,0,0)" stroke="#ffffff" font-weight="400" stroke-linecap="square" stroke-dasharray="35.4331,35.4331" stroke-linejoin="bevel">
   <path vector-effect="none" d="M474.554,229.054 L471.127,230.214 L432.623,257.428 L380.956,311.617 L347.406,341.924 L345.355,344.804 L343.338,353.666 L342.014,355.942 L329.709,359.958 L324.059,371.516 L303.315,384.153 L279.908,412.437 L276.729,414.425 L125.965,421.535 L30.7809,409.582 L-3.15247,423.616 L-35.4625,445.876 L-66.3878,442.527 L-109.864,450.207 L-159.843,469.098 L-275.094,502.728" fill-rule="evenodd"/>
   <path vector-effect="none" d="M474.554,229.054 L476.542,229.154" fill-rule="evenodd"/>
  </g>
  <g font-family="Ubuntu" fill="none" stroke-opacity="1" font-size="45.8333" stroke-width="4.25197" font-style="normal" transform="matrix(0.999811,0,0,0.999811,0,0)" stroke="#232323" font-weight="400" stroke-linecap="square" stroke-linejoin="bevel">
   <path vector-effect="none" d="M476.542,229.154 L473.13,228.124 L468.797,222.954 L464.891,215.543 L468.873,194.302 L463.984,185.411 L469.481,162.261 L476.776,147.743 L466.628,125.523 L452.588,114.874" fill-rule="evenodd"/>
  </g>
  <g font-family="Ubuntu" fill="none" stroke-opacity="1" font-size="45.8333" stroke-width="12.5197" font-style="normal" transform="matrix(0.999811,0,0,0.999811,0,0)" stroke="#232323" font-weight="400" stroke-linecap="square" stroke-linejoin="bevel">
   <path vector-effect="none" d="M151.912,117.836 L155.101,121.901 L166.365,128.056 L227.584,178.831 L236.063,182.366 L240.005,187.423 L260.654,203.447 L290.748,207.905 L296.038,211.485 L309.087,225.168 L313.227,225.452 L377.062,206.609 L409.216,213.274" fill-rule="evenodd"/>
   <path vector-effect="none" d="M409.216,213.274 L414.945,214.538" fill-rule="evenodd"/>
  </g>
  <g font-family="Ubuntu" fill="none" stroke-opacity="1" font-size="45.8333" stroke-dashoffset="0" stroke-width="6.25984" font-style="normal" transform="matrix(0.999811,0,0,0.999811,0,0)" stroke="#ffffff" font-weight="400" stroke-linecap="square" stroke-dasharray="35.4331,35.4331" stroke-linejoin="bevel">
   <path vector-effect="none" d="M151.912,117.836 L155.101,121.901 L166.365,128.056 L227.584,178.831 L236.063,182.366 L240.005,187.423 L260.654,203.447 L290.748,207.905 L296.038,211.485 L309.087,225.168 L313.227,225.452 L377.062,206.609 L409.216,213.274" fill-rule="evenodd"/>
   <path vector-effect="none" d="M409.216,213.274 L414.945,214.538" fill-rule="evenodd"/>
  </g>
  <g font-family="Ubuntu" fill="none" stroke-opacity="1" font-size="45.8333" stroke-width="12.5197" font-style="normal" transform="matrix(0.999811,0,0,0.999811,0,0)" stroke="#232323" font-weight="400" stroke-linecap="square" stroke-linejoin="bevel">
   <path vector-effect="none" d="M151.042,22.0789 L150.644,22.5728" fill-rule="evenodd"/>
   <path vector-effect="none" d="M151.042,22.0789 L153.972,20.7047 L160.215,23.0288 L214.903,32.4408 L265.249,102.656 L291.302,108.548 L366.153,153.47 L369.73,158.093 L375.815,178.541 L389.021,192.818 L404.549,201.085 L412.136,213.582 L493.387,232.793 L506.134,230.666 L667.458,185.27 L778.904,135.555 L864.165,105.086 L1148.78,68.519 L1182.29,61.2965 L1220.99,75.1069 L1338.03,152.226 L1362.41,163.603 L1463.1,225.225 L1469.84,231.981 L1503.98,256.736 L1526.91,291.891 L1539.16,306.535 L1553.74,319.063 L1587.79,336.445 L1604.85,356.488 L1608.83,359.207 L1616.19,360.225 L1626.05,358.411 L1672.1,366.507 L1846.58,376.821 L1881.77,392.424 L1888.78,393.03 L1952.26,419.027 L1963.84,425.311 L1980.58,429.856 L2007.29,424.127 L2018.31,425.447 L2035.97,424.454 L2087.77,408.76 L2099.98,408.09 L2107.9,404.013 L2112.81,406.965 L2117.42,417.925 L2119.54,420.559 L2128.28,421.777 L2132.13,424.59 L2132.94,426.574 L2133.01,433.816 L2138.49,447.927 L2154.36,455.164 L2162.06,462.427 L2174.91,479.869 L2179.44,483.197 L2185.47,484.518 L2191.71,480.952 L2195.41,480.916 L2198.77,483.376 L2200.89,489.33 L2203.58,491.836 L2246.5,505.219 L2298.08,515.323 L2309.73,514.859 L2327.98,510.466 L2353.35,520.639 L2364.53,516.256 L2447.27,512.998 L2462.55,509.163 L2469.9,511.516 L2476.37,522.009 L2480.98,524.267 L2497.54,516.441 L2524.06,522.471 L2536.09,520.281 L2606.44,519.997 L2649.89,503.193 L2762.99,494.865" fill-rule="evenodd"/>
   <path vector-effect="none" d="" fill-rule="evenodd"/>
  </g>
  <g font-family="Ubuntu" fill="none" stroke-opacity="1" font-size="45.8333" stroke-dashoffset="0" stroke-width="6.25984" font-style="normal" transform="matrix(0.999811,0,0,0.999811,0,0)" stroke="#ffffff" font-weight="400" stroke-linecap="square" stroke-dasharray="35.4331,35.4331" stroke-linejoin="bevel">
   <path vector-effect="none" d="M151.042,22.0789 L150.644,22.5728" fill-rule="evenodd"/>
   <path vector-effect="none" d="M151.042,22.0789 L153.972,20.7047 L160.215,23.0288 L214.903,32.4408 L265.249,102.656 L291.302,108.548 L366.153,153.47 L369.73,158.093 L375.815,178.541 L389.021,192.818 L404.549,201.085 L412.136,213.582 L493.387,232.793 L506.134,230.666 L667.458,185.27 L778.904,135.555 L864.165,105.086 L1148.78,68.519 L1182.29,61.2965 L1220.99,75.1069 L1338.03,152.226 L1362.41,163.603 L1463.1,225.225 L1469.84,231.981 L1503.98,256.736 L1526.91,291.891 L1539.16,306.535 L1553.74,319.063 L1587.79,336.445 L1604.85,356.488 L1608.83,359.207 L1616.19,360.225 L1626.05,358.411 L1672.1,366.507 L1846.58,376.821 L1881.77,392.424 L1888.78,393.03 L1952.26,419.027 L1963.84,425.311 L1980.58,429.856 L2007.29,424.127 L2018.31,425.447 L2035.97,424.454 L2087.77,408.76 L2099.98,408.09 L2107.9,404.013 L2112.81,406.965 L2117.42,417.925 L2119.54,420.559 L2128.28,421.777 L2132.13,424.59 L2132.94,426.574 L2133.01,433.816 L2138.49,447.927 L2154.36,455.164 L2162.06,462.427 L2174.91,479.869 L2179.44,483.197 L2185.47,484.518 L2191.71,480.952 L2195.41,480.916 L2198.77,483.376 L2200.89,489.33 L2203.58,491.836 L2246.5,505.219 L2298.08,515.323 L2309.73,514.859 L2327.98,510.466 L2353.35,520.639 L2364.53,516.256 L2447.27,512.998 L2462.55,509.163 L2469.9,511.516 L2476.37,522.009 L2480.98,524.267 L2497.54,516.441 L2524.06,522.471 L2536.09,520.281 L2606.44,519.997 L2649.89,503.193 L2762.99,494.865" fill-rule="evenodd"/>
   <path vector-effect="none" d="" fill-rule="evenodd"/>
  </g>
  <g font-family="Ubuntu" fill="none" stroke-opacity="1" font-size="45.8333" stroke-width="12.5197" font-style="normal" transform="matrix(0.999811,0,0,0.999811,0,0)" stroke="#232323" font-weight="400" stroke-linecap="square" stroke-linejoin="bevel">
   <path vector-effect="none" d="M146.998,-34.2145 L150.644,-30.9288 L151.744,-27.3325 L151.943,20.159 L139.359,38.3263 L115.795,51.4688 L113.724,55.2295 L114.577,59.096" fill-rule="evenodd"/>
   <path vector-effect="none" d="M146.998,-34.2145 L145.282,-34.8343" fill-rule="evenodd"/>
  </g>
  <g font-family="Ubuntu" fill="none" stroke-opacity="1" font-size="45.8333" stroke-dashoffset="0" stroke-width="6.25984" font-style="normal" transform="matrix(0.999811,0,0,0.999811,0,0)" stroke="#ffffff" font-weight="400" stroke-linecap="square" stroke-dasharray="35.4331,35.4331" stroke-linejoin="bevel">
   <path vector-effect="none" d="M146.998,-34.2145 L150.644,-30.9288 L151.744,-27.3325 L151.943,20.159 L139.359,38.3263 L115.795,51.4688 L113.724,55.2295 L114.577,59.096" fill-rule="evenodd"/>
   <path vector-effect="none" d="M146.998,-34.2145 L145.282,-34.8343" fill-rule="evenodd"/>
  </g>
  <g font-family="Ubuntu" fill="none" stroke-opacity="1" font-size="45.8333" stroke-width="1" font-style="normal" transform="matrix(0.999811,0,0,0.999811,0,0)" stroke="#000000" font-weight="400" stroke-linecap="square" stroke-linejoin="bevel"/>
  <g font-family="Ubuntu" fill="#ffffff" stroke-opacity="1" font-size="45.8333" stroke-width="4.72441" font-style="normal" transform="matrix(0.999811,0,0,0.999811,0,0)" stroke="#000000" font-weight="400" stroke-linecap="square" fill-opacity="1" stroke-linejoin="bevel">
   <path vector-effect="none" d="M2185.5,2290.08 C2185.5,2296.6 2180.21,2301.89 2173.68,2301.89 C2167.16,2301.89 2161.87,2296.6 2161.87,2290.08 C2161.87,2283.56 2167.16,2278.27 2173.68,2278.27 C2180.21,2278.27 2185.5,2283.56 2185.5,2290.08 " fill-rule="evenodd"/>
   <path vector-effect="none" d="M33.6417,1430.21 C33.6417,1436.73 28.3537,1442.02 21.8307,1442.02 C15.3076,1442.02 10.0197,1436.73 10.0197,1430.21 C10.0197,1423.68 15.3076,1418.39 21.8307,1418.39 C28.3537,1418.39 33.6417,1423.68 33.6417,1430.21 " fill-rule="evenodd"/>
   <path vector-effect="none" d="M564.399,1580.67 C564.399,1587.2 559.111,1592.48 552.588,1592.48 C546.065,1592.48 540.777,1587.2 540.777,1580.67 C540.777,1574.15 546.065,1568.86 552.588,1568.86 C559.111,1568.86 564.399,1574.15 564.399,1580.67 " fill-rule="evenodd"/>
   <path vector-effect="none" d="M821.479,931.192 C821.479,937.715 816.191,943.003 809.668,943.003 C803.145,943.003 797.857,937.715 797.857,931.192 C797.857,924.669 803.145,919.381 809.668,919.381 C816.191,919.381 821.479,924.669 821.479,931.192 " fill-rule="evenodd"/>
   <path vector-effect="none" d="M1024.89,569.487 C1024.89,576.01 1019.6,581.298 1013.08,581.298 C1006.55,581.298 1001.27,576.01 1001.27,569.487 C1001.27,562.964 1006.55,557.676 1013.08,557.676 C1019.6,557.676 1024.89,562.964 1024.89,569.487 " fill-rule="evenodd"/>
   <path vector-effect="none" d="M1256.21,763 C1256.21,769.523 1250.92,774.811 1244.4,774.811 C1237.87,774.811 1232.58,769.523 1232.58,763 C1232.58,756.477 1237.87,751.189 1244.4,751.189 C1250.92,751.189 1256.21,756.477 1256.21,763 " fill-rule="evenodd"/>
   <path vector-effect="none" d="M1847.87,376.071 C1847.87,382.594 1842.58,387.882 1836.06,387.882 C1829.54,387.882 1824.25,382.594 1824.25,376.071 C1824.25,369.548 1829.54,364.26 1836.06,364.26 C1842.58,364.26 1847.87,369.548 1847.87,376.071 " fill-rule="evenodd"/>
   <path vector-effect="none" d="M1760.74,940.767 C1760.74,947.29 1755.45,952.578 1748.92,952.578 C1742.4,952.578 1737.11,947.29 1737.11,940.767 C1737.11,934.244 1742.4,928.956 1748.92,928.956 C1755.45,928.956 1760.74,934.244 1760.74,940.767 " fill-rule="evenodd"/>
   <path vector-effect="none" d="M1738.88,1761.72 C1738.88,1768.24 1733.59,1773.53 1727.07,1773.53 C1720.55,1773.53 1715.26,1768.24 1715.26,1761.72 C1715.26,1755.2 1720.55,1749.91 1727.07,1749.91 C1733.59,1749.91 1738.88,1755.2 1738.88,1761.72 " fill-rule="evenodd"/>
  </g>
  <g font-family="Ubuntu" fill="none" stroke-opacity="1" font-size="45.8333" stroke-width="1" font-style="normal" transform="matrix(0.999811,0,0,0.999811,0,0)" stroke="#000000" font-weight="400" stroke-linecap="square" stroke-linejoin="bevel"/>
  <g font-family="Ubuntu" fill="none" stroke-opacity="1" font-size="45.8333" stroke-width="1" font-style="normal" transform="matrix(0.999811,0,0,0.999811,0,0)" stroke="#000000" font-weight="400" stroke-linecap="square" stroke-linejoin="bevel"/>
  <g font-family="Ubuntu" fill="none" stroke-opacity="1" font-size="45.8333" stroke-width="1" font-style="normal" transform="matrix(0.999811,0,0,0.999811,0,0)" stroke="#000000" font-weight="400" stroke-linecap="square" stroke-linejoin="bevel"/>
  <g font-family="Ubuntu" fill="none" stroke-opacity="1" font-size="45.8333" stroke-width="1" font-style="normal" transform="matrix(0.999811,0,0,0.999811,0,0)" stroke="#000000" font-weight="400" stroke-linecap="square" stroke-linejoin="bevel"/>
  <g font-family="Ubuntu" fill="none" stroke-opacity="1" font-size="45.8333" stroke-width="1" font-style="normal" transform="matrix(0.319939,0,0,0.319939,141.515,1376.44)" stroke="#000000" font-weight="400" stroke-linecap="square" stroke-linejoin="bevel"/>
  <g font-family="Ubuntu" fill="#6d6d6d" font-size="45.8333" font-style="normal" transform="matrix(0.999811,0,0,0.999811,141.515,1376.44)" stroke="none" font-weight="400" fill-opacity="0.694118">
   <path vector-effect="non-scaling-stroke" d="M-106.511,-49.3 L106.511,-49.3 L106.511,49.3 L-106.511,49.3 L-106.511,-49.3" fill-rule="evenodd"/>
  </g>
  <g font-family="Ubuntu" fill="none" stroke-opacity="1" font-size="45.8333" stroke-width="1" font-style="normal" transform="matrix(0.319939,0,0,0.319939,141.515,1376.44)" stroke="#000000" font-weight="400" stroke-linecap="square" stroke-linejoin="bevel"/>
  <g font-family="Ubuntu" fill="none" stroke-opacity="1" font-size="45.8333" stroke-width="1" font-style="normal" transform="matrix(0.999811,0,0,0.999811,0,0)" stroke="#000000" font-weight="400" stroke-linecap="square" stroke-linejoin="bevel"/>
  <g font-family="Ubuntu" fill="none" stroke-opacity="1" font-size="42" stroke-width="1" font-style="normal" transform="matrix(0.999811,0,0,0.999811,36.3238,1366.45)" stroke="#ffffff" font-weight="400" stroke-linecap="square" stroke-linejoin="bevel">
   <text font-family="Ubuntu" fill="#ffffff" font-size="42" font-style="normal" xml:space="preserve" stroke="none" font-weight="400" x="0" fill-opacity="1" y="0">Батецкая</text>
  </g>
  <g font-family="Ubuntu" fill="none" stroke-opacity="1" font-size="45.8333" stroke-width="1" font-style="normal" transform="matrix(0.999811,0,0,0.999811,0,0)" stroke="#000000" font-weight="400" stroke-linecap="square" stroke-linejoin="bevel"/>
  <g font-family="Ubuntu" fill="none" stroke-opacity="1" font-size="42" stroke-width="1" font-style="normal" transform="matrix(0.999811,0,0,0.999811,36.3238,1414.44)" stroke="#ffffff" font-weight="400" stroke-linecap="square" stroke-linejoin="bevel">
   <text font-family="Ubuntu" fill="#ffffff" font-size="42" font-style="normal" xml:space="preserve" stroke="none" font-weight="400" x="0" fill-opacity="1" y="0">Batetskaya</text>
  </g>
  <g font-family="Ubuntu" fill="none" stroke-opacity="1" font-size="45.8333" stroke-width="1" font-style="normal" transform="matrix(0.999811,0,0,0.999811,0,0)" stroke="#000000" font-weight="400" stroke-linecap="square" stroke-linejoin="bevel"/>
  <g font-family="Ubuntu" fill="none" stroke-opacity="1" font-size="45.8333" stroke-width="1" font-style="normal" transform="matrix(0.319939,0,0,0.319939,1356.8,709.365)" stroke="#000000" font-weight="400" stroke-linecap="square" stroke-linejoin="bevel"/>
  <g font-family="Ubuntu" fill="#6d6d6d" font-size="45.8333" font-style="normal" transform="matrix(0.999811,0,0,0.999811,1356.8,709.365)" stroke="none" font-weight="400" fill-opacity="0.694118">
   <path vector-effect="non-scaling-stroke" d="M-98.9641,-49.3 L98.9641,-49.3 L98.9641,49.3 L-98.9641,49.3 L-98.9641,-49.3" fill-rule="evenodd"/>
  </g>
  <g font-family="Ubuntu" fill="none" stroke-opacity="1" font-size="45.8333" stroke-width="1" font-style="normal" transform="matrix(0.319939,0,0,0.319939,1356.8,709.365)" stroke="#000000" font-weight="400" stroke-linecap="square" stroke-linejoin="bevel"/>
  <g font-family="Ubuntu" fill="none" stroke-opacity="1" font-size="45.8333" stroke-width="1" font-style="normal" transform="matrix(0.999811,0,0,0.999811,0,0)" stroke="#000000" font-weight="400" stroke-linecap="square" stroke-linejoin="bevel"/>
  <g font-family="Ubuntu" fill="none" stroke-opacity="1" font-size="42" stroke-width="1" font-style="normal" transform="matrix(0.999811,0,0,0.999811,1259.16,699.367)" stroke="#ffffff" font-weight="400" stroke-linecap="square" stroke-linejoin="bevel">
   <text font-family="Ubuntu" fill="#ffffff" font-size="42" font-style="normal" xml:space="preserve" stroke="none" font-weight="400" x="0" fill-opacity="1" y="0">Бугодошь</text>
  </g>
  <g font-family="Ubuntu" fill="none" stroke-opacity="1" font-size="45.8333" stroke-width="1" font-style="normal" transform="matrix(0.999811,0,0,0.999811,0,0)" stroke="#000000" font-weight="400" stroke-linecap="square" stroke-linejoin="bevel"/>
  <g font-family="Ubuntu" fill="none" stroke-opacity="1" font-size="42" stroke-width="1" font-style="normal" transform="matrix(0.999811,0,0,0.999811,1259.16,747.358)" stroke="#ffffff" font-weight="400" stroke-linecap="square" stroke-linejoin="bevel">
   <text font-family="Ubuntu" fill="#ffffff" font-size="42" font-style="normal" xml:space="preserve" stroke="none" font-weight="400" x="0" fill-opacity="1" y="0">Bugodosh</text>
  </g>
  <g font-family="Ubuntu" fill="none" stroke-opacity="1" font-size="45.8333" stroke-width="1" font-style="normal" transform="matrix(0.999811,0,0,0.999811,0,0)" stroke="#000000" font-weight="400" stroke-linecap="square" stroke-linejoin="bevel"/>
  <g font-family="Ubuntu" fill="none" stroke-opacity="1" font-size="45.8333" stroke-width="1" font-style="normal" transform="matrix(0.319939,0,0,0.319939,664.72,1526.88)" stroke="#000000" font-weight="400" stroke-linecap="square" stroke-linejoin="bevel"/>
  <g font-family="Ubuntu" fill="#6d6d6d" font-size="45.8333" font-style="normal" transform="matrix(0.999811,0,0,0.999811,664.72,1526.88)" stroke="none" font-weight="400" fill-opacity="0.694118">
   <path vector-effect="non-scaling-stroke" d="M-98.5578,-49.3 L98.5578,-49.3 L98.5578,49.3 L-98.5578,49.3 L-98.5578,-49.3" fill-rule="evenodd"/>
  </g>
  <g font-family="Ubuntu" fill="none" stroke-opacity="1" font-size="45.8333" stroke-width="1" font-style="normal" transform="matrix(0.319939,0,0,0.319939,664.72,1526.88)" stroke="#000000" font-weight="400" stroke-linecap="square" stroke-linejoin="bevel"/>
  <g font-family="Ubuntu" fill="none" stroke-opacity="1" font-size="45.8333" stroke-width="1" font-style="normal" transform="matrix(0.999811,0,0,0.999811,0,0)" stroke="#000000" font-weight="400" stroke-linecap="square" stroke-linejoin="bevel"/>
  <g font-family="Ubuntu" fill="none" stroke-opacity="1" font-size="42" stroke-width="1" font-style="normal" transform="matrix(0.999811,0,0,0.999811,567.481,1516.89)" stroke="#ffffff" font-weight="400" stroke-linecap="square" stroke-linejoin="bevel">
   <text font-family="Ubuntu" fill="#ffffff" font-size="42" font-style="normal" xml:space="preserve" stroke="none" font-weight="400" x="0" fill-opacity="1" y="0">Новгород</text>
  </g>
  <g font-family="Ubuntu" fill="none" stroke-opacity="1" font-size="45.8333" stroke-width="1" font-style="normal" transform="matrix(0.999811,0,0,0.999811,0,0)" stroke="#000000" font-weight="400" stroke-linecap="square" stroke-linejoin="bevel"/>
  <g font-family="Ubuntu" fill="none" stroke-opacity="1" font-size="42" stroke-width="1" font-style="normal" transform="matrix(0.999811,0,0,0.999811,567.481,1564.88)" stroke="#ffffff" font-weight="400" stroke-linecap="square" stroke-linejoin="bevel">
   <text font-family="Ubuntu" fill="#ffffff" font-size="42" font-style="normal" xml:space="preserve" stroke="none" font-weight="400" x="0" fill-opacity="1" y="0">Novgorod</text>
  </g>
  <g font-family="Ubuntu" fill="none" stroke-opacity="1" font-size="45.8333" stroke-width="1" font-style="normal" transform="matrix(0.999811,0,0,0.999811,0,0)" stroke="#000000" font-weight="400" stroke-linecap="square" stroke-linejoin="bevel"/>
  <g font-family="Ubuntu" fill="none" stroke-opacity="1" font-size="45.8333" stroke-width="1" font-style="normal" transform="matrix(0.319939,0,0,0.319939,1837.35,1707.9)" stroke="#000000" font-weight="400" stroke-linecap="square" stroke-linejoin="bevel"/>
  <g font-family="Ubuntu" fill="#6d6d6d" font-size="45.8333" font-style="normal" transform="matrix(0.999811,0,0,0.999811,1837.35,1707.9)" stroke="none" font-weight="400" fill-opacity="0.694118">
   <path vector-effect="non-scaling-stroke" d="M-97.425,-49.3 L97.425,-49.3 L97.425,49.3 L-97.425,49.3 L-97.425,-49.3" fill-rule="evenodd"/>
  </g>
  <g font-family="Ubuntu" fill="none" stroke-opacity="1" font-size="45.8333" stroke-width="1" font-style="normal" transform="matrix(0.319939,0,0,0.319939,1837.35,1707.9)" stroke="#000000" font-weight="400" stroke-linecap="square" stroke-linejoin="bevel"/>
  <g font-family="Ubuntu" fill="none" stroke-opacity="1" font-size="45.8333" stroke-width="1" font-style="normal" transform="matrix(0.999811,0,0,0.999811,0,0)" stroke="#000000" font-weight="400" stroke-linecap="square" stroke-linejoin="bevel"/>
  <g font-family="Ubuntu" fill="none" stroke-opacity="1" font-size="42" stroke-width="1" font-style="normal" transform="matrix(0.999811,0,0,0.999811,1741.24,1697.9)" stroke="#ffffff" font-weight="400" stroke-linecap="square" stroke-linejoin="bevel">
   <text font-family="Ubuntu" fill="#ffffff" font-size="42" font-style="normal" xml:space="preserve" stroke="none" font-weight="400" x="0" fill-opacity="1" y="0">Окуловка</text>
  </g>
  <g font-family="Ubuntu" fill="none" stroke-opacity="1" font-size="45.8333" stroke-width="1" font-style="normal" transform="matrix(0.999811,0,0,0.999811,0,0)" stroke="#000000" font-weight="400" stroke-linecap="square" stroke-linejoin="bevel"/>
  <g font-family="Ubuntu" fill="none" stroke-opacity="1" font-size="42" stroke-width="1" font-style="normal" transform="matrix(0.999811,0,0,0.999811,1741.24,1745.89)" stroke="#ffffff" font-weight="400" stroke-linecap="square" stroke-linejoin="bevel">
   <text font-family="Ubuntu" fill="#ffffff" font-size="42" font-style="normal" xml:space="preserve" stroke="none" font-weight="400" x="0" fill-opacity="1" y="0">Okulovka</text>
  </g>
  <g font-family="Ubuntu" fill="none" stroke-opacity="1" font-size="45.8333" stroke-width="1" font-style="normal" transform="matrix(0.999811,0,0,0.999811,0,0)" stroke="#000000" font-weight="400" stroke-linecap="square" stroke-linejoin="bevel"/>
  <g font-family="Ubuntu" fill="none" stroke-opacity="1" font-size="45.8333" stroke-width="1" font-style="normal" transform="matrix(0.319939,0,0,0.319939,2278.13,2236.16)" stroke="#000000" font-weight="400" stroke-linecap="square" stroke-linejoin="bevel"/>
  <g font-family="Ubuntu" fill="#6d6d6d" font-size="45.8333" font-style="normal" transform="matrix(0.999811,0,0,0.999811,2278.13,2236.16)" stroke="none" font-weight="400" fill-opacity="0.694118">
   <path vector-effect="non-scaling-stroke" d="M-91.675,-49.3 L91.675,-49.3 L91.675,49.3 L-91.675,49.3 L-91.675,-49.3" fill-rule="evenodd"/>
  </g>
  <g font-family="Ubuntu" fill="none" stroke-opacity="1" font-size="45.8333" stroke-width="1" font-style="normal" transform="matrix(0.319939,0,0,0.319939,2278.13,2236.16)" stroke="#000000" font-weight="400" stroke-linecap="square" stroke-linejoin="bevel"/>
  <g font-family="Ubuntu" fill="none" stroke-opacity="1" font-size="45.8333" stroke-width="1" font-style="normal" transform="matrix(0.999811,0,0,0.999811,0,0)" stroke="#000000" font-weight="400" stroke-linecap="square" stroke-linejoin="bevel"/>
  <g font-family="Ubuntu" fill="none" stroke-opacity="1" font-size="42" stroke-width="1" font-style="normal" transform="matrix(0.999811,0,0,0.999811,2187.77,2226.16)" stroke="#ffffff" font-weight="400" stroke-linecap="square" stroke-linejoin="bevel">
   <text font-family="Ubuntu" fill="#ffffff" font-size="42" font-style="normal" xml:space="preserve" stroke="none" font-weight="400" x="0" fill-opacity="1" y="0">Бологое</text>
  </g>
  <g font-family="Ubuntu" fill="none" stroke-opacity="1" font-size="45.8333" stroke-width="1" font-style="normal" transform="matrix(0.999811,0,0,0.999811,0,0)" stroke="#000000" font-weight="400" stroke-linecap="square" stroke-linejoin="bevel"/>
  <g font-family="Ubuntu" fill="none" stroke-opacity="1" font-size="42" stroke-width="1" font-style="normal" transform="matrix(0.999811,0,0,0.999811,2187.77,2274.15)" stroke="#ffffff" font-weight="400" stroke-linecap="square" stroke-linejoin="bevel">
   <text font-family="Ubuntu" fill="#ffffff" font-size="42" font-style="normal" xml:space="preserve" stroke="none" font-weight="400" x="0" fill-opacity="1" y="0">Bologoye</text>
  </g>
  <g font-family="Ubuntu" fill="none" stroke-opacity="1" font-size="45.8333" stroke-width="1" font-style="normal" transform="matrix(0.999811,0,0,0.999811,0,0)" stroke="#000000" font-weight="400" stroke-linecap="square" stroke-linejoin="bevel"/>
  <g font-family="Ubuntu" fill="none" stroke-opacity="1" font-size="45.8333" stroke-width="1" font-style="normal" transform="matrix(0.319939,0,0,0.319939,1850.76,887.099)" stroke="#000000" font-weight="400" stroke-linecap="square" stroke-linejoin="bevel"/>
  <g font-family="Ubuntu" fill="#6d6d6d" font-size="45.8333" font-style="normal" transform="matrix(0.999811,0,0,0.999811,1850.76,887.099)" stroke="none" font-weight="400" fill-opacity="0.694118">
   <path vector-effect="non-scaling-stroke" d="M-88.9875,-49.3 L88.9875,-49.3 L88.9875,49.3 L-88.9875,49.3 L-88.9875,-49.3" fill-rule="evenodd"/>
  </g>
  <g font-family="Ubuntu" fill="none" stroke-opacity="1" font-size="45.8333" stroke-width="1" font-style="normal" transform="matrix(0.319939,0,0,0.319939,1850.76,887.099)" stroke="#000000" font-weight="400" stroke-linecap="square" stroke-linejoin="bevel"/>
  <g font-family="Ubuntu" fill="none" stroke-opacity="1" font-size="45.8333" stroke-width="1" font-style="normal" transform="matrix(0.999811,0,0,0.999811,0,0)" stroke="#000000" font-weight="400" stroke-linecap="square" stroke-linejoin="bevel"/>
  <g font-family="Ubuntu" fill="none" stroke-opacity="1" font-size="42" stroke-width="1" font-style="normal" transform="matrix(0.999811,0,0,0.999811,1763.09,877.101)" stroke="#ffffff" font-weight="400" stroke-linecap="square" stroke-linejoin="bevel">
   <text font-family="Ubuntu" fill="#ffffff" font-size="42" font-style="normal" xml:space="preserve" stroke="none" font-weight="400" x="0" fill-opacity="1" y="0">Неболчи</text>
  </g>
  <g font-family="Ubuntu" fill="none" stroke-opacity="1" font-size="45.8333" stroke-width="1" font-style="normal" transform="matrix(0.999811,0,0,0.999811,0,0)" stroke="#000000" font-weight="400" stroke-linecap="square" stroke-linejoin="bevel"/>
  <g font-family="Ubuntu" fill="none" stroke-opacity="1" font-size="42" stroke-width="1" font-style="normal" transform="matrix(0.999811,0,0,0.999811,1763.09,925.091)" stroke="#ffffff" font-weight="400" stroke-linecap="square" stroke-linejoin="bevel">
   <text font-family="Ubuntu" fill="#ffffff" font-size="42" font-style="normal" xml:space="preserve" stroke="none" font-weight="400" x="0" fill-opacity="1" y="0">Nebolchi</text>
  </g>
  <g font-family="Ubuntu" fill="none" stroke-opacity="1" font-size="45.8333" stroke-width="1" font-style="normal" transform="matrix(0.999811,0,0,0.999811,0,0)" stroke="#000000" font-weight="400" stroke-linecap="square" stroke-linejoin="bevel"/>
  <g font-family="Ubuntu" fill="none" stroke-opacity="1" font-size="45.8333" stroke-width="1" font-style="normal" transform="matrix(0.319939,0,0,0.319939,908.621,877.525)" stroke="#000000" font-weight="400" stroke-linecap="square" stroke-linejoin="bevel"/>
  <g font-family="Ubuntu" fill="#6d6d6d" font-size="45.8333" font-style="normal" transform="matrix(0.999811,0,0,0.999811,908.621,877.525)" stroke="none" font-weight="400" fill-opacity="0.694118">
   <path vector-effect="non-scaling-stroke" d="M-85.425,-49.3 L85.425,-49.3 L85.425,49.3 L-85.425,49.3 L-85.425,-49.3" fill-rule="evenodd"/>
  </g>
  <g font-family="Ubuntu" fill="none" stroke-opacity="1" font-size="45.8333" stroke-width="1" font-style="normal" transform="matrix(0.319939,0,0,0.319939,908.621,877.525)" stroke="#000000" font-weight="400" stroke-linecap="square" stroke-linejoin="bevel"/>
  <g font-family="Ubuntu" fill="none" stroke-opacity="1" font-size="45.8333" stroke-width="1" font-style="normal" transform="matrix(0.999811,0,0,0.999811,0,0)" stroke="#000000" font-weight="400" stroke-linecap="square" stroke-linejoin="bevel"/>
  <g font-family="Ubuntu" fill="none" stroke-opacity="1" font-size="42" stroke-width="1" font-style="normal" transform="matrix(0.999811,0,0,0.999811,824.512,867.527)" stroke="#ffffff" font-weight="400" stroke-linecap="square" stroke-linejoin="bevel">
   <text font-family="Ubuntu" fill="#ffffff" font-size="42" font-style="normal" xml:space="preserve" stroke="none" font-weight="400" x="0" fill-opacity="1" y="0">Чудово</text>
  </g>
  <g font-family="Ubuntu" fill="none" stroke-opacity="1" font-size="45.8333" stroke-width="1" font-style="normal" transform="matrix(0.999811,0,0,0.999811,0,0)" stroke="#000000" font-weight="400" stroke-linecap="square" stroke-linejoin="bevel"/>
  <g font-family="Ubuntu" fill="none" stroke-opacity="1" font-size="42" stroke-width="1" font-style="normal" transform="matrix(0.999811,0,0,0.999811,824.512,915.518)" stroke="#ffffff" font-weight="400" stroke-linecap="square" stroke-linejoin="bevel">
   <text font-family="Ubuntu" fill="#ffffff" font-size="42" font-style="normal" xml:space="preserve" stroke="none" font-weight="400" x="0" fill-opacity="1" y="0">Chudovo</text>
  </g>
  <g font-family="Ubuntu" fill="none" stroke-opacity="1" font-size="45.8333" stroke-width="1" font-style="normal" transform="matrix(0.999811,0,0,0.999811,0,0)" stroke="#000000" font-weight="400" stroke-linecap="square" stroke-linejoin="bevel"/>
  <g font-family="Ubuntu" fill="none" stroke-opacity="1" font-size="45.8333" stroke-width="1" font-style="normal" transform="matrix(0.319939,0,0,0.319939,1107.81,515.389)" stroke="#000000" font-weight="400" stroke-linecap="square" stroke-linejoin="bevel"/>
  <g font-family="Ubuntu" fill="#6d6d6d" font-size="45.8333" font-style="normal" transform="matrix(0.999811,0,0,0.999811,1107.81,515.389)" stroke="none" font-weight="400" fill-opacity="0.694118">
   <path vector-effect="non-scaling-stroke" d="M-81.7453,-49.3 L81.7453,-49.3 L81.7453,49.3 L-81.7453,49.3 L-81.7453,-49.3" fill-rule="evenodd"/>
  </g>
  <g font-family="Ubuntu" fill="none" stroke-opacity="1" font-size="45.8333" stroke-width="1" font-style="normal" transform="matrix(0.319939,0,0,0.319939,1107.81,515.389)" stroke="#000000" font-weight="400" stroke-linecap="square" stroke-linejoin="bevel"/>
  <g font-family="Ubuntu" fill="none" stroke-opacity="1" font-size="45.8333" stroke-width="1" font-style="normal" transform="matrix(0.999811,0,0,0.999811,0,0)" stroke="#000000" font-weight="400" stroke-linecap="square" stroke-linejoin="bevel"/>
  <g font-family="Ubuntu" fill="none" stroke-opacity="1" font-size="42" stroke-width="1" font-style="normal" transform="matrix(0.999811,0,0,0.999811,1027.38,505.391)" stroke="#ffffff" font-weight="400" stroke-linecap="square" stroke-linejoin="bevel">
   <text font-family="Ubuntu" fill="#ffffff" font-size="42" font-style="normal" xml:space="preserve" stroke="none" font-weight="400" x="0" fill-opacity="1" y="0">Кириши</text>
  </g>
  <g font-family="Ubuntu" fill="none" stroke-opacity="1" font-size="45.8333" stroke-width="1" font-style="normal" transform="matrix(0.999811,0,0,0.999811,0,0)" stroke="#000000" font-weight="400" stroke-linecap="square" stroke-linejoin="bevel"/>
  <g font-family="Ubuntu" fill="none" stroke-opacity="1" font-size="42" stroke-width="1" font-style="normal" transform="matrix(0.999811,0,0,0.999811,1027.38,553.382)" stroke="#ffffff" font-weight="400" stroke-linecap="square" stroke-linejoin="bevel">
   <text font-family="Ubuntu" fill="#ffffff" font-size="42" font-style="normal" xml:space="preserve" stroke="none" font-weight="400" x="0" fill-opacity="1" y="0">Kirishi</text>
  </g>
  <g font-family="Ubuntu" fill="none" stroke-opacity="1" font-size="45.8333" stroke-width="1" font-style="normal" transform="matrix(0.999811,0,0,0.999811,0,0)" stroke="#000000" font-weight="400" stroke-linecap="square" stroke-linejoin="bevel"/>
  <g font-family="Ubuntu" fill="none" stroke-opacity="1" font-size="45.8333" stroke-width="1" font-style="normal" transform="matrix(0.319939,0,0,0.319939,1920.1,322.51)" stroke="#000000" font-weight="400" stroke-linecap="square" stroke-linejoin="bevel"/>
  <g font-family="Ubuntu" fill="#6d6d6d" font-size="45.8333" font-style="normal" transform="matrix(0.999811,0,0,0.999811,1920.1,322.51)" stroke="none" font-weight="400" fill-opacity="0.694118">
   <path vector-effect="non-scaling-stroke" d="M-71.2062,-49.3 L71.2062,-49.3 L71.2062,49.3 L-71.2062,49.3 L-71.2062,-49.3" fill-rule="evenodd"/>
  </g>
  <g font-family="Ubuntu" fill="none" stroke-opacity="1" font-size="45.8333" stroke-width="1" font-style="normal" transform="matrix(0.319939,0,0,0.319939,1920.1,322.51)" stroke="#000000" font-weight="400" stroke-linecap="square" stroke-linejoin="bevel"/>
  <g font-family="Ubuntu" fill="none" stroke-opacity="1" font-size="45.8333" stroke-width="1" font-style="normal" transform="matrix(0.999811,0,0,0.999811,0,0)" stroke="#000000" font-weight="400" stroke-linecap="square" stroke-linejoin="bevel"/>
  <g font-family="Ubuntu" fill="none" stroke-opacity="1" font-size="42" stroke-width="1" font-style="normal" transform="matrix(0.999811,0,0,0.999811,1850.21,312.512)" stroke="#ffffff" font-weight="400" stroke-linecap="square" stroke-linejoin="bevel">
   <text font-family="Ubuntu" fill="#ffffff" font-size="42" font-style="normal" xml:space="preserve" stroke="none" font-weight="400" x="0" fill-opacity="1" y="0">Тихвин</text>
  </g>
  <g font-family="Ubuntu" fill="none" stroke-opacity="1" font-size="45.8333" stroke-width="1" font-style="normal" transform="matrix(0.999811,0,0,0.999811,0,0)" stroke="#000000" font-weight="400" stroke-linecap="square" stroke-linejoin="bevel"/>
  <g font-family="Ubuntu" fill="none" stroke-opacity="1" font-size="42" stroke-width="1" font-style="normal" transform="matrix(0.999811,0,0,0.999811,1850.21,360.503)" stroke="#ffffff" font-weight="400" stroke-linecap="square" stroke-linejoin="bevel">
   <text font-family="Ubuntu" fill="#ffffff" font-size="42" font-style="normal" xml:space="preserve" stroke="none" font-weight="400" x="0" fill-opacity="1" y="0">Tikhvin</text>
  </g>
  <g font-family="Ubuntu" fill="none" stroke-opacity="1" font-size="45.8333" stroke-width="1" font-style="normal" transform="matrix(0.999811,0,0,0.999811,0,0)" stroke="#000000" font-weight="400" stroke-linecap="square" stroke-linejoin="bevel"/>
  <g font-family="Ubuntu" fill="none" stroke-opacity="1" font-size="45.8333" stroke-width="1" font-style="normal" transform="matrix(11.8088,0,0,11.8088,0,0)" stroke="#000000" font-weight="400" stroke-linecap="square" stroke-linejoin="bevel"/>
  <g font-family="Ubuntu" fill="none" stroke-opacity="1" font-size="45.8333" stroke-width="1" font-style="normal" transform="matrix(11.8088,0,0,11.8088,0,0)" stroke="#000000" font-weight="400" stroke-linecap="square" stroke-linejoin="bevel"/>
  <g font-family="Ubuntu" fill="none" stroke-opacity="1" font-size="45.8333" stroke-width="1" font-style="normal" transform="matrix(11.8088,0,0,11.8088,0,0)" stroke="#000000" font-weight="400" stroke-linecap="square" stroke-linejoin="bevel"/>
  <g font-family="Ubuntu" fill="none" stroke-opacity="0.184314" font-size="45.8333" stroke-width="3.54331" font-style="normal" transform="matrix(0.999811,0,0,0.999811,0,0)" stroke="#000000" font-weight="400" stroke-linecap="butt" stroke-linejoin="bevel">
   <path vector-effect="none" d="M82.3968,0 L82.3968,2393.22" fill-rule="evenodd"/>
   <path vector-effect="none" d="M180.869,0 L180.869,2393.22" fill-rule="evenodd"/>
   <path vector-effect="none" d="M279.34,0 L279.34,2393.22" fill-rule="evenodd"/>
   <path vector-effect="none" d="M377.812,0 L377.812,2393.22" fill-rule="evenodd"/>
   <path vector-effect="none" d="M476.284,0 L476.284,2393.22" fill-rule="evenodd"/>
   <path vector-effect="none" d="M574.756,0 L574.756,2393.22" fill-rule="evenodd"/>
   <path vector-effect="none" d="M673.228,0 L673.228,2393.22" fill-rule="evenodd"/>
   <path vector-effect="none" d="M771.7,0 L771.7,2393.22" fill-rule="evenodd"/>
   <path vector-effect="none" d="M870.172,0 L870.172,2393.22" fill-rule="evenodd"/>
   <path vector-effect="none" d="M968.643,0 L968.643,2393.22" fill-rule="evenodd"/>
   <path vector-effect="none" d="M1067.12,0 L1067.12,2393.22" fill-rule="evenodd"/>
   <path vector-effect="none" d="M1165.59,0 L1165.59,2393.22" fill-rule="evenodd"/>
   <path vector-effect="none" d="M1264.06,0 L1264.06,2393.22" fill-rule="evenodd"/>
   <path vector-effect="none" d="M1362.53,0 L1362.53,2393.22" fill-rule="evenodd"/>
   <path vector-effect="none" d="M1461,0 L1461,2393.22" fill-rule="evenodd"/>
   <path vector-effect="none" d="M1559.47,0 L1559.47,2393.22" fill-rule="evenodd"/>
   <path vector-effect="none" d="M1657.95,0 L1657.95,2393.22" fill-rule="evenodd"/>
   <path vector-effect="none" d="M1756.42,0 L1756.42,2393.22" fill-rule="evenodd"/>
   <path vector-effect="none" d="M1854.89,0 L1854.89,2393.22" fill-rule="evenodd"/>
   <path vector-effect="none" d="M1953.36,0 L1953.36,2393.22" fill-rule="evenodd"/>
   <path vector-effect="none" d="M2051.83,0 L2051.83,2393.22" fill-rule="evenodd"/>
   <path vector-effect="none" d="M2150.31,0 L2150.31,2393.22" fill-rule="evenodd"/>
   <path vector-effect="none" d="M2248.78,0 L2248.78,2393.22" fill-rule="evenodd"/>
   <path vector-effect="none" d="M2347.25,0 L2347.25,2393.22" fill-rule="evenodd"/>
   <path vector-effect="none" d="M2445.72,0 L2445.72,2393.22" fill-rule="evenodd"/>
   <path vector-effect="none" d="M0,2355.69 L2497.47,2355.69" fill-rule="evenodd"/>
   <path vector-effect="none" d="M0,2257.22 L2497.47,2257.22" fill-rule="evenodd"/>
   <path vector-effect="none" d="M0,2158.74 L2497.47,2158.74" fill-rule="evenodd"/>
   <path vector-effect="none" d="M0,2060.27 L2497.47,2060.27" fill-rule="evenodd"/>
   <path vector-effect="none" d="M0,1961.8 L2497.47,1961.8" fill-rule="evenodd"/>
   <path vector-effect="none" d="M0,1863.33 L2497.47,1863.33" fill-rule="evenodd"/>
   <path vector-effect="none" d="M0,1764.86 L2497.47,1764.86" fill-rule="evenodd"/>
   <path vector-effect="none" d="M0,1666.39 L2497.47,1666.39" fill-rule="evenodd"/>
   <path vector-effect="none" d="M0,1567.91 L2497.47,1567.91" fill-rule="evenodd"/>
   <path vector-effect="none" d="M0,1469.44 L2497.47,1469.44" fill-rule="evenodd"/>
   <path vector-effect="none" d="M0,1370.97 L2497.47,1370.97" fill-rule="evenodd"/>
   <path vector-effect="none" d="M0,1272.5 L2497.47,1272.5" fill-rule="evenodd"/>
   <path vector-effect="none" d="M0,1174.03 L2497.47,1174.03" fill-rule="evenodd"/>
   <path vector-effect="none" d="M0,1075.55 L2497.47,1075.55" fill-rule="evenodd"/>
   <path vector-effect="none" d="M0,977.082 L2497.47,977.082" fill-rule="evenodd"/>
   <path vector-effect="none" d="M0,878.61 L2497.47,878.61" fill-rule="evenodd"/>
   <path vector-effect="none" d="M0,780.138 L2497.47,780.138" fill-rule="evenodd"/>
   <path vector-effect="none" d="M0,681.667 L2497.47,681.667" fill-rule="evenodd"/>
   <path vector-effect="none" d="M0,583.195 L2497.47,583.195" fill-rule="evenodd"/>
   <path vector-effect="none" d="M0,484.723 L2497.47,484.723" fill-rule="evenodd"/>
   <path vector-effect="none" d="M0,386.251 L2497.47,386.251" fill-rule="evenodd"/>
   <path vector-effect="none" d="M0,287.779 L2497.47,287.779" fill-rule="evenodd"/>
   <path vector-effect="none" d="M0,189.307 L2497.47,189.307" fill-rule="evenodd"/>
   <path vector-effect="none" d="M0,90.8355 L2497.47,90.8355" fill-rule="evenodd"/>
  </g>
  <g font-family="Ubuntu" fill="none" stroke-opacity="0.184314" font-size="45.8333" stroke-width="3.54331" font-style="normal" transform="matrix(0.999811,0,0,0.999811,0,0)" stroke="#000000" font-weight="400" stroke-linecap="butt" stroke-linejoin="bevel"/>
  <g font-family="Ubuntu" fill="none" stroke-opacity="0.184314" font-size="45.8333" stroke-width="3.54331" font-style="normal" transform="matrix(11.8088,0,0,11.8088,0,0)" stroke="#000000" font-weight="400" stroke-linecap="butt" stroke-linejoin="bevel"/>
  <g font-family="Ubuntu" fill="none" stroke-opacity="1" font-size="45.8333" stroke-width="1" font-style="normal" transform="matrix(11.8088,0,0,11.8088,0,0)" stroke="#000000" font-weight="400" stroke-linecap="square" stroke-linejoin="bevel"/>
  <g font-family="Ubuntu" fill="none" stroke-opacity="1" font-size="45.8333" stroke-width="1" font-style="normal" transform="matrix(11.8088,0,0,11.8088,0,0)" stroke="#000000" font-weight="400" stroke-linecap="square" stroke-linejoin="bevel"/>
  <g font-family="Ubuntu" fill="none" stroke-opacity="1" font-size="45.8333" stroke-width="1" font-style="normal" transform="matrix(1,0,0,1,0,0)" stroke="#000000" font-weight="400" stroke-linecap="square" stroke-linejoin="bevel"/>
  <g font-family="Ubuntu" fill="none" stroke-opacity="1" font-size="45.8333" stroke-width="1" font-style="normal" transform="matrix(11.8088,0,0,11.8088,0,0)" stroke="#000000" font-weight="400" stroke-linecap="square" stroke-linejoin="bevel"/>
  <g font-family="Ubuntu" fill="none" stroke-opacity="1" font-size="45.8333" stroke-width="1" font-style="normal" transform="matrix(11.8088,0,0,11.8088,0,0)" stroke="#000000" font-weight="400" stroke-linecap="square" stroke-linejoin="bevel"/>
  <g font-family="Ubuntu" fill="none" stroke-opacity="1" font-size="45.8333" stroke-width="1" font-style="normal" transform="matrix(11.8088,0,0,11.8088,0,2240.35)" stroke="#000000" font-weight="400" stroke-linecap="square" stroke-linejoin="bevel"/>
  <g font-family="Ubuntu" fill="none" stroke-opacity="1" font-size="45.8333" stroke-width="1" font-style="normal" transform="matrix(0.999811,0,0,0.999811,0,2240.35)" stroke="#000000" font-weight="400" stroke-linecap="square" stroke-linejoin="bevel"/>
  <g font-family="Ubuntu" fill="none" stroke-miterlimit="2" stroke-opacity="1" font-size="45.8333" stroke-width="3.54331" font-style="normal" transform="matrix(0.999811,0,0,0.999811,0,2240.35)" stroke="#000000" font-weight="400" stroke-linecap="square" stroke-linejoin="miter">
   <path vector-effect="none" d="M29.4481,129.677 L29.4481,94.2441" fill-rule="evenodd"/>
   <path vector-effect="none" d="M127.92,129.677 L127.92,94.2441" fill-rule="evenodd"/>
   <path vector-effect="none" d="M29.4481,111.961 L127.92,111.961" fill-rule="evenodd"/>
  </g>
  <g font-family="Ubuntu" fill="none" stroke-opacity="1" font-size="45.8333" stroke-width="1" font-style="normal" transform="matrix(0.999811,0,0,0.999811,0,2240.35)" stroke="#000000" font-weight="400" stroke-linecap="square" stroke-linejoin="bevel"/>
  <g font-family="Ubuntu" fill="none" stroke-opacity="1" font-size="50" stroke-width="1" font-style="normal" transform="matrix(0.999811,0,0,0.999811,15.3514,2299.15)" stroke="#000000" font-weight="400" stroke-linecap="square" stroke-linejoin="bevel">
   <text font-family="Ubuntu" fill="#000000" font-size="50" font-style="normal" xml:space="preserve" stroke="none" font-weight="400" x="0" fill-opacity="1" y="0">0</text>
  </g>
  <g font-family="Ubuntu" fill="none" stroke-opacity="1" font-size="45.8333" stroke-width="1" font-style="normal" transform="matrix(0.999811,0,0,0.999811,0,2240.35)" stroke="#000000" font-weight="400" stroke-linecap="square" stroke-linejoin="bevel"/>
  <g font-family="Ubuntu" fill="none" stroke-opacity="1" font-size="50" stroke-width="1" font-style="normal" transform="matrix(0.999811,0,0,0.999811,99.7135,2299.15)" stroke="#000000" font-weight="400" stroke-linecap="square" stroke-linejoin="bevel">
   <text font-family="Ubuntu" fill="#000000" font-size="50" font-style="normal" xml:space="preserve" stroke="none" font-weight="400" x="0" fill-opacity="1" y="0">10 km</text>
  </g>
  <g font-family="Ubuntu" fill="none" stroke-opacity="1" font-size="45.8333" stroke-width="1" font-style="normal" transform="matrix(0.999811,0,0,0.999811,0,2240.35)" stroke="#000000" font-weight="400" stroke-linecap="square" stroke-linejoin="bevel"/>
  <g font-family="Ubuntu" fill="none" stroke-opacity="1" font-size="45.8333" stroke-width="1" font-style="normal" transform="matrix(0.999811,0,0,0.999811,0,2240.35)" stroke="#000000" font-weight="400" stroke-linecap="square" stroke-linejoin="bevel"/>
  <g font-family="Ubuntu" fill="none" stroke-opacity="1" font-size="45.8333" stroke-width="1" font-style="normal" transform="matrix(11.8088,0,0,11.8088,0,2240.35)" stroke="#000000" font-weight="400" stroke-linecap="square" stroke-linejoin="bevel"/>
  <g font-family="Ubuntu" fill="none" stroke-opacity="1" font-size="45.8333" stroke-width="1" font-style="normal" transform="matrix(11.8088,0,0,11.8088,0,2240.35)" stroke="#000000" font-weight="400" stroke-linecap="square" stroke-linejoin="bevel"/>
  <g font-family="Ubuntu" fill="none" stroke-opacity="1" font-size="45.8333" stroke-width="1" font-style="normal" transform="matrix(11.8088,0,0,11.8088,1724.16,2209.17)" stroke="#000000" font-weight="400" stroke-linecap="square" stroke-linejoin="bevel"/>
  <g font-family="Ubuntu" fill="none" stroke-opacity="1" font-size="45.8333" stroke-width="1" font-style="normal" transform="matrix(0.999811,0,0,0.999811,1724.16,2209.17)" stroke="#000000" font-weight="400" stroke-linecap="square" stroke-linejoin="bevel"/>
  <g font-family="Ubuntu" fill="none" stroke-opacity="1" font-size="417" stroke-width="1" font-style="normal" transform="matrix(0.0999811,0,0,0.0999811,1910.95,2382.04)" stroke="#000000" font-weight="400" stroke-linecap="square" stroke-linejoin="bevel">
   <text font-family="Ubuntu" fill="#000000" font-size="417" font-style="normal" xml:space="preserve" stroke="none" font-weight="400" x="0" fill-opacity="1" y="0">basemap data: Openstreetmap</text>
  </g>
  <g font-family="Ubuntu" fill="none" stroke-opacity="1" font-size="45.8333" stroke-width="1" font-style="normal" transform="matrix(0.999811,0,0,0.999811,1724.16,2209.17)" stroke="#000000" font-weight="400" stroke-linecap="square" stroke-linejoin="bevel"/>
  <g font-family="Ubuntu" fill="none" stroke-opacity="1" font-size="45.8333" stroke-width="1" font-style="normal" transform="matrix(0.999811,0,0,0.999811,1724.16,2209.17)" stroke="#000000" font-weight="400" stroke-linecap="square" stroke-linejoin="bevel"/>
  <g font-family="Ubuntu" fill="none" stroke-opacity="1" font-size="45.8333" stroke-width="1" font-style="normal" transform="matrix(11.8088,0,0,11.8088,1724.16,2209.17)" stroke="#000000" font-weight="400" stroke-linecap="square" stroke-linejoin="bevel"/>
  <g font-family="Ubuntu" fill="none" stroke-opacity="1" font-size="45.8333" stroke-width="1" font-style="normal" transform="matrix(11.8088,0,0,11.8088,1724.16,2209.17)" stroke="#000000" font-weight="400" stroke-linecap="square" stroke-linejoin="bevel"/>
  <g font-family="Ubuntu" fill="none" stroke-opacity="1" font-size="45.8333" stroke-width="1" font-style="normal" transform="matrix(11.8088,0,0,11.8088,0,0)" stroke="#000000" font-weight="400" stroke-linecap="square" stroke-linejoin="bevel"/>
  <g font-family="Ubuntu" fill="none" stroke-opacity="1" font-size="45.8333" stroke-width="1" font-style="normal" transform="matrix(11.8088,0,0,11.8088,0,0)" stroke="#000000" font-weight="400" stroke-linecap="square" stroke-linejoin="bevel"/>
  <g font-family="Ubuntu" fill="none" stroke-opacity="1" font-size="45.8333" stroke-width="1" font-style="normal" transform="matrix(1,0,0,1,0,0)" stroke="#000000" font-weight="400" stroke-linecap="square" stroke-linejoin="bevel"/>
 </g>
 <metadata>
  <rdf:RDF xmlns:rdf="http://www.w3.org/1999/02/22-rdf-syntax-ns#" xmlns:dc="http://purl.org/dc/elements/1.1/" xmlns:rdfs="http://www.w3.org/2000/01/rdf-schema#">
   <rdf:Description dc:title="" dc:date="2000-01-01T00:00:00" dc:identifier="" dc:description="" dc:format="image/svg+xml">
    <dc:creator>
     <rdf:Bag>
      <rdf:li></rdf:li>
     </rdf:Bag>
    </dc:creator>
    <dc:publisher>
     <rdf:Bag>
      <rdf:li>QGIS 3.24.0-Tisler</rdf:li>
     </rdf:Bag>
    </dc:publisher>
    <dc:subject>
     <rdf:Bag/>
    </dc:subject>
   </rdf:Description>
   <cc:Work rdf:about="">
    <dc:format>image/svg+xml</dc:format>
    <dc:title></dc:title>
    <dc:date>2000-01-01T00:00:00</dc:date>
    <dc:identifier></dc:identifier>
    <dc:description></dc:description>
    <dc:creator>
     <cc:Agent>
      <dc:title></dc:title>
     </cc:Agent>
    </dc:creator>
    <dc:publisher>
     <cc:Agent>
      <dc:title>QGIS 3.24.0-Tisler</dc:title>
     </cc:Agent>
    </dc:publisher>
   </cc:Work>
  </rdf:RDF>
 </metadata>
</svg>
